<svg version="1.1" xmlns="http://www.w3.org/2000/svg" viewBox="0 0 1082.3547393788158 918.7409607012509" width="2164.7094787576316" height="1837.4819214025017">
  <!-- svg-source:excalidraw -->
  
  <defs>
    <style class="style-fonts">
      @font-face {
        font-family: "Virgil";
        src: url("https://excalidraw.com/Virgil.woff2");
      }
      @font-face {
        font-family: "Cascadia";
        src: url("https://excalidraw.com/Cascadia.woff2");
      }
    </style>
  </defs>
  <g stroke-linecap="round" transform="translate(119.10324749918959 51.177432478363244) rotate(0 417.081503389089 397.7095425880504)"><path d="M-0.31 -0.11 C247.08 -3.98, 493.48 -3.78, 834.27 -0.79 M-0.08 0.18 C259.5 -2.72, 519.68 -3.1, 834.31 -0.13 M833.36 -0.43 C836.62 258.52, 836.68 518.07, 834.66 795.5 M834.52 -0.13 C835.81 199.39, 835.73 398.85, 834.33 795.43 M834.9 795.53 C582.4 797.41, 330.06 797.83, 0.57 794.71 M834.21 795.69 C647.88 793.38, 461.18 794.05, -0.3 795.67 M0.58 794.88 C-2.47 519.43, -3.62 244.26, 0.29 0.55 M-0.33 795.59 C2.21 487.28, 2.1 179.79, 0.19 0.38" stroke="#000000" stroke-width="2" fill="none"></path></g><g stroke-linecap="round" transform="translate(721.1669924052217 208.0958801683642) rotate(0 9.739102779315544 9.739102779315573)"><path d="M11.76 0.59 C13.85 1.21, 17.02 3.61, 18.26 5.43 C19.5 7.26, 19.64 9.59, 19.19 11.56 C18.74 13.53, 17.02 16.06, 15.55 17.27 C14.08 18.48, 12.27 18.85, 10.36 18.82 C8.45 18.79, 5.76 18.13, 4.11 17.08 C2.46 16.03, 0.98 14.68, 0.46 12.53 C-0.05 10.37, 0.17 6.13, 1.02 4.16 C1.87 2.19, 3.6 1.29, 5.56 0.71 C7.53 0.13, 11.37 0.54, 12.78 0.68 C14.19 0.82, 14.01 1.48, 14.02 1.54 M11.45 1.02 C13.49 1.2, 15.96 2.71, 17.24 4.35 C18.53 5.99, 19.22 8.85, 19.17 10.86 C19.12 12.86, 18.08 14.82, 16.92 16.41 C15.77 18, 14.07 20.11, 12.22 20.39 C10.37 20.68, 7.63 19.49, 5.82 18.13 C4.02 16.76, 2.09 14.18, 1.38 12.21 C0.67 10.25, 0.74 8.42, 1.57 6.33 C2.41 4.25, 4.86 0.64, 6.39 -0.27 C7.92 -1.18, 9.99 0.72, 10.77 0.87 C11.56 1.02, 10.79 0.56, 11.12 0.63" stroke="#000000" stroke-width="2" fill="none"></path></g><g transform="translate(10 10) rotate(0 49.41996765136719 12.5)"><text x="0" y="0" font-family="Virgil, Segoe UI Emoji" font-size="20px" fill="#000000" text-anchor="start" style="white-space: pre;" direction="ltr" dominant-baseline="text-before-edge">(-180, 90)</text></g><g transform="translate(981.7347900379955 24.783199127875378) rotate(0 45.309974670410156 12.5)"><text x="0" y="0" font-family="Virgil, Segoe UI Emoji" font-size="20px" fill="#000000" text-anchor="start" style="white-space: pre;" direction="ltr" dominant-baseline="text-before-edge">(180, 90)</text></g><g transform="translate(946.3856414047084 882.0164961261462) rotate(0 49.41996765136719 12.5)"><text x="0" y="0" font-family="Virgil, Segoe UI Emoji" font-size="20px" fill="#000000" text-anchor="start" style="white-space: pre;" direction="ltr" dominant-baseline="text-before-edge">(180, -90)</text></g><g transform="translate(64.90324330448425 876.0920860718197) rotate(0 53.52996063232422 12.5)"><text x="0" y="0" font-family="Virgil, Segoe UI Emoji" font-size="20px" fill="#000000" text-anchor="start" style="white-space: pre;" direction="ltr" dominant-baseline="text-before-edge">(-180, -90)</text></g><g stroke-opacity="0.2" fill-opacity="0.2" stroke-linecap="round" transform="translate(543.1463121476752 48.82992926298539) rotate(0 205.31546441048545 399.2374433877144)"><path d="M-1.42 -1.18 L409.67 -0.64 L410.35 798.65 L1.27 798.46" stroke="none" stroke-width="0" fill="#228be6"></path><path d="M-0.09 0.9 C127.38 1.22, 256.42 1.91, 409.95 0 M-0.43 0.38 C122.65 -0.08, 243.86 -0.69, 410.85 -0.41 M409.98 0.76 C412.34 196.58, 411.5 392.95, 410.87 798.99 M410.97 0.15 C407.74 235.81, 407.64 471.1, 410.66 798.41 M410.39 798.74 C295.24 797.37, 182.6 797.06, -0.68 798.31 M411 798.43 C286.24 798.83, 163.1 799.13, 0.25 798.55 M-0.61 797.68 C-2.03 555.59, -2 313.33, 0.04 0.63 M0.04 798.14 C2.14 584.41, 1.91 370.11, 0.22 -0.08" stroke="#000000" stroke-width="2" fill="none"></path></g><g transform="translate(307.54776883501904 873.7409607012509) rotate(0 164.48593139648438 17.5)"><text x="0" y="0" font-family="Virgil, Segoe UI Emoji" font-size="28px" fill="#000000" text-anchor="start" style="white-space: pre;" direction="ltr" dominant-baseline="text-before-edge">Geohash: 1 1 0 1 1 0 1 0</text></g><g stroke-opacity="0.1" fill-opacity="0.1" stroke-linecap="round" transform="translate(118.20269669673871 440.8275513118944) rotate(0 418.66505620463477 203.54724808769535)"><path d="M1.27 -0.92 L836.8 1.51 L839.1 408.89 L-0.31 406.36" stroke="none" stroke-width="0" fill="#228be6"></path><path d="M0.7 -0.59 C329.26 -0.59, 657.14 -0.16, 836.88 -0.42 M-0.15 0.05 C328.27 -0.09, 657.36 0.12, 837.13 -0.3 M836.84 -0.36 C835.12 143.56, 836.86 285.49, 837.9 406.24 M837.65 0.36 C837.16 145.45, 837.83 290.91, 837.8 407.17 M837.62 407.77 C614.6 404.5, 392.09 404.68, 0.41 406.9 M837.71 407.42 C573.65 410.17, 309.84 409.95, 0.29 407.34 M0.72 407.42 C-1.85 294.4, -1.7 183.76, 0.64 -0.87 M-0.4 406.88 C-0.2 244.74, -0.65 83.56, 0.03 0.3" stroke="#000000" stroke-width="2" fill="none"></path></g><g stroke-linecap="round"><g stroke-opacity="0.4" fill-opacity="0.4" transform="translate(746.3368814063099 51.3696848968641) rotate(0 0.010633289826387227 194.25815074175614)"><path d="M-0.75 -0.29 C-1.82 86.19, -1.65 173.97, 1.37 388.8 M-0.58 0.55 C0.73 126.8, 0.96 253.95, -0.01 388.8" stroke="#000000" stroke-width="2" fill="none"></path></g></g><mask></mask><g stroke-linecap="round"><g transform="translate(544.8310504466424 246.67790499696707) rotate(0 204.42647506220817 0.8641933495711669)"><path d="M-0.52 0.5 C144.86 3.27, 289.88 2.77, 409.15 0.22 M-0.18 0.02 C132.78 -0.58, 265.42 -1.27, 409.37 0.43" stroke="#000000" stroke-width="2" fill="none"></path></g></g><mask></mask><g stroke-linecap="round"><g transform="translate(646.289734673341 50.47925264275523) rotate(0 -0.5478375472256403 99.77385313055183)"><path d="M1.38 -0.65 C-0.88 58.95, -3.28 117.13, -2.22 200.2 M-0.35 -0.32 C0.48 40.27, 0.7 82.4, -0.25 199.37" stroke="#000000" stroke-width="2" fill="none"></path></g></g><mask></mask><g stroke-linecap="round"><g transform="translate(646.7551878970796 150.58711066577712) rotate(0 49.02199720504882 0.04015428386628628)"><path d="M-1.79 1.74 C35.95 0.68, 76.53 -0.08, 99.42 -1.66 M0.04 0.13 C39.81 -1.11, 78.52 -0.05, 99.83 -0.01" stroke="#000000" stroke-width="2" fill="none"></path></g></g><mask></mask><g stroke-linecap="round"><g transform="translate(691.9952175348146 151.36623888812238) rotate(0 -0.3654282202842296 48.11063842304347)"><path d="M0.13 0.3 C-1.59 24.91, -2.58 49.96, -0.39 96.24 M0.92 -0.64 C0.06 27.57, 0.68 54.86, -0.3 96.86" stroke="#000000" stroke-width="2" fill="none"></path></g></g><mask></mask><g stroke-linecap="round"><g transform="translate(695.0156042149451 196.85923223441097) rotate(0 24.427025455347007 -0.25376639328897)"><path d="M-1.86 -0.89 C16.24 0.73, 28.92 -0.6, 49.82 0.39 M-0.33 -0.65 C12.48 0.14, 25.99 -1.12, 50.71 0.22" stroke="#000000" stroke-width="2" fill="none"></path></g></g><mask></mask></svg>