<svg version="1.1" xmlns="http://www.w3.org/2000/svg" viewBox="0 0 1082.3547393788158 937.9514640328848" width="2164.7094787576316" height="1875.9029280657696">
  <!-- svg-source:excalidraw -->
  
  <defs>
    <style class="style-fonts">
      @font-face {
        font-family: "Virgil";
        src: url("https://excalidraw.com/Virgil.woff2");
      }
      @font-face {
        font-family: "Cascadia";
        src: url("https://excalidraw.com/Cascadia.woff2");
      }
    </style>
  </defs>
  <g stroke-linecap="round" transform="translate(119.10324749918959 72.11240038510186) rotate(0 417.081503389089 397.7095425880504)"><path d="M-0.31 -0.11 C247.08 -3.98, 493.48 -3.78, 834.27 -0.79 M-0.08 0.18 C259.5 -2.72, 519.68 -3.1, 834.31 -0.13 M833.36 -0.43 C836.62 258.52, 836.68 518.07, 834.66 795.5 M834.52 -0.13 C835.81 199.39, 835.73 398.85, 834.33 795.43 M834.9 795.53 C582.4 797.41, 330.06 797.83, 0.57 794.71 M834.21 795.69 C647.88 793.38, 461.18 794.05, -0.3 795.67 M0.58 794.88 C-2.47 519.43, -3.62 244.26, 0.29 0.55 M-0.33 795.59 C2.21 487.28, 2.1 179.79, 0.19 0.38" stroke="#000000" stroke-width="2" fill="none"></path></g><g stroke-linecap="round" transform="translate(702.8454166931795 213.0162606978571) rotate(0 9.739102779315544 9.739102779315573)"><path d="M11.76 0.59 C13.85 1.21, 17.02 3.61, 18.26 5.43 C19.5 7.26, 19.64 9.59, 19.19 11.56 C18.74 13.53, 17.02 16.06, 15.55 17.27 C14.08 18.48, 12.27 18.85, 10.36 18.82 C8.45 18.79, 5.76 18.13, 4.11 17.08 C2.46 16.03, 0.98 14.68, 0.46 12.53 C-0.05 10.37, 0.17 6.13, 1.02 4.16 C1.87 2.19, 3.6 1.29, 5.56 0.71 C7.53 0.13, 11.37 0.54, 12.78 0.68 C14.19 0.82, 14.01 1.48, 14.02 1.54 M11.45 1.02 C13.49 1.2, 15.96 2.71, 17.24 4.35 C18.53 5.99, 19.22 8.85, 19.17 10.86 C19.12 12.86, 18.08 14.82, 16.92 16.41 C15.77 18, 14.07 20.11, 12.22 20.39 C10.37 20.68, 7.63 19.49, 5.82 18.13 C4.02 16.76, 2.09 14.18, 1.38 12.21 C0.67 10.25, 0.74 8.42, 1.57 6.33 C2.41 4.25, 4.86 0.64, 6.39 -0.27 C7.92 -1.18, 9.99 0.72, 10.77 0.87 C11.56 1.02, 10.79 0.56, 11.12 0.63" stroke="#000000" stroke-width="2" fill="none"></path></g><g transform="translate(10 30.93496790673862) rotate(0 49.41996765136719 12.5)"><text x="0" y="0" font-family="Virgil, Segoe UI Emoji" font-size="20px" fill="#000000" text-anchor="start" style="white-space: pre;" direction="ltr" dominant-baseline="text-before-edge">(-180, 90)</text></g><g transform="translate(981.7347900379955 45.718167034614) rotate(0 45.309974670410156 12.5)"><text x="0" y="0" font-family="Virgil, Segoe UI Emoji" font-size="20px" fill="#000000" text-anchor="start" style="white-space: pre;" direction="ltr" dominant-baseline="text-before-edge">(180, 90)</text></g><g transform="translate(946.3856414047084 902.9514640328848) rotate(0 49.41996765136719 12.5)"><text x="0" y="0" font-family="Virgil, Segoe UI Emoji" font-size="20px" fill="#000000" text-anchor="start" style="white-space: pre;" direction="ltr" dominant-baseline="text-before-edge">(180, -90)</text></g><g transform="translate(64.90324330448425 897.0270539785583) rotate(0 53.52996063232422 12.5)"><text x="0" y="0" font-family="Virgil, Segoe UI Emoji" font-size="20px" fill="#000000" text-anchor="start" style="white-space: pre;" direction="ltr" dominant-baseline="text-before-edge">(-180, -90)</text></g><g transform="translate(261.14574452006264 890.0488842417118) rotate(0 78.4279556274414 17.5)"><text x="0" y="0" font-family="Virgil, Segoe UI Emoji" font-size="28px" fill="#000000" text-anchor="start" style="white-space: pre;" direction="ltr" dominant-baseline="text-before-edge">Longitude: 1</text></g><g transform="translate(670.6916584760181 10) rotate(0 55.97197723388672 17.5)"><text x="0" y="0" font-family="Virgil, Segoe UI Emoji" font-size="28px" fill="#000000" text-anchor="start" style="white-space: pre;" direction="ltr" dominant-baseline="text-before-edge">[0, 180)</text></g><g stroke-linecap="round"><g transform="translate(536.087468204357 70.44893484846614) rotate(0 0.3502164128797176 397.7119505067797)"><path d="M-1.07 -0.87 C-0.79 287.06, 1.29 576.27, 1.12 796.29 M-0.07 -0.58 C2.34 221.69, 1.91 443.45, 1.27 794.81" stroke="#000000" stroke-width="2" fill="none"></path></g></g><mask></mask><g transform="translate(258.23134659838274 11.314107279314385) rotate(0 68.7259750366211 17.5)"><text x="0" y="0" font-family="Virgil, Segoe UI Emoji" font-size="28px" fill="#000000" text-anchor="start" style="white-space: pre;" direction="ltr" dominant-baseline="text-before-edge">[-180, 0) </text></g><g stroke-opacity="0.2" fill-opacity="0.2" stroke-linecap="round" transform="translate(535.7824849431947 70.5307015236234) rotate(0 208.32980734732223 399.1907485949573)"><path d="M0 0 C0 0, 0 0, 0 0 M0 0 C0 0, 0 0, 0 0 M-0.75 6.18 C1.97 5.07, 2.47 3.55, 6.56 1.74 M0.44 6.24 C0.61 5.55, 2.13 4.27, 5.41 0.3 M2.34 14.63 C5.26 9.62, 6.41 3.64, 11 2.96 M1.28 12.25 C2.57 8.6, 6.75 2.82, 9.8 0.62 M2.69 20.71 C2.79 12.48, 3.59 7.98, 18.55 0.67 M-1.79 17.67 C4.51 11.22, 9.18 4.54, 16.09 0.62 M-0.94 25.16 C3.8 20.55, 14.92 10.15, 23.32 -1.95 M-0.25 24.35 C7.37 13.6, 17.43 6.71, 19.49 1.26 M-1.78 26.72 C11.4 15.39, 21.74 11.91, 29.34 1.41 M-0.14 30.25 C4.43 23.98, 11.03 13.95, 24.64 -0.63 M-4.17 39.41 C9.5 24.45, 24.87 8.98, 33.54 2.59 M1.21 37.67 C5.57 28.96, 13.92 18.5, 33.58 0.67 M-1.05 45.53 C15.91 25.14, 24.86 15.45, 40.5 3.85 M-1.45 43.49 C7.34 33.52, 14.79 21.86, 35.39 -0.09 M-4.06 48.08 C11.48 36.68, 23.79 26.29, 43.55 2 M-0.17 47.33 C14.9 33.11, 27.95 16.21, 44.49 -1.24 M0.92 55.58 C17.61 42.18, 31.75 25.75, 47.41 -3.44 M-0.19 54.25 C15.18 37.34, 28.93 22.43, 46.44 1.78 M-3.61 58.27 C23.08 36.89, 41.22 15.08, 49.31 -2.18 M1.93 62.72 C12.73 45.62, 26.48 27.81, 52.27 -1.65 M1.71 68.89 C15.89 46.73, 31.21 25.59, 61.63 2.99 M-0.1 67.25 C19.97 41.58, 44.1 15.44, 56.29 -1.39 M2.99 71.14 C14.65 55.51, 28.93 36.7, 61 -3.66 M-1.12 74.61 C20.61 44.92, 44.46 19.36, 62.38 -0.63 M-0.97 76.01 C19.96 56.72, 37.93 36.86, 66.93 -2.66 M-1.53 78.03 C19.41 56.57, 38.82 35.91, 69.85 0.11 M1.75 86.67 C24.43 56.55, 57.57 26.51, 74.96 -3.28 M0.47 85.85 C26.52 55.91, 50.45 25.6, 75.69 0.84 M-1.17 94.59 C31.88 58.01, 58.86 30.78, 79.25 -3.34 M0.6 91.49 C22.62 64.87, 44.03 37.67, 80.44 2.1 M2.19 100.41 C23.08 67.41, 51.85 39.24, 85.73 2.89 M0.24 98.12 C26.48 70.12, 48.97 40.84, 86.47 -1.13 M-2.1 106.31 C19.43 80.97, 41.2 55.04, 86.72 0.81 M1.44 104.86 C22.58 72.65, 49.6 47.24, 91.79 0.5 M-3.97 112.44 C36.9 68.83, 71.81 26.07, 98.04 3.61 M0.09 110.96 C37.75 70.92, 69.69 33.37, 96.39 0.66 M3.21 117.7 C31.17 88.22, 55.82 54.18, 101.66 -3.56 M-0.47 114.48 C30.82 82.3, 62.12 46.31, 100.02 1.3 M-2.83 119.95 C35.48 73.32, 72.55 33.66, 106.8 0.46 M0.38 120.24 C38.17 78.43, 76.43 31.72, 104.53 -1.47 M3.27 124.82 C41.55 77.37, 82.35 28.9, 108.57 1.04 M-1.82 126.52 C34.47 94.12, 64.07 57.6, 111.66 -1.39 M0.37 134.15 C30.88 92.93, 66.3 50.53, 116.45 -3.42 M0.52 133.2 C22.43 104.52, 47.97 77.53, 116.73 0.61 M-1.26 138.3 C36.46 94.91, 77.96 52.12, 124.15 2.9 M-1.93 140 C34.28 103.04, 70.93 59.45, 121.67 0.61 M0.57 145.08 C45.73 95.45, 84.88 48.38, 123.59 -2.36 M0.32 147.14 C48.89 93.21, 94.73 37.7, 126.19 1.89 M2.26 151.9 C46.64 100.41, 92.58 43.82, 129.63 -2.6 M-0.62 153.19 C30.48 119.02, 57.52 89.27, 131.51 -0.37 M-3.34 158.41 C47.56 96.77, 101.15 32.87, 140.64 -3.13 M1.16 160.06 C42.93 113.3, 83.43 66.19, 135.79 -1.11 M-1.45 166.85 C43.66 111.16, 94.55 58.03, 144.81 -2.1 M1.82 163.25 C47.9 107.01, 97.29 49.3, 142.64 -1.81 M-3.41 171.96 C32.11 130.76, 67.69 92.2, 148.44 -1.9 M-0.41 170.51 C48.3 111.3, 101.28 53.26, 149.36 -0.21 M0.07 175.2 C54.82 121.49, 99.74 64.49, 156.24 0.9 M-0.01 175.38 C59.36 107.78, 117.56 39.33, 155.12 -1.62 M2.32 185.18 C62.8 112.13, 123.32 34.63, 159.59 -0.61 M-0.58 182.3 C41.75 128.63, 87.24 80.69, 160.02 0.63 M-0.75 190.88 C42.94 135.42, 92.06 87.97, 165.43 -0.75 M0.97 190.88 C42.79 143.23, 85.19 94.13, 166 0.51 M-3.03 192.72 C61.17 130.82, 118.99 66.53, 170.59 2.71 M1.67 193.46 C67.15 120.9, 133.07 45.45, 169.28 -1.14 M2.52 202.44 C34.22 161.86, 68.53 120.97, 177.04 -1.59 M1.32 200.07 C40.91 151.69, 82.81 105.14, 174.63 -1.4 M0.17 207.64 C36.41 158.26, 79.63 114.43, 180.09 -2.07 M-0.23 205.43 C55.9 139.01, 112.22 75.23, 181.1 0.94 M-2.96 214.78 C40.95 172.4, 76.57 130, 183.08 -0.8 M-1.18 214.24 C52.96 152.89, 104.08 92.35, 186.85 1.24 M-1.54 220.16 C58.43 146.95, 125.26 73.12, 191.54 -2.05 M-0.32 218.8 C50.9 159.24, 104.94 99.65, 190.96 1.25 M0.37 223.27 C42.19 172.33, 87.47 123.15, 197.36 1.43 M-0.92 225.65 C57.76 163.61, 112.59 102.71, 197.73 -1.7 M2.45 230.32 C54.96 169.08, 107.9 108.8, 203.73 2.89 M-1.41 231.97 C43.07 182.17, 88.62 131.5, 200.34 0.09 M0.86 235.86 C67.77 161.54, 135.09 88.78, 209.24 1.24 M0.83 238.31 C79.94 147.79, 156.23 57.43, 206.12 -0.47 M-2.66 242.23 C83.39 152.13, 162.08 61.63, 214.33 -0.51 M0.94 244.28 C59.14 174.71, 117.15 109.06, 211.47 1.26 M-2.49 252.5 C80.96 162.09, 152.73 77.77, 217.86 -0.01 M0.53 249.02 C59.76 181.18, 119.39 111.69, 218.17 -0.26 M0.6 257.93 C67.23 183.53, 130.36 106.66, 222.84 -1.63 M-0.68 254.6 C62.42 183.31, 125.88 108.49, 223.2 -0.64 M-1.98 260.99 C73.79 177.63, 146.99 91.27, 227.89 0.7 M-0.72 262.76 C76.83 168.96, 155.23 79.64, 228.88 -1.53 M1.54 265.53 C88.01 165.63, 178.48 60.27, 232.81 1.42 M0.51 268.46 C71.06 184.43, 142.5 103.07, 232.85 0.8 M1.02 276.16 C61.37 200.04, 126.14 127.52, 240.25 0.89 M-0.37 273.9 C66.39 193.74, 133.79 115.96, 237.37 1.17 M-2.07 279.66 C77.33 184.22, 162.76 89.44, 243.69 0.82 M-1.21 281.48 C74.23 198.43, 144.14 116.14, 242.75 0.59 M2.33 286.32 C75.02 199.59, 148.12 115.34, 248.04 -1.98 M-0.85 286.16 C71.09 208.86, 138.68 129.83, 249.87 -0.47 M-0.68 293.28 C97.49 181.24, 191.95 72.14, 253.91 -2.4 M0.85 293.77 C98.48 176.63, 199.18 61.37, 253.33 -0.13 M2.02 298.24 C96.43 189.43, 191.16 78.23, 259.95 0.56 M1.18 298.68 C56.39 226.48, 115.8 157.96, 259.65 0.15 M0.8 306.3 C53.36 239.8, 108.08 175.92, 263.42 2.05 M0.64 305.27 C73.59 222.43, 147.26 137.61, 264.59 -0.88 M0.73 310 C100.4 197.15, 204.04 79.17, 270.69 -1.17 M-1.27 310.97 C85.97 205.58, 176.91 101.53, 270.72 0.29 M-1.1 315.29 C85.38 215.33, 170.09 118.95, 275.46 -0.45 M0.33 316.42 C54.29 252.83, 111.98 187.49, 275.15 -0.7 M-0.08 324.55 C111.08 198.79, 224.02 68.67, 282.25 0.96 M-0.91 323.19 C91.64 224.2, 179.07 123.96, 281.35 -0.21 M1.09 329.05 C60.24 258.67, 123.23 187.7, 285.68 -1.11 M0.9 329.66 C106.05 209.66, 208.71 90.86, 285.61 0.73 M0.12 334.78 C80.28 244.9, 154.45 154.45, 292.36 -0.88 M0.24 335.03 C101.51 218.47, 207.4 98.66, 292.31 -0.41 M1.26 341.41 C73.22 255.81, 147.83 170.36, 297.35 -2.01 M-1.15 341.04 C92.63 233.24, 185.55 127.56, 297.14 0.34 M1.44 347.86 C68.26 273.7, 130.09 198.4, 301.2 1.45 M-0.15 347.99 C62.3 272.48, 125.99 199.67, 301.61 0.47 M-1.72 352.04 C124.33 212.34, 245.68 71.3, 306.85 -0.84 M-0.26 354.39 C106.32 235.66, 210.67 115.73, 306.75 -1.11 M1.36 359.27 C124.26 218.46, 248.38 77.22, 312.54 1.49 M1.1 359.33 C84.54 265.41, 167.88 169.84, 313.16 0.44 M-0.07 367.26 C65.03 290.12, 133.35 215.12, 317.36 -0.58 M-0.36 365.35 C108.35 240.98, 213.52 120.01, 317.84 -0.8 M-0.17 371.52 C125.77 228.34, 249.73 82.65, 324.41 0.33 M-0.22 371.46 C90.76 271.77, 178.55 169.91, 322.72 -0.36 M1.64 378.06 C104.02 261.53, 208.19 142.51, 329.06 -0.03 M0.11 377.94 C96.39 271.52, 188.62 163.02, 329.6 -0.11 M-0.5 384.81 C101.42 270.08, 201.96 152.38, 335.38 -0.05 M0.45 383.77 C77.72 291.43, 156.54 199.51, 333.36 0.57 M-0.15 390.61 C106.77 267.83, 212.7 147.43, 338.31 0.61 M1.08 390.11 C130.37 237.89, 261.21 88.21, 338.86 0.3 M0.15 397.13 C84.15 298.85, 166.5 200.78, 345.81 1.59 M-0.46 396.76 C114.04 269.76, 227.22 140.52, 343.99 -0.76 M-1.74 401.22 C92.44 295.11, 181.22 191.41, 348.17 -0.99 M-0.34 402.35 C118 265.76, 235.93 129.66, 349.56 0.21 M-0.04 409.29 C94.81 304.71, 186.38 196.94, 355.99 1.32 M0.38 408.28 C120.58 264.52, 243.93 122.68, 355.36 0.55 M-0.59 414.75 C70.29 328.46, 144.06 243.3, 359.74 -1.12 M-0.14 415.29 C87.39 313.48, 175.3 212.64, 360.16 0.72 M-1.05 421.59 C76.83 334.13, 151.22 245.5, 364.73 1.11 M-0.21 420.55 C99.23 303.94, 200.74 188.68, 365.98 -0.16 M-0.85 428.25 C95.69 321.59, 186.82 214.43, 369.79 0.15 M-0.11 427.08 C119.05 286.73, 238.7 149.17, 370.08 0.06 M-0.04 432.36 C101.26 318.05, 202.82 200.22, 377.3 0.89 M-0.47 433.19 C123.96 290.54, 247.79 149.38, 376.15 -0.3 M0.46 439.12 C104.3 319.53, 205.96 202.18, 381.45 0.68 M0.38 439.15 C146.58 276.09, 289.87 109.47, 381.58 0.9 M-0.05 444.14 C94.36 335.57, 187.32 231.64, 387.86 0.1 M-0.05 445.27 C108.63 316.13, 222.04 187.2, 387.09 -0.47 M0.93 451.46 C84.44 355.5, 167.53 258.99, 392.29 -1.32 M-0.94 452.12 C128.92 302.32, 258.93 152.62, 391.89 0.79 M0.62 455.83 C93.88 348.25, 191.49 236.05, 397.03 -0.7 M0.23 456.39 C158.52 277.46, 316.36 96.07, 397 -0.42 M0.2 465.04 C81.05 369.02, 164.11 270.21, 402.39 0.68 M0.59 463.57 C123.68 317.2, 247.75 174.37, 401.99 0.9 M-0.27 468.27 C93.2 369.82, 180.71 268.5, 407.12 -1.41 M0.09 469.77 C95.09 360.4, 189.07 251.08, 408.26 0.15 M0.83 474.99 C97.97 364.33, 193.41 253.25, 412.69 0.73 M0.64 475 C140.78 314.2, 281.42 154.17, 412.63 0.43 M-1.54 483.35 C99.45 375.92, 192.23 267.81, 416 0.69 M-0.03 482.62 C101.25 364.91, 201.45 251.93, 417.28 0.67 M-0.32 486.44 C100.65 368.37, 204.14 248.31, 417.5 8.01 M0.48 487.99 C105.77 366.86, 208.99 246.21, 417.6 7.41 M-0.76 493.05 C146.64 323.18, 292.52 153.45, 416.63 12.19 M-0.35 493.53 C93.31 390.38, 182.93 286.12, 418.06 12.97 M1.71 500.82 C115.06 365.05, 229.9 230.06, 419.21 20.5 M0.74 499.36 C158.87 313.33, 319.97 129.22, 417.7 19.64 M0.2 504.73 C167.64 317.96, 331.27 130.5, 419.14 24.4 M-0.11 506.17 C94.52 401.35, 184.9 295.89, 417.06 25.26 M-1.5 511.86 C137.59 351.41, 277 192.06, 418.94 31.91 M-0.02 512.3 C115.58 379.22, 233.47 244.02, 416.88 32.29 M-0.58 517.31 C158.8 341.18, 315.55 158.34, 416.53 38.71 M-0.53 517.53 C107.9 398.48, 212.14 279.59, 417.28 38.01 M1.25 523.33 C113.59 387.35, 230.28 253.51, 419.23 42.48 M-0.33 524.59 C161.97 333.48, 324.95 145.16, 417.86 43.21 M-0.97 530.05 C100.03 412.75, 200.34 298.47, 417.88 48.04 M0.14 530.61 C154.71 350.77, 311.72 170.03, 418.7 49.27 M0.09 536 C148.3 369.87, 296.43 201.5, 416.74 56.65 M-0.52 537.13 C151.62 364.07, 304.59 189.03, 417.14 56.16 M-0.22 541.68 C146.8 373.15, 292.59 204.46, 417.28 61.58 M0.35 543.21 C91.27 443.07, 179.27 341.54, 416.81 62.72 M0.27 549.43 C112.56 421.46, 220.74 296.05, 419.27 68.81 M0.7 548.46 C145.32 380.91, 293.88 210.09, 418.04 67.36 M-1.11 555.4 C158.58 368.24, 320.03 183.67, 417.27 74.58 M0.27 555.3 C89.97 446.76, 184.85 338.1, 417.21 74.21 M0.72 561.07 C125.83 419.59, 249.11 277.16, 417.88 78.5 M-0.02 561.2 C135.93 400.6, 272.38 243.78, 418.05 79.89 M0.46 565.78 C104.11 448.48, 209.32 325.28, 416.89 87.3 M0.3 566.36 C105.71 451.52, 209.4 332.62, 418.11 86.67 M-1.81 571.87 C85.93 478.9, 169.2 379.07, 416.64 92.73 M-0.91 573.94 C144.47 408.69, 287.96 242.98, 416.95 92.41 M0.53 579.79 C153.1 401.27, 309.52 223.73, 419.14 97.14 M-0.37 579.54 C149.75 412.08, 297.8 241.02, 418.55 98.34 M1.06 584.84 C122.73 440.57, 246.28 297.17, 417.7 105.36 M0.3 585.44 C118.34 452.09, 236.02 319.45, 417.05 104.95 M0.82 590.3 C164.08 403.78, 330.29 214.82, 419.06 110.66 M-0.4 590.45 C164.79 404.98, 325.08 219.35, 418.51 110.66 M1.43 598.37 C158.51 410.33, 317.44 226.07, 418.88 116.05 M0.11 596.77 C130.7 451.78, 258.27 304.86, 418.49 116.25 M0.06 604.07 C119.38 470.71, 233.35 336.33, 417.51 123.46 M-0.9 604.66 C92.84 493.01, 188.04 382.46, 417.49 123.52 M-1.46 608.02 C87.83 504.03, 174.1 403.15, 417.95 128.83 M0.61 609.08 C82.42 514.47, 166.55 416.76, 417.79 129.54 M1.42 614.72 C85.01 517.39, 172.97 416.72, 419.03 134.84 M-0.5 616.34 C137.62 458.96, 274.97 302.07, 417.91 134.52 M-0.32 621.7 C90.26 513.31, 183.16 408.93, 416.75 141.66 M0.07 621.97 C110.1 496.08, 217.28 373.2, 417.64 141.26 M0.6 628.05 C121.4 487.01, 242.92 349.83, 416.62 147.46 M0.01 627.95 C161.68 444.32, 321.15 259.37, 417.2 147.6 M-1.23 633.16 C87.37 535.99, 175.2 435.22, 418.94 155.17 M-0.54 635.01 C146.23 461.15, 295.63 291.34, 417.45 153.88 M-0.39 641.45 C103.31 516.25, 209.45 395.14, 418.44 159.57 M-0.57 640.04 C105.4 519.61, 210.33 398.59, 417.59 159.58 M-0.22 646.25 C105.15 526.11, 208.56 405.74, 418.22 164.84 M-0.52 647.16 C122.42 507.98, 245.63 366.71, 418.35 165.61 M1.33 652.61 C141.74 492.61, 283.68 331.19, 416.72 170.52 M-0.48 652.79 C100.98 538.42, 201.26 424.02, 418.28 171.31 M-1.62 658.58 C163.6 473.54, 327.22 283.85, 418.4 176.77 M0.62 658.87 C111.43 528.91, 225.97 399.52, 418.47 177.37 M0.88 665.13 C89.92 565.09, 177.51 466.31, 417.5 183.17 M0.38 664.37 C84.56 566.35, 171.78 466.47, 417.19 184.43 M-1.02 669.74 C143.39 507.34, 286.05 342.67, 418.42 190.21 M0.21 669.89 C165.51 483.06, 328.23 294.98, 417.95 190.58 M-0.59 677.45 C106.87 551.06, 213.64 430.12, 419.28 196.02 M0.6 676.73 C119.48 544.3, 236.15 410.01, 417.55 195.96 M-0.36 683.65 C157.87 495.29, 321.27 309.4, 419.69 203.14 M0.51 682.39 C151.79 511.01, 301.24 338.23, 417.5 202.28 M-1.42 688.99 C117.52 551.26, 236.04 413.48, 417.05 209.37 M0.59 689.73 C133.85 535.7, 268.86 381.14, 418.39 208.42 M-0.52 694.91 C115.98 558.89, 234.63 425.25, 417.46 214.61 M-0.68 696.13 C164.76 509.93, 325.29 323.93, 416.93 214.71 M1.57 701.97 C92.83 591.64, 185.8 483.43, 419.34 220.69 M-0.44 700.49 C110.23 571.82, 222.94 441.96, 417.98 219.6 M-0.38 706.56 C144.66 542.43, 291.34 376, 417.79 226.54 M-0.26 707.86 C125.01 562.57, 247.61 421.23, 417 226.67 M1.26 714.1 C87.27 611.07, 180.2 506.99, 416.49 234.11 M0.5 712.98 C168.59 526.18, 333.16 334.98, 418.06 232.91 M0.92 720.27 C158.74 532.06, 317.57 349.58, 419.27 240.25 M0.68 719.83 C87.9 622.83, 173.92 524.26, 417.84 238.89 M0.33 727.41 C138.75 567.46, 278.49 407.03, 416.9 246.25 M-0.89 725.17 C105.51 608.29, 208.1 489.77, 417.72 245.5 M-1.45 731.64 C148.8 560.75, 296.82 391.63, 417.22 251.81 M0.27 731.15 C100.79 612.61, 201.86 496.6, 417.6 250.15 M-0.49 737.15 C106.42 608.75, 218.39 482.43, 419.06 258.71 M-0.01 737.99 C124.97 587.3, 252.74 440.44, 418.25 256.85 M-1.03 742.21 C118.34 602.95, 236.29 464.5, 416.77 264.78 M0.8 744.2 C102.94 629.79, 203.42 513.89, 416.76 262.85 M-1.58 750.79 C87.44 648.12, 175.25 548.84, 419.01 270.24 M0.77 749.48 C137.01 596.6, 272.07 439.62, 418.55 269.71 M-1.56 755.41 C170.37 566.9, 337.83 374.4, 417.9 275.97 M-0.73 756.53 C96.31 644.93, 194.3 533.74, 418.3 275.94 M-0.16 760.96 C87.65 666.85, 171.47 569.45, 417.63 282.34 M0.27 762.16 C81.48 663.87, 166.5 566.96, 418.49 280.47 M0.08 768.71 C148.02 592.84, 299.32 421.04, 416.29 288.01 M0.39 768.27 C149.21 595.59, 298.89 422.33, 418.22 287.08 M1 773.41 C159.92 589.1, 324.09 401.5, 418.46 295.18 M0.3 773.39 C120.61 633.22, 245.02 490.96, 417.42 293.5 M-1.28 779.79 C89.03 674.07, 179.16 571.15, 417.16 298.25 M0.7 781.05 C158.88 598.87, 315.18 419.89, 418.52 300.03 M0.97 786.96 C145.21 622.85, 288.24 459.62, 419.06 306.19 M-0.65 786.51 C131.67 636.26, 264 483.8, 417.67 306.17 M1.1 791.49 C119.98 654.59, 238.14 514.8, 417 310.82 M-0.07 792.58 C133.79 641.72, 266.35 490.6, 417.78 311.75 M-1.56 798.53 C147.12 626.21, 294.75 459.99, 418.3 319.39 M-0.74 799.06 C93.32 689.54, 187.63 581.86, 418.11 317.33 M6.51 798.54 C113.81 676.63, 219.59 556.74, 417.31 326.09 M4.83 798.58 C105.14 680.65, 206.43 564.83, 417.67 325.24 M9.53 800.3 C137.84 651.61, 266.83 500.76, 417.39 331.18 M10.95 799.17 C149.08 641.43, 288.37 480.08, 417.68 329.91 M17.04 798.02 C133.32 668.43, 245.82 536.82, 416.06 336.1 M16.26 797.64 C144.82 649.19, 273.97 501.03, 418.4 336.04 M21.28 798.62 C133.72 672.82, 246.17 540.91, 417.59 342.26 M21.57 798.04 C115.12 686.77, 211.72 574.58, 418.63 342.9 M26.42 797.39 C144.39 669.46, 261.42 536.35, 418.09 349.89 M26.81 798.42 C147.75 659.95, 267.52 520.86, 417.18 348.79 M30.49 799.26 C141.24 667.34, 255.38 539.04, 418.02 353.64 M32.53 798.41 C130.19 684.77, 231.35 569.42, 417.16 354.46 M38.51 797.6 C144.1 672.05, 255.45 546.32, 417 360.07 M36.86 798.78 C138.92 675.55, 244.42 554.9, 418.01 360.63 M41.27 798.73 C159.01 664.67, 275.3 531.67, 416.6 368.37 M41.8 799.46 C182.72 639.85, 322.24 479.01, 417.98 367.74 M47.64 797.51 C138.11 699.99, 225.06 597.73, 418.45 373.95 M48.56 799.03 C156.63 670.21, 265.81 543.83, 417.49 372.33 M53.77 798.65 C176.27 656.12, 299.11 513.36, 417.38 378.5 M52.71 799.2 C170.37 666.12, 288.56 532.04, 418.39 378.58 M59.41 798.7 C190.34 645.95, 324.74 492.57, 418.73 383.96 M58.64 797.9 C185.75 656.57, 310.99 513.62, 417.71 385.05 M62.64 797.77 C162.79 680.06, 264.04 566.36, 418.75 392.44 M63.55 798.51 C168.21 679.71, 274.15 558.35, 418.14 390.9 M69.88 797.5 C178.34 675.68, 281.58 552.61, 418.57 398.15 M68.76 798.18 C144.25 713.65, 219.09 627.11, 416.88 398.12 M74.59 799.98 C164.74 691.72, 260.84 584.74, 417.56 402.14 M74.79 798.67 C156.94 697.59, 243.6 598.51, 417.89 403.87 M80.03 799.35 C186.85 678.82, 292.35 556.54, 417.6 407.99 M79.96 797.87 C211.39 651.14, 339.93 502.5, 417.42 409.6 M84.41 799.88 C206.77 660.44, 330.37 522.68, 416.47 417.41 M85.05 799.01 C212.01 651.4, 339.47 505.15, 417.85 416.64 M90.88 798.01 C170.17 703.78, 252.76 612.99, 418.58 422.11 M90.25 797.42 C201.76 670.58, 315.34 542, 418.16 421.99 M95.79 797.15 C167.89 714.69, 238.29 632.09, 418.63 429.39 M95.09 799.34 C176.78 702.75, 257.51 609.62, 417.97 427.74 M101.97 799.67 C174.92 714.48, 250.05 629.79, 418.81 433.44 M101.84 798.99 C193.23 691.9, 288.29 583.62, 417.68 434.29 M106.88 798.37 C184.15 712.39, 262.06 619.65, 418.88 438.67 M105.43 799.03 C187.07 698.83, 271.7 603.77, 417.92 440.46 M112.2 799.25 C216.63 675.68, 323.41 550.2, 417.14 447.37 M111.5 797.97 C187.89 714.26, 261.94 628.18, 417.77 446.54 M118.38 799.11 C192.99 709.56, 267.46 623.19, 417.25 451.77 M117.45 797.75 C236.98 662.2, 357.46 523.96, 417.38 452.42 M120.51 798.97 C231.04 674.28, 338.98 549.78, 419.24 456.97 M122.34 799.66 C204.52 698.84, 290.57 598.3, 416.76 457.85 M128.22 798.15 C232.43 676.31, 336.15 556.35, 417.91 462.46 M126.56 798.66 C207.06 709.61, 284.14 620.29, 418.13 463.67 M131.54 797.55 C190.04 729.32, 251.96 659.99, 416.69 470.91 M132.07 798.04 C231.33 685.83, 331.95 570.97, 417.1 470.31 M137.11 796.54 C231.97 690.25, 326.96 582.34, 419.2 475.61 M138.31 797.87 C208.42 717.55, 276.82 640.36, 416.66 477.17 M141.23 800.42 C223.25 706.56, 299.87 617.18, 418.28 482.24 M142.16 799.85 C206.59 725.31, 272.57 649.69, 418 482.92 M147.17 800.45 C211.43 719.53, 279.28 642.15, 416.79 487.56 M148.2 798.88 C247.42 685.08, 346.92 571.19, 417.67 488.69 M153.69 797.73 C251.74 687.94, 345.82 579.97, 420.18 494.15 M154.6 798.7 C250.72 685.63, 347.93 574.02, 417.03 495.06 M159.93 796.99 C263.82 679.35, 363.36 561.96, 419.55 500.35 M158.46 797.35 C213.69 734.29, 269.34 670.36, 416.71 500.3 M162.2 800.49 C233.8 717.83, 301.78 636.63, 418.37 507.07 M163.75 798.72 C234.35 723.5, 302.42 643.88, 417.34 508.56 M168.81 800.17 C262.49 688.9, 355.16 578.61, 419.67 512.38 M169.03 797.18 C229.88 730.14, 287.68 664.16, 416.76 512.51 M173.62 798.95 C230.37 732.48, 284.65 663.46, 418.91 517.1 M175.46 798.8 C241.48 722.15, 307.52 646.37, 418.26 518.94 M180 799.45 C240.91 728.1, 299.02 664.89, 420.54 526.05 M180.72 798.68 C233.62 736.48, 283.73 677.85, 417.81 525.9 M183.39 796.2 C264.35 708.63, 339.82 617.65, 417.89 532.99 M185.36 797.62 C234.94 741.06, 285.72 682.72, 418.95 530.59 M191.72 798.68 C267.34 705.75, 345.93 614.57, 415.17 536.27 M191.45 798.97 C238.38 747.53, 285.63 693.96, 416.85 538.08 M196.93 797.82 C248.73 740.35, 301.21 680.27, 415.66 545.93 M196.6 797.76 C272.22 712.86, 348.01 628.74, 417.45 543.18 M200.65 800.19 C258.41 735.29, 313.45 670.27, 416.76 550.31 M202.47 798.11 C250.02 745.4, 296.78 691.7, 416.78 549.35 M206.8 798.34 C254.75 744.11, 302.11 683.82, 419.72 557.25 M206.21 799.5 C286.38 709.21, 365.25 616.3, 419.46 555.67 M210.17 795.91 C267.4 730.73, 322.5 669.16, 415.88 564.09 M211.99 798.44 C268.91 726.44, 330.07 655.56, 419.12 561.25 M216.03 799.19 C263.93 744.04, 314.5 688.14, 419.44 567.03 M216.79 798.86 C270.08 734.76, 327.16 667.53, 417.47 568.36 M222.23 798.55 C282.87 725.08, 339.09 658.85, 417.23 571.09 M221.27 798.3 C273.39 737.39, 325.95 678.77, 419.27 574.77 M225.3 801.13 C267.31 750.86, 312.1 700.13, 418.18 579.63 M227.18 797.31 C286.94 729.02, 346.1 659.77, 416.43 581.59 M230.53 796.49 C266.96 754.82, 304.19 713.55, 420.25 584.34 M233.37 798.84 C309.94 712.28, 380.43 628.85, 418.38 586.5 M241.79 800.99 C289.77 735.97, 340.24 678.82, 416.32 593.82 M239.45 798.23 C297.24 732.61, 353.73 666.45, 417.9 592.83 M243.26 801.69 C282.55 757.34, 317.95 714.32, 420.61 599.65 M244.44 798.37 C296.22 739.14, 348.72 678.7, 419.02 599.69 M251.27 800.64 C292.66 745, 339.98 689.81, 416.81 601.53 M248.23 799.1 C296.22 743.4, 339.88 691.52, 417.44 604.04 M252.69 801.41 C302.76 742.7, 353.81 684.81, 415.55 612.08 M253.58 799.94 C294.77 751.87, 338.54 702.97, 416.7 610.87 M257.63 797.92 C313.32 736.91, 365.81 677.09, 414.82 617.54 M261.08 798.75 C314.02 735.52, 365.74 676.84, 417.84 615.06 M262.02 798.72 C314.33 747.55, 354.45 698.4, 416.92 624.26 M264.38 797.77 C311.33 743.01, 359 686.75, 416.34 622.01 M268.95 796.21 C323.1 744.59, 370.48 689.92, 419.85 632.61 M271.46 799.41 C325.01 735.05, 381.94 672.26, 417.65 629.13 M276.76 797.89 C317.89 752.81, 359.06 708.25, 418.13 633.79 M276.86 798.48 C321.53 744.38, 373.5 686.76, 417.66 636.33 M280.37 794.8 C315.32 761.47, 347.8 720.7, 414.72 638.11 M282.93 798.34 C315.49 754.69, 353.22 710.53, 418.55 641.39 M287.12 800.84 C312.42 763.98, 344.69 737.02, 415.46 644.12 M285.15 799.75 C335.59 739.84, 387.15 680.57, 418.88 646.76 M290.01 799.12 C317.73 773.78, 342.03 736.82, 416.31 657.16 M290.69 800.02 C320.12 768.05, 348.72 737.17, 415.92 651.49 M299.08 795.42 C336.75 749.52, 384.86 699.72, 419.18 662.7 M296.88 798.09 C338.62 749.23, 380.22 701.62, 417.74 659.07 M304.27 794.85 C329.97 764.78, 357.84 733.32, 420.8 665.36 M301.35 799.62 C348.53 748.7, 389.8 699.43, 418.64 663.57 M309.42 796.35 C352.65 756.99, 386.56 702.57, 415.77 670.55 M306.7 798.39 C335.14 763.2, 367.3 729.17, 415.89 670 M309.53 797.01 C341.09 759.87, 366.53 731.02, 416.67 676.94 M312.66 796.25 C340.93 767.58, 370.55 735.14, 419.45 676.9 M317.34 796.25 C340.75 766.77, 364.09 741.32, 420.74 684.65 M319.96 797.16 C347.95 768.58, 374.47 736.78, 417.83 684.35 M324.5 799.9 C346.06 774.42, 363.68 754.69, 414.3 688.09 M322.57 799.08 C357.64 762.93, 392.13 721.07, 415.7 688.6 M328.14 800.34 C353.98 774.32, 369.53 745.25, 414.71 696.34 M327.57 799.9 C362.87 757.49, 397.59 717.82, 419.03 694.28 M332.05 796.61 C358.11 776.65, 376.61 756.35, 420.22 701.56 M335.42 797.41 C354.56 772.74, 379.07 748.33, 418.14 700.61 M341.27 798.6 C356.26 771.54, 376.79 745.98, 418.5 707.8 M339.81 799.19 C368.51 765.7, 396.59 732.5, 419.38 706.04 M346.59 799.83 C365.35 777.26, 385.42 756.26, 421.19 711.18 M343.31 799.36 C375.49 767.46, 402.01 734.93, 416.94 714.24 M346.42 801.87 C366.07 777.07, 388.03 755.58, 416.46 720.75 M348.41 796.7 C366.37 781.01, 383.26 760.63, 416.51 722.73 M356.71 802.75 C374.35 779.5, 389.36 757.46, 414.82 726.84 M354.71 798.91 C371.24 782.1, 384.08 761.05, 418.34 725.13 M359.42 797.78 C386.5 770.82, 401.2 750.82, 419.1 729.48 M360.48 797.21 C381.36 776.91, 400.04 750.69, 418.41 731.29 M365.17 795.69 C383.19 779.23, 395.84 763.25, 420.88 739.22 M364.54 798.36 C384.97 780.26, 401.58 759.51, 417.99 738.02 M370.33 794.77 C380.03 784.48, 394.04 775.11, 415.14 745.33 M372.53 798.56 C382.38 786.16, 390.61 773.21, 417.53 745.01 M379.63 798.99 C393.36 781.5, 405.14 764.06, 420.7 748.6 M374.76 799.39 C386.58 785.6, 400.97 768.73, 418.27 749.5 M379.35 802.1 C393.64 789.58, 405.55 773.13, 418.16 757.74 M380.49 797.73 C391.9 786.55, 403.43 771.51, 419.37 758.5 M383.89 795.81 C395.8 791.47, 408.56 774.15, 419.76 765.78 M387.76 797.74 C397.41 785.73, 406.75 775.11, 416.97 762.98 M392.91 801.85 C394.83 787.82, 407.66 784.97, 421.91 770.91 M393.7 796.76 C403.3 787.02, 408.8 779.75, 419.85 770.51 M397.96 800.14 C407.55 790.68, 410.05 779.14, 415.75 772.65 M396.33 797.26 C404.56 788.73, 412.09 781.12, 417.28 775.24 M403.6 800.9 C411.13 794.67, 412.03 784.89, 419.67 784.66 M404.89 796.79 C408.46 793.42, 411.31 790.73, 418.63 782.59 M409.56 797.24 C410.73 795.01, 411.23 793.36, 420.4 787.21 M409.27 799.59 C410.91 793.06, 415.77 788.79, 416.86 787.38 M412.71 797.27 C415.6 797.18, 416.23 795.42, 418.07 794.22 M413.31 798.81 C415.72 795.98, 416.66 795.25, 417.12 793.86 M0.16 798.52 C0.16 798.52, 0.16 798.52, 0.16 798.52 M0.16 798.52 C0.16 798.52, 0.16 798.52, 0.16 798.52 M4.74 797.43 C4.13 795.99, -0.26 793.79, -0.47 792.29 M6.12 798.8 C4.07 796.44, 2.95 795.76, -0.31 792.54 M12.63 799.61 C5.12 795.85, 1.78 793.4, 2.81 790.71 M12.16 796.9 C8.28 793.84, 4.79 789.67, 1.26 789.37 M20.88 799.3 C12.72 792.65, 7.8 785.75, -1.01 783.53 M18.4 799.22 C12.07 792.4, 8.7 789.93, -0.35 782.47 M27.29 802.19 C16.06 790.58, 8.11 780.56, 2.27 773.97 M22.36 798.98 C16.97 790.7, 9.36 785.82, 0.92 778.49 M27.29 796.53 C21.24 792.69, 12.21 781.11, 3.14 767.76 M32.44 798.49 C19.34 788.38, 7.16 777.13, 0.01 772.44 M34.5 796.05 C22.11 784.99, 12.48 779.47, 2.56 764.08 M38.15 797.25 C28.84 788.74, 20.87 784.28, -1.68 766.53 M46.65 795.66 C35.13 789.82, 18.87 777.31, 2.5 761.19 M41.25 796.89 C26.67 783.52, 9.48 768.88, 1.01 759.22 M52.25 800.99 C31.73 786.57, 21.54 770.7, 3.82 759.75 M49.51 798.4 C33.82 787.34, 19.96 775.16, 0.06 754.43 M56.69 796.46 C36.27 783.81, 28.68 774.97, -3.87 751.73 M56.02 800.13 C41.34 785.58, 25.27 770.72, -0.61 750.19 M64.36 797.38 C35.47 775.96, 15.77 760.9, 3.7 747.79 M60.54 797.62 C48.59 789.05, 33.12 777.94, 1.84 743.86 M65.31 795.49 C41.49 780.66, 18.99 757.96, 4.05 742.78 M65.31 799.01 C42.83 776.65, 17.22 752.26, -0.93 741.47 M77.09 798.34 C55.35 784.73, 38.37 767.1, 2.08 731.85 M72.05 800.16 C47.69 776.39, 24.04 754.12, -1.23 735.6 M83.38 798.8 C55.65 778.35, 34.02 758.27, 4.2 730.56 M77.87 800.07 C55.06 780.5, 33.59 758.48, 2.1 729.31 M88.13 795.16 C54.08 775.26, 34.67 748.93, -3.03 720.37 M84.48 796.72 C62.66 780.34, 42.76 762.38, -0.62 723.5 M93.68 799.26 C60.28 765.85, 23.13 736.77, -3.04 720.07 M93.59 797.01 C59.77 772.18, 28.53 745.78, -0.78 720.04 M99.36 801.96 C74.62 778.04, 42.93 752.16, -3.38 714.61 M96.67 798.08 C78.96 780.51, 56.36 765.45, -0.42 712.53 M107.43 800.55 C74.07 764.61, 35.3 738.39, -1.85 710.49 M102.03 796.54 C71.74 768.25, 43.29 743.06, 0.81 709.41 M113.61 796.29 C85.42 781.52, 67.15 756.15, -0.58 704.64 M108.63 797.77 C76.88 768.38, 45.61 741.73, 0.72 704.73 M117.3 794.48 C78.17 765.74, 36.86 727.87, 3.78 699.78 M117.38 797.85 C78.14 763.24, 39.96 727.62, -0.35 697.26 M119.63 800.58 C91.9 771.1, 67.17 749.54, -2.02 689.34 M120.51 799.45 C87.56 767.37, 49.85 735.02, -0.48 693.24 M126.13 797.7 C89.47 760.69, 55.34 733.49, 2.04 688.75 M129.28 799.21 C95.79 769.49, 66.35 743.79, 0.93 685.53 M132.61 802.01 C101.51 770.04, 62.75 737.57, -0.9 680.4 M135.14 798.85 C104.9 775.3, 76.61 749.24, -1.86 680.31 M143.73 800.29 C90.8 752.18, 36.65 709.73, 1.31 676.99 M141.48 800.63 C93.07 754.11, 40.78 708.54, 0.24 676.27 M147.18 801.95 C109.61 767.24, 74.16 740.49, 3.73 674.35 M144.98 799.13 C97.12 754.67, 50.85 711.83, -1.87 671.27 M155.47 799.14 C96.37 749.82, 46.51 702.7, 1.96 666.81 M151.08 799.18 C106.12 754.84, 57.29 714.49, 1.45 665.63 M158.17 796.74 C99.94 756.14, 46.4 703.52, 2.67 656.95 M158.84 797.6 C105.77 752.1, 50.18 705.05, -1.41 660.52 M164.53 798.21 C104.24 743.44, 40.67 693.61, 1.2 652.22 M165.95 799.18 C122.98 764.04, 79.56 727.04, -0.49 653.93 M173 797.64 C108.01 744.32, 50.51 687.91, -1.39 652.5 M169.29 799.86 C125.79 761.18, 82.19 722.46, 1.18 649.66 M173.98 800.65 C118.32 743.86, 60.63 696.88, 3.25 643.73 M178.17 799.23 C140.2 765.54, 101.19 731.19, 0.44 643.25 M182.48 800.7 C129.42 753.73, 77.09 704.4, -2.24 638.8 M181.69 797.15 C135.08 756.95, 84.55 711.71, -0.98 637.52 M191.79 800.18 C124.64 744.18, 60.4 684.4, 2.24 636.58 M188.49 799.09 C118.69 736.52, 49.12 676.11, -1.55 635.46 M196.93 797.17 C118.8 733.15, 45.36 671.21, 1.97 629.98 M195 799.77 C133.49 743.33, 70.59 687.51, -0.94 629.46 M202.08 798.92 C155.06 757.6, 106.63 716.82, -0.5 622.48 M201.06 798.53 C139.75 741.09, 74.11 683.18, 1.42 624.36 M206.24 799.65 C150.71 751.47, 93.76 701.35, 3.04 615.46 M207.98 799.17 C143.02 745.54, 77.68 689.13, 0.11 619.81 M211.92 800.52 C166.88 758.64, 118.27 717.68, -0.59 611.62 M212.29 799.33 C155.56 747.07, 97.45 698.2, -0.26 613.78 M216.71 800.21 C170.04 750.8, 117.57 706.71, -2.48 606.46 M218.34 796.96 C164.02 747.44, 105.59 696.31, -0.25 607.73 M225.24 798.77 C158.08 737.06, 82.01 675.21, 0.02 603.16 M226.56 798.28 C172.63 750.45, 114.13 700.55, 0.09 602.69 M234.76 800.45 C154.64 731.41, 72.34 663.48, -2.11 598.21 M230.95 799.6 C186.54 758.16, 140.36 718.65, -0.88 598.51 M237.81 796.8 C171.61 740.7, 105.76 679.28, 2.57 589.83 M236.67 798.49 C177.51 741.11, 116.63 687.64, -1.4 590.3 M244.29 799.06 C165.8 730.58, 82.26 657.79, -0.32 587.14 M243.96 799.72 C180.04 744.73, 117.41 689.64, 1.59 587.74 M247.46 797.91 C195.5 746.03, 133.4 697.17, -2.64 578.24 M249.66 799.28 C167.41 729.28, 85.26 657.32, 0.43 580.08 M255.16 798.58 C176 729.33, 95.8 657.63, -2.19 573.44 M255.39 799.5 C162.33 711.33, 66.02 629.67, 0.28 575.04 M262.44 798.19 C182.15 734.34, 108.89 667.81, -0.16 568.04 M262.74 798.82 C190.37 735.79, 118.22 672.64, 1.04 569.8 M267.55 799.88 C200.6 741.08, 125.22 676.72, -0.31 562.97 M267.06 797.76 C161.2 706.3, 58.85 615.26, -0.8 564.65 M273.86 797.99 C189.03 724.16, 99.5 650.08, -1.9 560.63 M273.54 798.14 C181.75 713.79, 88.4 630.27, -0.63 558.89 M281.71 800.44 C190.41 721.98, 104.1 645.45, 0.57 553.78 M280.75 797.27 C180.85 715.79, 86.63 631.61, 0.21 555.92 M284.79 797.48 C184.41 710.12, 80.74 622.75, -0.96 546.89 M285.32 798.16 C187.73 710.32, 88.27 623.35, 0.77 549.32 M291.63 798.13 C207.61 720.74, 116.79 642.71, -2.23 544.69 M293.05 798.71 C181.08 696.9, 67.46 596.23, -0.25 543.01 M298.43 796.69 C234.38 740.22, 171.1 682.12, -0.65 539.18 M297.59 798.54 C193.96 708.42, 87.64 616.26, 0.77 539.33 M303.78 799.91 C244.24 744.52, 185.96 692.65, 1.53 532.9 M305.95 797.44 C213.27 725.83, 126.65 650.28, 0.18 532.96 M312.06 798.31 C214.01 713.78, 118.03 629.97, -1.44 529.58 M310.65 797.42 C193.62 694.84, 74.02 592.11, -0.83 527.53 M314.92 799.78 C228.78 728.69, 143.38 652.97, 0.07 520.85 M317.96 797.85 C224.28 716.14, 133.01 636.59, 0.96 522.52 M325.28 797.27 C206.66 697.14, 87.38 597.83, 0.57 517.18 M323.13 797.62 C224.88 709.76, 125.11 623.32, 0.19 518.04 M330 797.76 C218.23 704.86, 107.22 606.9, -0.92 513.01 M329.5 797.97 C241.14 718.74, 153.05 642.94, 0.33 511.61 M334.8 797.87 C232.11 707.27, 122.09 615.56, -0.51 505.31 M334.45 798.17 C220.23 695.17, 100.51 591.73, 1.3 507 M339.59 797.2 C239.94 708.13, 137.76 617.41, 0.41 501.77 M340.14 798.15 C211.15 686.95, 81.71 573.21, 0.45 501.67 M348.47 798.23 C258.26 720.91, 168.63 644.39, -0.19 496.18 M347.75 797.68 C278.23 734.9, 206.23 672.84, 0.38 496.06 M355.19 799.07 C275.23 729.97, 195.14 658.89, 1.05 490.52 M354.15 798.47 C276.43 734.55, 202.11 667.82, 0.05 490.69 M360.53 798.41 C266.77 713.29, 174.76 634.17, 1.82 485.6 M360.19 798.54 C252.1 704.14, 139.85 606.92, 0.55 486.53 M365.05 798.34 C270.5 718.15, 173.64 632.82, -0.46 478.91 M365.22 798.92 C281.72 723.68, 196.18 650.34, -0.41 480.12 M370.67 798.78 C246.37 683.5, 118.21 572.29, -1.41 474.22 M370.99 797.26 C241.66 683.33, 111.63 571.03, 0.53 474.78 M378.05 797.1 C263.4 698.47, 149.48 597.45, 0.48 468.59 M378.56 798.79 C250.84 686.77, 125.33 577.66, -0.01 469.95 M384.96 799.1 C249.61 683.27, 119.84 567.87, -1.18 465.26 M383.94 798.47 C241.03 671.52, 96.84 545.17, 0.25 464.25 M390.04 799.14 C258.23 682.77, 126.56 569.28, -0.84 458.05 M389.46 798.58 C278.58 699.08, 164.57 599.61, 0.25 458.25 M394.92 797.5 C319.05 731.19, 239.27 661.89, 0.73 453.32 M396.85 797.66 C282.25 699.01, 164.8 596.56, -0.25 454.04 M400.51 796.6 C276.38 688.34, 149.78 577.97, -0.03 448.02 M401.56 797.93 C276.55 686.44, 152.83 579.16, 0.03 448.35 M409.79 799.13 C286.73 693.76, 166.01 585.16, 1.38 442.21 M408.87 797.7 C261.38 673.3, 113.84 544.18, 0.04 443.41 M414.5 797.86 C311.04 709.21, 206.39 615.23, -1.45 436.24 M415.38 798.78 C301.74 700.88, 186.87 600.86, 0.32 438.42 M417.45 797.3 C285.71 676.3, 150.53 559.3, 1.05 433.65 M417.48 796.82 C300.17 691.54, 180.47 587.97, 0.7 432.43 M416.99 790.38 C274.07 666.86, 132.88 544.75, -0.58 425.59 M417.83 791.53 C293.73 683.83, 168.07 573.39, -0.52 427.03 M418.97 785.81 C256.56 647.16, 96.92 506.13, -1.52 422.48 M418.64 785.91 C277.68 662.85, 137.61 540.92, 0.67 422.81 M419.3 780.71 C317.59 693.09, 219.97 605.4, -1.63 416.07 M418.29 781.32 C257.13 641.35, 94.89 501.7, 0.42 417.24 M417.64 773.9 C279.93 653.74, 147.03 537.1, -1.08 411.08 M417.44 775.38 C318.35 690.04, 221.82 604.81, 0.65 410.72 M418.55 768.79 C259.5 630.44, 100.52 495.57, 0.05 406.42 M418.38 769.66 C275.03 644.8, 133.04 520.39, 0.24 406.1 M419.04 764.2 C256.68 624.68, 94.12 484.26, -0.34 401.32 M417.71 764.35 C310.89 673.27, 206.79 582.29, 0.71 400.33 M419.34 760.42 C310.02 666.69, 200.65 571.98, 1.17 396.35 M418.51 759.56 C296.54 659.93, 179.49 556.97, -0.27 395.79 M416.8 753.25 C271.76 624.98, 123.29 495.97, 1.28 389.84 M418.24 753.18 C281.33 634.8, 145.89 515.95, -0.54 390.27 M419.93 749.7 C266.17 620.72, 117.58 490.31, 1.83 385.51 M417.66 748.52 C281.79 624.92, 142.46 503.18, -0.41 385.33 M416.64 742.75 C327.25 666.48, 235.82 589.73, -0.37 379.16 M418.39 742.65 C275.56 619.7, 135.69 497.72, -0.29 379.21 M417.09 736.68 C332.98 662.36, 246.98 585.52, -1.12 375.88 M418.98 738.83 C284.26 619.92, 150.52 504.29, 0.95 375.36 M419.51 732.14 C298.6 626.57, 179.49 521.6, 0.24 369.75 M418.04 733.87 C324.93 648.64, 230.01 567.47, -0.4 368.25 M417.24 728.93 C279.43 606.46, 143.29 487.1, 0.48 364.27 M417.76 727.27 C305.81 631.87, 194.38 534.93, -0.07 364.7 M420.15 724.05 C290.6 615.92, 165.58 507.38, 0.72 358.4 M418.56 723.18 C298.38 619.51, 176.81 512.6, -0.16 358.53 M418.89 717.54 C295.76 608.38, 171.73 502.11, -0.33 354.25 M418.27 717 C288.48 606.95, 159.2 494.56, 0.44 353.42 M419.67 710.58 C285.76 598.3, 155.74 485.39, -1.27 346.24 M418.55 711.76 C304.12 613.79, 187.35 511.96, -0.28 347.22 M417.41 707.51 C303.68 607.19, 191.35 510.06, 1.57 341.68 M418.53 705.67 C255.33 567.03, 90.77 424.87, 0.54 342 M417.68 701.11 C254.48 553.28, 88.79 411.31, 0.04 337.1 M418.02 700.55 C299 597.48, 176.03 490.82, -0.53 336.34 M419.46 697 C309.7 598.35, 197.78 502.79, -0.64 332.38 M417.53 695.73 C273.29 569.4, 124.62 441.26, -0.37 332.18 M417.87 689.35 C274.22 560.69, 128.54 432.49, 0.86 326.35 M418.34 690.12 C296.85 581.53, 174.7 475.9, -0.51 327.14 M418.96 685.27 C302.03 586.09, 184.81 484.5, 1.52 321.27 M417.63 685.69 C315.6 596.57, 213.43 507.09, 0.91 321.33 M420.01 680.53 C254.49 541.02, 92.41 399.11, -0.89 315.27 M418.24 679.91 C256.65 536.56, 93.56 394.47, -0.45 316.1 M417.92 674.31 C260.45 534.81, 105.99 396.37, 1.38 310.01 M418.94 674.08 C328.02 595.37, 236.59 515.67, -0.68 311.25 M418.33 670.59 C316.86 574.38, 211.58 485.27, -0.83 306.29 M417.81 668.96 C271.73 542.37, 123.01 412.31, -0.42 305.36 M418.41 664.04 C255.13 520.29, 92.46 380.11, 1.16 298.97 M418.54 663.48 C320.83 578.43, 222.49 492.63, -0.03 301 M419.15 657.42 C301.47 551.91, 180.01 446.16, 0.67 294.94 M417.73 658.38 C285.15 545.81, 154.2 431.89, -1.14 293.88 M417.78 653.9 C323.92 571.82, 230.48 491.71, 0.75 288.86 M417.66 653.31 C267.8 522.43, 118.84 393.24, -0.26 289.25 M420.07 648.81 C257.61 511.77, 96.39 370.98, 0.91 284.96 M418.39 647.29 C318.83 565.03, 219.39 478.88, 0.8 285.31 M416.67 641.24 C273.65 512.83, 128.03 386.06, -0.69 279.1 M417.71 642.21 C317.3 556.18, 216.05 468.98, -0.76 278.33 M417.94 638.51 C323.35 556.58, 226.49 473.9, -0.21 274.4 M419.2 636.86 C311.2 546.12, 203.24 450.47, 1.11 273.39 M417.38 632.58 C283.89 516.86, 152.14 402.05, 0.09 269.46 M417.85 632.07 C302.87 532.55, 188.23 433.22, 0.48 268.58 M416.9 626.96 C313.96 539.5, 213.59 451.26, -0.48 264.46 M417.69 626.31 C261.48 490.21, 105.83 354.33, -0.48 262.63 M419.09 622.71 C318.01 535.03, 222.37 451.26, -0.8 258.4 M417.41 620.83 C320.49 535.88, 225.27 454.03, -0.38 257.61 M417.18 616.54 C307.73 521.43, 197.33 426.43, 0.07 251.97 M418.38 616.88 C288.97 506.84, 160.45 394.28, 0.76 252.17 M420.19 609.84 C296.56 508.76, 173.87 399.45, 0.02 247.94 M419.03 611.9 C262.85 469.63, 103.65 332.08, 0.58 247.46 M419.86 606.75 C312.96 517.92, 210.7 429.69, 1.46 241.29 M419.12 606.25 C306.36 503.71, 192.09 404.25, 0.14 241.95 M420.12 600.93 C314.56 509.25, 210.18 417.3, -1.17 235.59 M418.45 601.17 C326.72 519.98, 235.43 439.51, -0.16 235.78 M418.91 595.83 C260.91 457.59, 105.46 320.34, -1.01 229.92 M418.37 594.14 C332.42 517.2, 243.55 439.6, 0.32 231.96 M419.02 588.41 C283.77 473.81, 148.55 356.38, -0.84 225.62 M419.45 589.73 C281.69 468.17, 140.31 346.01, 0.04 226.29 M418.77 585.52 C270.09 459.26, 125.27 334.21, 0.85 219.67 M417.5 584.71 C279.79 461.22, 139.84 341.05, 0.93 221.42 M419.58 578.01 C283.29 463.07, 151.29 347.36, 0.63 214.61 M418.8 578.86 C283.26 460.36, 146.99 342.82, -0.41 215.13 M416.75 573.11 C303.57 475.15, 186.55 374.15, 0.89 208.68 M418.49 572.95 C251.38 427.51, 85.24 284.6, -0.64 209.6 M419.75 568.56 C297.33 459.03, 173.43 352.66, 0.54 205.84 M419.04 568.28 C300.87 462.71, 179.86 356.18, -0.13 204.49 M417.44 562.59 C332.25 488.88, 247.68 415.42, -0.57 199.43 M418.24 563.1 C328.64 488.25, 240.86 410.44, -0.44 199.8 M417.56 556.84 C297.67 448.66, 177.19 343.31, -1.36 194.97 M418.07 558.54 C280.03 438.22, 141.89 319.05, -0.39 193.78 M418.31 553.51 C253.73 407.08, 89.65 262.56, -1.53 187.49 M417.45 551.82 C268.87 422.28, 119.77 293.09, 0.04 188.96 M419.1 548.72 C329.34 468.75, 240.36 389.74, -1.23 184.33 M417.95 547.02 C309.45 452.55, 200.89 357.4, -1.1 183.66 M417.7 542.5 C318.98 461.43, 225.01 376.93, 0.1 179.19 M418.16 541.83 C312.29 449.9, 205.98 357.22, -0.51 178.05 M417.76 535.24 C275.44 405.81, 127.69 279.69, 0.86 171.81 M417.72 536.76 C296.99 432.47, 173.93 325.75, 0 172.04 M419.62 531.35 C292.82 420.46, 167.51 312.39, -1.53 167.57 M418.17 531.47 C299.78 427.24, 184.64 326.33, 0.73 168.1 M418.19 526.13 C321.96 441.31, 223.04 354.5, 0.04 162.66 M418.96 526.01 C275.93 399.62, 130.25 273.65, 0.88 163.48 M419.36 518.96 C279.15 397.28, 141.85 279.91, 0.6 156.4 M418.26 520.32 C306.43 425.26, 194.68 329.37, 0.38 157.74 M418.72 516.25 C254.08 371.01, 90.6 228.13, 1.27 152.51 M418.62 515.47 C272.89 389.72, 129.3 264.35, 1.03 151.47 M417.9 509.37 C311.24 415.16, 204.31 319.74, -0.81 145.75 M418.16 510 C330.29 433.22, 244.12 357.74, -0.8 145.68 M419.35 506.4 C330.44 427.63, 242.09 349.27, -0.15 142.45 M417.82 504.3 C289.27 390.07, 158.62 277.18, 0.33 140.65 M417.82 501.17 C269.21 373.67, 121.48 243.8, -0.17 136.86 M418.12 499.23 C278.64 378.55, 135.07 255.04, -0.3 136.23 M416.95 495.29 C315.93 399.97, 213.04 312.3, -0.81 131.68 M417.83 494.05 C298.19 392.34, 178.05 288, 0.1 130.67 M418.73 489.74 C297.65 388.04, 174.82 280.68, 0.17 124.06 M418.29 489.98 C305.74 392.7, 193.25 294.95, 0.59 125.76 M419.69 484.37 C276.17 360.63, 139.25 240.62, 0.39 119.7 M417.7 483.15 C330.43 410.26, 243.02 334.54, -0.19 120.82 M420.17 479.14 C305.24 377.87, 192.21 279.03, 1.14 115.62 M419.24 477.85 C317.72 392.37, 216.4 304.43, -0.88 114.67 M419.78 472.99 C305.64 374.68, 192.15 279.28, 0.6 111.12 M418.23 472.45 C325.75 392.92, 236.67 314.32, -0.51 109.22 M420.22 468.29 C282.54 354.3, 146.87 237.42, -1.07 103.33 M418.16 467.82 C308.88 367.46, 196.17 268.72, -0.11 103.4 M417.54 463.26 C287.64 348.44, 152.17 233.24, 1.07 98.11 M417.97 462.84 C272.57 336.39, 125.51 208.45, 0.54 98.42 M417.8 456.45 C259.16 319.48, 101.24 180.06, -0.57 92.9 M418.4 458.07 C327.35 379.32, 240.07 302.62, -0.31 93.23 M419.73 451.98 C282.08 335.67, 144.01 216.67, -0.89 87.55 M418.86 451.24 C303.27 349.99, 188.1 249, 0.11 88.22 M417.54 448 C326.49 367.62, 236.41 287.85, 0.59 83.18 M419.05 447.27 C303.26 347.76, 185.47 244.24, -0.55 82.27 M418.82 441.9 C334.62 370.66, 249.51 294.75, -0.69 77.03 M418.98 441.01 C276.09 316.11, 133.76 191.77, -0.07 78.05 M418.53 434.84 C292.63 322.91, 165.28 211.79, 0.43 70.92 M419 436.88 C270.42 306.86, 120.83 176.88, 0.28 72.67 M416.92 430.49 C326.64 347.29, 229.02 263.2, -0.85 66.1 M418.19 429.97 C288.46 316.51, 159.57 205.5, 0.67 67.78 M419.13 426.79 C271.27 296.5, 124.09 169.73, -1.34 62.04 M419.27 425.65 C309 328.29, 201.16 235.14, -0.56 61.82 M417.85 421.13 C268.66 288.56, 120.23 159.52, 0.15 57.79 M418.91 419.14 C317.66 329.42, 216.24 241.86, -0.41 56.92 M418.57 414.82 C262.34 278.61, 102.28 138.23, -0.98 51.38 M419.06 415.11 C303.45 316.78, 191.93 218.51, -0.09 51.81 M419.07 408.74 C293.26 298.87, 166.98 191.72, -0.07 44.29 M417.3 408.8 C329.3 331.23, 240.46 252.57, -0.71 45.41 M418.59 404.6 C321.14 317.51, 219.72 231.63, 1.44 40.99 M418.12 404.06 C326.59 321.46, 234.03 239.24, 0.18 41.18 M416.55 397.37 C310.81 304.16, 201.42 211.14, 0.19 34.1 M418.51 399.27 C335.09 323.59, 251.26 249.69, 0.54 34.44 M418.56 392.54 C297.35 291.51, 177.97 185.99, 1.8 29.59 M419.19 394.15 C326.59 312.76, 237.32 234.38, -0.46 29.69 M419.86 389.62 C255.18 249.36, 92.12 107.51, -1.31 24.85 M418.99 389.16 C260.35 250.64, 99.81 111.86, -0.12 24.03 M417.16 383.35 C291.45 272.96, 159.48 160.23, 0.12 17.96 M419.13 382.63 C301.92 276.81, 183.55 173.36, 0.71 19.68 M418.81 379.29 C278.03 259.99, 139.07 140.43, 0.47 14.5 M418.7 378.34 C315.42 288.52, 213.6 200.54, 0 13.83 M417.11 372.51 C330.72 289.15, 240 210.88, -0.34 8.03 M417.81 372.82 C279.91 256.09, 142.04 135.19, 0.18 9.53 M418.31 366.45 C299.28 263.24, 181.45 162.27, 0.24 2.92 M418.43 367.89 C308.44 274.22, 197.83 177, -0.65 3.95 M417.25 360.58 C279.37 244.6, 144.73 124.76, -0.26 -1.31 M418.81 362.06 C330.13 287.4, 243.07 211.8, 0.92 -1.69 M417.82 356.43 C289.45 244.39, 160.31 135.29, 7.55 0.08 M419.15 356.67 C313.99 264.45, 209.08 174.41, 6.92 -0.94 M417.25 351.66 C301.74 248.88, 183.47 148.74, 12.75 -1.52 M417.53 350.54 C325.65 272.68, 232.24 191, 12.72 -0.75 M420.08 346.11 C313.12 256.06, 206.83 165.14, 20.63 -0.92 M418.82 346 C337.64 277.82, 257.81 207.26, 20.05 -1.67 M419.28 339 C274.29 212.41, 131.44 87.84, 24.47 -0.33 M417.88 340.47 C315.6 254.79, 215.71 166.31, 24.41 -1.4 M419.88 335.06 C318.49 247.17, 218.44 158.99, 30.7 -1.57 M417.96 335.61 C339.43 263.09, 257.56 192.59, 31.17 -0.79 M416.79 328.93 C285.74 213, 152.86 98.93, 39.23 -0.28 M418.76 330.51 C341.82 259.77, 265.16 192.71, 37.08 -1.26 M418.5 324.01 C276.46 199.21, 133.89 74.5, 42.37 -0.67 M418.85 324.46 C273.34 198.29, 126.23 69.76, 44.2 -1.24 M418.5 320.19 C329.64 238.85, 241.12 161.62, 51.24 0.12 M418.03 319.78 C290.7 206.14, 162.86 94.11, 50.54 -1.49 M418.92 313.14 C284.61 194.09, 146.27 73.19, 54.7 0.17 M418.29 314.84 C288.99 199.39, 160.47 86.95, 54.71 -1.56 M417.94 308.43 C289.13 194.57, 157.4 79.36, 63.35 -1.19 M418.13 308.54 C341.4 239.75, 265.97 173.01, 62.11 -0.28 M417.57 304.09 C290.12 194.58, 161.45 80.49, 66.75 -1.81 M418.11 303.2 C308.11 203.3, 196.22 105.06, 67.85 -0.7 M417.61 297.95 C322.09 214.97, 225.7 132.27, 72.45 -0.5 M418.94 297.58 C316.54 215.05, 218.05 128.79, 74.31 -1.82 M419.83 294.38 C295.97 186.29, 173.41 79.69, 79.79 -0.1 M417.84 292.89 C347.6 233.84, 275.25 170.89, 79.54 -1.9 M417.72 286.58 C338.54 214.36, 258.47 144.53, 86.91 0.18 M418.03 287.48 C319.58 198.68, 218.99 110.34, 86.47 -2.25 M420.15 282.34 C316.04 191.16, 212.3 101.54, 92.97 -2.42 M419.19 283.06 C303.55 182.74, 189.11 82.53, 92.16 -0.1 M417.58 278.34 C306.92 180.5, 198.08 85.42, 98.83 -1.62 M417.35 277.4 C307.7 176.55, 196.36 78.94, 99.78 -0.3 M418.26 269.68 C333.94 199.75, 251.84 127.46, 105.47 -1.32 M419.02 272.63 C300.14 173.13, 183.04 71.34, 105.22 -1.26 M418.31 265.95 C297.1 158.36, 174.27 54.41, 109.53 -0.54 M419.73 266.42 C302.82 163.23, 185.92 63.04, 111.26 -2.06 M418.52 260.11 C348.24 202.65, 279.41 142.96, 115.29 -3.16 M418.28 261.5 C326.92 183.29, 233.11 102.68, 116.62 -0.66 M417.8 255.23 C352.53 199.59, 286.45 144.49, 121.02 -2.5 M417.69 256.66 C333.33 181.3, 248.01 107.88, 123.64 -0.98 M419.21 252.6 C346.91 187.61, 275.02 125.73, 131.6 -0.22 M417.22 249.64 C328.7 177.1, 239.69 101.09, 129 -1.96 M417.38 246.23 C316.02 153.41, 217.28 63.67, 134.91 0.89 M419.01 245.05 C350.88 186.37, 285.6 128.76, 134.67 -0.84 M418.32 237.65 C363.5 189.45, 305.16 139.3, 141.93 -2.28 M418.88 240.8 C334.25 167.65, 251.6 93.15, 141.54 -1.01 M416.63 236.11 C364.38 184.72, 307.22 136.56, 145.59 -1.47 M417.78 235.44 C329.49 156.73, 240.94 79.65, 145.72 -1.05 M416.22 229.24 C362.1 184.05, 308.09 137.37, 151 -2.6 M418 229.09 C320.75 145.81, 225.95 63.01, 152.8 -1.65 M416.49 222.09 C355.1 175.88, 301.66 124.8, 157.87 1 M419.79 223.85 C335.23 150.69, 250.28 75.39, 159.47 -1.5 M418.88 218.71 C334.44 146.57, 254.59 73.35, 167.72 -1.59 M419.5 219.78 C336.04 146.84, 253.63 77.45, 166.54 -0.35 M416.81 215.25 C334.73 139.33, 247.13 69.04, 172.45 1.31 M419.06 214.62 C329.05 137.57, 239.3 58.29, 172.79 -1.31 M419.34 206.31 C335.08 137.16, 257.48 67.43, 175.92 0.83 M419.56 207.88 C334.47 134.34, 248.98 62.03, 178.33 -2.02 M418.95 200.48 C334.91 129.74, 243.79 52.5, 181.29 1.19 M419.62 203.59 C370.72 156.52, 321.97 114.8, 184.8 -1.48 M415.48 194.39 C337.12 124.54, 252.71 52.49, 191.19 -2.77 M416.95 197.89 C371.59 153.12, 322.41 109.39, 190.62 -2.19 M417.23 193.5 C331.5 120.9, 248.49 48.48, 195.12 1.05 M418.31 192.66 C334.35 114.49, 246.67 41.17, 195.44 -0.93 M420.14 184.8 C332.84 115.33, 247.93 37.89, 200.67 1.81 M418.18 185.97 C335 116.08, 253.95 43.98, 203.4 -1.43 M419.05 182.32 C345.99 116.34, 277.49 58.53, 208.04 -2.63 M417.15 180.27 C356.22 126.86, 295.91 74.4, 208.01 -2.93 M416.88 175.59 C376.09 133.97, 338.59 103.48, 215.62 -0.8 M418.49 175.65 C353.39 119.56, 287.17 62.6, 214.02 -0.54 M418.78 169.71 C380.39 136.23, 335.01 99.97, 223.68 -1.45 M419.63 171.89 C373.3 130.52, 324.12 89.49, 219.42 -0.96 M416.21 163.52 C378.92 126.55, 332.55 90.42, 223.96 -2.33 M417.58 164.54 C379.14 129.68, 340.17 95.72, 227.82 -1.92 M418.32 159.55 C355.08 104.4, 291.78 52.36, 230.79 1.32 M419.33 159.83 C372.38 122.36, 327.29 82.82, 234 -1.06 M417.65 154.64 C365.52 110.28, 317.36 69.34, 237.18 -2.72 M419.61 155.67 C374.07 114.78, 331.63 76.9, 238.64 -0.7 M418.32 146.74 C374.16 109.85, 336.09 77.6, 243.07 -3.79 M416.92 149.85 C373.91 108.61, 329.56 70.95, 244.15 -1.12 M421.86 145.81 C379.01 106.63, 335.65 70.56, 250.24 -0.54 M418.63 143.62 C366.19 100.8, 317.3 55.84, 250.13 -1.82 M421.44 140.23 C362.04 86.19, 298.88 37.59, 254.3 -4.69 M419.7 140.71 C375.95 104.03, 336.81 69.91, 258.33 -1.11 M418 131.01 C364.83 79.44, 302.07 35.89, 260.57 0.93 M417.82 133.34 C378.79 94.88, 336.94 61.93, 261.73 -1.27 M422.16 125.24 C390.64 103.68, 355.58 74.92, 268.41 -3.42 M419.19 128.32 C389.26 103.25, 356.49 75.45, 270.3 -0.9 M418.83 123.65 C371.98 81.85, 319.69 37.05, 277.26 1.03 M418.51 122.38 C370.34 80.24, 320.04 38.76, 274.69 -0.51 M414.51 116.89 C368.81 81.71, 330.71 38.9, 283.61 1.93 M419.91 118.56 C371.98 74.94, 327.41 33.18, 281.02 -1.71 M416.07 111.1 C379.68 76.71, 340.13 42.25, 284.42 2.27 M418.81 114.15 C372.66 72.32, 326.15 32.92, 287.28 -1.12 M416.48 104.3 C373.5 74.16, 327.29 35.63, 290.92 0.67 M416.82 107.26 C393.31 84.27, 365.64 61.35, 292.53 -2.54 M420.75 101.83 C367.87 57.36, 326.96 23.56, 299.22 0.92 M418.85 103.98 C373.82 64.76, 331.93 24.14, 300.63 -1.55 M415.77 93.21 C394.92 76.06, 365.5 54.54, 308.17 -4.63 M420.1 97.12 C390.86 73.2, 361.89 50.47, 305.35 -2.35 M420.2 91.5 C387.29 64.69, 347.34 28.81, 314.05 -1.55 M419.24 93.37 C385.09 60.96, 350.55 33.38, 310.19 -2.45 M414.32 86.19 C392.67 62.71, 359.39 39.71, 316.61 -5.24 M417.33 87.96 C376.95 52.34, 337.5 17.1, 317.64 -0.68 M421.93 82.59 C384.76 55.68, 356.03 33.11, 321.27 -4.82 M419.02 79.9 C397.55 59.65, 374.94 40.85, 324.57 0.62 M416.21 78.64 C381.1 47.71, 347.18 15.18, 329.69 2.38 M419.5 74.65 C390.51 51.76, 360.68 23.77, 327.97 -2.96 M417.62 72.38 C393.62 45.81, 361.85 21.75, 337.68 -1.79 M417.64 71.28 C392.99 50.52, 368.54 29.48, 336.05 -0.81 M415.73 62.75 C401.71 50.1, 380.02 31.19, 341.79 -2.77 M419.01 65.19 C387.58 38.46, 356.75 9.68, 342.05 -1.87 M419.16 56.99 C405.93 48.55, 389.78 30.47, 349.48 -1.2 M416.95 59.28 C402.2 42.52, 383.9 29.69, 347.54 -0.79 M417.37 55.53 C396.85 36.73, 374.36 22.31, 353.22 -0.83 M419.65 54.66 C401.25 41.16, 384.46 25.62, 355.77 -1.97 M414.62 51.33 C396.4 32.31, 368.65 4.47, 357.1 1.03 M419.2 49.79 C405.45 34.55, 389.27 22.91, 359.39 -0.27 M415.78 46.79 C395.48 26.04, 378.01 8.78, 362.74 -3.16 M418.64 43.23 C400.55 28.42, 386.07 15.02, 365.65 -1.76 M420.25 37.12 C404.31 28.64, 388.81 12.83, 371.89 2.43 M417.04 36.78 C403.7 26.91, 391.47 14.35, 372.09 -0.45 M416.57 35.83 C412.59 24.5, 405.46 16.25, 376.56 -2.98 M417.33 34.84 C403.39 18.86, 387.66 7.08, 379.91 -2.3 M420.51 30.9 C405.73 16.25, 395.43 8.63, 385.14 -4.62 M419.56 28.31 C409.3 22.15, 403.3 15.17, 385.27 0.6 M421.26 24.79 C410.16 14.48, 402.44 6.9, 389.04 -2.68 M420.25 24.52 C410.27 13.81, 399.77 6.28, 389.12 -0.55 M420.02 16.03 C412.07 13.09, 403.01 4.03, 400.56 -0.94 M418.21 16.55 C414.06 13.58, 410.38 8.32, 396.24 -2.13 M419.85 10.57 C417.16 8.09, 403.9 1.16, 403.51 -1.2 M417.58 12.4 C411.98 8.44, 409.1 5.02, 405.06 -2.73 M416.67 4.23 C416.55 4.56, 412.34 1.46, 410.49 -2.45 M417.44 7.28 C416.37 4.25, 415.68 2.85, 410.26 -1.25" stroke="#228be6" stroke-width="0.5" fill="none"></path><path d="M1.38 -0.93 C107.29 -4.5, 218.26 -2.28, 418.05 1.6 M-0.36 0.58 C118.39 3.9, 234.02 4.22, 417.11 -0.05 M415.17 0.33 C421.7 271.95, 420.41 544.99, 417.31 798.49 M417.44 0.56 C413.41 219.74, 412.67 439.77, 416.27 798.68 M415.38 797.49 C274.24 796.4, 136.49 796.54, 1.64 797.75 M416.07 798.38 C321.15 794.9, 227.42 795.25, -0.33 798.98 M-0.64 797.97 C-2.17 638.78, -1.29 479.21, -0.35 -0.2 M0.55 798.45 C-5.6 565.05, -5.7 331.86, 0.35 0.17" stroke="#000000" stroke-width="1" fill="none"></path></g></svg>