<svg version="1.1" xmlns="http://www.w3.org/2000/svg" viewBox="0 0 1082.3547393788158 917.0164961261462" width="2164.7094787576316" height="1834.0329922522924">
  <!-- svg-source:excalidraw -->
  
  <defs>
    <style class="style-fonts">
      @font-face {
        font-family: "Virgil";
        src: url("https://excalidraw.com/Virgil.woff2");
      }
      @font-face {
        font-family: "Cascadia";
        src: url("https://excalidraw.com/Cascadia.woff2");
      }
    </style>
  </defs>
  <g stroke-linecap="round" transform="translate(119.10324749918959 51.177432478363244) rotate(0 417.081503389089 397.7095425880504)"><path d="M-0.31 -0.11 C247.08 -3.98, 493.48 -3.78, 834.27 -0.79 M-0.08 0.18 C259.5 -2.72, 519.68 -3.1, 834.31 -0.13 M833.36 -0.43 C836.62 258.52, 836.68 518.07, 834.66 795.5 M834.52 -0.13 C835.81 199.39, 835.73 398.85, 834.33 795.43 M834.9 795.53 C582.4 797.41, 330.06 797.83, 0.57 794.71 M834.21 795.69 C647.88 793.38, 461.18 794.05, -0.3 795.67 M0.58 794.88 C-2.47 519.43, -3.62 244.26, 0.29 0.55 M-0.33 795.59 C2.21 487.28, 2.1 179.79, 0.19 0.38" stroke="#000000" stroke-width="2" fill="none"></path></g><g stroke-linecap="round" transform="translate(721.1669924052217 208.0958801683642) rotate(0 9.739102779315544 9.739102779315573)"><path d="M11.76 0.59 C13.85 1.21, 17.02 3.61, 18.26 5.43 C19.5 7.26, 19.64 9.59, 19.19 11.56 C18.74 13.53, 17.02 16.06, 15.55 17.27 C14.08 18.48, 12.27 18.85, 10.36 18.82 C8.45 18.79, 5.76 18.13, 4.11 17.08 C2.46 16.03, 0.98 14.68, 0.46 12.53 C-0.05 10.37, 0.17 6.13, 1.02 4.16 C1.87 2.19, 3.6 1.29, 5.56 0.71 C7.53 0.13, 11.37 0.54, 12.78 0.68 C14.19 0.82, 14.01 1.48, 14.02 1.54 M11.45 1.02 C13.49 1.2, 15.96 2.71, 17.24 4.35 C18.53 5.99, 19.22 8.85, 19.17 10.86 C19.12 12.86, 18.08 14.82, 16.92 16.41 C15.77 18, 14.07 20.11, 12.22 20.39 C10.37 20.68, 7.63 19.49, 5.82 18.13 C4.02 16.76, 2.09 14.18, 1.38 12.21 C0.67 10.25, 0.74 8.42, 1.57 6.33 C2.41 4.25, 4.86 0.64, 6.39 -0.27 C7.92 -1.18, 9.99 0.72, 10.77 0.87 C11.56 1.02, 10.79 0.56, 11.12 0.63" stroke="#000000" stroke-width="2" fill="none"></path></g><g transform="translate(10 10) rotate(0 49.41996765136719 12.5)"><text x="0" y="0" font-family="Virgil, Segoe UI Emoji" font-size="20px" fill="#000000" text-anchor="start" style="white-space: pre;" direction="ltr" dominant-baseline="text-before-edge">(-180, 90)</text></g><g transform="translate(981.7347900379955 24.783199127875378) rotate(0 45.309974670410156 12.5)"><text x="0" y="0" font-family="Virgil, Segoe UI Emoji" font-size="20px" fill="#000000" text-anchor="start" style="white-space: pre;" direction="ltr" dominant-baseline="text-before-edge">(180, 90)</text></g><g transform="translate(946.3856414047084 882.0164961261462) rotate(0 49.41996765136719 12.5)"><text x="0" y="0" font-family="Virgil, Segoe UI Emoji" font-size="20px" fill="#000000" text-anchor="start" style="white-space: pre;" direction="ltr" dominant-baseline="text-before-edge">(180, -90)</text></g><g transform="translate(64.90324330448425 876.0920860718197) rotate(0 53.52996063232422 12.5)"><text x="0" y="0" font-family="Virgil, Segoe UI Emoji" font-size="20px" fill="#000000" text-anchor="start" style="white-space: pre;" direction="ltr" dominant-baseline="text-before-edge">(-180, -90)</text></g></svg>