<svg version="1.1" xmlns="http://www.w3.org/2000/svg" viewBox="0 0 1082.3547393788158 917.0164961261462" width="2164.7094787576316" height="1834.0329922522924">
  <!-- svg-source:excalidraw -->
  
  <defs>
    <style class="style-fonts">
      @font-face {
        font-family: "Virgil";
        src: url("https://excalidraw.com/Virgil.woff2");
      }
      @font-face {
        font-family: "Cascadia";
        src: url("https://excalidraw.com/Cascadia.woff2");
      }
    </style>
  </defs>
  <g stroke-linecap="round" transform="translate(119.10324749918959 51.177432478363244) rotate(0 417.081503389089 397.7095425880504)"><path d="M-0.31 -0.11 C247.08 -3.98, 493.48 -3.78, 834.27 -0.79 M-0.08 0.18 C259.5 -2.72, 519.68 -3.1, 834.31 -0.13 M833.36 -0.43 C836.62 258.52, 836.68 518.07, 834.66 795.5 M834.52 -0.13 C835.81 199.39, 835.73 398.85, 834.33 795.43 M834.9 795.53 C582.4 797.41, 330.06 797.83, 0.57 794.71 M834.21 795.69 C647.88 793.38, 461.18 794.05, -0.3 795.67 M0.58 794.88 C-2.47 519.43, -3.62 244.26, 0.29 0.55 M-0.33 795.59 C2.21 487.28, 2.1 179.79, 0.19 0.38" stroke="#000000" stroke-width="2" fill="none"></path></g><g stroke-linecap="round" transform="translate(702.8454166931795 192.08129279111847) rotate(0 9.739102779315544 9.739102779315573)"><path d="M11.76 0.59 C13.85 1.21, 17.02 3.61, 18.26 5.43 C19.5 7.26, 19.64 9.59, 19.19 11.56 C18.74 13.53, 17.02 16.06, 15.55 17.27 C14.08 18.48, 12.27 18.85, 10.36 18.82 C8.45 18.79, 5.76 18.13, 4.11 17.08 C2.46 16.03, 0.98 14.68, 0.46 12.53 C-0.05 10.37, 0.17 6.13, 1.02 4.16 C1.87 2.19, 3.6 1.29, 5.56 0.71 C7.53 0.13, 11.37 0.54, 12.78 0.68 C14.19 0.82, 14.01 1.48, 14.02 1.54 M11.45 1.02 C13.49 1.2, 15.96 2.71, 17.24 4.35 C18.53 5.99, 19.22 8.85, 19.17 10.86 C19.12 12.86, 18.08 14.82, 16.92 16.41 C15.77 18, 14.07 20.11, 12.22 20.39 C10.37 20.68, 7.63 19.49, 5.82 18.13 C4.02 16.76, 2.09 14.18, 1.38 12.21 C0.67 10.25, 0.74 8.42, 1.57 6.33 C2.41 4.25, 4.86 0.64, 6.39 -0.27 C7.92 -1.18, 9.99 0.72, 10.77 0.87 C11.56 1.02, 10.79 0.56, 11.12 0.63" stroke="#000000" stroke-width="2" fill="none"></path></g><g transform="translate(10 10) rotate(0 49.41996765136719 12.5)"><text x="0" y="0" font-family="Virgil, Segoe UI Emoji" font-size="20px" fill="#000000" text-anchor="start" style="white-space: pre;" direction="ltr" dominant-baseline="text-before-edge">(-180, 90)</text></g><g transform="translate(981.7347900379955 24.783199127875378) rotate(0 45.309974670410156 12.5)"><text x="0" y="0" font-family="Virgil, Segoe UI Emoji" font-size="20px" fill="#000000" text-anchor="start" style="white-space: pre;" direction="ltr" dominant-baseline="text-before-edge">(180, 90)</text></g><g transform="translate(946.3856414047084 882.0164961261462) rotate(0 49.41996765136719 12.5)"><text x="0" y="0" font-family="Virgil, Segoe UI Emoji" font-size="20px" fill="#000000" text-anchor="start" style="white-space: pre;" direction="ltr" dominant-baseline="text-before-edge">(180, -90)</text></g><g transform="translate(64.90324330448425 876.0920860718197) rotate(0 53.52996063232422 12.5)"><text x="0" y="0" font-family="Virgil, Segoe UI Emoji" font-size="20px" fill="#000000" text-anchor="start" style="white-space: pre;" direction="ltr" dominant-baseline="text-before-edge">(-180, -90)</text></g><g transform="translate(261.6830683853825 869.1022353813795) rotate(0 81.36795806884766 17.5)"><text x="0" y="0" font-family="Virgil, Segoe UI Emoji" font-size="28px" fill="#000000" text-anchor="start" style="white-space: pre;" direction="ltr" dominant-baseline="text-before-edge">Latitude: 1 </text></g><g stroke-linecap="round"><g stroke-opacity="0.1" fill-opacity="0.1" transform="translate(536.087468204357 49.51396694172752) rotate(0 0.3502164128797176 397.7119505067797)"><path d="M-1.07 -0.87 C-0.79 287.06, 1.29 576.27, 1.12 796.29 M-0.07 -0.58 C2.34 221.69, 1.91 443.45, 1.27 794.81" stroke="#000000" stroke-width="2" fill="none"></path></g></g><mask></mask><g stroke-opacity="0" fill-opacity="0" stroke-linecap="round" transform="translate(703.8655666827121 49.58989314008784) rotate(0 20.853422403521563 399.1907485949573)"><path d="M0 0 C0 0, 0 0, 0 0 M0 0 C0 0, 0 0, 0 0 M-0.75 6.18 C1.97 5.07, 2.47 3.55, 6.56 1.74 M0.44 6.24 C0.61 5.55, 2.13 4.27, 5.41 0.3 M2.34 14.63 C5.26 9.62, 6.41 3.64, 11 2.96 M1.28 12.25 C2.57 8.6, 6.75 2.82, 9.8 0.62 M2.69 20.71 C2.79 12.48, 3.59 7.98, 18.55 0.67 M-1.79 17.67 C4.51 11.22, 9.18 4.54, 16.09 0.62 M-0.94 25.16 C3.8 20.55, 14.92 10.15, 23.32 -1.95 M-0.25 24.35 C7.37 13.6, 17.43 6.71, 19.49 1.26 M-1.78 26.72 C11.4 15.39, 21.74 11.91, 29.34 1.41 M-0.14 30.25 C4.43 23.98, 11.03 13.95, 24.64 -0.63 M-4.17 39.41 C9.5 24.45, 24.87 8.98, 33.54 2.59 M1.21 37.67 C5.57 28.96, 13.92 18.5, 33.58 0.67 M-1.05 45.53 C15.91 25.14, 24.86 15.45, 40.5 3.85 M-1.45 43.49 C7.34 33.52, 14.79 21.86, 35.39 -0.09 M-4.06 48.08 C11.33 36.85, 23.48 26.64, 42.89 2.76 M-0.17 47.33 C14.68 33.38, 27.51 16.74, 43.83 -0.49 M0.92 55.58 C15.96 43.92, 28.55 29.27, 42.16 2.6 M-0.19 54.25 C13.66 39.19, 25.79 26.15, 41.19 7.82 M-3.61 58.27 C18.9 41.39, 32.99 24.25, 38.16 10.65 M1.93 62.72 C9.85 49.02, 20.68 34.57, 41.12 11.18 M1.71 68.89 C11.32 52, 21.87 36.35, 45.89 21.1 M-0.1 67.25 C14.36 48.52, 32.5 29.25, 40.54 16.72 M2.99 71.14 C9.85 61.12, 19.25 47.94, 39.35 21.25 M-1.12 74.61 C12.98 54.16, 28.79 37.85, 40.73 24.27 M-0.97 76.01 C13.26 64.06, 24.46 52, 40.03 28.28 M-1.53 78.03 C11.85 64.93, 23.87 52.77, 42.95 31.05 M1.75 86.67 C12.68 69.93, 34.16 53.31, 42.81 33.7 M0.47 85.85 C15.92 68.88, 28.54 51.58, 43.55 37.82 M-1.17 94.59 C18.32 72.56, 32.1 60.52, 41.86 39.68 M0.6 91.49 C12.28 77.33, 22.93 62.5, 43.05 45.12 M2.19 100.41 C10.98 82.1, 27.65 67.87, 43.09 51.94 M0.24 98.12 C13.8 84.9, 24.1 69.64, 43.82 47.92 M-2.1 106.31 C7.66 93.14, 18.06 80.3, 38.83 55.9 M1.44 104.86 C9.77 88.25, 24.04 77.5, 43.9 55.59 M-3.97 112.44 C17.69 92.51, 32.78 72.55, 44.24 65.5 M0.09 110.96 C17.15 92.32, 29.67 77.11, 42.59 62.55 M3.21 117.7 C14.97 104.68, 24.59 87.93, 43.27 63.61 M-0.47 114.48 C13.77 102.22, 26.82 87.22, 41.63 68.47 M-2.83 119.95 C13.05 101.49, 26.64 88.85, 42.5 74.43 M0.38 120.24 C15.77 105.18, 30.25 85.81, 40.23 72.49 M3.27 124.82 C14.85 107.88, 29.13 89.93, 39.68 80.29 M-1.82 126.52 C13.98 115.5, 24 101.52, 42.78 77.85 M0.37 134.15 C10.27 118.77, 23.84 101.5, 42.31 81.86 M0.52 133.2 C7.21 123.13, 17.26 113.96, 42.59 85.89 M-1.26 138.3 C11.09 123.8, 27.6 109.75, 44.11 94.97 M-1.93 140 C10.43 128.54, 23.61 111.95, 41.63 92.69 M0.57 145.08 C16.49 129.46, 26.3 116.13, 38.96 95 M0.32 147.14 C17.63 128.68, 31.25 110.23, 41.56 99.25 M2.51 151.85 C14.35 137.39, 28.32 117.13, 38.76 101.26 M-0.69 153.28 C11.03 141.35, 19.39 133.24, 40.85 103.74 M-3.75 158.36 C12.32 139.66, 29.79 117.03, 45.92 105.85 M1.34 160.23 C14.19 144.56, 27.04 129.19, 40.44 108.13 M-1.69 167.21 C10.91 149.13, 28.09 135.6, 44.02 113.82 M2.07 163.08 C13.01 148.33, 27.73 130.36, 41.53 114.15 M-3.97 172.14 C8.65 159.01, 20.12 148.58, 42.21 120 M-0.46 170.46 C12.38 152.92, 28.15 138.18, 43.27 121.98 M0.03 174.96 C17.54 164.23, 25.7 148.51, 45.16 129.39 M-0.07 175.18 C17.81 157.51, 33.31 137.89, 43.83 126.4 M2.78 185.65 C15.67 166.53, 30.06 140.47, 42.97 133.56 M-0.7 182.19 C11.11 166.89, 24.49 156.79, 43.5 135.04 M-0.86 191.24 C9.66 173.25, 25.44 166.22, 43.62 139.49 M1.24 191.24 C11.28 178.09, 23.11 164.08, 44.33 141.04 M-3.81 192.19 C16.77 180.25, 31.32 166.28, 43.6 149.73 M2.04 193.1 C17.42 175.86, 33.74 157.56, 41.97 144.95 M3.22 202.74 C7.58 192.69, 14.58 182.85, 44.39 151.24 M1.7 199.74 C8.76 189.01, 18.81 179.54, 41.33 151.48 M0.13 207.84 C7.27 193.13, 21.95 183.83, 42.33 155.78 M-0.38 204.99 C13.11 190, 26.31 176.11, 43.62 159.65 M-3.9 215.22 C10.1 205.5, 15.05 197.93, 38.58 164.3 M-1.56 214.51 C12.24 199.25, 22.22 185.49, 43.53 166.98 M-1.98 220.29 C9.8 204.94, 28.67 187.3, 43.56 167.78 M-0.35 218.48 C11.49 205.18, 24.69 193.44, 42.79 172.2 M0.44 222.5 C7.58 211.1, 18.08 202.96, 43.56 179.39 M-1.31 225.74 C12.99 210.72, 24.91 199.98, 44.06 175.14 M3.43 229.75 C13.16 218.7, 22.89 208.35, 45.23 187.35 M-1.92 232.04 C8.41 221.52, 19.81 210.81, 40.54 183.49 M1.1 235.22 C13.58 220.46, 29.31 208.99, 45.51 191.31 M1.05 238.68 C17.46 220, 31.43 200.28, 41.1 188.9 M-3.85 241.52 C16.46 226.46, 29.93 210.99, 45.46 194.7 M1.34 244.48 C12.21 229.94, 23.77 218.21, 41.35 197.25 M-3.56 253.57 C19.06 231.13, 26.45 220.03, 42.81 201.65 M0.89 248.45 C12 236.85, 22.77 223.13, 43.27 201.28 M0.81 258.94 C15.66 244.42, 26.5 225.59, 42.55 205.09 M-1.1 253.97 C12.47 242.85, 23.75 227.17, 43.09 206.57 M-2.98 260.3 C13.04 247.81, 23.45 232.54, 41.39 215.6 M-1.06 263.01 C13.95 244.16, 28.64 228.59, 42.9 212.18 M2.23 264.19 C13.82 252.8, 30.94 231.09, 41.68 221.83 M0.63 268.77 C14.14 252.17, 26.12 239.65, 41.74 220.88 M1.59 277.25 C9.98 262.03, 23.91 249.17, 45.31 226.86 M-0.61 273.66 C11.85 260.06, 22.96 246.92, 40.73 227.31 M-3.24 279 C10.59 264.2, 29.78 247.82, 42.19 233.06 M-1.84 281.96 C13.46 267.78, 23.71 252.96, 40.66 232.68 M3.75 286.29 C15.32 269.33, 28.51 253.9, 40.86 234.23 M-1.53 286.03 C13.47 274.38, 24.22 259.9, 43.9 236.73 M-1.1 293.65 C19.31 271.94, 32.29 256.28, 40.96 240.48 M1.51 294.49 C15.3 274.95, 32.79 255.8, 39.96 244.36 M3.29 298.12 C18.32 281.4, 32.49 261.22, 43.16 250.57 M1.82 298.88 C7.8 284.93, 17.04 273.97, 42.64 249.87 M1.38 307.48 C8.1 296.89, 15.61 286.59, 39.03 260.34 M1.1 305.64 C12.4 293.25, 24.88 278.75, 41.12 255.11 M1.52 309.01 C12.3 296.75, 33.77 274.33, 42.89 260.29 M-2.15 310.78 C11.83 294.23, 27.73 276.98, 42.94 262.96 M-2.22 313.93 C15.78 297.53, 29.05 284.29, 41.67 267.96 M0.46 316.05 C7.65 306.15, 17.28 296.99, 41.08 267.48 M-0.08 325.77 C13.08 307.4, 32.02 285.26, 44.86 276.36 M-1.68 323.16 C15.11 308.44, 27.44 294.89, 43.12 274.11 M1.84 329.21 C6.06 318.27, 17.97 307.5, 40.96 278.74 M1.47 330.43 C15.65 310.98, 30.15 292.91, 40.83 282.37 M0.19 334.28 C14.78 322.33, 19.47 306.54, 44.11 284.83 M0.43 334.78 C12.74 319.53, 31 302.56, 43.99 285.76 M2.86 341.13 C8.94 326.87, 20.4 314.47, 42.55 289.62 M-2.18 340.35 C12.33 324.56, 27.02 310.19, 42.09 294.51 M2.87 348.49 C13 339.25, 17.5 325.11, 40.52 301.79 M-0.53 348.75 C8.63 335.98, 18.3 325.83, 41.39 299.7 M-3.72 350.02 C18.17 335.08, 34.24 313.38, 40.21 304.09 M-0.48 355.22 C14.62 339.22, 28.99 322.94, 40 303.49 M2.67 359.16 C18.2 338.57, 36.98 320.47, 42.17 314.17 M2.1 359.3 C10.55 346.9, 23.63 332.55, 43.57 311.79 M-0.24 369.3 C6.23 356.8, 20.1 349.32, 39.96 316.75 M-0.93 364.79 C15.72 347.9, 27.84 334.01, 41.09 316.23 M-0.13 370.62 C18.89 354.85, 28.5 336.26, 44.64 324.45 M-0.25 370.46 C13.82 360.64, 24.69 346.02, 40.53 322.78 M3.82 378.46 C10.65 362.8, 26.59 346.52, 42.65 330.21 M-0.02 378.17 C13.53 365.94, 23.44 348.55, 43.98 330 M-1.14 385.74 C15.55 372.82, 26.45 355.17, 45.71 335.65 M1.22 383.13 C10.5 371.27, 17.67 359.88, 40.67 337.21 M-0.87 391.78 C14.57 373.36, 30.67 358.5, 39.31 343.93 M2.21 390.53 C15.33 370.71, 32.63 352.9, 40.69 343.16 M0.29 398.47 C12.76 387.88, 16.21 375.58, 45.34 351.89 M-1.24 397.54 C14.28 381.66, 29.81 366.2, 40.78 346 M-4.06 399.11 C13.74 388.48, 19.66 377.75, 38.52 350.92 M-0.56 401.92 C12.49 386.76, 26.57 369.47, 41.99 353.93 M-0.38 410.82 C12.44 400.12, 19.11 386.38, 44.35 363.32 M0.66 408.28 C13.51 390.52, 27.58 374.48, 42.76 361.4 M-1.38 414.88 C5.31 405.47, 15.05 393.51, 40.99 362.74 M-0.26 416.22 C10.22 401.79, 18.22 393.29, 42.03 367.34 M-2.13 422.37 C11.75 408.93, 14.33 398.31, 39.75 374.94 M-0.03 419.78 C9.41 406.34, 23.96 393.38, 42.89 371.77 M-2.23 430.55 C12.95 417.13, 21.8 401.13, 39.69 378.03 M-0.38 427.64 C13.71 410.82, 27.93 394.65, 40.39 377.8 M0.19 431.23 C8.66 422.12, 20.79 405.69, 44.08 387.27 M-0.88 433.3 C13.63 415.81, 27.35 403.24, 41.2 384.29 M0.84 439.66 C14.25 426.42, 23.13 415.19, 42.38 391.48 M0.65 439.75 C17.01 422.26, 31.31 401.32, 42.71 392.04 M-0.03 442.62 C11.35 430.3, 22.46 425.03, 44.04 397.42 M-0.02 445.45 C9.35 430.12, 23.04 418.2, 42.11 395.99 M2.81 451.33 C10.59 441.48, 15.17 433.92, 43.05 398.61 M-1.87 452.97 C13.88 435.33, 27.28 419.58, 42.05 403.89 M1.44 453.8 C7.66 448.35, 21.87 432.24, 40.53 407.55 M0.46 455.2 C16.82 439.52, 34.78 419.33, 40.46 408.25 M0.79 467.21 C10.71 457.05, 17.96 440.54, 41.21 416.5 M1.76 463.54 C12.29 447.48, 23.74 434.06, 40.2 417.03 M-0.99 466.82 C13.04 459.35, 19.78 450, 39.31 417.9 M-0.09 470.58 C10.86 459.27, 20.96 444.64, 42.17 421.81 M2.15 474.04 C10.28 467.46, 19.9 453.18, 40.51 428.76 M1.68 474.06 C13.39 458.99, 30 444.29, 40.35 427.98 M-3.38 485.33 C13.85 473.11, 19.05 463.7, 38.34 431.49 M0.41 483.51 C9.66 468.78, 22.41 459.86, 41.54 431.46 M-0.92 484.59 C6.7 477.81, 19.32 460.8, 40.84 442.09 M1.07 488.48 C12.62 475.1, 19.66 462.25, 41.1 440.6 M-1.63 491.52 C17.65 475.87, 30 456.89, 39.07 442.95 M-0.6 492.71 C10.95 483.22, 18.75 471.34, 42.65 444.88 M3.96 502.48 C13.89 484.62, 20.11 470.24, 44.93 455.26 M1.53 498.82 C14.48 479.58, 31.73 462.76, 41.14 453.1 M0.59 502.65 C19.3 486.27, 33.39 471.97, 45.15 455.42 M-0.2 506.26 C10.33 496.08, 18.11 483.4, 39.94 457.56 M-3.29 510.87 C12.74 494.15, 26.16 481.25, 45.69 463.84 M0.41 511.98 C12.3 499.46, 23.89 487.15, 40.54 464.77 M-1.57 516.04 C16.26 502.21, 31.24 478.69, 38.42 473.13 M-1.45 516.6 C12.71 504.47, 22.42 495.87, 40.29 471.36 M3.39 521.49 C7.55 507.98, 20.41 494.18, 45.56 472.96 M-0.56 524.66 C16.37 505.1, 31 486.2, 42.14 474.77 M-2.75 529.83 C10.85 517.19, 21.22 508.03, 41.59 478.39 M0.02 531.23 C15.69 512.23, 31.72 493.48, 43.64 481.46 M0.29 535.13 C14.03 521.73, 32.11 506.02, 39.14 490.31 M-1.23 537.93 C13.38 521.29, 31.05 503.3, 40.14 489.08 M-0.08 539.72 C15.69 527.31, 31.21 507.02, 41.52 492.28 M1.32 543.53 C10.7 532.99, 20.36 521.12, 40.34 495.15 M0.54 550.63 C13.2 532.46, 18.66 523.77, 45.26 502.66 M1.62 548.21 C14.96 533.63, 30.39 516.08, 42.19 499.02 M-2.51 555.95 C16.19 532.87, 34.4 514.81, 40.64 507.48 M0.95 555.7 C6.98 544.72, 18.79 532.37, 40.49 506.55 M1.47 561.67 C14.77 546.26, 24.35 533.71, 41.57 508.83 M-0.37 562 C13.2 542.93, 26.85 527.61, 42 512.28 M1.21 563.85 C11.42 557.54, 22.27 539.63, 39.51 521.21 M0.82 565.29 C10.37 557.59, 22.82 544.21, 42.56 519.65 M-4.08 569.48 C11.36 566.38, 16.25 550.66, 39.93 524.44 M-1.83 574.64 C16.08 558.25, 29.76 540.92, 40.69 523.63 M1.19 580.81 C14.29 560.09, 31.05 546.78, 44.93 527.76 M-1.07 580.19 C16.07 562.89, 30.78 544.1, 43.45 530.75 M2.9 583.83 C13.66 568.34, 20.93 556.81, 41.72 538.71 M1.01 585.33 C11.01 570.49, 25.77 560.33, 40.1 537.68 M1.71 589.03 C16.24 571.73, 37.05 553.41, 44.52 543.49 M-1.33 589.39 C18.05 573.66, 32.56 553.9, 43.16 543.51 M3.64 599.59 C18.49 575.25, 31.63 556.59, 44.47 547.38 M0.33 595.6 C13.37 583.66, 26.64 568.01, 43.5 547.88 M0.59 604.25 C15.91 590.99, 23.35 574.25, 42.1 555.56 M-1.81 605.73 C8.47 593.11, 17.71 579.86, 42.04 555.69 M-3.8 605.67 C12.28 596.98, 15.45 589.24, 41.94 561.27 M1.38 608.32 C8.39 601.48, 15.52 590.95, 41.54 563.03 M3.8 612.81 C5.58 609.06, 17.21 596.94, 45.02 566.69 M-1 616.87 C15.15 598.81, 29.15 585.5, 42.24 565.89 M-1.16 621.8 C9.35 607.52, 21.64 599.59, 38.74 575.28 M-0.17 622.48 C10.24 609.15, 20.86 598, 40.97 574.29 M1.55 628.08 C13.36 610.52, 25.49 603.09, 38.8 580.18 M0.07 627.84 C17.91 608.74, 30.38 590.67, 40.25 580.54 M-2.64 631.27 C7.68 627.67, 18.79 615.54, 45.65 589.09 M-0.92 635.89 C13.1 615.11, 29.79 601.07, 41.94 585.88 M-1.14 643.52 C8.55 625.46, 21.55 612.97, 43.15 592.39 M-1.58 640 C10.27 629.12, 19.49 617.7, 41.02 592.43 M-0.31 645.92 C13.75 636.18, 20.82 624.5, 43 595.98 M-1.07 648.2 C11.57 633.35, 23.93 620.31, 43.33 597.89 M2.97 653.37 C12.57 636.18, 30.88 619.75, 38.65 601.71 M-1.54 653.81 C11.19 640.88, 22.28 630.51, 42.56 603.69 M-4.01 658.68 C14.13 641.71, 31.31 618.32, 43.25 607.74 M1.6 659.42 C9.58 643.9, 23.58 633.73, 43.42 609.24 M2.63 665.47 C11.22 651.62, 21.2 645.08, 42.05 613.39 M1.38 663.57 C7.64 655.48, 16.99 645.88, 41.27 616.54 M-2.72 668.53 C15.46 654.01, 29.51 636.44, 43.1 623.28 M0.37 668.9 C16.35 652.56, 32.45 631.81, 41.92 624.2 M-1.25 678.2 C12.03 661.86, 21.6 655.57, 45.64 628.21 M1.73 676.41 C12.83 663.29, 25.21 648.84, 41.32 628.06 M-1.25 685.24 C13.02 666.3, 33.4 648.09, 46.08 637.53 M0.93 682.08 C15.59 666.57, 31.33 646.29, 40.6 635.39 M-3.53 688.99 C14.18 675.07, 23.33 660.97, 39.87 643.53 M1.5 690.84 C13.91 673.95, 28.04 659.59, 43.23 641.14 M-0.88 694.19 C10.95 680.21, 25.76 670.29, 41.94 646.26 M-1.28 697.24 C17.38 677.09, 31.85 657.13, 40.63 646.51 M3.77 703.37 C10.13 688.31, 17.42 676.77, 45.39 653.75 M-1.27 699.67 C10.4 689.51, 23.68 673.74, 41.99 651.03 M-0.72 705.27 C13.36 690.57, 30.55 676.56, 41.91 658.79 M-0.43 708.51 C12.88 691.87, 24.11 678.19, 39.94 659.12 M2.79 715.65 C6.98 702.28, 20.93 693.29, 39.72 667.36 M0.89 712.84 C18.16 696.17, 32.69 674.73, 43.63 664.35 M2.32 721.47 C16.82 697.73, 29.05 684.23, 45.42 675 M1.73 720.37 C9.32 709.31, 19.57 698.48, 41.83 671.6 M1.25 729.73 C16.03 708.9, 30 693.65, 40.54 679.65 M-1.82 724.12 C9.56 714.87, 20.03 701.58, 42.59 677.77 M-3.8 731.83 C13.54 716.43, 30.62 699.66, 40.1 685.84 M0.51 730.62 C10.5 719.91, 20.46 709.08, 41.04 681.69 M-1.02 736.03 C7.02 721.89, 24.36 708.13, 45.09 693.48 M0.19 738.11 C11.49 721.99, 23.58 708.38, 43.06 688.84 M-2.96 740.2 C14.73 727.08, 20.72 713.29, 40.42 698.31 M1.63 745.19 C9.64 734.01, 21.29 719.85, 40.37 693.48 M-3.93 752.07 C8.91 740.2, 20.17 731.59, 44.75 704.24 M1.94 748.78 C14.63 735.97, 25.74 719.15, 43.61 702.93 M-3.5 754 C18.65 735.82, 37.3 714.73, 43.04 708.24 M-1.42 756.82 C9.01 744.57, 21.33 734.21, 44.03 708.14 M-0.58 759.42 C10.1 755.42, 18.56 743.22, 41.11 716.43 M0.5 762.42 C7.65 751.1, 15.69 744.06, 43.25 711.76 M0.41 769.2 C12.26 750.55, 29.7 736.14, 38.16 721.01 M1.19 768.1 C16.07 750.76, 27.9 734.46, 42.97 718.7 M2.12 772.47 C14.47 759.26, 35.44 738.29, 44.63 728.58 M0.37 772.43 C12.38 759.14, 26.08 745.56, 42.03 724.4 M-3.19 778.84 C10.04 769.99, 17.92 762.84, 40.13 728.57 M1.76 781.99 C15.42 760.99, 32.69 743.17, 43.53 733 M2.83 787.17 C16.02 768.7, 30.73 755.04, 45.93 738.05 M-1.22 786.05 C12.48 772.54, 27.44 754.76, 42.44 738.01 M2.57 790.02 C15.17 779.85, 22.94 761.24, 39.53 741.92 M-0.37 792.76 C12.33 777.78, 27.31 763.99, 41.48 744.26 M-3.68 798.02 C12.47 777.22, 31.39 764.47, 43.17 753.75 M-1.64 799.35 C7.66 788.72, 19.28 777.37, 42.7 748.59 M8.01 798.63 C19.14 784.88, 28.55 778.52, 41.75 760.14 M3.8 798.76 C12.99 788.28, 22.3 779.31, 42.65 758.03 M8.09 802.51 C19.37 789.13, 26.26 775.07, 40.68 765.15 M11.64 799.69 C21.91 788.45, 32.9 773.01, 41.41 761.99 M18.39 797.39 C26.44 792.92, 30.21 783.1, 38.41 767.12 M16.44 796.45 C24.42 786.86, 32.55 778.56, 44.28 766.95 M21.5 798.36 C26.82 794.42, 32.4 781.63, 41 774.81 M22.25 796.91 C26.35 793.04, 30.84 785.21, 43.59 776.41 M25.91 795.88 C31.49 797.28, 39.48 791.89, 42.63 784.29 M26.87 798.45 C32.85 791.59, 34.78 786.1, 40.35 781.52 M29.23 799.76 C34.14 792.06, 40.74 790.5, 43.25 783.98 M33.31 798.06 C33.67 796.81, 38.39 793.43, 41.53 785.63 M38.38 797.7 C37.31 795.56, 39.48 795.14, 41.19 792.59 M36.93 798.73 C38.61 796.88, 40.37 795.48, 42.08 793.08 M0.16 798.52 C0.16 798.52, 0.16 798.52, 0.16 798.52 M0.16 798.52 C0.16 798.52, 0.16 798.52, 0.16 798.52 M5.42 797.3 C4.59 797.71, 3.02 794.41, 0.17 794.16 M6.34 798.83 C4.08 796.99, 2.07 794.91, -0.78 792.53 M13.71 798.3 C8.61 797.04, 2.23 793.19, -0.67 786.75 M11.59 799.41 C7.28 793.99, 5.94 791.49, 1.35 786.9 M20.47 799.66 C7.99 793, 5.12 785.29, 2.76 778.47 M18.55 797.67 C11.64 791.84, 6.84 786.98, 0.2 781.19 M21.73 796.04 C18.18 790.44, 14 788.39, 2.18 780.58 M24.02 797.88 C16.31 791.9, 10.56 785.27, 0.64 776.72 M32.13 796.61 C23.96 793.42, 9.16 780.78, 1.99 773.22 M29.31 798.31 C22.77 793.79, 17.86 785.03, -2.24 773.15 M37.07 801.52 C23.46 787.93, 18.83 782.17, -1.18 764.09 M37.58 798.23 C25.15 788.58, 17.19 780.9, -0.34 768.41 M42.21 800.53 C30.96 786.43, 17.55 772.92, -0.81 757.09 M42.03 796.83 C26.65 785.07, 10.16 769.6, -1.26 761.1 M41.06 795.97 C23.91 777.23, 15.35 767.15, -2.63 759.65 M42.65 793.8 C24.36 780.09, 8.29 766.82, 0.84 757.72 M42.71 786.63 C29.45 773.84, 21.5 772.19, 1.28 751.65 M41.15 785.17 C25.54 772.07, 13.9 761.31, 0.23 751.33 M42.86 778.72 C35.72 773.1, 21.23 766.68, 2.33 748.74 M41.18 784.01 C32.14 773.86, 20.77 764.87, 0.73 744.76 M43.7 779.99 C31.88 771.04, 25.93 762.46, 2.11 739.93 M43.39 778.41 C29.06 763.78, 18.56 753.41, -0.53 741.91 M43.85 771.14 C28.48 764.9, 17.61 749, 2.41 731.64 M40.56 772.63 C28.78 760.65, 19.86 753.24, 0.25 735.71 M44.14 766.65 C27.06 756.88, 10.36 740.79, -0.54 731.83 M42.58 763.84 C32.21 757.84, 19.94 749.47, 0.84 729.99 M45.57 762.19 C33.54 751.19, 19.52 744.26, -1.53 723.47 M43.58 759.27 C25.95 745.72, 9.51 731.32, -1.24 724.86 M39.14 755.47 C28.14 743.59, 10.88 731.9, 3.56 716 M42.94 756.9 C27.74 745.56, 14.98 732.54, -1.6 717.83 M43.75 749.62 C29.26 735.38, 9.5 725.71, -0.41 710.13 M40.4 750.64 C30.72 739.39, 18.63 729.24, 0.02 712.58 M40.04 742.1 C31.2 738.85, 25.2 731.72, -1.93 709.27 M41.09 743.06 C26.32 730.92, 13.42 718.22, -1.14 708.09 M40.31 736.01 C25.47 726.49, 11.57 716.16, 3.03 700.36 M42.61 738.54 C33.76 729.31, 22.9 723.72, -1.82 703.35 M39.09 737.67 C31.46 721.21, 16.48 711.84, 0.86 697.27 M40.83 736.6 C31.04 727.55, 24.14 716.01, 0.34 698.55 M39.33 732.73 C27.68 719.49, 17.9 710.57, -1.78 689.69 M41.2 729.86 C25.55 716.8, 11.35 702.84, -0.18 691.74 M42.48 722.18 C30.78 708.25, 15.22 696.16, 3.94 686.45 M44.09 723.89 C27.8 712.23, 13.24 698.14, -1.66 688.06 M43.12 715.98 C29.37 702.1, 9.36 686.6, 2.81 680.47 M40.56 716.59 C33.45 711.34, 23.7 704.22, -2.11 680.4 M38.84 716.37 C30.62 705.64, 18.2 691.73, 1.56 676.07 M41.47 713.37 C31.44 704.57, 19.7 692.82, -0.19 678.59 M40.14 710.78 C27.05 696.13, 8.5 678.94, 2.62 669.88 M40.49 705.82 C33.87 698.34, 23.65 690.99, -2.2 670.09 M40.25 703.17 C33.29 695.36, 17.55 682.47, 2.11 662.2 M43.22 702.92 C31.69 690.8, 18.68 682.55, 1.06 665.18 M41.06 698.94 C30.2 684.82, 19.15 682.27, 3.64 661.88 M42.21 697.71 C35.09 689.01, 25.01 680.79, -0.69 661.65 M38.96 688.29 C31.27 680.53, 11.05 668.21, 0.21 657.71 M42.02 690.5 C31.8 682.98, 22.77 674.87, 1.84 653.98 M42.73 687.1 C23.58 672.73, 8.86 658.84, -3.93 647.27 M42.32 687.54 C31.82 678.83, 24.27 671.18, -1.38 650.03 M43.41 680.28 C34.81 670.51, 26.42 660.76, -3.36 648.32 M42.92 680.2 C27.31 667.58, 14.78 657.84, -0.7 644.22 M40.18 678.7 C31.68 669.94, 19.82 659.06, -1.7 639.66 M42.84 675.67 C32.22 669.83, 24.25 660.92, -1.67 638.25 M42.24 670.5 C31.59 664.69, 18.48 651.39, 2.37 636.52 M41.39 672.16 C26.87 657.96, 10.52 641.62, 1.99 634.25 M38.65 662 C32.5 651.65, 19.54 646.16, -2.35 632.1 M41.21 665.55 C27.13 654.74, 15.42 642.68, 2.2 628.12 M40.27 661.1 C31.45 652.71, 24.37 643.38, 2.57 621.64 M41.33 660.64 C28.31 651.5, 17.36 637.88, -0.14 623.47 M41.55 654.08 C31.27 642.74, 12.23 636.49, -0.64 614.52 M40.24 653.75 C30.46 644.25, 19.95 636.48, 2.13 619.52 M38.49 653.06 C31.06 644.29, 27.07 631.51, 0.6 611.81 M41 647.98 C30.19 639.13, 17.52 625.62, -1.73 614.42 M38.47 640.81 C30.33 633.81, 20.97 629.46, 3.14 605.62 M42.2 643.89 C27.6 629.99, 8.11 616.3, 0.7 608.45 M46.12 642.18 C28.92 625.35, 14.21 618.5, -2.02 603.99 M43.11 638.63 C29.22 628.15, 15.05 615.76, 0.01 602.7 M41.21 636.9 C32.68 625.32, 21.91 617, 4.12 598.24 M42.71 632.72 C30.13 621.56, 18.01 610.26, 2.11 598.3 M44.53 631.05 C28.74 618.28, 18.56 605.67, -1.56 587.91 M40.75 629.13 C31.27 618.11, 17.79 608.59, -0.77 591.03 M40.49 626.51 C29.27 614.73, 16.5 603.92, -2.39 588.06 M41.58 624.72 C29.57 613.7, 19.32 604.78, -0.99 586.57 M39.28 617.1 C29.07 606.33, 14.08 595.55, -4.1 582.17 M43.43 618.1 C29.97 605.2, 15.62 594.58, -0.46 579.19 M38.97 612.65 C33.09 599.15, 14.44 591.77, -0.87 577.54 M41.76 611.52 C28.06 601.02, 14.04 588.52, -1.57 574.88 M40.14 604.54 C32.21 597.83, 18.42 585.91, 2.46 574.14 M43.05 608.26 C25.02 594.89, 12.04 581.25, -0.1 570.09 M43.76 601.1 C32.78 592.26, 21.01 584.52, 0.36 563.98 M43.88 601.78 C25.76 590.49, 14.76 576.3, -0.18 566.9 M41.05 592.43 C32.83 586.99, 20.38 576.12, -3.59 556.02 M43.94 596.42 C29.35 588, 18.53 576.38, 0.73 559.72 M43.39 593.82 C30.72 579.31, 25 578.41, -2.8 551.49 M41.19 592.61 C24.75 576.43, 8.65 561.81, 1.01 554.43 M40.14 586.61 C34.29 581.82, 24.5 566.78, -1.79 552.81 M40.82 587.51 C33.06 577.22, 25.88 569.35, -2.18 547.15 M44.58 577.56 C24.98 570.27, 15.36 556.65, 1.7 546.97 M42.38 580.23 C27.53 569.82, 12.46 557.72, 0.26 543.34 M43.73 571.74 C31.32 564.16, 21.94 555.4, 2.54 538.35 M40.82 576.52 C27.03 561.95, 8.48 549.13, 0.38 536.55 M44.26 567.89 C30.99 560.2, 8.9 538.84, -1.87 532.15 M41.53 569.93 C29.57 558.69, 20.36 549.08, -1.76 531.6 M38.33 563.31 C29.92 551.29, 14.6 545.7, -1.76 527.25 M41.46 562.54 C29.6 556.51, 20.53 546.14, 1.02 527.21 M41.52 557.2 C29.36 546.55, 16.07 541.21, 2.93 523.58 M44.13 558.11 C33.21 551.11, 22.1 539.98, 0.02 523.28 M42.63 555.6 C34.79 544.05, 22.36 540.04, -3.64 514.98 M40.7 554.78 C26.04 541.85, 11.74 525.51, -2.24 515.48 M41.64 550.69 C35.19 541.88, 18.49 528.98, -3.27 512.6 M41.07 550.26 C25.85 533.89, 9.37 519.89, 1.05 510.53 M39.52 541.72 C35.72 535.54, 24.91 529.27, 2.86 506.43 M42.89 542.51 C29.29 532.07, 20.5 523.61, 0.79 505.48 M44.12 538.36 C27.16 526.73, 15.19 515.64, 0.35 501.39 M42.66 538.95 C27.08 525.18, 11.66 511.33, 1.24 499.62 M44.06 533.58 C32.73 521.92, 23.39 513.3, 3.67 493.39 M40.77 533.12 C27.61 519.45, 8.99 505.94, -0.58 496.44 M38.6 531.03 C26.91 517.15, 17.3 507.44, -1.2 490.91 M40.59 525.87 C31.12 518.55, 21.14 508.2, -1.15 492.89 M43.5 525.91 C30.65 515.24, 15.26 503.78, -2.88 486.37 M41.51 522.07 C32.52 515.72, 19.76 503.58, 0.65 484.66 M40.94 516.35 C29.69 501.85, 6.46 492.89, 1.27 476.96 M41.99 515.77 C26.65 504.89, 8.6 489.36, 0.58 478.78 M41.31 508.25 C29.87 497.96, 12.65 489.7, 3.02 476.08 M40.67 510.93 C28.85 500.38, 13.61 487.85, 0.13 474.88 M41.18 502.74 C28.73 497, 20.37 491.88, -2.85 470.15 M43.38 506.54 C33.99 498.56, 23.26 489.2, -0.47 469.82 M45.85 501.61 C27.57 489.37, 7.21 476.08, 3.33 462.03 M40.99 502.02 C28.38 493.05, 18.32 479.33, 0.9 462.93 M39.53 499.48 C28.85 487.09, 15.86 472.16, 0 459.88 M40.68 495.11 C27.81 484.81, 15.08 471.24, 1.21 460.65 M39.45 487.84 C28.77 482.01, 18.95 464.3, 2.22 456.54 M43.32 489.77 C28.88 477.31, 14.11 466.28, -0.57 453.74 M42.43 488.63 C29.38 473.51, 27.21 469.04, 3.58 450.39 M43.22 483.54 C29.37 471.12, 11.34 461.32, 1.52 449.98 M42.85 481.58 C28.8 465.86, 7.55 449.25, -1.96 440.74 M41.22 478.7 C25.8 464.26, 9.59 451.59, -0.43 443.33 M42.46 477.08 C31.76 463.81, 14.37 447.53, 1.83 440.71 M43.75 472.98 C32.47 463.52, 20.12 455.44, 0.79 438.64 M44.27 467.61 C31.24 458.33, 17.77 450.6, 3.33 432.58 M43.88 470.74 C25.19 454.28, 10.99 440.51, -1.39 432.81 M38.42 460.53 C36.31 455.53, 27.15 445.26, 0.89 428.7 M40.4 465.66 C27.45 448.56, 10.02 438.07, -2.27 427.52 M44.07 461.53 C32.45 449.22, 20.85 441.76, 0.8 418.82 M42.88 459.92 C26.3 445.23, 12.34 432.89, 1.2 422.38 M39.27 451.48 C27.59 438.72, 6.66 424.57, -0.92 415.02 M42.73 454.91 C32.3 444.03, 23.81 437.38, -0.53 415.64 M42.83 449.77 C24.66 437.91, 12.07 427.54, 3.39 415.03 M42.25 446.39 C28.12 433.72, 14.19 420.18, 1.45 413.35 M44.19 443.25 C27.99 429.39, 15.3 415.73, -1.1 407.14 M41.7 443.17 C28.81 430.19, 18.69 421.85, -0.45 406.09 M45.31 441.55 C27.73 424.52, 13.33 408.88, 2.18 397.59 M40.38 438.35 C28.79 424.58, 15.26 414.56, 0.82 402.11 M38.52 429.99 C28.86 423, 16.18 408.25, 3.8 392.03 M43.67 431.94 C26.71 418.23, 10.6 403.57, 0.67 396.72 M40.44 424.91 C25.96 412.07, 14.24 404.73, 2.47 387.7 M44.1 426.12 C33.51 416.34, 24.19 410.71, -1.77 390.15 M45.8 418.62 C34.67 413.12, 18.81 400.96, 3.16 385.46 M40.41 419.85 C26.41 406.99, 9.78 392.84, 1.67 383.5 M45.37 418.7 C26.86 406.01, 18.66 391.86, 3.72 383.36 M42.62 416.11 C28.91 406.73, 17.11 396.33, -0.03 378.05 M43.76 408.92 C26.97 399.48, 23.15 393.91, -3.21 376.01 M43.09 412.59 C31.89 401.32, 19.47 389.64, 0.05 374.46 M45.4 404.59 C23.78 389.62, 11.09 380.66, 3.61 371.41 M41.58 404.84 C34.08 399.54, 22.78 392.05, 1.75 367.48 M40.31 397.46 C25.92 390.63, 13.01 376.26, 3.96 366.4 M40.31 400.97 C27.42 387.2, 11.29 371.06, -1.03 365.08 M46.06 395.06 C31.75 388.38, 22.09 377.12, 1.99 355.47 M41.02 396.88 C26.87 383.05, 13.96 370.11, -1.32 359.21 M46.31 390.27 C29.44 379.41, 19.32 369.34, 4.11 354.17 M40.8 391.54 C28.77 380.6, 18.04 367.92, 2.01 352.93 M45.02 381.39 C24.78 373.85, 18.64 359.06, -3.12 343.99 M41.37 382.94 C30.29 375.4, 21.19 366.82, -0.71 347.12 M44.53 380.23 C30 363.08, 12.48 351.06, -3.13 343.69 M44.44 377.98 C27.4 368.25, 12.53 356.09, -0.87 343.66 M44.18 377.68 C33.95 367.14, 17.64 354.63, -3.48 338.23 M41.48 373.8 C34.56 365.09, 23.39 359.96, -0.51 336.14 M46.2 371.03 C31.77 353.07, 12.31 343.63, -1.94 334.1 M40.8 367.01 C28.29 355.48, 18.18 346.23, 0.72 333.03 M45.6 360.86 C31.31 358.15, 27.3 345.17, -0.67 328.25 M40.61 362.34 C28.61 350.76, 17.49 341.61, 0.62 328.34 M44 354.46 C29.11 346.91, 12.92 330.88, 3.69 323.4 M44.08 357.83 C29.56 345.52, 15.87 331.19, -0.45 320.88 M39.54 354.65 C29.62 340.89, 23.56 335.56, -2.11 312.95 M40.42 353.53 C30.43 341.94, 16.94 330.64, -0.57 316.86 M40.76 347.18 C29.84 333.03, 20.19 327.11, 1.95 312.36 M43.9 348.69 C30.59 337.01, 21.31 328.84, 0.83 309.15 M40.44 345.59 C33.44 333.97, 17.9 321.7, -1 304.02 M42.97 342.43 C33.3 335.18, 24.84 326.35, -1.95 303.93 M45.52 338.62 C29.35 321.13, 11.76 310.46, 1.22 300.6 M43.28 338.96 C29.37 324.61, 12.39 309.73, 0.15 299.88 M42.94 335.03 C30.55 320.05, 20.03 314.97, 3.64 297.97 M40.74 332.21 C27.66 318.2, 15.56 305.07, -1.96 294.89 M45.52 327.04 C25.57 311.78, 14.08 297.58, 2.08 290.53 M40.63 327.09 C29.65 313.06, 15.23 302.86, 1.52 289.21 M41.85 319.14 C23.94 312.53, 9.9 293.45, 3.72 280.77 M42.61 320.12 C29.32 310.07, 13.28 297.56, -0.9 284.82 M42.17 315.52 C27.95 301.15, 9.38 291.24, 1.27 275.37 M43.8 316.64 C32.72 307.14, 21.09 297.9, -0.67 277.34 M44.19 308.9 C23.91 296.67, 13.99 280.54, -0.91 277.25 M39.86 311.5 C30 300.96, 19.34 290.75, 2.1 273.92 M39.06 307.94 C26.99 289.99, 14.76 283.12, 3.75 267.16 M44.02 306.25 C33.73 298.58, 24.23 289.8, 0.42 266.6 M41.14 302.09 C30.95 292.14, 20.44 278.36, -1.97 263.01 M40.18 297.8 C31.56 289.94, 20.59 278.81, -0.44 261.47 M45.98 296.99 C27.27 283.23, 14.08 266.94, 2.65 260.76 M41.94 295.65 C25.91 280.63, 9.4 266.36, -1.99 259.39 M44.09 287.32 C23.2 273.68, 9.6 264.22, 2.27 253.81 M41.68 290.55 C29.16 277.55, 16.16 264.84, -1.35 253.16 M42.91 284.19 C34.85 276.08, 22.49 267.01, -0.72 245.84 M41.61 283.69 C29.63 272.18, 14.6 258.04, 1.72 248.22 M41.36 280.66 C32.73 269.74, 19.73 257.66, 3.73 238.22 M43.61 280.04 C29.48 269.2, 15.31 257.39, -0.04 243.81 M40.01 275.85 C33.83 265.65, 25.44 260.07, -0.84 234.86 M40.49 274.28 C31.48 261.86, 19.57 253.67, -0.41 237.69 M39.2 271.02 C35.24 257.78, 23.49 249.58, -3.5 229.62 M41.37 266.68 C33.56 259.18, 21 247.8, -0.53 231.31 M41.64 263.11 C32.94 250.29, 14.82 240.36, -0.03 227.13 M43.44 262.44 C33.81 254.94, 20.95 245.04, 0.07 226.49 M46.31 260.1 C30.13 244.39, 12.03 233.66, -3.12 222.21 M41.04 258.93 C34.6 249.23, 26.44 243, -1.42 222.63 M42.33 249.91 C29.8 242.54, 20.99 228.99, 3.59 212.73 M40.73 252.29 C30.51 240.47, 19.85 230.42, -2.01 213.4 M42.82 247.76 C30.99 238.08, 14.9 223.85, -0.66 211 M42.34 248.71 C30.49 236.41, 20.31 226.63, 2.1 211.87 M38.8 241.02 C35.18 232.94, 19.95 227.21, -3.89 200.6 M42.03 243.04 C27.83 229.87, 14.43 217.41, 0.62 203.29 M41.05 236.65 C28.78 224.68, 17.38 211.82, -3.46 195.81 M41.39 238.02 C27.74 220.54, 11.19 209.24, 0.23 198.2 M41.98 230.01 C26.4 223.5, 19.38 213.05, -0.23 190.45 M42.44 230.97 C29.9 221.24, 18.1 210.33, 1.61 193.15 M41.51 228.26 C35.24 220.36, 17 206.32, -0.66 185.27 M40.74 224.96 C23.58 210.71, 9.39 195.15, -1.43 187.89 M40.95 219.25 C31.71 206.55, 11.69 195.11, -2.98 184.82 M40.43 219.5 C27.91 207.73, 15.09 192.8, -0.96 182.04 M44.89 218.88 C25.4 204.87, 17.4 195.48, 0.76 176.83 M43.32 213.72 C25.88 202.98, 14.22 189.15, 0.16 180.3 M39.02 207.95 C27.99 194.57, 10.63 184.07, -1.51 169.08 M39.91 209.09 C27.38 195.28, 13.8 182.63, 1.37 173.12 M40.07 203.6 C32.57 191.08, 16.39 178.58, -3.96 168.75 M42.49 204.58 C26.22 190.28, 11.28 174.03, -0.57 165.89 M41.64 196.12 C32.24 192.19, 28.06 183.14, -0.25 164.03 M40.17 199.35 C27.06 186.29, 12.36 173.97, 2.24 164.29 M40.12 196.35 C30.82 185.7, 27.41 180.57, 2.59 156.11 M43.99 191.93 C27.41 184.67, 17.08 175.27, 0.19 156.2 M44.5 188.57 C26.27 178.79, 15.99 169.16, -1.69 155.34 M41.93 186.93 C26.37 174.34, 9.69 162.11, -0.57 151.6 M38.3 185.84 C27.13 176.22, 15.33 163.18, 0.02 142.77 M43.99 182.23 C29.34 171.96, 18.92 162.5, 1.69 145.89 M45.43 174.93 C26.54 163.04, 8.16 155.5, 2.11 141.47 M41.28 175.62 C29.8 165.55, 15.64 153.8, 1.38 143.13 M44.05 171.63 C28.09 162.66, 12.82 146.5, -1.9 137.45 M43.06 172.05 C32.16 160.45, 20.04 151.43, 0.58 134.69 M40.47 165.67 C32.98 156.03, 14.32 147.76, -1.47 127.01 M39.77 166.27 C29.28 155.12, 11.48 140.91, 2.19 130.43 M39.01 160.06 C32.18 150.82, 19.44 135.79, 0.81 125.64 M40.16 162.05 C25.17 148.61, 10.96 133.71, 0.9 125.43 M44.62 156.68 C34.33 148.36, 21.9 140.55, -0.86 119.38 M43.06 155.5 C35.38 148.13, 26.6 141.64, 0.36 119.13 M44.99 152.31 C34.66 142.07, 26.36 131.64, 2.32 113.68 M42.69 150.98 C30.79 144.94, 23.49 133.88, 0.12 114.04 M44.76 146.74 C30.07 132.69, 22.74 128.29, 3.7 108.8 M43.98 147.04 C31.83 136.58, 15.64 123.29, 0.81 110.93 M40.01 140.33 C32.14 135.12, 17.12 119.39, -1.02 100.69 M40.41 141.7 C31.24 130.49, 21.97 124.83, -0.9 103.53 M40.26 137.37 C30.89 119.69, 16.62 107.77, -3.84 96.32 M41.03 133.69 C28.16 122.69, 12.68 111.02, 0.85 97.67 M42.25 126.93 C28.39 118.32, 18.12 104.45, 1.33 90.61 M43.53 131.14 C26.9 116.36, 13.1 104.33, 0.11 94.02 M43.9 126.28 C24.94 112.76, 14.6 97.27, -3.36 89.78 M41.34 124.7 C26.31 110.44, 12.51 95.92, 0.21 87.25 M42.1 121.71 C27.06 104.73, 14.68 96.39, -1.91 80.22 M40.65 120.33 C31.14 109.23, 19.6 98.27, 0.82 80.72 M38.65 111.97 C35.84 110.27, 28.09 103.68, 1.46 75.86 M43.48 112.39 C32.22 105.05, 19.04 92.7, -0.99 77.67 M38.12 105.09 C29.04 100.66, 16.6 89.06, 0.17 71.08 M40.76 108.41 C27.81 95.41, 16.52 86.27, 0.32 71.92 M45.7 105.77 C29.5 96.03, 19.09 77.84, 3.14 64.03 M43.39 102.19 C27.29 92.85, 11.67 77.12, -0.2 67.04 M41.08 96.28 C30.04 92.47, 19.54 75.84, -3.32 57.57 M43.28 98.59 C30.16 87.54, 19.84 78.14, 1.09 63.02 M40.37 95.81 C28.08 79.91, 12.52 67.66, 2.36 58.59 M40.44 94.62 C31.72 81.17, 18.62 70.99, 1.51 55.53 M37.91 85.34 C27.9 74.98, 16.34 66.51, -0.35 47.55 M40.02 88.2 C28.06 78, 16.71 65.12, -0.21 51.17 M44.21 83.04 C22.98 68.61, 10.8 52.38, -3.98 46.62 M43.4 83.29 C28.3 68.8, 14.28 56.2, 1.48 47.44 M43.76 77.11 C28.12 68.38, 23.06 56.92, -2.94 39.71 M41.22 78.64 C27.38 61.66, 8.7 48.89, 2.21 42.63 M40.95 69.21 C24.5 55.71, 17.07 46.48, -2.84 34.05 M40.45 72.91 C30.59 64.15, 21.86 53.28, 1.48 33.15 M41.93 63.26 C25.49 49.67, 7.58 42.43, 1.33 31.54 M41.49 65.41 C26.99 53.12, 14.08 39.44, 1.8 30.73 M44.5 60.89 C26.07 46.41, 9.84 34.54, -0.94 25.61 M41.17 61.27 C29.72 51.08, 21.67 42.86, 1.67 23.12 M43.94 58.27 C31.32 50.2, 18.69 40.12, 2.29 20.65 M41.87 56.12 C27.65 47.85, 19.17 37.46, -1.31 19.25 M38.96 49.48 C26.62 38.46, 11.37 25.34, 3.16 12.83 M42.55 49.28 C28.17 39.73, 14.99 25.51, -1.39 13.93 M46.24 48.07 C24.76 34.9, 10.5 19.39, 4 9.51 M40.57 45.11 C29.67 34.47, 16.39 21.38, -1.6 9.04 M38.61 39.16 C32.64 30.83, 20.2 26.82, -0.91 2.08 M42.99 38.92 C27.35 27.43, 14.94 15.66, -0.72 2.22 M39.19 31.47 C32.51 30.17, 26.32 19.61, -2.58 2.02 M43.91 36.85 C30.72 24.27, 15.78 12.85, 2.59 0.72 M43.94 26.94 C30.33 21.42, 21.19 9.89, 8.22 1.06 M40.27 31.27 C35.76 20.63, 28.13 17.35, 6.6 -2.67 M39.62 28.04 C33 17.45, 25.26 8.17, 13.55 -0.55 M40.91 23.88 C35.71 19.02, 26.82 11.09, 12.19 0.52 M45.6 22.66 C32.37 13.19, 25.39 7.48, 21.53 -0.85 M41.62 20.5 C35.78 15.11, 29.9 6.92, 19.33 -0.54 M43.79 15.5 C40.76 8.68, 35.55 8, 23.65 0.82 M42.23 14.17 C36.77 8.72, 32.54 5.01, 25.59 -1.24 M43.72 5.88 C36.56 4.28, 32.95 1.35, 29.51 -3.7 M41.75 7.95 C40.51 5.77, 36.91 2.09, 31.24 -1.99 M41.7 4.08 C40.8 1.08, 39.38 0.24, 38.87 -1.64 M42.53 2.7 C40.82 1.75, 38.54 0.44, 38.09 -1.4" stroke="#228be6" stroke-width="0.5" fill="none"></path><path d="M2.55 -1.73 C7.27 -2.39, 21.38 1.73, 44.29 2.97 M-0.67 1.07 C13.45 -0.01, 21.79 0.59, 42.55 -0.09 M40.21 0.33 C46.75 271.95, 45.45 544.99, 42.36 798.49 M42.48 0.56 C38.45 219.74, 37.72 439.77, 41.32 798.68 M39.32 796.73 C24.66 799.63, 16.28 799.89, 3.05 797.21 M40.62 798.37 C31.02 798.01, 23.66 798.65, -0.61 799.49 M-0.64 797.97 C-2.17 638.78, -1.29 479.21, -0.35 -0.2 M0.55 798.45 C-5.6 565.05, -5.7 331.86, 0.35 0.17" stroke="#000000" stroke-width="1" fill="none"></path></g><g stroke-linecap="round"><g stroke-opacity="0.1" fill-opacity="0.1" transform="translate(746.3838882763218 49.63661695446342) rotate(0 -0.48595038933865453 399.58699563768647)"><path d="M-0.43 0.19 C0.09 267.61, -0.82 535.92, 0.55 798.99 M-0.24 0.33 C-1.98 176.3, -2.15 353.39, 0.49 798.25" stroke="#000000" stroke-width="2" fill="none"></path></g></g><mask></mask><g stroke-linecap="round"><g stroke-opacity="0.1" fill-opacity="0.1" transform="translate(647.8729156303214 46.81566666153503) rotate(0 -0.4175629547421522 400.39432721973355)"><path d="M0.48 -0.37 C0.03 248.26, 1.13 496.52, -0.38 801.16 M-0.24 0.06 C0.25 234.37, -0.04 468.42, -1.31 800.95" stroke="#000000" stroke-width="2" fill="none"></path></g></g><mask></mask><g stroke-linecap="round"><g stroke-opacity="0.1" fill-opacity="0.1" transform="translate(700.536494908449 44.16993067251531) rotate(0 -0.14615492416510278 400.2251221665829)"><path d="M0.53 -0.61 C0.52 291.65, 0.63 584.78, -0.82 801.06 M0.19 -0.32 C-0.34 268.47, -0.56 536.42, -0.73 800.75" stroke="#000000" stroke-width="2" fill="none"></path></g></g><mask></mask><g stroke-opacity="0.2" fill-opacity="0.2" stroke-linecap="round" transform="translate(119.80036555699712 56.90217008987361) rotate(0 416.57200754269013 189.49718991554641)"><path d="M0 0 C0 0, 0 0, 0 0 M0 0 C0 0, 0 0, 0 0 M-0.65 10.44 C2.99 8.38, 8.09 2.07, 9.52 -1.59 M0.79 12.32 C3.09 8.07, 6.82 4.12, 10.68 -0.65 M-1.38 24.87 C4.75 18.01, 12.76 9.39, 22.77 1.07 M-0.08 24.26 C6.27 18.21, 12.3 11, 21.64 0.25 M-1.37 35.14 C8.21 29.34, 13.75 18.32, 30.86 -0.42 M-0.82 36.93 C7.91 27.15, 16.63 17.09, 31.92 0.48 M0.77 48.1 C10.84 35, 22.02 21.5, 41.18 0.82 M0.09 49.47 C13.37 30.79, 28.13 15.34, 41.6 -0.74 M1.93 61.65 C16.54 40.01, 33.62 20.79, 54.28 -2.16 M-0.24 60.43 C20.31 37.15, 40.43 13.04, 52.19 -1.09 M2.01 73.24 C18.24 50.89, 38.45 26.72, 62.59 -0.54 M0.66 73.32 C16.81 53.96, 33.15 35.2, 64.63 0.3 M-1.71 86.59 C19.93 60.77, 43.07 35.9, 75.49 -1.8 M-0.09 84.92 C22.41 58.33, 44.73 32.57, 74.2 -0.7 M-2.14 96.35 C19.13 72.22, 41.37 49.05, 86.4 0.2 M-0.41 98.56 C23.9 71.54, 45.02 44.3, 84.56 0.4 M-0.68 111.05 C27.02 80.62, 51.28 50.91, 93.84 1.19 M-0.64 110.62 C35.3 69.77, 71.71 28.78, 94.68 -0.85 M1.87 121.56 C32 82.09, 66.43 44.2, 104.44 0.37 M-0.53 121.63 C21.58 97.55, 43.6 71.67, 106.79 -0.21 M-0.96 131.98 C26.19 105, 51.65 74.66, 117.44 1.17 M-0.63 134.71 C38.73 90.62, 74.71 48.47, 116.75 0.44 M-0.96 144.36 C25.25 117.92, 52.05 87.65, 126.28 2.13 M0 146.94 C51.44 90.49, 99.97 33.28, 126.59 -0.32 M-0.71 157.57 C29.24 123.86, 59.79 91.54, 135.99 1.23 M-0.8 159.48 C31.06 121.69, 65.08 82.86, 137.56 -0.35 M1.49 171.27 C44.18 123.26, 86.76 72.88, 147.89 -0.42 M-0.94 171.48 C41.28 124.31, 81.39 77.25, 148.66 0.2 M0.59 182.53 C48.67 127.04, 96.84 73.27, 157.97 0.27 M-0.01 183.61 C36.43 140.23, 73.12 99.05, 159.24 0.79 M1.46 195.73 C51.2 135.21, 104.47 76.85, 169.5 0.63 M0.81 194.29 C35.38 152.02, 71.51 109.31, 168.79 -0.02 M0.62 208.24 C48.23 151.8, 97.92 94.67, 180.38 -0.86 M-0.04 206.47 C53.23 144.81, 107.96 82.3, 180.78 0.65 M-0.3 221.16 C46.62 166.04, 92.46 109.45, 189.24 -0.24 M0.19 219.07 C61.05 145.86, 123.95 74.8, 190.03 -0.02 M0.65 231.53 C59.65 165.29, 120.38 95.92, 201.95 -0.66 M0.16 231.59 C59.14 161.21, 118.61 92.92, 200.72 -0.53 M0.03 242.61 C53.38 182.3, 106.71 119.17, 212.95 1.36 M0.6 244.41 C83.29 147.05, 166.58 49.94, 212.27 -0.35 M-0.35 256.17 C56.72 190.32, 112.3 125.82, 221.38 1.31 M0.83 255.62 C83.74 159.56, 167.68 63.57, 222.11 0.65 M0.65 268.1 C73.12 182.06, 147.29 98.15, 232.23 -0.31 M0.39 267.66 C86.74 167.44, 173.73 67.67, 233.78 0.63 M-0.15 281.37 C57.02 215.83, 113.61 150.92, 243.58 1.06 M-0.42 280.7 C73.27 193.88, 148.05 107.64, 244.05 0.23 M0.87 292.35 C99.53 177.99, 197.64 65.39, 254.37 0.19 M0.01 292.92 C73.94 207.65, 147.72 123.1, 254.83 -0.54 M-0.36 304.03 C59.8 236.54, 120.65 168.56, 264.9 -0.22 M-0.39 304.72 C105.39 182.19, 211.92 60.66, 264.79 0.35 M-0.47 317.76 C76.89 230.9, 153.43 143.41, 276.04 -0.84 M0.49 317.07 C92 211.49, 184.64 104.04, 275.4 -0.17 M0.62 329.03 C66.95 255.08, 131.31 180.96, 285.55 -1.02 M0.29 328.67 C104.18 208.17, 209.5 87.29, 286.74 0.28 M0.2 341.2 C100.99 226.45, 201.08 110.57, 296.12 -0.01 M-0.17 341.36 C115.04 210.46, 228.72 78.81, 296.76 -0.58 M-0.77 354.34 C103.58 233.56, 206.69 114.04, 307.29 -0.76 M0.24 353.56 C77.55 265.41, 154.66 176.87, 307.82 -0.15 M0.13 366.5 C125.59 219.62, 251.24 75.86, 317.62 0.52 M-0.17 366.17 C85.98 267.34, 171.21 169.44, 318.62 -0.13 M0.04 377.49 C84.46 281.2, 168.61 183.26, 328.52 -0.36 M0.16 377.71 C102.63 259.83, 204.47 141.69, 328.81 -0.31 M4.95 384.45 C75.21 300.93, 145.39 220.97, 340.26 -0.58 M5.78 383.42 C104.62 268.77, 202.85 155.17, 339.45 -0.03 M16.7 383.5 C150.98 230, 282.91 76.93, 348.74 0.01 M16.42 383.71 C123.28 258.16, 231.39 133.02, 349.54 0.46 M27.14 384.29 C97.24 303.37, 168.01 223.16, 360.49 0.14 M26.48 383.69 C143.33 250.48, 257.46 118.02, 360.27 0.02 M37.81 384.2 C162.88 237.71, 289.59 92.77, 369.95 -0.01 M37.1 383.3 C136.69 270.32, 235.68 157.4, 370.66 0.51 M48.76 384.03 C172.14 239.63, 298.51 94.52, 380.91 0.53 M48.16 383.52 C168 245.19, 289.48 105.75, 381.77 0.46 M58.12 383.89 C162.93 263.73, 267.56 144.56, 391.91 -0.54 M58.98 383.84 C171.34 253.51, 284.39 122.49, 391.65 -0.06 M68.98 383.26 C182.72 252.91, 295.07 124.36, 402.25 -0.01 M69.6 383.22 C160.37 279.46, 250.65 176.69, 402.5 0.47 M79.38 383.28 C190.46 258.83, 298.69 134.23, 414.01 -0.4 M79.89 383.94 C145.82 305.5, 214.09 227.47, 413.09 0.36 M90.74 383.59 C185.96 273.82, 281 164.22, 423.69 0.42 M90.8 383.79 C175.31 286.61, 259.55 190.25, 423.51 0.17 M101.1 383.09 C184.35 289.08, 267.2 192.66, 433.8 -0.39 M101.1 383.09 C213.91 251.89, 328.85 120.6, 434.79 0.48 M111.93 383.09 C201.68 279.88, 290.45 178.21, 444.54 -0.27 M111.79 383.31 C202.72 281.43, 292.63 178.37, 444.85 0.15 M122.3 384.07 C224.18 265.92, 327.83 147.47, 455.78 0.74 M122.22 384.42 C201.46 289.8, 282.64 196.9, 456.14 -0.31 M131.95 384.21 C221.8 281.15, 311.13 175.79, 466.7 0.71 M132.34 384.49 C250.74 249.77, 367.64 115.88, 466.79 0.3 M143.34 384.71 C226.92 288.06, 309.85 191.83, 477.82 0.67 M143.48 384.05 C242.93 267.09, 344.54 150.39, 477.39 0.05 M153.53 383.56 C270.75 246.59, 390.22 110.09, 487.42 0.54 M153.42 384.07 C250.72 271.41, 349.27 157.75, 487.82 0.15 M164.36 383.43 C232.5 303.17, 302.21 223.48, 498.36 -0.88 M164.52 384.09 C279.48 249.96, 395.28 116.62, 498.39 -0.49 M174.81 383.68 C284.94 257.87, 393.87 131.39, 509.71 -0.34 M175.26 384.12 C297.97 242.23, 422.38 99.24, 509.05 0.16 M185.52 384.31 C264.39 294.94, 343.46 203.79, 518.79 0.25 M185.88 384.35 C292.43 263.27, 398.34 141.23, 519.8 -0.5 M195.93 384.36 C279.1 288.88, 362.22 192.96, 530.35 -0.64 M196.34 383.84 C271.85 299.53, 346.38 214.08, 529.82 -0.35 M207.15 384.27 C332.46 238.29, 461.27 90.37, 541.07 -0.95 M207.12 383.51 C331.99 240.68, 457.44 96.26, 541.11 -0.28 M217.59 384.26 C330.34 255.41, 441.05 126.16, 551.89 -0.66 M217.18 383.93 C335.29 245.7, 454.34 108.97, 551.26 -0.39 M228.95 383.49 C296.06 304.79, 363.81 228.15, 562.12 -0.24 M228 383.56 C296.3 304.43, 364.26 225.58, 561.83 -0.62 M238.67 383.26 C326.47 284.04, 412.32 184.6, 572.21 0.15 M239.12 383.75 C325.12 285.96, 410.34 187.19, 572.75 -0.07 M249.15 382.96 C336.13 282.91, 423.78 182.4, 581.96 -0.2 M249.73 383.75 C352.43 264.41, 454.92 146.43, 582.83 0.7 M260.19 383.28 C341.86 288.69, 422.85 195.15, 592.74 -0.05 M259.9 383.34 C350 279.6, 440.15 176.58, 593.21 0.52 M270.19 383.73 C344.09 298.53, 417.49 213.92, 603.96 0.37 M270.51 383.42 C373.17 265.61, 476.72 145.77, 603.76 -0.09 M281.37 384.27 C406.35 240.49, 531.18 97.64, 613.8 0.25 M281.29 383.84 C387.16 261.7, 494.53 138.64, 614.96 0.32 M291.42 382.86 C411.01 247.61, 529.78 111.27, 625.27 0.57 M291.56 383.99 C378.72 284.35, 463.56 186.5, 625.14 0.22 M301.94 383.43 C396.29 276.74, 489.91 168.13, 636.33 0.06 M302.28 383.85 C435.95 231.74, 568.76 78.24, 636.16 -0.19 M313.2 383.87 C392.97 294.08, 472.08 204.23, 646.66 -0.02 M313.55 383.76 C415.99 266.98, 518.08 148.64, 646.54 0.34 M323.04 383.99 C411.44 284.85, 497.8 185.2, 657.29 0.09 M323.48 383.87 C412.41 281.7, 501.78 178.79, 657.06 0 M334.43 383.12 C414.4 288.58, 496.77 194.73, 667.85 0.22 M334.52 383.12 C416.03 287.91, 499.92 192.08, 667.97 0.47 M344.74 383.23 C460.54 249.7, 575.61 116.15, 677.78 -0.53 M345.11 383.47 C465.85 244.9, 586.28 107.05, 678.12 0.38 M354.3 384.14 C444.39 282.8, 532.37 180.71, 688.35 -0.65 M355.32 384.07 C485.65 234.32, 615.13 84.65, 688.64 0.28 M366.24 383.61 C451.11 287.79, 534 192.52, 699.09 -0.21 M365.96 384.06 C457.93 277.37, 550.29 171.81, 699.62 0.11 M375.77 384.26 C504.97 234.34, 635.74 85.21, 709.82 0.67 M376.16 384.47 C461.18 288.48, 544.41 192.24, 710.59 0.14 M387.66 384.15 C459.98 297.8, 533.68 214.69, 720.25 -0.55 M387.21 383.86 C483.31 272.99, 579.57 161.49, 721.25 0.04 M397.56 384.69 C467.93 303.93, 536.96 224.53, 732.06 -0.9 M397.9 383.68 C489.8 277.16, 582.43 170.95, 731.88 -0.12 M408.5 384.2 C531.84 243.86, 653.41 103.94, 742.07 -0.69 M408.08 383.65 C489.03 289.75, 571.28 195.84, 742.53 -0.08 M419.23 383.53 C525.59 260.43, 632.79 136.13, 752.28 -0.37 M418.69 384.01 C530.13 254.2, 642.61 125, 752.59 0.04 M429.51 384.39 C545.79 251.86, 661.86 118.19, 763.11 0.26 M429.68 384.12 C514.18 286.07, 599.31 188.03, 763.19 -0.45 M439.69 383.73 C518.08 292.91, 596.83 203.64, 773.81 0.44 M440.08 383.86 C511.47 301.37, 583.41 218.62, 774.41 -0.19 M451.18 383.36 C545.96 273.8, 642.56 162.4, 785.29 -0.78 M450.72 383.86 C517.4 306.28, 585.36 228.41, 784.4 0.03 M461.22 384.26 C543.56 288.76, 625.84 193.9, 795.76 0.2 M461.06 383.69 C567.08 260.19, 673.79 138.02, 795.45 -0.12 M471.36 383.41 C557.95 284.64, 644.97 183.93, 806.71 -0.45 M471.94 383.71 C552.71 290.8, 633.82 196.96, 805.91 -0.68 M482.26 384.13 C609.97 236.27, 738.29 88.78, 816.34 1.13 M482.42 384.05 C608.01 239.42, 732.72 95.49, 815.58 0.37 M492.48 383.27 C622.93 235.16, 753.32 85.61, 826.56 -0.18 M493.3 384.03 C595.08 269.14, 694.89 153.41, 826.68 0.66 M504.6 383.19 C588.02 287.26, 672.3 190.14, 836.59 1.96 M503.97 383.58 C615.22 256.55, 725.54 129.22, 835.77 2.13 M514.32 383.72 C629.65 251.1, 743.44 119.35, 836.14 13.86 M514.37 383.43 C634.83 246.82, 752.93 110.18, 835.34 14.59 M524.55 382.86 C642.74 246.64, 761.6 110.84, 836.09 26.92 M524.95 383.36 C603.88 291.91, 682.51 200.98, 835.73 26.51 M536.55 383.56 C625.76 279.59, 716.56 176.3, 834.66 38.2 M535.51 383.18 C600.32 307.96, 664.78 233.86, 835.63 38.79 M546.93 384.23 C631.37 286.81, 715.01 189.85, 835.31 50.52 M545.96 383.45 C613.55 305.21, 680.06 228.46, 835.25 50.34 M557.41 383.68 C644.27 282.72, 732.15 182.19, 836.45 63.67 M556.8 383.91 C632.72 294.76, 709.43 207.39, 835.9 62.42 M566.93 384.52 C626.21 315.19, 686.25 247.47, 836.4 76.33 M567.14 382.95 C640.03 300.79, 712.74 217.65, 835.71 75.91 M578.51 382.56 C666.71 281.91, 753.98 180.23, 835.78 88.4 M578.32 383.42 C668.82 279.96, 758.7 176.9, 835.02 87.74 M589.26 384.05 C684.96 270.47, 784.46 155.88, 836.74 99.14 M587.74 384.5 C687.37 269.3, 786.57 155.64, 835.62 100.14 M599.99 384.6 C666.26 306.4, 734.44 228.65, 835.67 112.25 M598.92 384.23 C673.82 298.05, 749.08 211.04, 835.24 111.75 M608.53 383.63 C694.39 287.14, 779.58 191.27, 834.98 124.53 M609.27 384.05 C692.12 286.72, 775.67 190.23, 835.7 123.35 M621.03 384.41 C684 310.27, 747.71 238, 834.86 137.44 M620.65 383.65 C668.51 326.62, 717.7 270.08, 834.88 136.03 M629.47 382.95 C688.15 315.39, 746.47 251.23, 836.37 149.2 M631.01 384 C701.45 301.18, 773.29 219.46, 835.09 148.43 M642.08 384.17 C700.76 318.81, 757.66 253.2, 836.49 160.52 M641.64 383.59 C718.9 295.29, 796.03 207.21, 835.13 160.87 M652.06 383.72 C722.74 303, 792.04 224.99, 834.31 171.61 M651.75 383.7 C692.66 338.17, 732.37 292.24, 836.43 172.65 M664.17 385.15 C703.97 335.78, 745.38 290.86, 836.25 184.51 M661.93 384.58 C714.38 323.2, 767.99 261.38, 836.39 183.96 M673.14 383.31 C727.19 322.01, 779.47 263.42, 834.61 197.52 M672.83 383.25 C721.26 325.85, 769.87 269.73, 836 197.27 M683.06 383.08 C721.45 339.14, 757.51 297.36, 834.13 209.84 M684.19 383.58 C732.34 329.56, 779.73 273.97, 834.73 209.05 M694.28 385.35 C733.8 339.82, 769.48 296.98, 836.84 223.07 M694.74 383 C725.9 347.89, 757.65 310.7, 835.58 221.12 M703.45 382.42 C744.97 341.5, 781.49 296.32, 836.45 232.7 M704.58 384.68 C750.93 329.44, 797.87 275.89, 835.95 234.2 M714.03 385.38 C763.22 331.91, 806.31 277.3, 835.56 247.06 M715.78 384.54 C741.65 353.28, 769.11 319.67, 836.1 245.03 M725.71 382.77 C760.91 346.99, 792.47 305.19, 834.8 259.94 M727.18 382.79 C749.47 356.42, 773.16 327.55, 835.25 258.37 M737.46 385.29 C767.83 345.47, 800 309.22, 835.47 270.44 M736.34 383.91 C767.49 349.92, 794.82 316.61, 834.98 270.76 M748.61 381.95 C770.58 354.96, 794.38 324.3, 834.78 281.71 M748.49 383.14 C771.74 354.14, 796.75 326.58, 835.36 282.53 M757.9 382.03 C789.2 348.94, 819.31 316.68, 837.54 293.83 M758.54 383.99 C773.28 366.18, 790.09 347.42, 836.46 295.3 M768.5 383 C793.36 354.74, 815.48 332.05, 834.62 306.51 M768.01 382.74 C793.28 354.17, 819.08 325.26, 835.71 306.24 M779.13 384.46 C799.44 362.51, 814.83 340.11, 835.3 319.77 M779.04 384.02 C793.95 366, 810.04 347.97, 836.21 319.41 M789.1 384.07 C802.63 369.34, 817.52 353.16, 836.99 332.9 M789.29 383.29 C805.35 367.78, 819.06 351.02, 835.28 332.23 M801.35 383.51 C811.9 370.6, 823.27 354.25, 834.33 344.86 M800.02 384.41 C810.1 373.35, 818.01 364.47, 835.57 342.55 M810.91 385.16 C817.68 377.63, 826.17 370.11, 836.92 357.28 M810.27 384.92 C820 374.57, 829.45 362.24, 835.57 355.18 M822.51 382.99 C826.37 380.64, 830.72 372.88, 837.67 367.06 M821.58 384.55 C825.75 377.45, 832.88 371.87, 835.97 367.15 M0.27 379.23 C0.27 379.23, 0.27 379.23, 0.27 379.23 M0.27 379.23 C0.27 379.23, 0.27 379.23, 0.27 379.23 M12.46 377.82 C7.33 375.3, 4.44 371.33, -1.19 369.43 M12.78 379.63 C8.98 375.68, 5.08 373.65, 0.53 369.33 M24.03 380.92 C17.91 372.95, 11.27 368.42, -1.65 356.67 M25.22 378.74 C15.87 372.95, 8.33 365.4, -0.34 358.3 M35.72 378.83 C30.77 371.31, 22.01 365.43, 0.71 346.72 M35.82 378.63 C29.17 371.11, 20.37 364.6, 0.18 346.48 M49.83 379.19 C32.19 365.72, 17.28 353.35, 1.08 338.35 M47.78 378.88 C38.31 369.3, 28.14 360.9, -0.66 337.23 M61.52 378.14 C41.03 362.05, 22.06 344.03, -1.28 327.09 M60.24 378.25 C39.69 359.25, 17.92 341.51, -0.69 326.11 M72.9 377.27 C50.97 361.61, 31.96 342.17, -0.33 315.34 M72.31 378.66 C55.44 362.49, 38.7 348.6, -0.74 314.66 M84.61 377.53 C69.42 365.18, 48.77 349.11, 1.8 304.33 M85.58 378.74 C61.18 359.41, 38.8 338.56, 0.27 304.89 M97.89 380.54 C70.52 357.39, 45.94 333.98, 1.89 296.04 M98.11 379.67 C63.66 348.94, 28.92 318.55, -0.65 294.81 M110.37 379.17 C73.25 345.85, 32.41 312.83, 0.66 285.13 M109.08 379.41 C78.39 352.81, 47.77 325.96, 0.37 282.99 M121.9 378.13 C98.51 358.31, 70.84 335.61, 1.88 272.91 M122.58 379.85 C81.34 344.14, 39.94 308.35, 0.07 272.08 M134.59 377.3 C84.75 332.88, 31.27 288.96, 1.4 263.25 M134.52 379.76 C97.87 347.9, 61.75 314.58, -1.02 261.31 M146.4 379.6 C92.86 331.84, 41.38 287.4, -1.78 252.52 M146.13 379.21 C91.84 334.73, 40.63 288.85, -0.58 252.08 M159.1 378.37 C111.1 339.13, 60.05 294.19, -0.42 241.49 M158.88 378.55 C105.33 332.11, 51.36 284.77, 0.41 240.5 M168.81 377.77 C123.87 338.23, 75.05 295.52, -0.14 229.66 M170.47 379.32 C123.11 339.41, 77.58 298.31, -0.05 230.59 M183.5 379.27 C134.62 336.65, 87.78 292.99, -1.68 218.29 M183.03 379.25 C128.11 330.93, 74.37 283.9, -0.57 219.67 M196.57 379.74 C151.77 341.3, 106.21 301.92, 0.13 208.78 M195.38 378.92 C140.55 329.82, 85.3 283.33, -0.2 208.82 M208.16 380.38 C126.73 308.59, 46.87 240.11, 0.84 199.37 M207.71 378.31 C128.83 310.23, 50.71 244.07, -0.76 198.07 M219.2 377.7 C132.46 302.13, 43.91 227.93, -0.78 187.11 M219.44 379.48 C161.81 329.92, 103.74 279.46, -0.37 187.7 M231.24 377.81 C165.84 318.75, 97.65 260.95, 1.18 177.42 M231.4 379.22 C154.62 312.92, 78.15 247.21, 0.13 177.75 M245.04 378.69 C186.85 329.21, 130.07 278.81, 1.04 167.51 M244.25 379.3 C175.03 319.79, 105.33 259.6, 0.32 166.67 M257.2 378.38 C195.43 326.8, 137.21 273.61, -0.85 156.73 M255.58 378.81 C169.94 302.15, 82.73 226.38, 0.91 156.85 M268.24 378.57 C175.62 298.28, 83.79 217.17, 0.19 145.16 M267.77 378.53 C198.19 319.47, 128.8 258.95, 0.83 146.23 M281.27 377.9 C180.04 291.37, 82.82 205.34, 1.19 136.5 M280.83 379.32 C195.86 307.59, 112.01 233.78, 0.11 134.85 M293.93 378.44 C181.62 279.01, 66.67 180.27, -0.38 124.24 M293.53 378.82 C212.32 306.85, 130.66 235.92, 0.76 124.29 M305.15 379.05 C182.14 272.37, 60.35 168.29, 0.66 114.03 M305.34 379.58 C205.74 293.33, 106.7 207.51, 0.19 114.15 M317.39 379.58 C199.06 277.64, 79.7 174.78, 0.05 102.9 M317.63 378.89 C218.13 293.05, 119.01 206.5, -0.37 103.37 M328.76 379.41 C256.75 317.94, 183.11 254.41, 0.93 93.22 M328.67 378.75 C248.02 309.19, 166.79 238.44, -0.23 92.65 M340.87 378.09 C216.5 271.06, 89.26 160.69, 0.15 82.85 M341.19 378.77 C241.87 291.74, 142.13 205.08, -0.15 81.89 M354.71 378.68 C255.25 292.13, 156.62 208.22, -0.61 71.62 M353.82 379.04 C237.27 277.62, 120.74 175.37, 0.27 71.56 M366.68 379.14 C293.09 315.58, 217.6 250.11, 0.1 61.72 M365.72 379.44 C284.67 309.12, 204.02 239.18, -0.27 60.62 M378.23 379.52 C251.38 267.93, 127.04 159.65, 0.72 50.56 M377.96 378.96 C247.45 264.3, 116.26 150.37, 0.12 50.34 M389.41 379.29 C252.51 258.98, 115.34 140.36, 0.19 40.42 M390.2 378.51 C284.58 285.68, 178.53 193.05, -0.46 39.74 M402.59 378.54 C258.46 254.26, 117.35 129.72, -0.45 29.88 M402.3 378.74 C282.96 276.28, 164.72 173.31, 0.23 29.25 M415.7 378.71 C313.64 290.95, 213.83 203.45, 0.05 18.03 M414.64 379.37 C294.11 272.35, 171.58 166.16, -0.34 18.79 M426.84 379.13 C335.82 298.82, 243.17 219.17, 0.37 7.55 M426.66 378.79 C301.29 270.08, 177.24 161.67, -0.27 8.03 M439.17 379.32 C278.62 239.27, 119.39 99.96, 0.95 -1.12 M439.37 378.99 C307.16 265.13, 176.29 152.07, 1.06 -1.68 M451.18 378.73 C280.08 232.95, 110.48 83.74, 13.7 -1.43 M450.76 378.78 C330.18 273.3, 210.24 169.66, 13.4 -1.89 M462.66 379 C303.5 241.36, 144.28 103.82, 24.77 -1.93 M463.33 378.62 C301.65 238.36, 138.26 96.67, 25.3 -1.61 M476.63 379 C362.47 278.83, 249.22 180.51, 38.8 -1 M476 379.5 C342.74 265.02, 211.19 149.9, 37.79 -1.01 M487.21 378.51 C342.37 251.63, 197.33 125.63, 50.52 -1.09 M487.93 378.97 C326.51 238, 163.62 96.84, 49.99 -1.03 M499.72 378.23 C407.2 297.83, 315.29 217.32, 62.49 -1.59 M499.77 378.81 C391.16 284.06, 281.23 188.5, 62.44 -1.63 M512.13 378.64 C372.14 257.89, 231.89 136.57, 73.75 -2.3 M511.89 378.68 C415.39 294.21, 318.5 210.84, 74.07 -1.39 M523.42 378.31 C376.49 251.95, 228.93 122.18, 85.77 -1.22 M524.31 378.98 C383.2 256.36, 242.55 133.66, 86.55 -1.46 M536.34 379.27 C435.41 288.64, 333.4 200.99, 99.61 -1.05 M537.01 379.3 C441.55 297.2, 345.93 214.33, 99.38 -1.05 M549.26 378.79 C402.73 254.23, 257.93 128.17, 111.78 -0.7 M548.52 378.81 C404.21 251.28, 257.3 123.72, 111.34 -1.49 M561.09 379.68 C413.54 251.31, 267.21 124.43, 123.17 -1.77 M560.85 378.82 C416.91 256.08, 273.7 131.08, 123.33 -1.67 M572.68 378.86 C399.15 226.54, 226.47 75.94, 134.81 -1.57 M573.24 379.17 C473.45 293.45, 374.7 207.88, 134.98 -2.03 M584.84 379.16 C436.74 249.07, 289.02 120.83, 146.73 -1.31 M584.89 379.09 C459.5 270.41, 333.3 160.92, 147 -1.71 M597.08 379.59 C450.71 251.71, 304.65 125.93, 160.68 -0.67 M598.13 379.26 C442.98 244.55, 286.6 109.05, 159.89 -0.86 M609.83 379.04 C473.94 258.03, 337.6 139.36, 171.97 -1.27 M610.19 379.43 C475.06 260.82, 340.59 143.98, 172.52 -1.11 M622.21 379.44 C510.03 282.82, 398.11 185.29, 183.99 -1.08 M621.68 378.94 C531.11 299.48, 441.14 221.11, 183.87 -1.33 M634.21 378.3 C465.34 233.41, 298.64 87.86, 196.86 -1.18 M634 379.1 C476.15 239.84, 317.46 101.92, 196.35 -1.32 M645.47 378.11 C527.02 275.95, 408.89 172.39, 208.55 -1.84 M646.05 378.9 C525.59 272.03, 404.68 166.79, 208.21 -1.7 M658.09 379.01 C558.13 293.22, 457.77 205.21, 221.73 -1.13 M658.59 379.03 C527.26 266.15, 395.45 151.66, 221.41 -1.07 M671.59 378.52 C582.06 300.48, 491.96 222.07, 233.13 -0.76 M671.21 379.12 C503.54 233.82, 334.68 86.67, 233.43 -1.59 M683.12 378.65 C515.2 232.68, 348.14 85.87, 245.7 -1.38 M683.23 378.64 C533.93 248.95, 385.29 119.55, 244.99 -1.25 M695.22 379.25 C573.03 272.35, 450.29 165.35, 256.41 -1.99 M694.69 378.91 C529.34 234.46, 363.97 91.39, 257.39 -1.88 M707.4 378.67 C560.93 251.47, 413.62 123.75, 269.46 -1.77 M706.68 378.37 C546.64 238.1, 384.72 97.06, 269.29 -1.48 M719.77 379.95 C623.47 295.02, 525.69 211.22, 281.44 -0.99 M719.67 379.45 C630.27 299, 539.01 220.23, 281.8 -1.36 M731.99 378.6 C630.27 294.71, 531.24 207.84, 293.91 -1.32 M731.71 378.96 C624.33 283.76, 515.58 189.43, 293.92 -1.72 M744.23 378.5 C583.11 239.24, 424.26 99.89, 305.62 -1.85 M743.71 379.02 C627.57 278.07, 511.63 177.98, 305.77 -1.55 M756.21 379.63 C599.16 241.21, 442.93 105.59, 318.63 -0.99 M756.04 379.06 C623.67 261.37, 490.92 145.66, 318.03 -1.41 M767.57 377.95 C615.54 247.96, 465.16 116.73, 329.97 -2.22 M767.66 378.71 C662.29 284.36, 555.2 191.44, 329.87 -1.74 M780.62 378.79 C657.79 271.3, 535.48 165.15, 343.18 -1.46 M780.45 379.42 C675.6 288.13, 571.56 197.45, 342.84 -1.66 M792.16 379.02 C699.82 297.69, 608.64 217.5, 354.49 -0.92 M793 379.31 C674.73 275.45, 555.36 172.22, 355.11 -1.31 M804.87 378.94 C675.24 264.6, 545.46 152.01, 366.65 -1.2 M804.71 378.86 C709.49 296.94, 612.63 213.12, 366.74 -1.36 M817.46 378.88 C684.74 264.84, 554.11 150.29, 379.86 -2.32 M816.75 378.93 C645.03 231.38, 474.26 82.11, 379.45 -1.36 M829.08 378.16 C662.32 235.99, 498.69 92.3, 390.59 -2.29 M829.25 378.43 C657.12 230.29, 487.27 82.41, 391.01 -1.73 M836.01 375.18 C675.31 236.42, 514.59 96.06, 403.94 -1.29 M836.7 374.98 C724.6 276.8, 612.3 179.33, 404.3 -1.25 M836.53 364.64 C737.66 279.48, 639.83 194.93, 415.88 -1.94 M836 363.98 C686.13 235.37, 537.1 105.69, 416.36 -1.51 M837.16 354.82 C722.67 252.62, 607.94 152.87, 427.76 -2.13 M837.07 354.16 C727.9 259.96, 618.37 165.35, 428.04 -1.92 M836.73 342.8 C744.1 260.97, 652.25 179.92, 439.73 -1.73 M837.29 343.01 C719.03 239.44, 600.75 136.2, 440.24 -1.74 M836.49 332.14 C726.86 237.1, 616.75 142.63, 452.69 -1.25 M836.76 332.69 C755.76 260.96, 674.66 190.62, 452.52 -0.96 M837.55 322.21 C719.75 222.06, 604.23 121.5, 464.89 -0.52 M837.32 322.02 C736.31 233.02, 634.67 144.84, 464.95 -1.54 M836.3 311.21 C710.67 201.48, 581.82 88.89, 476.87 -1.24 M836.74 311.78 C757.63 243.84, 679.26 175.59, 476.53 -1.57 M836.43 301.12 C753.73 225.88, 669.03 153.32, 489.82 -2.4 M836.53 300.78 C733.79 211.8, 630.64 121.9, 488.75 -1.32 M836.95 289.94 C750.28 215.19, 663.59 140.02, 501.35 -2.49 M837.12 289.92 C760.37 222.75, 682.48 154.91, 500.88 -1.82 M837.53 278.83 C722.4 176.96, 603.76 75.3, 513.08 -1.93 M836.93 280.03 C752.12 205.93, 666.35 132.03, 514.15 -1.45 M835.95 269.72 C751.3 194.84, 668.71 122.42, 526.93 -2.08 M837.29 269.36 C739.2 183.28, 641.44 98.24, 525.31 -1.04 M837.5 258.47 C758.33 191.53, 680.28 122.55, 538.29 -2.22 M836.93 258.91 C764.95 197.77, 695.14 136.63, 537.4 -1.54 M837.09 246.59 C760.38 178.84, 683.16 113.16, 550.58 -2.13 M837.26 248.11 C735.36 158.68, 633.61 70.31, 549.92 -1.96 M837.34 237.6 C758 168.59, 678.53 99.81, 562.56 -2.74 M836.12 237.24 C743.3 155.82, 649.09 74.12, 561.42 -2.16 M836.86 225.59 C772.23 170.92, 708.74 115.06, 573.93 -0.52 M836.11 226.03 C743.95 146.84, 652.04 67.01, 574.56 -0.79 M835.39 214.87 C777.94 166.04, 718.94 114.21, 587.15 -1.58 M836.76 215.29 C764.48 152.9, 691.59 90.64, 587.02 -0.8 M836.33 203.82 C745.58 125.14, 655.32 47.56, 599.6 -2.42 M836.6 205.32 C754.88 134.23, 674.63 64.11, 598.98 -1.38 M836.4 195.24 C780.19 144.1, 722.34 93.91, 610.13 -1.25 M836.74 194.76 C781.85 146.37, 725.6 98.25, 611.58 -2.03 M835.8 183.51 C757.66 113.83, 677.67 44.5, 624.17 -0.75 M836.7 184.46 C783.12 135.72, 728.72 88.34, 622.66 -1.38 M836.67 171.9 C761.98 109.8, 685.69 45.44, 636.01 -0.39 M836.47 173.63 C763.33 112.29, 689.98 49.34, 636.35 -1.57 M836 162.74 C777.49 110.05, 715.43 56.91, 647.28 -1.87 M836.6 162.39 C785.28 119.36, 733.89 74.15, 647.16 -1.36 M835.88 150.41 C776.87 100.21, 716.86 49.25, 659.03 -0.19 M835.68 152.39 C792.24 115.43, 748.88 77.4, 660 -1.74 M836.47 142.57 C796.97 108.34, 761.55 76.93, 672.5 -3.02 M837.03 141.44 C792.67 104.78, 748.01 67.12, 672.06 -1.89 M836.73 129.97 C779.14 84.13, 726.71 35.86, 685.63 -1.51 M835.89 130.52 C794.72 95.05, 752.36 57.62, 683.1 -2.1 M837.77 119.42 C795.37 83.97, 750.53 47.27, 698.1 -0.25 M837.45 120.81 C787.61 80.13, 739.4 36.51, 697.59 -0.96 M837.09 111.23 C808.25 84.64, 776.84 58.81, 706.9 -1.69 M836.95 109.62 C794.28 73.77, 754.9 39.59, 708.62 -2.16 M836.35 99.02 C805.66 73.33, 775.9 46.59, 721.36 -0.65 M837.08 99.51 C796.85 64.72, 756.22 30.18, 720.33 -2.33 M835.28 87.67 C797.27 56.91, 760.9 22.55, 734.22 -1.39 M836.26 88.4 C796 54.63, 757.12 19.09, 733.35 -1.98 M835.48 79.82 C818.18 62.26, 800.13 48.29, 743.71 -0.97 M837.31 77.75 C809.19 53.64, 779.63 27.33, 744.44 -2.29 M837.55 67.8 C809.18 41.51, 780.2 16.72, 757.33 -2.67 M836.46 67.04 C806.51 41.02, 774.81 12.89, 757.22 -0.96 M836.08 55.56 C812.97 35.2, 786.52 13.12, 769.9 -2.67 M837.24 57.33 C822.72 44.54, 808.9 32.06, 770.1 -2.33 M836.77 46.62 C824.67 36.78, 809.77 23.77, 783.16 -0.16 M837.54 45.8 C816.13 28.73, 795.37 9.84, 780.8 -1.87 M835.45 34.03 C820.4 20.52, 802.46 7.32, 791.81 -0.06 M837.5 35.24 C827.62 27.69, 816.59 19.03, 794.28 -2.26 M835.2 24.26 C825.91 14.44, 810.68 2.95, 807.31 -2.41 M836.53 24.64 C828.02 18.33, 818.77 8.86, 805.46 -1.28 M837.33 15.16 C829.18 10.05, 823.74 2.59, 819.75 -1.76 M837.27 14.66 C831.19 10.98, 827.21 7.18, 818.99 -0.54 M837.41 3.9 C834.48 2.1, 833.49 0.71, 830.3 -0.77 M836.61 4.02 C835.32 2.66, 833.92 1.69, 830.43 -1.05" stroke="#228be6" stroke-width="1" fill="none"></path><path d="M-0.75 0.19 C308.4 -1.61, 616.34 -1.75, 832.36 0.06 M-0.13 0.21 C206.66 -1.68, 413.46 -1.59, 833.36 -0.02 M833.93 -0.32 C833.5 142.36, 832.77 286.81, 833.49 378.15 M833.16 0.04 C831.62 133.57, 831.67 268.41, 833.58 379.15 M832.46 379.49 C543.62 380.98, 254.88 381.84, 0.24 378.88 M832.75 379.05 C663.62 378.38, 494.05 378.28, 0.23 379.04 M0.51 380.05 C1.76 282.59, 0.81 186.65, 0.92 0.46 M-0.24 379.18 C-0.91 232.63, -1.14 86.89, -0.31 -0.05" stroke="#000000" stroke-width="2" fill="none"></path></g><g transform="translate(263.3592852261078 229.2546403679637) rotate(0 64.27798461914057 22.5)"><text x="0" y="0" font-family="Virgil, Segoe UI Emoji" font-size="36px" fill="#000000" text-anchor="start" style="white-space: pre;" direction="ltr" dominant-baseline="text-before-edge">[0, 90)</text></g><g transform="translate(254.60441050747488 597.8237691164951) rotate(0 71.67597961425776 22.5)"><text x="0" y="0" font-family="Virgil, Segoe UI Emoji" font-size="36px" fill="#000000" text-anchor="start" style="white-space: pre;" direction="ltr" dominant-baseline="text-before-edge">[-90, 0)</text></g><g stroke-linecap="round"><g transform="translate(117.75035820126641 438.5773287707681) rotate(0 419.9073337625414 -0.7631920631032614)"><path d="M-0.53 0.29 C233.98 -1.96, 468.14 -1.84, 839.6 -1.42 M-0.02 -0.29 C177.39 1.27, 355.63 1.18, 840.34 -2.21" stroke="#000000" stroke-width="2" fill="none"></path></g></g><mask></mask></svg>