<svg version="1.1" xmlns="http://www.w3.org/2000/svg" viewBox="0 0 1082.3547393788158 920.7687812962481" width="2164.7094787576316" height="1841.5375625924962">
  <!-- svg-source:excalidraw -->
  
  <defs>
    <style class="style-fonts">
      @font-face {
        font-family: "Virgil";
        src: url("https://excalidraw.com/Virgil.woff2");
      }
      @font-face {
        font-family: "Cascadia";
        src: url("https://excalidraw.com/Cascadia.woff2");
      }
    </style>
  </defs>
  <g stroke-linecap="round" transform="translate(119.10324749918959 54.92971764846516) rotate(0 417.081503389089 397.7095425880504)"><path d="M-0.31 -0.11 C247.08 -3.98, 493.48 -3.78, 834.27 -0.79 M-0.08 0.18 C259.5 -2.72, 519.68 -3.1, 834.31 -0.13 M833.36 -0.43 C836.62 258.52, 836.68 518.07, 834.66 795.5 M834.52 -0.13 C835.81 199.39, 835.73 398.85, 834.33 795.43 M834.9 795.53 C582.4 797.41, 330.06 797.83, 0.57 794.71 M834.21 795.69 C647.88 793.38, 461.18 794.05, -0.3 795.67 M0.58 794.88 C-2.47 519.43, -3.62 244.26, 0.29 0.55 M-0.33 795.59 C2.21 487.28, 2.1 179.79, 0.19 0.38" stroke="#000000" stroke-width="2" fill="none"></path></g><g stroke-linecap="round" transform="translate(702.8454166931795 195.83357796122039) rotate(0 9.739102779315544 9.739102779315573)"><path d="M11.76 0.59 C13.85 1.21, 17.02 3.61, 18.26 5.43 C19.5 7.26, 19.64 9.59, 19.19 11.56 C18.74 13.53, 17.02 16.06, 15.55 17.27 C14.08 18.48, 12.27 18.85, 10.36 18.82 C8.45 18.79, 5.76 18.13, 4.11 17.08 C2.46 16.03, 0.98 14.68, 0.46 12.53 C-0.05 10.37, 0.17 6.13, 1.02 4.16 C1.87 2.19, 3.6 1.29, 5.56 0.71 C7.53 0.13, 11.37 0.54, 12.78 0.68 C14.19 0.82, 14.01 1.48, 14.02 1.54 M11.45 1.02 C13.49 1.2, 15.96 2.71, 17.24 4.35 C18.53 5.99, 19.22 8.85, 19.17 10.86 C19.12 12.86, 18.08 14.82, 16.92 16.41 C15.77 18, 14.07 20.11, 12.22 20.39 C10.37 20.68, 7.63 19.49, 5.82 18.13 C4.02 16.76, 2.09 14.18, 1.38 12.21 C0.67 10.25, 0.74 8.42, 1.57 6.33 C2.41 4.25, 4.86 0.64, 6.39 -0.27 C7.92 -1.18, 9.99 0.72, 10.77 0.87 C11.56 1.02, 10.79 0.56, 11.12 0.63" stroke="#000000" stroke-width="2" fill="none"></path></g><g transform="translate(10 13.752285170101914) rotate(0 49.41996765136719 12.5)"><text x="0" y="0" font-family="Virgil, Segoe UI Emoji" font-size="20px" fill="#000000" text-anchor="start" style="white-space: pre;" direction="ltr" dominant-baseline="text-before-edge">(-180, 90)</text></g><g transform="translate(981.7347900379955 28.53548429797729) rotate(0 45.309974670410156 12.5)"><text x="0" y="0" font-family="Virgil, Segoe UI Emoji" font-size="20px" fill="#000000" text-anchor="start" style="white-space: pre;" direction="ltr" dominant-baseline="text-before-edge">(180, 90)</text></g><g transform="translate(946.3856414047084 885.7687812962481) rotate(0 49.41996765136719 12.5)"><text x="0" y="0" font-family="Virgil, Segoe UI Emoji" font-size="20px" fill="#000000" text-anchor="start" style="white-space: pre;" direction="ltr" dominant-baseline="text-before-edge">(180, -90)</text></g><g transform="translate(64.90324330448425 879.8443712419216) rotate(0 53.52996063232422 12.5)"><text x="0" y="0" font-family="Virgil, Segoe UI Emoji" font-size="20px" fill="#000000" text-anchor="start" style="white-space: pre;" direction="ltr" dominant-baseline="text-before-edge">(-180, -90)</text></g><g transform="translate(261.14574452006264 872.8662015050751) rotate(0 105.85395050048828 17.5)"><text x="0" y="0" font-family="Virgil, Segoe UI Emoji" font-size="28px" fill="#000000" text-anchor="start" style="white-space: pre;" direction="ltr" dominant-baseline="text-before-edge">Longitude: 1 0 1</text></g><g transform="translate(658.6193929367159 10) rotate(0 57.973976135253906 17.5)"><text x="0" y="0" font-family="Virgil, Segoe UI Emoji" font-size="28px" fill="#000000" text-anchor="start" style="white-space: pre;" direction="ltr" dominant-baseline="text-before-edge">[45, 90)</text></g><g stroke-linecap="round"><g transform="translate(536.087468204357 53.26625211182943) rotate(0 0.3502164128797176 397.7119505067797)"><path d="M-1.07 -0.87 C-0.79 287.06, 1.29 576.27, 1.12 796.29 M-0.07 -0.58 C2.34 221.69, 1.91 443.45, 1.27 794.81" stroke="#000000" stroke-width="2" fill="none"></path></g></g><mask></mask><g transform="translate(539.1115567174581 10.50812148133457) rotate(0 49.44798278808594 17.5)"><text x="0" y="0" font-family="Virgil, Segoe UI Emoji" font-size="28px" fill="#000000" text-anchor="start" style="white-space: pre;" direction="ltr" dominant-baseline="text-before-edge">[0, 45)</text></g><g stroke-opacity="0.2" fill-opacity="0.2" stroke-linecap="round" transform="translate(648.550410938768 53.3480187869867) rotate(0 48.417552646742365 399.1907485949573)"><path d="M0 0 C0 0, 0 0, 0 0 M0 0 C0 0, 0 0, 0 0 M-0.75 6.18 C1.97 5.07, 2.47 3.55, 6.56 1.74 M0.44 6.24 C0.61 5.55, 2.13 4.27, 5.41 0.3 M2.34 14.63 C5.26 9.62, 6.41 3.64, 11 2.96 M1.28 12.25 C2.57 8.6, 6.75 2.82, 9.8 0.62 M2.69 20.71 C2.79 12.48, 3.59 7.98, 18.55 0.67 M-1.79 17.67 C4.51 11.22, 9.18 4.54, 16.09 0.62 M-0.94 25.16 C3.8 20.55, 14.92 10.15, 23.32 -1.95 M-0.25 24.35 C7.37 13.6, 17.43 6.71, 19.49 1.26 M-1.78 26.72 C11.4 15.39, 21.74 11.91, 29.34 1.41 M-0.14 30.25 C4.43 23.98, 11.03 13.95, 24.64 -0.63 M-4.17 39.41 C9.5 24.45, 24.87 8.98, 33.54 2.59 M1.21 37.67 C5.57 28.96, 13.92 18.5, 33.58 0.67 M-1.05 45.53 C15.91 25.14, 24.86 15.45, 40.5 3.85 M-1.45 43.49 C7.34 33.52, 14.79 21.86, 35.39 -0.09 M-4.06 48.08 C11.48 36.68, 23.79 26.29, 43.55 2 M-0.17 47.33 C14.9 33.11, 27.95 16.21, 44.49 -1.24 M0.92 55.58 C17.61 42.18, 31.75 25.75, 47.41 -3.44 M-0.19 54.25 C15.18 37.34, 28.93 22.43, 46.44 1.78 M-3.61 58.27 C23.08 36.89, 41.22 15.08, 49.31 -2.18 M1.93 62.72 C12.73 45.62, 26.48 27.81, 52.27 -1.65 M1.71 68.89 C15.89 46.73, 31.21 25.59, 61.63 2.99 M-0.1 67.25 C19.97 41.58, 44.1 15.44, 56.29 -1.39 M2.99 71.14 C14.65 55.51, 28.93 36.7, 61 -3.66 M-1.12 74.61 C20.61 44.92, 44.46 19.36, 62.38 -0.63 M-0.97 76.01 C19.96 56.72, 37.93 36.86, 66.93 -2.66 M-1.53 78.03 C19.41 56.57, 38.82 35.91, 69.85 0.11 M1.75 86.67 C24.43 56.55, 57.57 26.51, 74.96 -3.28 M0.47 85.85 C26.52 55.91, 50.45 25.6, 75.69 0.84 M-1.17 94.59 C31.88 58.01, 58.86 30.78, 79.25 -3.34 M0.6 91.49 C22.62 64.87, 44.03 37.67, 80.44 2.1 M2.19 100.41 C23.08 67.41, 51.85 39.24, 85.73 2.89 M0.24 98.12 C26.48 70.12, 48.97 40.84, 86.47 -1.13 M-2.1 106.31 C19.43 80.97, 41.2 55.04, 86.72 0.81 M1.44 104.86 C22.58 72.65, 49.6 47.24, 91.79 0.5 M-3.97 112.44 C36.9 68.83, 71.81 26.07, 98.04 3.61 M0.09 110.96 C37.75 70.92, 69.69 33.37, 96.39 0.66 M3.21 117.7 C30.81 88.59, 55.12 54.94, 100.34 -2.05 M-0.47 114.48 C30.44 82.75, 61.33 47.23, 98.7 2.81 M-2.83 119.95 C32.96 76.49, 67.4 39.86, 99.58 8.77 M0.38 120.24 C35.65 81.44, 71.24 37.79, 97.31 6.83 M3.27 124.82 C36.72 82.89, 72.72 39.95, 96.1 15.38 M-1.82 126.52 C30.76 97.99, 56.82 65.55, 99.2 12.95 M0.37 134.15 C26.14 98.88, 56.53 62.26, 99.39 16.2 M0.52 133.2 C18.93 108.8, 40.91 85.91, 99.67 20.23 M-1.26 138.3 C29.18 103.2, 63.51 68.66, 101.19 29.31 M-1.93 140 C27.44 110.36, 57.36 74.51, 98.71 27.03 M0.57 145.08 C36.21 106.52, 65.8 70.44, 96.04 29.34 M0.32 147.14 C38.71 104.76, 74.07 61.31, 98.64 33.59 M2.51 151.85 C34.7 114.2, 68.77 70.82, 95.83 35.6 M-0.69 153.28 C23.52 127.13, 43.64 105.5, 97.93 38.08 M-3.75 158.36 C32.85 114.09, 71.83 66.72, 102.34 40.95 M1.34 160.23 C31.48 126.07, 60.76 91.8, 96.86 43.23 M-1.69 167.21 C29 127.87, 65.46 92.17, 101.09 48.16 M2.07 163.08 C32.6 124.91, 66.93 84.39, 98.61 48.49 M-3.97 172.14 C21.08 143.75, 45.65 118.27, 99.28 54.34 M-0.46 170.46 C31.33 130.6, 67.17 92.79, 100.35 56.32 M0.03 174.96 C37.1 142.54, 63.65 105.68, 102.24 63.73 M-0.07 175.18 C39.11 131.94, 76.43 87.24, 100.91 60.74 M2.78 185.65 C38.76 140.02, 75.53 88.23, 100.05 67.9 M-0.7 182.19 C25.85 147.83, 55.07 119.52, 100.57 69.38 M-0.86 191.24 C24.76 155.65, 56.28 130.51, 100.04 74.59 M1.24 191.24 C26 162.16, 52.07 131.78, 100.75 76.13 M-3.81 192.19 C37.05 158.32, 71.03 122, 100.68 84.07 M2.04 193.1 C39.84 151.42, 78.39 107.53, 99.05 79.29 M3.22 202.74 C18.86 179.64, 37.43 156.49, 101.46 85.58 M1.7 199.74 C22.44 172.85, 46.14 147.68, 98.4 85.82 M0.13 207.84 C19.01 178.21, 46.03 154.71, 99.41 90.12 M-0.38 204.99 C30.76 168.49, 61.82 134.05, 100.7 93.99 M-3.9 215.22 C22.66 192.76, 39.44 171.58, 95.66 98.64 M-1.56 214.51 C28.46 180.84, 54.61 148.48, 100.6 101.32 M-1.98 220.29 C27.71 182.87, 65.29 143.72, 99.98 102.87 M-0.35 218.48 C26.24 187.76, 55.11 157.99, 99.21 107.29 M0.44 222.5 C20.05 196.51, 43.52 173.45, 100.63 113.73 M-1.31 225.74 C29.95 193.42, 57.78 164.39, 101.13 109.48 M3.43 229.75 C28.27 200.86, 53.31 172.9, 102.31 121.7 M-1.92 232.04 C20.71 207.56, 44.56 182.53, 97.62 117.83 M1.1 235.22 C32.63 199.98, 66.48 167.66, 102.58 125.65 M1.05 238.68 C39.41 194.91, 74.8 150.55, 98.18 123.24 M-3.85 241.52 C39.37 201.61, 74.5 161.23, 102.54 129.04 M1.34 244.48 C28.14 211.02, 55.31 181.33, 98.42 131.59 M-3.56 253.57 C39.63 208.96, 66.97 174.92, 99.23 136.75 M0.89 248.45 C27.34 218.97, 53.73 187.27, 99.69 136.38 M0.81 258.94 C32.47 225.35, 59.72 187.63, 99.63 139.43 M-1.1 253.97 C28 224.18, 55.7 189.6, 100.17 140.91 M-2.98 260.3 C31.39 226.67, 60.67 189.69, 98.47 149.94 M-1.06 263.01 C33 220.57, 67.24 182.52, 99.98 146.52 M2.23 264.19 C35.38 227.23, 74.28 180.47, 98.1 156.92 M0.63 268.77 C30.74 232.06, 60.19 199.45, 98.17 155.97 M1.59 277.25 C24.64 243.68, 53.67 213.46, 102.39 161.2 M-0.61 273.66 C27.44 240.35, 54.83 208.47, 97.8 161.65 M-3.24 279 C28.41 241.52, 66.68 203.19, 98.61 168.15 M-1.84 281.96 C31.05 248.3, 57.77 214.53, 97.08 167.78 M3.75 286.29 C32.23 249.46, 62.07 214.87, 97.93 168.57 M-1.53 286.03 C29.91 256.43, 56.27 223.98, 100.98 171.07 M-1.1 293.65 C40.57 247.42, 75.11 206.95, 98.04 174.82 M1.51 294.49 C37.34 248.37, 77.28 203.39, 97.04 178.7 M3.29 298.12 C38.74 257.67, 73.7 213.58, 99.58 185.66 M1.82 298.88 C19.74 269.11, 41.97 243.21, 99.07 184.96 M1.38 307.48 C19.26 282.03, 38.7 258, 96.11 194.68 M1.1 305.64 C28.13 275.49, 56.37 242.86, 98.2 189.45 M1.52 309.01 C34.37 272.15, 77.04 225.34, 99.97 194.63 M-2.15 310.78 C29.6 271.6, 64.48 232.52, 100.01 197.3 M-2.22 313.93 C32.94 276.52, 63.71 243.14, 98.75 202.31 M0.46 316.05 C18.39 293.51, 39.86 270.71, 98.16 201.82 M-0.08 325.77 C36.37 282.35, 78.02 234.08, 101.94 210.7 M-1.68 323.16 C34.26 288.75, 64.45 254.66, 100.2 208.45 M1.84 329.21 C18.22 304.62, 42.27 279.89, 97.38 213.84 M1.47 330.43 C37.17 287.39, 71.98 245.95, 97.25 217.46 M0.19 334.28 C30.45 304.28, 50.3 271.05, 101.19 219.17 M0.43 334.78 C32.4 297.14, 71.09 256.66, 101.07 220.11 M2.86 341.13 C23.15 310.84, 48.84 282.06, 99.62 223.96 M-2.18 340.35 C30.47 303.54, 62.85 268.82, 99.17 228.85 M2.87 348.49 C26.19 324.81, 42.78 296.78, 97.6 236.13 M-0.53 348.75 C20.12 321.52, 41.76 297.6, 98.47 234.04 M-3.72 350.02 C41.71 308.32, 80.34 260.68, 97.29 238.43 M-0.48 355.22 C34.87 317.47, 68.58 278.94, 97.07 237.83 M2.67 359.16 C40.55 313.7, 81.58 270.01, 98.59 249.27 M2.1 359.3 C26.46 330.13, 54.44 298.65, 99.99 246.89 M-0.24 369.3 C18.05 343.15, 43.79 322.01, 97.04 251.09 M-0.93 364.79 C35.52 325, 66.64 289.24, 98.16 250.57 M-0.13 370.62 C40.33 329.78, 72.32 285.46, 101.72 258.79 M-0.25 370.46 C30.27 342.87, 56.68 310.38, 97.61 257.12 M3.82 378.46 C29.47 343.33, 63.3 306.46, 99.73 264.55 M-0.02 378.17 C30.98 347.36, 57.03 311.39, 101.05 264.34 M-1.14 385.74 C32.4 353.43, 60.62 315.87, 102.78 269.99 M1.22 383.13 C23 355.43, 43.84 328.33, 97.74 271.55 M-0.87 391.78 C32.58 352.87, 66.09 317.98, 95.73 279.02 M2.21 390.53 C37.07 344.94, 76.06 302.18, 97.11 278.26 M0.29 398.47 C25.94 371.24, 43.49 342.7, 102.41 286.23 M-1.24 397.54 C33.54 361.36, 67.7 324.47, 97.86 280.34 M-4.06 399.11 C28.86 370.3, 49.59 342.52, 95.59 285.26 M-0.56 401.92 C32.13 363.99, 65.46 324.54, 99.07 288.27 M-0.38 410.82 C27.82 383.76, 49.49 352.75, 101.43 297.66 M0.66 408.28 C32.16 367.1, 66.11 328.2, 99.84 295.74 M-1.38 414.88 C16.18 391.14, 37.53 365.82, 98.07 297.08 M-0.26 416.22 C23.69 386.23, 45.77 361.53, 99.11 301.68 M-2.13 422.37 C23.15 396.29, 37.6 372.03, 96.17 310.03 M-0.03 419.78 C24.87 388.04, 54.89 357.28, 99.31 306.86 M-2.23 430.55 C28.33 400.65, 51.3 368.39, 96.76 312.37 M-0.38 427.64 C31.91 388.58, 64.51 351.26, 97.47 312.14 M0.19 431.23 C24.51 404.72, 51.98 370.64, 101.16 321.61 M-0.88 433.3 C32.53 394.42, 65.02 360.25, 98.28 318.63 M0.84 439.66 C29.77 408.14, 54.02 379.23, 99.46 325.82 M0.65 439.75 C39.44 398.39, 75.29 352.66, 99.79 326.38 M-0.03 442.62 C25.55 413.86, 50.3 392.88, 101.12 331.76 M-0.02 445.45 C24.74 411.46, 55.07 380.4, 99.19 330.33 M2.81 451.33 C22.46 428.02, 39.25 406.4, 99.47 333.71 M-1.87 452.97 C32.18 414.03, 64.33 376.73, 98.47 338.98 M1.44 453.8 C20.98 432.63, 48.97 400.67, 97.61 341.89 M0.46 455.2 C39.84 413.8, 80.38 367.63, 97.54 342.59 M0.79 467.21 C21.27 443.52, 40.37 413.38, 98.28 350.84 M1.76 463.54 C29.72 426.17, 58.83 392.42, 97.28 351.37 M-0.99 466.82 C26.6 445.94, 45.71 422.36, 96.39 352.24 M-0.09 470.58 C24.24 443.64, 47.46 413.91, 99.24 356.15 M2.15 474.04 C24.34 451.27, 47.15 421.82, 97.59 363.1 M1.68 474.06 C33.24 436.56, 69.14 399.68, 97.43 362.32 M-3.38 485.33 C27.89 459.1, 45.86 435.01, 94.76 366.59 M0.41 483.51 C23.98 452.48, 50.11 428.15, 97.96 366.56 M-0.92 484.59 C20.51 460.89, 47.14 427.77, 97.92 376.43 M1.07 488.48 C27.01 458.56, 48.33 429.27, 98.18 374.94 M-1.63 491.52 C37.23 452.24, 69.64 410.19, 96.15 377.29 M-0.6 492.71 C24.23 469.12, 44.33 443.08, 99.73 379.22 M3.96 502.48 C28.75 466.46, 50.96 433.69, 102.01 389.6 M1.53 498.82 C35.95 453.98, 75.14 411.91, 98.22 387.44 M0.59 502.65 C42.53 460.99, 79.1 420.83, 102.23 389.76 M-0.2 506.26 C23.95 481.66, 44.14 454.69, 97.02 391.91 M-3.29 510.87 C31.1 472.61, 63.38 438.01, 102.11 398.93 M0.41 511.98 C27.34 481.96, 54.87 451.31, 96.96 399.87 M-1.57 516.04 C38.28 478.6, 74.71 430.41, 95.5 407.47 M-1.45 516.6 C27.91 488.52, 51.89 463.49, 97.37 405.7 M3.39 521.49 C23.09 488.86, 51.83 456.81, 102.64 407.3 M-0.56 524.66 C38.12 478.41, 75.11 433.79, 99.21 409.11 M-2.75 529.83 C24.31 500.83, 48.36 475.93, 98.66 412.73 M0.02 531.23 C36.25 487.96, 73.71 444.56, 100.72 415.8 M0.29 535.13 C34.77 499.16, 72.9 460.39, 96.22 424.65 M-1.23 537.93 C34.3 497.95, 72.72 456.08, 97.22 423.42 M-0.08 539.72 C35.76 503.58, 70.93 460.7, 97.94 427.37 M1.32 543.53 C23.69 519.69, 45.18 494.2, 96.77 430.24 M0.54 550.63 C28.75 515.58, 49.29 489.54, 102.34 437 M1.62 548.21 C34.04 511.11, 69.73 470.25, 99.27 433.36 M-2.51 555.95 C37.39 507.42, 77.53 464.12, 97.72 441.82 M0.95 555.7 C18.72 529.8, 43.35 502.69, 97.57 440.9 M1.47 561.67 C31.89 527.5, 58.47 495.4, 98.65 443.17 M-0.37 562 C31.66 520.62, 63.95 483.86, 99.08 446.62 M1.21 563.85 C25.28 541.5, 50.48 507.08, 96.59 455.55 M0.82 565.29 C25.51 542.11, 52.01 512.58, 99.63 453.99 M-4.08 569.48 C22.9 553.9, 39.23 525.01, 96.35 459.54 M-1.83 574.64 C35.58 535.93, 68.69 496.26, 97.11 458.73 M1.19 580.81 C34.69 536.33, 72.76 498.52, 102.01 462.1 M-1.07 580.19 C36.72 540.76, 71.65 498.69, 100.53 465.09 M2.9 583.83 C29.59 548.86, 54.02 517.58, 98.79 473.05 M1.01 585.33 C27.77 552.64, 58.43 524.19, 97.18 472.02 M1.71 589.03 C38.54 546.65, 81.82 502.49, 101.59 477.83 M-1.33 589.39 C41.15 547.82, 77.64 502.77, 100.23 477.85 M3.64 599.59 C39.39 549.52, 74.4 505.7, 101.55 481.72 M0.33 595.6 C31.94 563.81, 62.62 528.14, 100.57 482.22 M0.59 604.25 C32.36 572.88, 55.42 538.17, 98.52 490.65 M-1.81 605.73 C20.65 577.79, 42.77 549.73, 98.46 490.78 M-3.8 605.67 C23.56 582.03, 38.83 560.37, 99.02 495.61 M1.38 608.32 C19.1 588.79, 37.79 564.96, 98.62 497.37 M3.8 612.81 C17.27 595.42, 40.76 569.67, 102.1 501.03 M-1 616.87 C33.86 577.77, 66.61 542.9, 99.31 500.23 M-1.16 621.8 C21.26 592.56, 46.07 570.23, 95.82 509.62 M-0.17 622.48 C26 591.48, 51.26 563.48, 98.05 508.63 M1.55 628.08 C29.74 591.49, 58.47 564.97, 95.88 514.53 M0.07 627.84 C39.91 584.11, 74.36 540.75, 97.33 514.88 M-2.64 631.27 C19.83 614.24, 42.68 588.61, 102.08 524.19 M-0.92 635.89 C32.6 591.49, 69.38 554.34, 98.36 520.97 M-1.14 643.52 C22.49 608.23, 49.85 579.22, 100.23 526.73 M-1.58 640 C24.68 612.69, 48.31 584.7, 98.1 526.77 M-0.31 645.92 C27.74 619.51, 49.13 591.37, 100.07 530.32 M-1.07 648.2 C28.26 615.06, 57.44 582.66, 100.41 532.23 M2.97 653.37 C32.46 614.8, 69.94 576.34, 95.73 536.05 M-1.54 653.81 C25.02 625.59, 49.76 599.54, 99.64 538.03 M-4.01 658.68 C36.89 616.84, 76.38 567.79, 100.32 542.08 M1.6 659.42 C24.58 626.67, 54.08 598.67, 100.5 543.58 M2.63 665.47 C23.74 638.71, 45.49 618.64, 98.47 548.48 M1.38 663.57 C18.71 642.43, 39.81 619.32, 97.69 551.64 M-2.72 668.53 C35.01 631.98, 68.55 591.97, 100.17 557.62 M0.37 668.9 C39.58 626.78, 77.92 580.45, 99 558.54 M-1.25 678.2 C26.38 644.47, 50.59 621.32, 102.72 562.55 M1.73 676.41 C29.76 645.51, 58.04 612.78, 98.39 562.4 M-1.25 685.24 C34.07 640.05, 76.54 596.43, 103.16 571.87 M0.93 682.08 C36.82 642.95, 72.93 599.23, 97.68 569.73 M-3.53 688.99 C29.39 656.26, 54.88 623.36, 96.94 577.87 M1.5 690.84 C31.91 653.36, 64.45 617.83, 100.31 575.48 M-0.88 694.19 C26.46 661.68, 57.13 633.5, 98.36 581.36 M-1.28 697.24 C40.37 651.98, 76.63 606.97, 97.05 581.61 M3.77 703.37 C22.44 673.3, 42.54 647.02, 102.47 588.09 M-1.27 699.67 C25.15 671.53, 53.71 638.18, 99.07 585.37 M-0.72 705.27 C33.1 668.66, 70.18 631.76, 98.99 593.13 M-0.43 708.51 C30.38 671.49, 58.42 638.47, 97.02 593.46 M2.79 715.65 C18.28 689.02, 44.68 665.71, 96.79 601.7 M0.89 712.84 C41.71 671.1, 78.87 623.62, 100.71 598.69 M2.32 721.47 C37.99 671.92, 72.14 633.21, 102.5 609.34 M1.73 720.37 C21.84 696.52, 43.74 672.29, 98.91 605.94 M1.25 729.73 C34.29 688.2, 67.14 651.23, 96.96 614.75 M-1.82 724.12 C24.71 698.94, 49.02 669.72, 99.01 612.86 M-3.8 731.83 C34.44 692.44, 71.61 652.56, 97.17 620.18 M0.51 730.62 C24.1 703.03, 47.88 676.32, 98.12 616.03 M-1.02 736.03 C21.46 703.97, 53.75 673.01, 102.17 627.82 M0.19 738.11 C28.05 700.79, 57.63 667.06, 100.14 623.18 M-2.96 740.2 C29.96 707.72, 52.42 674.99, 97.49 632.65 M1.63 745.19 C24.48 718.41, 49.79 688.53, 97.44 627.82 M-3.93 752.07 C20.99 725.77, 44.1 703.52, 101.83 638.59 M1.94 748.78 C33.43 715.53, 63.12 677.34, 100.69 637.27 M-3.5 754 C42.32 710.98, 83.49 663.98, 99.46 643.33 M-1.42 756.82 C22.04 729.63, 47.46 704.21, 100.45 643.24 M-0.58 759.42 C22.73 742.26, 42.64 716.9, 98.19 650.77 M0.5 762.42 C17.98 737.84, 37.66 717.41, 100.32 646.1 M0.41 769.2 C32.37 726.02, 70.34 687.98, 95.24 655.35 M1.19 768.1 C35.91 727.41, 68.36 687.39, 100.05 653.04 M2.12 772.47 C35.99 733.78, 79.17 687.27, 101.71 662.92 M0.37 772.43 C28.03 740.38, 58.68 707.31, 99.11 658.74 M-3.19 778.84 C21.68 754.95, 41.93 733.55, 97.21 662.91 M1.76 781.99 C37.93 735.81, 76.46 693.54, 100.61 667.34 M2.83 787.17 C36.01 746.88, 70.02 711.02, 102.35 673.14 M-1.22 786.05 C30.45 752.27, 63.2 714.03, 98.87 673.1 M2.57 790.02 C31.08 760.83, 55.22 723.4, 96.6 676.26 M-0.37 792.76 C31.18 757.34, 64.16 722.83, 98.56 678.6 M-3.68 798.02 C33.22 753.2, 72.07 717.53, 100.25 688.09 M-1.64 799.35 C20.67 773.23, 45.06 747.2, 99.78 682.93 M8.01 798.63 C34.11 768.39, 58.18 745.16, 98.83 694.48 M3.8 798.76 C26.66 771.59, 49.98 746.49, 99.73 692.37 M8.09 802.51 C36.69 768.85, 61.84 733.8, 97.76 699.49 M11.64 799.69 C41.08 766.75, 71.57 728.88, 98.48 696.33 M18.39 797.39 C43.23 774.45, 63.02 746.21, 94.83 702.21 M16.44 796.45 C42.38 766.04, 68.68 736.84, 100.7 702.05 M21.5 798.36 C43.04 776.77, 64.82 745.35, 98.07 709.15 M22.25 796.91 C39.18 776.77, 57.6 752.91, 100.67 710.75 M25.91 795.88 C49.09 778.8, 73.96 753.99, 99.71 718.63 M26.87 798.45 C50.33 771.73, 69.89 745.95, 97.43 715.86 M28.59 800.01 C49.67 771.93, 73.78 751.73, 100.57 717.65 M33.7 797.88 C47.8 780.3, 67.84 759.81, 98.43 719.7 M40.19 796.45 C50.56 774.84, 70.82 757.46, 96.78 726.01 M36.05 799.41 C53.15 778.05, 71.55 758.65, 99.32 727.4 M39.59 798.73 C62.55 775.7, 77.22 760.77, 96.17 737.17 M40.92 800.55 C64.39 776.55, 84.87 752.12, 99.62 735.59 M47.06 796.27 C61.36 786.97, 73.04 767.95, 100.22 742.66 M49.37 800.08 C63.07 780.8, 77.63 762.08, 97.82 738.59 M54.9 798.57 C69.02 783.08, 81.79 764.77, 97.94 744.43 M52.25 799.97 C66.65 781.45, 84.54 765.6, 100.47 744.62 M60.53 799.31 C70.15 781.48, 89.3 762.53, 102.36 747.73 M58.6 797.31 C72.88 781.73, 88.74 766.31, 99.8 750.44 M61.13 796.44 C74.25 784.24, 86.92 776.6, 101.16 761.23 M63.42 798.29 C73.37 787.33, 85.34 774.82, 99.62 757.36 M70.78 796.36 C81.02 790.02, 84.53 775.24, 101.1 765.9 M67.96 798.05 C74.35 792.15, 82.32 781.89, 96.87 765.83 M75.06 802.02 C78.22 789.95, 90.31 784.96, 97.97 767.41 M75.58 798.74 C78.53 789.29, 85.91 782.33, 98.81 771.72 M80.2 801.03 C88.06 792.37, 93.8 783.5, 98.47 772.44 M80.02 797.33 C87.73 791.4, 94.58 781.58, 98.02 776.45 M83.68 801.82 C86.82 791.07, 98.86 788.3, 96.69 785.64 M85.27 799.65 C88.64 793.2, 94.29 787.65, 100.16 783.7 M91.08 797.89 C91.55 793.34, 95.34 795.77, 100.15 789.22 M90.07 796.94 C92.33 793.91, 97.13 791.75, 99.47 789.02 M95.69 797.71 C97.07 797.5, 96.56 797.11, 99.4 795.62 M95.27 799.03 C96.49 797.58, 97.13 796.69, 99 794.63 M0.16 798.52 C0.16 798.52, 0.16 798.52, 0.16 798.52 M0.16 798.52 C0.16 798.52, 0.16 798.52, 0.16 798.52 M6.46 797.99 C2.94 798.04, 1.32 794.04, 0.75 791.64 M5.14 798.59 C3.46 796.11, 2.81 795.68, -0.11 793.27 M14.05 799.04 C8.1 797.55, 2.17 791.14, -0.56 789.55 M12.81 796.79 C9.5 796.66, 4.86 794.46, 0.55 788.08 M21.99 799.99 C15.98 793.94, 7.87 792.15, -1.72 781.61 M20 797.07 C11.77 791.98, 4.67 785.7, -1.42 782.99 M21.6 798.51 C17.02 792.18, 6.15 786.04, 3.37 774.14 M25.39 799.94 C15.53 792.9, 7.85 784.28, -1.79 775.97 M32.24 797.92 C22.02 787.29, 6.38 781.21, -0.6 768.27 M28.89 798.94 C22.08 790.37, 13.01 782.84, -0.17 770.72 M34.57 795.64 C26.91 793.34, 22.03 787.18, -2.11 767.41 M35.62 796.61 C22.71 786.15, 11.65 775.05, -1.32 766.23 M40.87 794.8 C25.78 785.06, 11.62 774.51, 2.84 758.5 M43.18 797.33 C34.14 787.95, 23.1 782.19, -2 761.49 M45.7 801.72 C36.19 783.6, 19.28 772.55, 0.67 755.41 M47.43 800.65 C36.05 790.22, 27.56 777.29, 0.15 756.68 M51.97 802.02 C36.92 786.07, 23.92 774.36, -1.96 747.82 M53.84 799.15 C33.52 782.02, 14.6 763.97, -0.37 749.88 M61.16 796.72 C42.92 777.02, 20.63 759.08, 3.75 744.59 M62.77 798.43 C39.57 781.08, 18.11 761, -1.85 746.2 M67.83 795.77 C44.71 773.8, 15.21 750.06, 3.38 739.26 M65.28 796.38 C52.66 786.61, 37.68 774.94, -1.54 739.19 M69.6 801.41 C53.21 783.98, 32.41 762.79, 1.37 734.21 M72.22 798.41 C54.13 781.88, 34.05 762.88, -0.38 736.72 M77.68 801.72 C50.06 775.39, 17.47 745.99, 3.18 728.67 M78.04 796.76 C62.95 781.96, 44.09 767.1, -1.64 728.88 M83.08 798.7 C65.14 782.13, 39.16 760.34, 1.92 720.33 M86.06 798.45 C62.44 775.65, 37.58 757.1, 0.87 723.32 M90.68 800.38 C68.51 775.99, 45.38 762.94, 4.21 720.67 M91.83 799.15 C74.5 782.25, 53.93 764.91, -0.13 720.44 M93.86 794.32 C66.56 770.08, 27.55 741.42, 0.02 715.85 M96.92 796.53 C74.54 778.13, 53.5 759.57, 1.66 712.12 M97.63 793.13 C59.59 762.79, 25.99 732.5, -3.36 706.07 M97.22 793.57 C76.08 774.28, 57.35 756.92, -0.81 708.82 M98.32 786.31 C76.74 764.6, 55.56 743.72, -3.55 706.46 M97.82 786.23 C64.28 757.13, 33.21 731.27, -0.88 702.36 M95.09 784.73 C72.7 764.19, 46.82 741.12, -1.13 698.45 M97.75 781.7 C76.38 766.13, 56.82 747.15, -1.1 697.05 M97.15 776.52 C73.19 759.22, 47.16 734.68, 2.18 694.66 M96.3 778.19 C61.13 745.67, 24.12 711.37, 1.8 692.38 M93.56 768.03 C71.4 744.61, 43.36 726, -2.54 690.24 M96.11 771.58 C64.87 747.23, 36.86 721, 2.01 686.25 M95.17 767.12 C72.58 747.15, 52.2 726.27, 2.39 679.78 M96.23 766.67 C66.91 744.08, 40.44 716.96, -0.33 681.61 M97.21 760.77 C68.87 735.46, 32.47 714.12, -0.82 672.66 M95.91 760.43 C70.89 738.31, 45.47 717.59, 1.95 677.66 M93.4 759.09 C74 740.78, 58.11 717.66, 0.41 669.95 M95.91 754.01 C67.73 731.1, 37.96 702.73, -1.91 672.56 M94.13 747.5 C73.93 730.03, 53.13 715.74, 2.96 663.76 M97.86 750.57 C62.11 718.5, 20.62 685.69, 0.51 666.58 M101.03 748.21 C67.54 717.42, 36.73 696.59, -2.21 662.12 M98.02 744.66 C66.97 719.24, 35.26 691.59, -0.18 660.84 M96.87 743.59 C77.27 721.28, 54.62 702.65, 3.93 656.38 M98.37 739.4 C68.88 713.31, 39.99 687.42, 1.92 656.43 M99.43 737.08 C68.01 711.3, 42.74 685.56, -1.74 646.05 M95.66 735.16 C71.77 712.09, 43.46 689.69, -0.95 649.16 M95.4 732.54 C66.19 705.89, 36.31 680.2, -2.57 646.2 M96.49 730.75 C69.51 706.27, 44.74 684.73, -1.17 644.71 M94.19 723.13 C65.15 696.66, 31.65 669.78, -4.28 640.31 M98.34 724.13 C66.92 696.34, 34.42 669.94, -0.65 637.33 M93.88 718.68 C72.24 689.94, 37.26 668.37, -1.06 635.68 M96.67 717.55 C65.18 692, 33.77 664.39, -1.75 633.02 M95.05 710.57 C70.28 689.07, 38.92 661.89, 3.03 632.93 M97.96 714.29 C60.14 683.97, 26.97 652.79, 0.47 628.89 M98.66 707.13 C71.57 684.4, 43.98 662.91, 0.18 622.12 M98.78 707.81 C61.27 679.72, 31.34 649.09, -0.37 625.04 M95.96 698.46 C73.57 680.31, 47.53 657.62, -3.03 614.81 M98.85 702.45 C68.66 681.98, 43.04 657.5, 1.3 618.51 M98.29 699.85 C73.16 673.98, 55.3 662.53, -2.99 609.62 M96.1 698.64 C57.86 663.57, 20.34 630.33, 0.82 612.57 M95.05 692.64 C77.95 677.83, 57.15 653.22, -1.22 611.61 M95.73 693.54 C77.02 672.77, 58.29 654.85, -1.61 605.94 M99.49 683.59 C60.15 660.16, 31.02 629.57, 1.51 605.1 M97.29 686.26 C63.24 660.19, 29.01 631.44, 0.08 601.48 M98.64 677.77 C73.81 658.96, 51.6 639.04, 3.11 597.14 M95.72 682.55 C61.88 650.03, 22.72 619.3, 0.94 595.35 M99.17 673.92 C65.93 648.13, 23.61 609.18, -2.06 590.29 M96.44 675.96 C69.02 651.55, 44.86 628.95, -1.94 589.74 M93.24 669.34 C69.34 644.94, 38.99 626.27, -1.19 586.05 M96.37 668.57 C71.04 650.33, 47.69 627.55, 1.58 586.01 M96.42 663.23 C69.4 639.73, 41.9 622.03, 2.74 581.71 M99.04 664.14 C74.29 644.8, 48.57 620.98, -0.17 581.41 M97.54 661.63 C77.28 638.94, 52.85 624.49, -3.08 573.77 M95.61 660.81 C62.09 630.02, 28.3 596.74, -1.67 574.28 M96.55 656.72 C76.61 636.6, 46.39 611.95, -3.46 570.74 M95.98 656.29 C58.8 621.43, 20.86 588.78, 0.87 568.67 M95.18 648.41 C78.72 630.71, 54.8 613.04, 2.68 564.57 M98.55 649.2 C69.59 625.04, 45.89 603.62, 0.6 563.62 M99.02 644.39 C66.77 620.34, 40 596.38, 0.16 559.52 M97.56 644.98 C62.89 614.17, 27.67 583.11, 1.05 557.76 M99.72 640.27 C74.78 615.47, 51.16 594.43, 3.48 551.52 M96.43 639.8 C61.57 606.7, 21.03 574.14, -0.77 554.57 M93.5 637.06 C65.7 608.97, 40.24 585.49, -1.39 549.05 M95.5 631.9 C73.19 612.04, 49.72 589.97, -1.34 551.03 M99.17 632.6 C70.2 608.87, 38.56 583.29, -3.06 544.51 M97.17 628.75 C74.37 611.34, 47.92 587.31, 0.46 542.79 M95.84 622.38 C64.22 590.38, 19.95 563.13, 1.08 535.1 M96.9 621.8 C60.38 592.5, 21.97 559.27, 0.39 536.92 M96.97 614.94 C66.93 588.29, 31.95 564.6, 2.83 534.22 M96.33 617.61 C66.43 590.22, 32.28 561.25, -0.06 533.02 M96.08 608.77 C69.14 591.17, 46.92 573.98, -3.04 528.29 M98.29 612.57 C77.96 594.89, 55.47 575.31, -0.65 527.96 M100.76 607.64 C60.75 577.7, 19.22 546, 3.14 520.17 M95.89 608.05 C67.08 586.17, 40.9 558.44, 0.71 521.07 M94.44 605.51 C66.82 576.93, 36.31 546.77, -0.19 518.02 M95.59 601.14 C65.88 575.59, 36.09 547.2, 1.02 518.79 M94.35 593.87 C66 572.43, 39.17 539.93, 2.03 514.68 M98.23 595.8 C66.53 567.52, 33.58 540.69, -0.76 511.88 M97.34 594.66 C72.53 569.51, 58.34 554.59, 4.14 509.18 M98.13 589.57 C65.95 560.64, 29.08 534.46, 2.09 508.78 M97.76 587.61 C63.23 552.66, 21.07 517.87, -2.15 498.88 M96.13 584.73 C60.12 551.39, 23.02 520.56, -0.61 501.47 M97.37 583.11 C69.29 554.07, 34.37 522.56, 2.4 499.5 M98.65 579.01 C73.63 556.24, 46.72 535.48, 1.35 497.43 M99.17 573.64 C71.12 551.36, 43.58 531.39, 3.14 490.72 M98.78 576.77 C59.13 542.77, 24.35 511.11, -1.58 490.95 M93.32 566.56 C79.22 551.66, 58.99 531.77, 1.46 487.49 M95.3 571.69 C61.3 537.4, 23.69 509.38, -1.71 486.31 M98.98 567.56 C73.27 541.96, 47.04 521.78, 0.62 476.96 M97.79 565.95 C62.51 534.21, 29.24 505.08, 1.01 480.52 M94.18 557.51 C62.15 526.41, 21.32 494.96, -0.35 473.81 M97.64 560.94 C76.58 540.07, 56.72 523.54, 0.04 474.43 M97.74 555.8 C61.74 529.42, 32.09 504.22, 3.2 473.16 M97.16 552.42 C64.23 521.8, 30.88 491.39, 1.26 471.49 M99.09 549.28 C64.24 518.67, 33.49 489.31, -0.53 465.94 M96.61 549.2 C68.48 521.91, 42.68 499.95, 0.12 464.88 M100.21 547.58 C63.35 514.06, 29.28 481.33, 1.99 455.72 M95.29 544.38 C64.83 513.93, 33.33 488.29, 0.64 460.25 M93.43 536.01 C64.92 512.63, 33.28 481.39, 3.61 450.17 M98.57 537.97 C61.49 505.44, 24.92 472.99, 0.49 454.85 M95.35 530.94 C61.81 501.87, 30.93 477.87, 2.28 445.83 M99 532.15 C76.75 510.84, 55.1 494.49, -1.96 448.29 M101.46 525.31 C75.91 507.21, 45.24 482.18, 2.97 443.6 M96.07 526.53 C60.67 494.76, 23.13 462.43, 1.48 441.63 M100.27 524.73 C65.42 498.09, 41.11 469.93, 3.54 441.5 M97.53 522.14 C67.78 499.1, 39.34 474.24, -0.22 436.18 M99.42 515.61 C67.76 493.01, 48.44 473.97, -3.4 434.14 M98.75 519.28 C73.27 494.51, 45.84 469.76, -0.14 432.6 M100.31 510.62 C57.46 476.81, 24.28 450.04, 3.42 429.55 M96.49 510.87 C76 496.01, 52.52 477.95, 1.56 425.61 M95.97 504.14 C60.45 479.37, 26.04 446.31, 3.77 424.54 M95.97 507.66 C61.58 474.63, 24.19 440, -1.22 423.22 M100.96 501.09 C73.42 482.06, 50.72 459.46, 1.8 413.61 M95.93 502.91 C63.59 471.37, 31.56 441.82, -1.51 417.35 M101.22 496.3 C68.16 471.15, 40.9 446.17, 3.92 412.31 M95.7 497.57 C67.61 473.77, 40.87 447.17, 1.82 411.07 M99.93 487.41 C62 464.04, 38.86 434.47, -3.31 402.13 M96.27 488.97 C71.44 470.11, 48.51 449.52, -0.9 405.25 M99.44 486.26 C63.72 450.85, 24.15 419.67, -3.32 401.83 M99.35 484.01 C63.46 457.32, 30.21 429.17, -1.06 401.8 M99.08 483.71 C74.54 459.97, 43.06 434.28, -2.91 397.02 M96.39 479.83 C78.83 462.39, 56.38 447.46, 0.06 394.94 M101.11 477.05 C69.62 442.89, 32.75 418.33, -2.13 392.24 M95.71 473.04 C67.18 446.41, 40.54 422.79, 0.53 391.16 M100.5 466.89 C75.09 454.53, 59.67 431.64, -0.11 387.05 M95.52 468.37 C67.72 442.54, 40.48 419.4, 1.19 387.13 M98.9 460.49 C65.77 436.99, 30.68 404.53, 3.5 381.54 M98.99 463.86 C65.86 434.77, 33.75 404.42, -0.63 379.01 M94.44 460.68 C72.43 436.25, 53.69 419.89, -1.54 371.74 M95.32 459.56 C69.74 434.05, 39.8 408.45, 0 375.65 M95.66 453.21 C68.11 424.29, 42.65 404.63, 1.76 370.5 M98.81 454.72 C72.46 431.38, 50.16 411.89, 0.65 367.29 M95.35 451.62 C74.12 427.98, 44.88 403.8, -0.43 362.81 M97.88 448.46 C76.06 431.59, 55.91 412.59, -1.38 362.72 M100.43 444.65 C63.62 409.96, 25.5 381.45, 1.03 358.74 M98.18 444.98 C64.9 412.58, 28.09 380.46, -0.04 358.02 M97.85 441.06 C72.32 415.78, 48.79 399.4, 4.21 356.76 M95.65 438.24 C64.42 408.34, 34.49 379.71, -1.4 353.68 M100.43 433.07 C60.53 400.58, 30.02 369.84, 1.89 348.66 M95.54 433.12 C67.73 403.77, 36.04 378.56, 1.33 347.34 M96.76 425.17 C59.57 402.92, 26.92 367.66, 3.53 338.91 M97.51 426.15 C65.54 399.49, 30.76 370.69, -1.09 342.95 M97.07 421.55 C62.14 388.86, 23.13 361.18, 1.09 333.5 M98.71 422.67 C73.25 401.76, 47.26 380.03, -0.85 335.48 M99.85 415.58 C60.1 385.71, 30.03 352.06, -1.1 335.39 M95.52 418.19 C71.19 395.47, 46.35 372.94, 1.91 332.06 M93.96 413.97 C64.3 379.69, 33.55 356.73, 3.57 325.3 M98.93 412.28 C77.36 393.94, 55.74 374.63, 0.24 324.73 M96.8 408.78 C69.79 384.23, 42.93 356.24, -2.16 321.15 M95.84 404.49 C72.63 384.23, 46.13 359.61, -0.63 319.6 M100.88 403.02 C63.81 373.44, 31.51 340.54, 2.46 318.9 M96.85 401.68 C60.48 368.52, 23.93 336.83, -2.18 317.53 M99.75 394 C57.75 362.14, 22.52 333.87, 2.08 311.95 M97.34 397.24 C67.12 368.28, 35.97 339.78, -1.54 311.3 M97.82 390.22 C76.22 370.52, 51.19 350.44, -0.91 303.97 M96.52 389.72 C67.76 362.19, 35.11 332.73, 1.53 306.36 M96.27 386.69 C71.95 363.31, 44.11 338.33, 3.54 296.35 M98.52 386.07 C67.33 361.14, 35.95 334.37, -0.23 301.95 M94.92 381.88 C76.71 361.63, 55.5 344.89, -1.03 293 M95.4 380.31 C71.15 354.87, 44.34 333.73, -0.59 295.83 M94.11 377.05 C77.28 352, 52.68 332.63, -3.68 287.75 M96.28 372.71 C74.27 352.14, 47.28 328.22, -0.72 289.44 M96.55 369.14 C71.12 342, 35.48 316.84, 0.53 285.92 M98.35 368.47 C75.91 349.19, 49.35 327.39, 0.63 285.28 M101.22 366.13 C66.4 334.94, 29.34 307.73, -3.3 280.35 M95.95 364.96 C78.69 345.9, 59.49 330.09, -1.6 280.77 M97.24 355.94 C70.01 335.39, 45.62 308.29, 4.16 271.53 M95.63 358.32 C72.02 333.34, 47.42 311.17, -1.44 272.19 M97.73 353.79 C68.12 328.4, 33.44 298.01, -0.85 269.13 M97.25 354.74 C71.07 330.76, 46.61 308.57, 1.91 270.01 M93.71 347.05 C78.22 327.37, 50.28 310.59, -3.32 259.39 M96.94 349.07 C64.95 321.23, 33.6 293.17, 1.19 262.09 M95.96 342.68 C66.74 316.15, 37.77 288.01, -3.65 253.94 M96.3 344.05 C62.52 307.71, 25.33 278.47, 0.04 256.34 M96.88 336.04 C64.89 315.77, 41.99 291.51, 0.34 249.24 M97.35 337 C70.01 314.08, 43.31 290.21, 2.18 251.95 M96.42 334.29 C75.86 314.34, 43.05 287.64, -0.85 243.41 M95.65 330.99 C56.54 297.72, 21.02 263.61, -1.61 246.03 M95.86 325.28 C69 298.32, 32.12 272.24, -2.41 243.62 M95.34 325.53 C64.66 296.48, 33.16 265.31, -0.39 240.84 M99.79 324.91 C63.44 295.9, 37.77 271.15, 0.57 234.97 M98.23 319.75 C61.1 292.9, 30.56 262.65, -0.02 238.44 M93.92 313.98 C63.33 284.4, 26.58 257.04, -0.94 227.87 M94.82 315.12 C63.77 284.74, 31.2 255.6, 1.94 231.91 M94.97 309.63 C71.4 282.82, 38.51 255.79, -4.15 226.89 M97.39 310.61 C60.48 276.72, 23.99 241.74, -0.76 224.03 M96.55 302.15 C75.78 287.14, 59.4 267.49, -0.43 222.17 M95.08 305.38 C63.03 276.2, 28.71 246.83, 2.05 222.43 M95.02 302.38 C75.44 281.97, 60.99 267.24, 2.41 214.24 M98.9 297.96 C65.53 277.96, 39.36 254.78, 0 214.34 M100.16 295.25 C65.28 270.01, 37.5 245.17, -1.88 213.48 M97.59 293.62 C61.37 262.55, 23.28 231.71, -0.76 209.74 M93.21 291.87 C66.82 270.44, 40.22 244.54, -0.17 200.91 M98.9 288.26 C68.15 263.4, 41.69 240, 1.5 204.03 M101.09 281.62 C62.27 252.65, 23.61 227.48, 1.92 199.61 M96.95 282.31 C68.43 256.51, 37.19 229.92, 1.19 201.27 M98.96 277.66 C64.35 253.15, 30.58 220.91, -2.09 195.58 M97.97 278.08 C72.05 252.92, 45.26 231.15, 0.39 192.83 M96.13 272.35 C71.45 247.85, 34.89 224.02, -1.66 185.15 M95.43 272.96 C65.98 244.28, 28.48 212.95, 2 188.57 M93.92 266.09 C70.48 242.08, 41.24 212.71, 0.62 183.78 M95.07 268.08 C59.34 237.04, 24.07 203.84, 0.72 183.57 M99.52 262.71 C74.52 241.91, 47.98 221.84, -1.05 177.51 M97.97 261.53 C79.62 244.11, 59.42 227.69, 0.17 177.26 M99.9 258.34 C77.42 237.92, 56.56 216.57, 2.14 171.81 M97.59 257.01 C73.5 241.02, 54.51 219.81, -0.06 172.18 M99.66 252.77 C71.2 225.55, 49.51 208.66, 3.52 166.94 M98.89 253.07 C70.67 228.46, 37.48 200.39, 0.62 169.07 M94.92 246.36 C72.63 229.14, 43.49 201.13, -0.45 159.48 M95.32 247.73 C74.2 225.63, 52.19 208.9, -0.33 162.32 M95.16 243.4 C67.5 208.49, 34.2 180.01, -4.03 154.46 M95.94 239.72 C63.66 211.21, 28.94 182.8, 0.67 155.81 M97.16 232.96 C67.06 210.1, 40.28 181.87, 1.9 149.41 M98.44 237.17 C63.32 205.97, 31.47 178.25, 0.68 152.82 M98.8 232.31 C60.14 201.92, 30.95 170.05, -3.55 147.92 M96.25 230.73 C61.12 198.1, 26.52 165.5, 0.02 145.39 M97 227.74 C63.87 194.95, 33.05 170.57, -1.34 139.02 M95.55 226.36 C71.03 201.43, 43.56 176.63, 1.39 139.51 M93.56 218 C80.36 207.02, 61.48 190.75, 1.28 134 M98.38 218.42 C71.64 197.62, 42.17 171.1, -1.17 135.81 M93.03 211.12 C67.22 191.49, 37.63 164.98, 0.74 129.87 M95.66 214.44 C65.67 185.83, 37.57 162.07, 0.89 130.72 M100.6 211.8 C67.99 187.74, 41.17 155.29, 2.95 122.17 M98.29 208.22 C62.4 182.4, 26.89 149.38, -0.39 125.17 M95.98 202.31 C71.75 186.66, 47.55 158.11, -2.75 116.37 M98.18 204.62 C70.81 181.44, 45.38 158.91, 1.66 121.82 M95.27 201.84 C66.06 169.62, 32.79 141.97, 2.18 116.72 M95.35 200.65 C71.14 173.39, 42.32 149.54, 1.32 113.67 M92.82 191.37 C63.24 164.51, 32.99 139.77, -0.53 105.69 M94.93 194.23 C67.04 170.22, 39.1 142.92, -0.4 109.31 M99.12 189.07 C56.94 156.77, 23.51 122.07, -4.17 104.76 M98.31 189.32 C64.58 158.64, 32.09 129.98, 1.29 105.58 M99.42 183.8 C70.56 163.15, 52.23 140.15, -3.12 97.85 M96.88 185.32 C61.24 150.17, 21.07 118.72, 2.02 100.77 M95.86 175.24 C61.12 145.56, 35.85 120.82, -3.02 92.19 M95.36 178.94 C71.95 158.72, 50.45 136.75, 1.3 91.28 M97.59 169.95 C59.83 137.68, 20.84 112.13, 1.14 89.67 M97.15 172.1 C63.39 142.93, 31.48 112.74, 1.62 88.87 M99.4 166.92 C59.94 134.52, 22.27 104.02, -1.12 83.75 M96.08 167.3 C70.27 145.32, 48.37 125.06, 1.48 81.26 M99.6 164.95 C72.49 144.34, 45.35 121.65, 2.1 78.79 M97.53 162.81 C66.53 141.71, 42.24 117.58, -1.49 77.38 M93.86 155.51 C62.81 127.46, 28.01 97.34, 2.98 70.97 M97.46 155.31 C64.84 129.71, 33.79 99.95, -1.58 72.06 M101.14 154.1 C59.21 124.06, 25.32 91.49, 3.81 67.65 M95.47 151.14 C67.09 123.47, 35.41 94.38, -1.79 67.18 M93.52 145.19 C75.47 127.36, 51.16 113.02, -1.09 60.21 M97.89 144.95 C63.11 116.95, 32.19 89.09, -0.91 60.36 M94.09 137.5 C76.57 125.66, 58.76 104.99, -3.52 59.5 M98.82 142.88 C67.23 113.81, 34.52 86.94, 1.65 58.2 M98.85 132.97 C67.59 110.91, 40.8 84.04, 1.24 53.3 M95.18 137.29 C76.86 114, 55.18 98.53, -0.38 49.56 M94.53 134.07 C64.74 103.01, 34.76 74.41, 0.53 46.43 M95.82 129.91 C71.71 109.51, 44.79 85.91, -0.83 47.51 M100.51 128.69 C64.27 100.93, 35.24 76.05, 2.47 40.88 M96.53 126.53 C69.81 103.42, 42.41 76.53, 0.28 41.2 M98.7 121.53 C71.95 93.87, 43.01 72.56, -1.44 37.31 M97.14 120.2 C66.85 94.69, 37.79 69.4, 0.49 35.24 M99.36 110.96 C62.93 86.64, 32.51 60.5, -2.44 26.42 M96.56 113.92 C72.64 92.63, 44.84 67.68, 0.02 28.87 M95.05 112.41 C68.95 83.09, 42.18 61.12, 3.36 21.84 M97.85 107.81 C60.19 78.15, 20.36 45.76, 0.78 22.64 M94.44 103.24 C57.26 65.1, 18.83 36.85, 0.88 19.51 M95.28 101.83 C71.2 81.12, 41.15 55.61, -0.55 17.61 M100.22 102.08 C73.92 75.59, 45.01 54.79, -2.1 14.54 M95.41 98.91 C65.87 68.89, 30.17 40.56, -1.44 14.04 M94.97 89.78 C65.39 61.17, 33.87 29.85, 3 8.57 M96.12 91.71 C68.11 66.8, 39.79 43.58, -0.44 10.55 M99.02 88.7 C73.32 65.97, 45.41 42.46, 3.35 2.71 M95.71 89.75 C72.91 66.82, 50.87 46.02, 1.82 2.85 M100.36 83.66 C57.61 50.87, 23.14 18.4, -0.57 -2.52 M95.92 82.12 C60.44 48.78, 24.02 16.34, 0.52 -0.44 M96.47 77.25 C60.38 47.02, 34.05 13.74, 10.6 -2.94 M99.04 76.67 C78.4 60.5, 60.66 44.54, 5.45 0.17 M96.21 74.76 C80.6 49.15, 58.93 36.32, 11.69 1.47 M94.92 70.69 C68.55 48.47, 40.16 21.84, 12.72 -0.85 M97.74 67.52 C63.84 38.05, 33.74 14.94, 22.18 -4.1 M98.08 66.11 C80.12 49.63, 62.39 33.46, 19.2 0.98 M99.08 58.43 C80.93 44.99, 59.35 25.83, 27.58 -0.45 M95.5 60.83 C73.72 40.95, 51.19 21.16, 23.05 -3.11 M96.24 58.1 C84.49 44.93, 68.01 33.38, 33.28 -2.93 M95.93 56.62 C74.03 36.21, 48.65 14.9, 30.73 -1.95 M101.41 52.87 C74.79 33.27, 48.84 9.11, 39.18 0.04 M97.23 49.05 C83.79 41.15, 68.52 28.59, 38.9 0.93 M93.52 42.42 C80.11 26.92, 61.49 10.25, 41.81 -0.88 M96.11 44.82 C83.8 33.09, 71.99 24.85, 41.62 -2.82 M96.14 43.06 C87.57 28.85, 72.29 19.38, 48.48 0.1 M99.29 38.94 C83.79 32.26, 73.84 19.12, 51.79 -2.44 M95.34 36.69 C82.81 25.29, 68.63 12.24, 55.87 1.45 M96.51 35.43 C84.7 24.29, 74.33 16.07, 56.86 -0.74 M93.61 30.13 C86.18 23.02, 78.79 14.14, 59.94 1.69 M95.58 28.51 C84.64 19.52, 70.28 5.61, 59.93 -2.88 M99.65 27.97 C88.6 15.5, 87.16 12.68, 66.52 0.91 M95.46 23.27 C89.43 16.46, 81.62 11.96, 67.59 -1.06 M94.35 20.02 C91.43 15.69, 82.86 10.66, 73.44 -3.1 M97.34 20.87 C89.05 14.71, 84.59 8.75, 75.16 -2.59 M100.58 10.11 C91.02 13.41, 86.23 2.61, 80.7 1.19 M97.67 15.24 C91.9 6.19, 84.1 1.52, 82.11 -0.01 M100.16 10.74 C92.9 4.24, 91.97 4.69, 88.28 -2.86 M98.77 9.8 C94.43 6.99, 91.53 4.25, 85.8 -1.62 M97.98 3.11 C96.43 2.88, 94.73 0.5, 91.63 -1.75 M96.73 3.28 C95.88 2.33, 94.84 0.58, 92.39 -1.61" stroke="#228be6" stroke-width="0.5" fill="none"></path><path d="M2.55 -1.73 C21.73 -3.27, 50.3 0.85, 99.42 2.97 M-0.67 1.07 C29 1.05, 52.88 1.65, 97.68 -0.09 M95.34 0.33 C101.88 271.95, 100.58 544.99, 97.49 798.49 M97.61 0.56 C93.58 219.74, 92.85 439.77, 96.45 798.68 M94.45 796.73 C61.15 798.9, 34.14 799.16, 3.05 797.21 M95.74 798.37 C73.6 797.11, 53.69 797.76, -0.61 799.49 M-0.64 797.97 C-2.17 638.78, -1.29 479.21, -0.35 -0.2 M0.55 798.45 C-5.6 565.05, -5.7 331.86, 0.35 0.17" stroke="#000000" stroke-width="1" fill="none"></path></g><g stroke-linecap="round"><g transform="translate(746.3838882763218 53.20784734385984) rotate(0 -0.48595038933865453 399.58699563768647)"><path d="M-0.43 0.19 C0.09 267.61, -0.82 535.92, 0.55 798.99 M-0.24 0.33 C-1.98 176.3, -2.15 353.39, 0.49 798.25" stroke="#000000" stroke-width="2" fill="none"></path></g></g><mask></mask><g stroke-linecap="round"><g transform="translate(647.8729156303214 50.56795183163695) rotate(0 -0.14615492416510278 400.2251221665829)"><path d="M0.53 -0.61 C0.52 291.65, 0.63 584.78, -0.82 801.06 M0.19 -0.32 C-0.34 268.47, -0.56 536.42, -0.73 800.75" stroke="#000000" stroke-width="2" fill="none"></path></g></g><mask></mask></svg>