<svg version="1.1" xmlns="http://www.w3.org/2000/svg" viewBox="0 0 1082.3547393788158 919.8635073927207" width="2164.7094787576316" height="1839.7270147854415">
  <!-- svg-source:excalidraw -->
  
  <defs>
    <style class="style-fonts">
      @font-face {
        font-family: "Virgil";
        src: url("https://excalidraw.com/Virgil.woff2");
      }
      @font-face {
        font-family: "Cascadia";
        src: url("https://excalidraw.com/Cascadia.woff2");
      }
    </style>
  </defs>
  <g stroke-linecap="round" transform="translate(119.10324749918959 54.0244437449378) rotate(0 417.081503389089 397.7095425880504)"><path d="M-0.31 -0.11 C247.08 -3.98, 493.48 -3.78, 834.27 -0.79 M-0.08 0.18 C259.5 -2.72, 519.68 -3.1, 834.31 -0.13 M833.36 -0.43 C836.62 258.52, 836.68 518.07, 834.66 795.5 M834.52 -0.13 C835.81 199.39, 835.73 398.85, 834.33 795.43 M834.9 795.53 C582.4 797.41, 330.06 797.83, 0.57 794.71 M834.21 795.69 C647.88 793.38, 461.18 794.05, -0.3 795.67 M0.58 794.88 C-2.47 519.43, -3.62 244.26, 0.29 0.55 M-0.33 795.59 C2.21 487.28, 2.1 179.79, 0.19 0.38" stroke="#000000" stroke-width="2" fill="none"></path></g><g stroke-linecap="round" transform="translate(702.8454166931795 194.92830405769303) rotate(0 9.739102779315544 9.739102779315573)"><path d="M11.76 0.59 C13.85 1.21, 17.02 3.61, 18.26 5.43 C19.5 7.26, 19.64 9.59, 19.19 11.56 C18.74 13.53, 17.02 16.06, 15.55 17.27 C14.08 18.48, 12.27 18.85, 10.36 18.82 C8.45 18.79, 5.76 18.13, 4.11 17.08 C2.46 16.03, 0.98 14.68, 0.46 12.53 C-0.05 10.37, 0.17 6.13, 1.02 4.16 C1.87 2.19, 3.6 1.29, 5.56 0.71 C7.53 0.13, 11.37 0.54, 12.78 0.68 C14.19 0.82, 14.01 1.48, 14.02 1.54 M11.45 1.02 C13.49 1.2, 15.96 2.71, 17.24 4.35 C18.53 5.99, 19.22 8.85, 19.17 10.86 C19.12 12.86, 18.08 14.82, 16.92 16.41 C15.77 18, 14.07 20.11, 12.22 20.39 C10.37 20.68, 7.63 19.49, 5.82 18.13 C4.02 16.76, 2.09 14.18, 1.38 12.21 C0.67 10.25, 0.74 8.42, 1.57 6.33 C2.41 4.25, 4.86 0.64, 6.39 -0.27 C7.92 -1.18, 9.99 0.72, 10.77 0.87 C11.56 1.02, 10.79 0.56, 11.12 0.63" stroke="#000000" stroke-width="2" fill="none"></path></g><g transform="translate(10 12.847011266574555) rotate(0 49.41996765136719 12.5)"><text x="0" y="0" font-family="Virgil, Segoe UI Emoji" font-size="20px" fill="#000000" text-anchor="start" style="white-space: pre;" direction="ltr" dominant-baseline="text-before-edge">(-180, 90)</text></g><g transform="translate(981.7347900379955 27.630210394449932) rotate(0 45.309974670410156 12.5)"><text x="0" y="0" font-family="Virgil, Segoe UI Emoji" font-size="20px" fill="#000000" text-anchor="start" style="white-space: pre;" direction="ltr" dominant-baseline="text-before-edge">(180, 90)</text></g><g transform="translate(946.3856414047084 884.8635073927207) rotate(0 49.41996765136719 12.5)"><text x="0" y="0" font-family="Virgil, Segoe UI Emoji" font-size="20px" fill="#000000" text-anchor="start" style="white-space: pre;" direction="ltr" dominant-baseline="text-before-edge">(180, -90)</text></g><g transform="translate(64.90324330448425 878.9390973383943) rotate(0 53.52996063232422 12.5)"><text x="0" y="0" font-family="Virgil, Segoe UI Emoji" font-size="20px" fill="#000000" text-anchor="start" style="white-space: pre;" direction="ltr" dominant-baseline="text-before-edge">(-180, -90)</text></g><g transform="translate(261.14574452006264 871.9609276015477) rotate(0 116.64794921875 17.5)"><text x="0" y="0" font-family="Virgil, Segoe UI Emoji" font-size="28px" fill="#000000" text-anchor="start" style="white-space: pre;" direction="ltr" dominant-baseline="text-before-edge">Longitude: 1 0 1 1</text></g><g transform="translate(731.6428743290223 12.87935506089832) rotate(0 69.34197235107422 17.5)"><text x="0" y="0" font-family="Virgil, Segoe UI Emoji" font-size="28px" fill="#000000" text-anchor="start" style="white-space: pre;" direction="ltr" dominant-baseline="text-before-edge">[67.5, 90)</text></g><g stroke-linecap="round"><g transform="translate(536.087468204357 52.36097820830207) rotate(0 0.3502164128797176 397.7119505067797)"><path d="M-1.07 -0.87 C-0.79 287.06, 1.29 576.27, 1.12 796.29 M-0.07 -0.58 C2.34 221.69, 1.91 443.45, 1.27 794.81" stroke="#000000" stroke-width="2" fill="none"></path></g></g><mask></mask><g transform="translate(561.5857114321343 10) rotate(0 68.79598236083984 17.5)"><text x="0" y="0" font-family="Virgil, Segoe UI Emoji" font-size="28px" fill="#000000" text-anchor="start" style="white-space: pre;" direction="ltr" dominant-baseline="text-before-edge">[45, 67.5)</text></g><g stroke-opacity="0.2" fill-opacity="0.2" stroke-linecap="round" transform="translate(703.8655666827121 52.43690440666239) rotate(0 20.853422403521563 399.1907485949573)"><path d="M0 0 C0 0, 0 0, 0 0 M0 0 C0 0, 0 0, 0 0 M-0.75 6.18 C1.97 5.07, 2.47 3.55, 6.56 1.74 M0.44 6.24 C0.61 5.55, 2.13 4.27, 5.41 0.3 M2.34 14.63 C5.26 9.62, 6.41 3.64, 11 2.96 M1.28 12.25 C2.57 8.6, 6.75 2.82, 9.8 0.62 M2.69 20.71 C2.79 12.48, 3.59 7.98, 18.55 0.67 M-1.79 17.67 C4.51 11.22, 9.18 4.54, 16.09 0.62 M-0.94 25.16 C3.8 20.55, 14.92 10.15, 23.32 -1.95 M-0.25 24.35 C7.37 13.6, 17.43 6.71, 19.49 1.26 M-1.78 26.72 C11.4 15.39, 21.74 11.91, 29.34 1.41 M-0.14 30.25 C4.43 23.98, 11.03 13.95, 24.64 -0.63 M-4.17 39.41 C9.5 24.45, 24.87 8.98, 33.54 2.59 M1.21 37.67 C5.57 28.96, 13.92 18.5, 33.58 0.67 M-1.05 45.53 C15.91 25.14, 24.86 15.45, 40.5 3.85 M-1.45 43.49 C7.34 33.52, 14.79 21.86, 35.39 -0.09 M-4.06 48.08 C11.33 36.85, 23.48 26.64, 42.89 2.76 M-0.17 47.33 C14.68 33.38, 27.51 16.74, 43.83 -0.49 M0.92 55.58 C15.96 43.92, 28.55 29.27, 42.16 2.6 M-0.19 54.25 C13.66 39.19, 25.79 26.15, 41.19 7.82 M-3.61 58.27 C18.9 41.39, 32.99 24.25, 38.16 10.65 M1.93 62.72 C9.85 49.02, 20.68 34.57, 41.12 11.18 M1.71 68.89 C11.32 52, 21.87 36.35, 45.89 21.1 M-0.1 67.25 C14.36 48.52, 32.5 29.25, 40.54 16.72 M2.99 71.14 C9.85 61.12, 19.25 47.94, 39.35 21.25 M-1.12 74.61 C12.98 54.16, 28.79 37.85, 40.73 24.27 M-0.97 76.01 C13.26 64.06, 24.46 52, 40.03 28.28 M-1.53 78.03 C11.85 64.93, 23.87 52.77, 42.95 31.05 M1.75 86.67 C12.68 69.93, 34.16 53.31, 42.81 33.7 M0.47 85.85 C15.92 68.88, 28.54 51.58, 43.55 37.82 M-1.17 94.59 C18.32 72.56, 32.1 60.52, 41.86 39.68 M0.6 91.49 C12.28 77.33, 22.93 62.5, 43.05 45.12 M2.19 100.41 C10.98 82.1, 27.65 67.87, 43.09 51.94 M0.24 98.12 C13.8 84.9, 24.1 69.64, 43.82 47.92 M-2.1 106.31 C7.66 93.14, 18.06 80.3, 38.83 55.9 M1.44 104.86 C9.77 88.25, 24.04 77.5, 43.9 55.59 M-3.97 112.44 C17.69 92.51, 32.78 72.55, 44.24 65.5 M0.09 110.96 C17.15 92.32, 29.67 77.11, 42.59 62.55 M3.21 117.7 C14.97 104.68, 24.59 87.93, 43.27 63.61 M-0.47 114.48 C13.77 102.22, 26.82 87.22, 41.63 68.47 M-2.83 119.95 C13.05 101.49, 26.64 88.85, 42.5 74.43 M0.38 120.24 C15.77 105.18, 30.25 85.81, 40.23 72.49 M3.27 124.82 C14.85 107.88, 29.13 89.93, 39.68 80.29 M-1.82 126.52 C13.98 115.5, 24 101.52, 42.78 77.85 M0.37 134.15 C10.27 118.77, 23.84 101.5, 42.31 81.86 M0.52 133.2 C7.21 123.13, 17.26 113.96, 42.59 85.89 M-1.26 138.3 C11.09 123.8, 27.6 109.75, 44.11 94.97 M-1.93 140 C10.43 128.54, 23.61 111.95, 41.63 92.69 M0.57 145.08 C16.49 129.46, 26.3 116.13, 38.96 95 M0.32 147.14 C17.63 128.68, 31.25 110.23, 41.56 99.25 M2.51 151.85 C14.35 137.39, 28.32 117.13, 38.76 101.26 M-0.69 153.28 C11.03 141.35, 19.39 133.24, 40.85 103.74 M-3.75 158.36 C12.32 139.66, 29.79 117.03, 45.92 105.85 M1.34 160.23 C14.19 144.56, 27.04 129.19, 40.44 108.13 M-1.69 167.21 C10.91 149.13, 28.09 135.6, 44.02 113.82 M2.07 163.08 C13.01 148.33, 27.73 130.36, 41.53 114.15 M-3.97 172.14 C8.65 159.01, 20.12 148.58, 42.21 120 M-0.46 170.46 C12.38 152.92, 28.15 138.18, 43.27 121.98 M0.03 174.96 C17.54 164.23, 25.7 148.51, 45.16 129.39 M-0.07 175.18 C17.81 157.51, 33.31 137.89, 43.83 126.4 M2.78 185.65 C15.67 166.53, 30.06 140.47, 42.97 133.56 M-0.7 182.19 C11.11 166.89, 24.49 156.79, 43.5 135.04 M-0.86 191.24 C9.66 173.25, 25.44 166.22, 43.62 139.49 M1.24 191.24 C11.28 178.09, 23.11 164.08, 44.33 141.04 M-3.81 192.19 C16.77 180.25, 31.32 166.28, 43.6 149.73 M2.04 193.1 C17.42 175.86, 33.74 157.56, 41.97 144.95 M3.22 202.74 C7.58 192.69, 14.58 182.85, 44.39 151.24 M1.7 199.74 C8.76 189.01, 18.81 179.54, 41.33 151.48 M0.13 207.84 C7.27 193.13, 21.95 183.83, 42.33 155.78 M-0.38 204.99 C13.11 190, 26.31 176.11, 43.62 159.65 M-3.9 215.22 C10.1 205.5, 15.05 197.93, 38.58 164.3 M-1.56 214.51 C12.24 199.25, 22.22 185.49, 43.53 166.98 M-1.98 220.29 C9.8 204.94, 28.67 187.3, 43.56 167.78 M-0.35 218.48 C11.49 205.18, 24.69 193.44, 42.79 172.2 M0.44 222.5 C7.58 211.1, 18.08 202.96, 43.56 179.39 M-1.31 225.74 C12.99 210.72, 24.91 199.98, 44.06 175.14 M3.43 229.75 C13.16 218.7, 22.89 208.35, 45.23 187.35 M-1.92 232.04 C8.41 221.52, 19.81 210.81, 40.54 183.49 M1.1 235.22 C13.58 220.46, 29.31 208.99, 45.51 191.31 M1.05 238.68 C17.46 220, 31.43 200.28, 41.1 188.9 M-3.85 241.52 C16.46 226.46, 29.93 210.99, 45.46 194.7 M1.34 244.48 C12.21 229.94, 23.77 218.21, 41.35 197.25 M-3.56 253.57 C19.06 231.13, 26.45 220.03, 42.81 201.65 M0.89 248.45 C12 236.85, 22.77 223.13, 43.27 201.28 M0.81 258.94 C15.66 244.42, 26.5 225.59, 42.55 205.09 M-1.1 253.97 C12.47 242.85, 23.75 227.17, 43.09 206.57 M-2.98 260.3 C13.04 247.81, 23.45 232.54, 41.39 215.6 M-1.06 263.01 C13.95 244.16, 28.64 228.59, 42.9 212.18 M2.23 264.19 C13.82 252.8, 30.94 231.09, 41.68 221.83 M0.63 268.77 C14.14 252.17, 26.12 239.65, 41.74 220.88 M1.59 277.25 C9.98 262.03, 23.91 249.17, 45.31 226.86 M-0.61 273.66 C11.85 260.06, 22.96 246.92, 40.73 227.31 M-3.24 279 C10.59 264.2, 29.78 247.82, 42.19 233.06 M-1.84 281.96 C13.46 267.78, 23.71 252.96, 40.66 232.68 M3.75 286.29 C15.32 269.33, 28.51 253.9, 40.86 234.23 M-1.53 286.03 C13.47 274.38, 24.22 259.9, 43.9 236.73 M-1.1 293.65 C19.31 271.94, 32.29 256.28, 40.96 240.48 M1.51 294.49 C15.3 274.95, 32.79 255.8, 39.96 244.36 M3.29 298.12 C18.32 281.4, 32.49 261.22, 43.16 250.57 M1.82 298.88 C7.8 284.93, 17.04 273.97, 42.64 249.87 M1.38 307.48 C8.1 296.89, 15.61 286.59, 39.03 260.34 M1.1 305.64 C12.4 293.25, 24.88 278.75, 41.12 255.11 M1.52 309.01 C12.3 296.75, 33.77 274.33, 42.89 260.29 M-2.15 310.78 C11.83 294.23, 27.73 276.98, 42.94 262.96 M-2.22 313.93 C15.78 297.53, 29.05 284.29, 41.67 267.96 M0.46 316.05 C7.65 306.15, 17.28 296.99, 41.08 267.48 M-0.08 325.77 C13.08 307.4, 32.02 285.26, 44.86 276.36 M-1.68 323.16 C15.11 308.44, 27.44 294.89, 43.12 274.11 M1.84 329.21 C6.06 318.27, 17.97 307.5, 40.96 278.74 M1.47 330.43 C15.65 310.98, 30.15 292.91, 40.83 282.37 M0.19 334.28 C14.78 322.33, 19.47 306.54, 44.11 284.83 M0.43 334.78 C12.74 319.53, 31 302.56, 43.99 285.76 M2.86 341.13 C8.94 326.87, 20.4 314.47, 42.55 289.62 M-2.18 340.35 C12.33 324.56, 27.02 310.19, 42.09 294.51 M2.87 348.49 C13 339.25, 17.5 325.11, 40.52 301.79 M-0.53 348.75 C8.63 335.98, 18.3 325.83, 41.39 299.7 M-3.72 350.02 C18.17 335.08, 34.24 313.38, 40.21 304.09 M-0.48 355.22 C14.62 339.22, 28.99 322.94, 40 303.49 M2.67 359.16 C18.2 338.57, 36.98 320.47, 42.17 314.17 M2.1 359.3 C10.55 346.9, 23.63 332.55, 43.57 311.79 M-0.24 369.3 C6.23 356.8, 20.1 349.32, 39.96 316.75 M-0.93 364.79 C15.72 347.9, 27.84 334.01, 41.09 316.23 M-0.13 370.62 C18.89 354.85, 28.5 336.26, 44.64 324.45 M-0.25 370.46 C13.82 360.64, 24.69 346.02, 40.53 322.78 M3.82 378.46 C10.65 362.8, 26.59 346.52, 42.65 330.21 M-0.02 378.17 C13.53 365.94, 23.44 348.55, 43.98 330 M-1.14 385.74 C15.55 372.82, 26.45 355.17, 45.71 335.65 M1.22 383.13 C10.5 371.27, 17.67 359.88, 40.67 337.21 M-0.87 391.78 C14.57 373.36, 30.67 358.5, 39.31 343.93 M2.21 390.53 C15.33 370.71, 32.63 352.9, 40.69 343.16 M0.29 398.47 C12.76 387.88, 16.21 375.58, 45.34 351.89 M-1.24 397.54 C14.28 381.66, 29.81 366.2, 40.78 346 M-4.06 399.11 C13.74 388.48, 19.66 377.75, 38.52 350.92 M-0.56 401.92 C12.49 386.76, 26.57 369.47, 41.99 353.93 M-0.38 410.82 C12.44 400.12, 19.11 386.38, 44.35 363.32 M0.66 408.28 C13.51 390.52, 27.58 374.48, 42.76 361.4 M-1.38 414.88 C5.31 405.47, 15.05 393.51, 40.99 362.74 M-0.26 416.22 C10.22 401.79, 18.22 393.29, 42.03 367.34 M-2.13 422.37 C11.75 408.93, 14.33 398.31, 39.75 374.94 M-0.03 419.78 C9.41 406.34, 23.96 393.38, 42.89 371.77 M-2.23 430.55 C12.95 417.13, 21.8 401.13, 39.69 378.03 M-0.38 427.64 C13.71 410.82, 27.93 394.65, 40.39 377.8 M0.19 431.23 C8.66 422.12, 20.79 405.69, 44.08 387.27 M-0.88 433.3 C13.63 415.81, 27.35 403.24, 41.2 384.29 M0.84 439.66 C14.25 426.42, 23.13 415.19, 42.38 391.48 M0.65 439.75 C17.01 422.26, 31.31 401.32, 42.71 392.04 M-0.03 442.62 C11.35 430.3, 22.46 425.03, 44.04 397.42 M-0.02 445.45 C9.35 430.12, 23.04 418.2, 42.11 395.99 M2.81 451.33 C10.59 441.48, 15.17 433.92, 43.05 398.61 M-1.87 452.97 C13.88 435.33, 27.28 419.58, 42.05 403.89 M1.44 453.8 C7.66 448.35, 21.87 432.24, 40.53 407.55 M0.46 455.2 C16.82 439.52, 34.78 419.33, 40.46 408.25 M0.79 467.21 C10.71 457.05, 17.96 440.54, 41.21 416.5 M1.76 463.54 C12.29 447.48, 23.74 434.06, 40.2 417.03 M-0.99 466.82 C13.04 459.35, 19.78 450, 39.31 417.9 M-0.09 470.58 C10.86 459.27, 20.96 444.64, 42.17 421.81 M2.15 474.04 C10.28 467.46, 19.9 453.18, 40.51 428.76 M1.68 474.06 C13.39 458.99, 30 444.29, 40.35 427.98 M-3.38 485.33 C13.85 473.11, 19.05 463.7, 38.34 431.49 M0.41 483.51 C9.66 468.78, 22.41 459.86, 41.54 431.46 M-0.92 484.59 C6.7 477.81, 19.32 460.8, 40.84 442.09 M1.07 488.48 C12.62 475.1, 19.66 462.25, 41.1 440.6 M-1.63 491.52 C17.65 475.87, 30 456.89, 39.07 442.95 M-0.6 492.71 C10.95 483.22, 18.75 471.34, 42.65 444.88 M3.96 502.48 C13.89 484.62, 20.11 470.24, 44.93 455.26 M1.53 498.82 C14.48 479.58, 31.73 462.76, 41.14 453.1 M0.59 502.65 C19.3 486.27, 33.39 471.97, 45.15 455.42 M-0.2 506.26 C10.33 496.08, 18.11 483.4, 39.94 457.56 M-3.29 510.87 C12.74 494.15, 26.16 481.25, 45.69 463.84 M0.41 511.98 C12.3 499.46, 23.89 487.15, 40.54 464.77 M-1.57 516.04 C16.26 502.21, 31.24 478.69, 38.42 473.13 M-1.45 516.6 C12.71 504.47, 22.42 495.87, 40.29 471.36 M3.39 521.49 C7.55 507.98, 20.41 494.18, 45.56 472.96 M-0.56 524.66 C16.37 505.1, 31 486.2, 42.14 474.77 M-2.75 529.83 C10.85 517.19, 21.22 508.03, 41.59 478.39 M0.02 531.23 C15.69 512.23, 31.72 493.48, 43.64 481.46 M0.29 535.13 C14.03 521.73, 32.11 506.02, 39.14 490.31 M-1.23 537.93 C13.38 521.29, 31.05 503.3, 40.14 489.08 M-0.08 539.72 C15.69 527.31, 31.21 507.02, 41.52 492.28 M1.32 543.53 C10.7 532.99, 20.36 521.12, 40.34 495.15 M0.54 550.63 C13.2 532.46, 18.66 523.77, 45.26 502.66 M1.62 548.21 C14.96 533.63, 30.39 516.08, 42.19 499.02 M-2.51 555.95 C16.19 532.87, 34.4 514.81, 40.64 507.48 M0.95 555.7 C6.98 544.72, 18.79 532.37, 40.49 506.55 M1.47 561.67 C14.77 546.26, 24.35 533.71, 41.57 508.83 M-0.37 562 C13.2 542.93, 26.85 527.61, 42 512.28 M1.21 563.85 C11.42 557.54, 22.27 539.63, 39.51 521.21 M0.82 565.29 C10.37 557.59, 22.82 544.21, 42.56 519.65 M-4.08 569.48 C11.36 566.38, 16.25 550.66, 39.93 524.44 M-1.83 574.64 C16.08 558.25, 29.76 540.92, 40.69 523.63 M1.19 580.81 C14.29 560.09, 31.05 546.78, 44.93 527.76 M-1.07 580.19 C16.07 562.89, 30.78 544.1, 43.45 530.75 M2.9 583.83 C13.66 568.34, 20.93 556.81, 41.72 538.71 M1.01 585.33 C11.01 570.49, 25.77 560.33, 40.1 537.68 M1.71 589.03 C16.24 571.73, 37.05 553.41, 44.52 543.49 M-1.33 589.39 C18.05 573.66, 32.56 553.9, 43.16 543.51 M3.64 599.59 C18.49 575.25, 31.63 556.59, 44.47 547.38 M0.33 595.6 C13.37 583.66, 26.64 568.01, 43.5 547.88 M0.59 604.25 C15.91 590.99, 23.35 574.25, 42.1 555.56 M-1.81 605.73 C8.47 593.11, 17.71 579.86, 42.04 555.69 M-3.8 605.67 C12.28 596.98, 15.45 589.24, 41.94 561.27 M1.38 608.32 C8.39 601.48, 15.52 590.95, 41.54 563.03 M3.8 612.81 C5.58 609.06, 17.21 596.94, 45.02 566.69 M-1 616.87 C15.15 598.81, 29.15 585.5, 42.24 565.89 M-1.16 621.8 C9.35 607.52, 21.64 599.59, 38.74 575.28 M-0.17 622.48 C10.24 609.15, 20.86 598, 40.97 574.29 M1.55 628.08 C13.36 610.52, 25.49 603.09, 38.8 580.18 M0.07 627.84 C17.91 608.74, 30.38 590.67, 40.25 580.54 M-2.64 631.27 C7.68 627.67, 18.79 615.54, 45.65 589.09 M-0.92 635.89 C13.1 615.11, 29.79 601.07, 41.94 585.88 M-1.14 643.52 C8.55 625.46, 21.55 612.97, 43.15 592.39 M-1.58 640 C10.27 629.12, 19.49 617.7, 41.02 592.43 M-0.31 645.92 C13.75 636.18, 20.82 624.5, 43 595.98 M-1.07 648.2 C11.57 633.35, 23.93 620.31, 43.33 597.89 M2.97 653.37 C12.57 636.18, 30.88 619.75, 38.65 601.71 M-1.54 653.81 C11.19 640.88, 22.28 630.51, 42.56 603.69 M-4.01 658.68 C14.13 641.71, 31.31 618.32, 43.25 607.74 M1.6 659.42 C9.58 643.9, 23.58 633.73, 43.42 609.24 M2.63 665.47 C11.22 651.62, 21.2 645.08, 42.05 613.39 M1.38 663.57 C7.64 655.48, 16.99 645.88, 41.27 616.54 M-2.72 668.53 C15.46 654.01, 29.51 636.44, 43.1 623.28 M0.37 668.9 C16.35 652.56, 32.45 631.81, 41.92 624.2 M-1.25 678.2 C12.03 661.86, 21.6 655.57, 45.64 628.21 M1.73 676.41 C12.83 663.29, 25.21 648.84, 41.32 628.06 M-1.25 685.24 C13.02 666.3, 33.4 648.09, 46.08 637.53 M0.93 682.08 C15.59 666.57, 31.33 646.29, 40.6 635.39 M-3.53 688.99 C14.18 675.07, 23.33 660.97, 39.87 643.53 M1.5 690.84 C13.91 673.95, 28.04 659.59, 43.23 641.14 M-0.88 694.19 C10.95 680.21, 25.76 670.29, 41.94 646.26 M-1.28 697.24 C17.38 677.09, 31.85 657.13, 40.63 646.51 M3.77 703.37 C10.13 688.31, 17.42 676.77, 45.39 653.75 M-1.27 699.67 C10.4 689.51, 23.68 673.74, 41.99 651.03 M-0.72 705.27 C13.36 690.57, 30.55 676.56, 41.91 658.79 M-0.43 708.51 C12.88 691.87, 24.11 678.19, 39.94 659.12 M2.79 715.65 C6.98 702.28, 20.93 693.29, 39.72 667.36 M0.89 712.84 C18.16 696.17, 32.69 674.73, 43.63 664.35 M2.32 721.47 C16.82 697.73, 29.05 684.23, 45.42 675 M1.73 720.37 C9.32 709.31, 19.57 698.48, 41.83 671.6 M1.25 729.73 C16.03 708.9, 30 693.65, 40.54 679.65 M-1.82 724.12 C9.56 714.87, 20.03 701.58, 42.59 677.77 M-3.8 731.83 C13.54 716.43, 30.62 699.66, 40.1 685.84 M0.51 730.62 C10.5 719.91, 20.46 709.08, 41.04 681.69 M-1.02 736.03 C7.02 721.89, 24.36 708.13, 45.09 693.48 M0.19 738.11 C11.49 721.99, 23.58 708.38, 43.06 688.84 M-2.96 740.2 C14.73 727.08, 20.72 713.29, 40.42 698.31 M1.63 745.19 C9.64 734.01, 21.29 719.85, 40.37 693.48 M-3.93 752.07 C8.91 740.2, 20.17 731.59, 44.75 704.24 M1.94 748.78 C14.63 735.97, 25.74 719.15, 43.61 702.93 M-3.5 754 C18.65 735.82, 37.3 714.73, 43.04 708.24 M-1.42 756.82 C9.01 744.57, 21.33 734.21, 44.03 708.14 M-0.58 759.42 C10.1 755.42, 18.56 743.22, 41.11 716.43 M0.5 762.42 C7.65 751.1, 15.69 744.06, 43.25 711.76 M0.41 769.2 C12.26 750.55, 29.7 736.14, 38.16 721.01 M1.19 768.1 C16.07 750.76, 27.9 734.46, 42.97 718.7 M2.12 772.47 C14.47 759.26, 35.44 738.29, 44.63 728.58 M0.37 772.43 C12.38 759.14, 26.08 745.56, 42.03 724.4 M-3.19 778.84 C10.04 769.99, 17.92 762.84, 40.13 728.57 M1.76 781.99 C15.42 760.99, 32.69 743.17, 43.53 733 M2.83 787.17 C16.02 768.7, 30.73 755.04, 45.93 738.05 M-1.22 786.05 C12.48 772.54, 27.44 754.76, 42.44 738.01 M2.57 790.02 C15.17 779.85, 22.94 761.24, 39.53 741.92 M-0.37 792.76 C12.33 777.78, 27.31 763.99, 41.48 744.26 M-3.68 798.02 C12.47 777.22, 31.39 764.47, 43.17 753.75 M-1.64 799.35 C7.66 788.72, 19.28 777.37, 42.7 748.59 M8.01 798.63 C19.14 784.88, 28.55 778.52, 41.75 760.14 M3.8 798.76 C12.99 788.28, 22.3 779.31, 42.65 758.03 M8.09 802.51 C19.37 789.13, 26.26 775.07, 40.68 765.15 M11.64 799.69 C21.91 788.45, 32.9 773.01, 41.41 761.99 M18.39 797.39 C26.44 792.92, 30.21 783.1, 38.41 767.12 M16.44 796.45 C24.42 786.86, 32.55 778.56, 44.28 766.95 M21.5 798.36 C26.82 794.42, 32.4 781.63, 41 774.81 M22.25 796.91 C26.35 793.04, 30.84 785.21, 43.59 776.41 M25.91 795.88 C31.49 797.28, 39.48 791.89, 42.63 784.29 M26.87 798.45 C32.85 791.59, 34.78 786.1, 40.35 781.52 M29.23 799.76 C34.14 792.06, 40.74 790.5, 43.25 783.98 M33.31 798.06 C33.67 796.81, 38.39 793.43, 41.53 785.63 M38.38 797.7 C37.31 795.56, 39.48 795.14, 41.19 792.59 M36.93 798.73 C38.61 796.88, 40.37 795.48, 42.08 793.08 M0.16 798.52 C0.16 798.52, 0.16 798.52, 0.16 798.52 M0.16 798.52 C0.16 798.52, 0.16 798.52, 0.16 798.52 M5.42 797.3 C4.59 797.71, 3.02 794.41, 0.17 794.16 M6.34 798.83 C4.08 796.99, 2.07 794.91, -0.78 792.53 M13.71 798.3 C8.61 797.04, 2.23 793.19, -0.67 786.75 M11.59 799.41 C7.28 793.99, 5.94 791.49, 1.35 786.9 M20.47 799.66 C7.99 793, 5.12 785.29, 2.76 778.47 M18.55 797.67 C11.64 791.84, 6.84 786.98, 0.2 781.19 M21.73 796.04 C18.18 790.44, 14 788.39, 2.18 780.58 M24.02 797.88 C16.31 791.9, 10.56 785.27, 0.64 776.72 M32.13 796.61 C23.96 793.42, 9.16 780.78, 1.99 773.22 M29.31 798.31 C22.77 793.79, 17.86 785.03, -2.24 773.15 M37.07 801.52 C23.46 787.93, 18.83 782.17, -1.18 764.09 M37.58 798.23 C25.15 788.58, 17.19 780.9, -0.34 768.41 M42.21 800.53 C30.96 786.43, 17.55 772.92, -0.81 757.09 M42.03 796.83 C26.65 785.07, 10.16 769.6, -1.26 761.1 M41.06 795.97 C23.91 777.23, 15.35 767.15, -2.63 759.65 M42.65 793.8 C24.36 780.09, 8.29 766.82, 0.84 757.72 M42.71 786.63 C29.45 773.84, 21.5 772.19, 1.28 751.65 M41.15 785.17 C25.54 772.07, 13.9 761.31, 0.23 751.33 M42.86 778.72 C35.72 773.1, 21.23 766.68, 2.33 748.74 M41.18 784.01 C32.14 773.86, 20.77 764.87, 0.73 744.76 M43.7 779.99 C31.88 771.04, 25.93 762.46, 2.11 739.93 M43.39 778.41 C29.06 763.78, 18.56 753.41, -0.53 741.91 M43.85 771.14 C28.48 764.9, 17.61 749, 2.41 731.64 M40.56 772.63 C28.78 760.65, 19.86 753.24, 0.25 735.71 M44.14 766.65 C27.06 756.88, 10.36 740.79, -0.54 731.83 M42.58 763.84 C32.21 757.84, 19.94 749.47, 0.84 729.99 M45.57 762.19 C33.54 751.19, 19.52 744.26, -1.53 723.47 M43.58 759.27 C25.95 745.72, 9.51 731.32, -1.24 724.86 M39.14 755.47 C28.14 743.59, 10.88 731.9, 3.56 716 M42.94 756.9 C27.74 745.56, 14.98 732.54, -1.6 717.83 M43.75 749.62 C29.26 735.38, 9.5 725.71, -0.41 710.13 M40.4 750.64 C30.72 739.39, 18.63 729.24, 0.02 712.58 M40.04 742.1 C31.2 738.85, 25.2 731.72, -1.93 709.27 M41.09 743.06 C26.32 730.92, 13.42 718.22, -1.14 708.09 M40.31 736.01 C25.47 726.49, 11.57 716.16, 3.03 700.36 M42.61 738.54 C33.76 729.31, 22.9 723.72, -1.82 703.35 M39.09 737.67 C31.46 721.21, 16.48 711.84, 0.86 697.27 M40.83 736.6 C31.04 727.55, 24.14 716.01, 0.34 698.55 M39.33 732.73 C27.68 719.49, 17.9 710.57, -1.78 689.69 M41.2 729.86 C25.55 716.8, 11.35 702.84, -0.18 691.74 M42.48 722.18 C30.78 708.25, 15.22 696.16, 3.94 686.45 M44.09 723.89 C27.8 712.23, 13.24 698.14, -1.66 688.06 M43.12 715.98 C29.37 702.1, 9.36 686.6, 2.81 680.47 M40.56 716.59 C33.45 711.34, 23.7 704.22, -2.11 680.4 M38.84 716.37 C30.62 705.64, 18.2 691.73, 1.56 676.07 M41.47 713.37 C31.44 704.57, 19.7 692.82, -0.19 678.59 M40.14 710.78 C27.05 696.13, 8.5 678.94, 2.62 669.88 M40.49 705.82 C33.87 698.34, 23.65 690.99, -2.2 670.09 M40.25 703.17 C33.29 695.36, 17.55 682.47, 2.11 662.2 M43.22 702.92 C31.69 690.8, 18.68 682.55, 1.06 665.18 M41.06 698.94 C30.2 684.82, 19.15 682.27, 3.64 661.88 M42.21 697.71 C35.09 689.01, 25.01 680.79, -0.69 661.65 M38.96 688.29 C31.27 680.53, 11.05 668.21, 0.21 657.71 M42.02 690.5 C31.8 682.98, 22.77 674.87, 1.84 653.98 M42.73 687.1 C23.58 672.73, 8.86 658.84, -3.93 647.27 M42.32 687.54 C31.82 678.83, 24.27 671.18, -1.38 650.03 M43.41 680.28 C34.81 670.51, 26.42 660.76, -3.36 648.32 M42.92 680.2 C27.31 667.58, 14.78 657.84, -0.7 644.22 M40.18 678.7 C31.68 669.94, 19.82 659.06, -1.7 639.66 M42.84 675.67 C32.22 669.83, 24.25 660.92, -1.67 638.25 M42.24 670.5 C31.59 664.69, 18.48 651.39, 2.37 636.52 M41.39 672.16 C26.87 657.96, 10.52 641.62, 1.99 634.25 M38.65 662 C32.5 651.65, 19.54 646.16, -2.35 632.1 M41.21 665.55 C27.13 654.74, 15.42 642.68, 2.2 628.12 M40.27 661.1 C31.45 652.71, 24.37 643.38, 2.57 621.64 M41.33 660.64 C28.31 651.5, 17.36 637.88, -0.14 623.47 M41.55 654.08 C31.27 642.74, 12.23 636.49, -0.64 614.52 M40.24 653.75 C30.46 644.25, 19.95 636.48, 2.13 619.52 M38.49 653.06 C31.06 644.29, 27.07 631.51, 0.6 611.81 M41 647.98 C30.19 639.13, 17.52 625.62, -1.73 614.42 M38.47 640.81 C30.33 633.81, 20.97 629.46, 3.14 605.62 M42.2 643.89 C27.6 629.99, 8.11 616.3, 0.7 608.45 M46.12 642.18 C28.92 625.35, 14.21 618.5, -2.02 603.99 M43.11 638.63 C29.22 628.15, 15.05 615.76, 0.01 602.7 M41.21 636.9 C32.68 625.32, 21.91 617, 4.12 598.24 M42.71 632.72 C30.13 621.56, 18.01 610.26, 2.11 598.3 M44.53 631.05 C28.74 618.28, 18.56 605.67, -1.56 587.91 M40.75 629.13 C31.27 618.11, 17.79 608.59, -0.77 591.03 M40.49 626.51 C29.27 614.73, 16.5 603.92, -2.39 588.06 M41.58 624.72 C29.57 613.7, 19.32 604.78, -0.99 586.57 M39.28 617.1 C29.07 606.33, 14.08 595.55, -4.1 582.17 M43.43 618.1 C29.97 605.2, 15.62 594.58, -0.46 579.19 M38.97 612.65 C33.09 599.15, 14.44 591.77, -0.87 577.54 M41.76 611.52 C28.06 601.02, 14.04 588.52, -1.57 574.88 M40.14 604.54 C32.21 597.83, 18.42 585.91, 2.46 574.14 M43.05 608.26 C25.02 594.89, 12.04 581.25, -0.1 570.09 M43.76 601.1 C32.78 592.26, 21.01 584.52, 0.36 563.98 M43.88 601.78 C25.76 590.49, 14.76 576.3, -0.18 566.9 M41.05 592.43 C32.83 586.99, 20.38 576.12, -3.59 556.02 M43.94 596.42 C29.35 588, 18.53 576.38, 0.73 559.72 M43.39 593.82 C30.72 579.31, 25 578.41, -2.8 551.49 M41.19 592.61 C24.75 576.43, 8.65 561.81, 1.01 554.43 M40.14 586.61 C34.29 581.82, 24.5 566.78, -1.79 552.81 M40.82 587.51 C33.06 577.22, 25.88 569.35, -2.18 547.15 M44.58 577.56 C24.98 570.27, 15.36 556.65, 1.7 546.97 M42.38 580.23 C27.53 569.82, 12.46 557.72, 0.26 543.34 M43.73 571.74 C31.32 564.16, 21.94 555.4, 2.54 538.35 M40.82 576.52 C27.03 561.95, 8.48 549.13, 0.38 536.55 M44.26 567.89 C30.99 560.2, 8.9 538.84, -1.87 532.15 M41.53 569.93 C29.57 558.69, 20.36 549.08, -1.76 531.6 M38.33 563.31 C29.92 551.29, 14.6 545.7, -1.76 527.25 M41.46 562.54 C29.6 556.51, 20.53 546.14, 1.02 527.21 M41.52 557.2 C29.36 546.55, 16.07 541.21, 2.93 523.58 M44.13 558.11 C33.21 551.11, 22.1 539.98, 0.02 523.28 M42.63 555.6 C34.79 544.05, 22.36 540.04, -3.64 514.98 M40.7 554.78 C26.04 541.85, 11.74 525.51, -2.24 515.48 M41.64 550.69 C35.19 541.88, 18.49 528.98, -3.27 512.6 M41.07 550.26 C25.85 533.89, 9.37 519.89, 1.05 510.53 M39.52 541.72 C35.72 535.54, 24.91 529.27, 2.86 506.43 M42.89 542.51 C29.29 532.07, 20.5 523.61, 0.79 505.48 M44.12 538.36 C27.16 526.73, 15.19 515.64, 0.35 501.39 M42.66 538.95 C27.08 525.18, 11.66 511.33, 1.24 499.62 M44.06 533.58 C32.73 521.92, 23.39 513.3, 3.67 493.39 M40.77 533.12 C27.61 519.45, 8.99 505.94, -0.58 496.44 M38.6 531.03 C26.91 517.15, 17.3 507.44, -1.2 490.91 M40.59 525.87 C31.12 518.55, 21.14 508.2, -1.15 492.89 M43.5 525.91 C30.65 515.24, 15.26 503.78, -2.88 486.37 M41.51 522.07 C32.52 515.72, 19.76 503.58, 0.65 484.66 M40.94 516.35 C29.69 501.85, 6.46 492.89, 1.27 476.96 M41.99 515.77 C26.65 504.89, 8.6 489.36, 0.58 478.78 M41.31 508.25 C29.87 497.96, 12.65 489.7, 3.02 476.08 M40.67 510.93 C28.85 500.38, 13.61 487.85, 0.13 474.88 M41.18 502.74 C28.73 497, 20.37 491.88, -2.85 470.15 M43.38 506.54 C33.99 498.56, 23.26 489.2, -0.47 469.82 M45.85 501.61 C27.57 489.37, 7.21 476.08, 3.33 462.03 M40.99 502.02 C28.38 493.05, 18.32 479.33, 0.9 462.93 M39.53 499.48 C28.85 487.09, 15.86 472.16, 0 459.88 M40.68 495.11 C27.81 484.81, 15.08 471.24, 1.21 460.65 M39.45 487.84 C28.77 482.01, 18.95 464.3, 2.22 456.54 M43.32 489.77 C28.88 477.31, 14.11 466.28, -0.57 453.74 M42.43 488.63 C29.38 473.51, 27.21 469.04, 3.58 450.39 M43.22 483.54 C29.37 471.12, 11.34 461.32, 1.52 449.98 M42.85 481.58 C28.8 465.86, 7.55 449.25, -1.96 440.74 M41.22 478.7 C25.8 464.26, 9.59 451.59, -0.43 443.33 M42.46 477.08 C31.76 463.81, 14.37 447.53, 1.83 440.71 M43.75 472.98 C32.47 463.52, 20.12 455.44, 0.79 438.64 M44.27 467.61 C31.24 458.33, 17.77 450.6, 3.33 432.58 M43.88 470.74 C25.19 454.28, 10.99 440.51, -1.39 432.81 M38.42 460.53 C36.31 455.53, 27.15 445.26, 0.89 428.7 M40.4 465.66 C27.45 448.56, 10.02 438.07, -2.27 427.52 M44.07 461.53 C32.45 449.22, 20.85 441.76, 0.8 418.82 M42.88 459.92 C26.3 445.23, 12.34 432.89, 1.2 422.38 M39.27 451.48 C27.59 438.72, 6.66 424.57, -0.92 415.02 M42.73 454.91 C32.3 444.03, 23.81 437.38, -0.53 415.64 M42.83 449.77 C24.66 437.91, 12.07 427.54, 3.39 415.03 M42.25 446.39 C28.12 433.72, 14.19 420.18, 1.45 413.35 M44.19 443.25 C27.99 429.39, 15.3 415.73, -1.1 407.14 M41.7 443.17 C28.81 430.19, 18.69 421.85, -0.45 406.09 M45.31 441.55 C27.73 424.52, 13.33 408.88, 2.18 397.59 M40.38 438.35 C28.79 424.58, 15.26 414.56, 0.82 402.11 M38.52 429.99 C28.86 423, 16.18 408.25, 3.8 392.03 M43.67 431.94 C26.71 418.23, 10.6 403.57, 0.67 396.72 M40.44 424.91 C25.96 412.07, 14.24 404.73, 2.47 387.7 M44.1 426.12 C33.51 416.34, 24.19 410.71, -1.77 390.15 M45.8 418.62 C34.67 413.12, 18.81 400.96, 3.16 385.46 M40.41 419.85 C26.41 406.99, 9.78 392.84, 1.67 383.5 M45.37 418.7 C26.86 406.01, 18.66 391.86, 3.72 383.36 M42.62 416.11 C28.91 406.73, 17.11 396.33, -0.03 378.05 M43.76 408.92 C26.97 399.48, 23.15 393.91, -3.21 376.01 M43.09 412.59 C31.89 401.32, 19.47 389.64, 0.05 374.46 M45.4 404.59 C23.78 389.62, 11.09 380.66, 3.61 371.41 M41.58 404.84 C34.08 399.54, 22.78 392.05, 1.75 367.48 M40.31 397.46 C25.92 390.63, 13.01 376.26, 3.96 366.4 M40.31 400.97 C27.42 387.2, 11.29 371.06, -1.03 365.08 M46.06 395.06 C31.75 388.38, 22.09 377.12, 1.99 355.47 M41.02 396.88 C26.87 383.05, 13.96 370.11, -1.32 359.21 M46.31 390.27 C29.44 379.41, 19.32 369.34, 4.11 354.17 M40.8 391.54 C28.77 380.6, 18.04 367.92, 2.01 352.93 M45.02 381.39 C24.78 373.85, 18.64 359.06, -3.12 343.99 M41.37 382.94 C30.29 375.4, 21.19 366.82, -0.71 347.12 M44.53 380.23 C30 363.08, 12.48 351.06, -3.13 343.69 M44.44 377.98 C27.4 368.25, 12.53 356.09, -0.87 343.66 M44.18 377.68 C33.95 367.14, 17.64 354.63, -3.48 338.23 M41.48 373.8 C34.56 365.09, 23.39 359.96, -0.51 336.14 M46.2 371.03 C31.77 353.07, 12.31 343.63, -1.94 334.1 M40.8 367.01 C28.29 355.48, 18.18 346.23, 0.72 333.03 M45.6 360.86 C31.31 358.15, 27.3 345.17, -0.67 328.25 M40.61 362.34 C28.61 350.76, 17.49 341.61, 0.62 328.34 M44 354.46 C29.11 346.91, 12.92 330.88, 3.69 323.4 M44.08 357.83 C29.56 345.52, 15.87 331.19, -0.45 320.88 M39.54 354.65 C29.62 340.89, 23.56 335.56, -2.11 312.95 M40.42 353.53 C30.43 341.94, 16.94 330.64, -0.57 316.86 M40.76 347.18 C29.84 333.03, 20.19 327.11, 1.95 312.36 M43.9 348.69 C30.59 337.01, 21.31 328.84, 0.83 309.15 M40.44 345.59 C33.44 333.97, 17.9 321.7, -1 304.02 M42.97 342.43 C33.3 335.18, 24.84 326.35, -1.95 303.93 M45.52 338.62 C29.35 321.13, 11.76 310.46, 1.22 300.6 M43.28 338.96 C29.37 324.61, 12.39 309.73, 0.15 299.88 M42.94 335.03 C30.55 320.05, 20.03 314.97, 3.64 297.97 M40.74 332.21 C27.66 318.2, 15.56 305.07, -1.96 294.89 M45.52 327.04 C25.57 311.78, 14.08 297.58, 2.08 290.53 M40.63 327.09 C29.65 313.06, 15.23 302.86, 1.52 289.21 M41.85 319.14 C23.94 312.53, 9.9 293.45, 3.72 280.77 M42.61 320.12 C29.32 310.07, 13.28 297.56, -0.9 284.82 M42.17 315.52 C27.95 301.15, 9.38 291.24, 1.27 275.37 M43.8 316.64 C32.72 307.14, 21.09 297.9, -0.67 277.34 M44.19 308.9 C23.91 296.67, 13.99 280.54, -0.91 277.25 M39.86 311.5 C30 300.96, 19.34 290.75, 2.1 273.92 M39.06 307.94 C26.99 289.99, 14.76 283.12, 3.75 267.16 M44.02 306.25 C33.73 298.58, 24.23 289.8, 0.42 266.6 M41.14 302.09 C30.95 292.14, 20.44 278.36, -1.97 263.01 M40.18 297.8 C31.56 289.94, 20.59 278.81, -0.44 261.47 M45.98 296.99 C27.27 283.23, 14.08 266.94, 2.65 260.76 M41.94 295.65 C25.91 280.63, 9.4 266.36, -1.99 259.39 M44.09 287.32 C23.2 273.68, 9.6 264.22, 2.27 253.81 M41.68 290.55 C29.16 277.55, 16.16 264.84, -1.35 253.16 M42.91 284.19 C34.85 276.08, 22.49 267.01, -0.72 245.84 M41.61 283.69 C29.63 272.18, 14.6 258.04, 1.72 248.22 M41.36 280.66 C32.73 269.74, 19.73 257.66, 3.73 238.22 M43.61 280.04 C29.48 269.2, 15.31 257.39, -0.04 243.81 M40.01 275.85 C33.83 265.65, 25.44 260.07, -0.84 234.86 M40.49 274.28 C31.48 261.86, 19.57 253.67, -0.41 237.69 M39.2 271.02 C35.24 257.78, 23.49 249.58, -3.5 229.62 M41.37 266.68 C33.56 259.18, 21 247.8, -0.53 231.31 M41.64 263.11 C32.94 250.29, 14.82 240.36, -0.03 227.13 M43.44 262.44 C33.81 254.94, 20.95 245.04, 0.07 226.49 M46.31 260.1 C30.13 244.39, 12.03 233.66, -3.12 222.21 M41.04 258.93 C34.6 249.23, 26.44 243, -1.42 222.63 M42.33 249.91 C29.8 242.54, 20.99 228.99, 3.59 212.73 M40.73 252.29 C30.51 240.47, 19.85 230.42, -2.01 213.4 M42.82 247.76 C30.99 238.08, 14.9 223.85, -0.66 211 M42.34 248.71 C30.49 236.41, 20.31 226.63, 2.1 211.87 M38.8 241.02 C35.18 232.94, 19.95 227.21, -3.89 200.6 M42.03 243.04 C27.83 229.87, 14.43 217.41, 0.62 203.29 M41.05 236.65 C28.78 224.68, 17.38 211.82, -3.46 195.81 M41.39 238.02 C27.74 220.54, 11.19 209.24, 0.23 198.2 M41.98 230.01 C26.4 223.5, 19.38 213.05, -0.23 190.45 M42.44 230.97 C29.9 221.24, 18.1 210.33, 1.61 193.15 M41.51 228.26 C35.24 220.36, 17 206.32, -0.66 185.27 M40.74 224.96 C23.58 210.71, 9.39 195.15, -1.43 187.89 M40.95 219.25 C31.71 206.55, 11.69 195.11, -2.98 184.82 M40.43 219.5 C27.91 207.73, 15.09 192.8, -0.96 182.04 M44.89 218.88 C25.4 204.87, 17.4 195.48, 0.76 176.83 M43.32 213.72 C25.88 202.98, 14.22 189.15, 0.16 180.3 M39.02 207.95 C27.99 194.57, 10.63 184.07, -1.51 169.08 M39.91 209.09 C27.38 195.28, 13.8 182.63, 1.37 173.12 M40.07 203.6 C32.57 191.08, 16.39 178.58, -3.96 168.75 M42.49 204.58 C26.22 190.28, 11.28 174.03, -0.57 165.89 M41.64 196.12 C32.24 192.19, 28.06 183.14, -0.25 164.03 M40.17 199.35 C27.06 186.29, 12.36 173.97, 2.24 164.29 M40.12 196.35 C30.82 185.7, 27.41 180.57, 2.59 156.11 M43.99 191.93 C27.41 184.67, 17.08 175.27, 0.19 156.2 M44.5 188.57 C26.27 178.79, 15.99 169.16, -1.69 155.34 M41.93 186.93 C26.37 174.34, 9.69 162.11, -0.57 151.6 M38.3 185.84 C27.13 176.22, 15.33 163.18, 0.02 142.77 M43.99 182.23 C29.34 171.96, 18.92 162.5, 1.69 145.89 M45.43 174.93 C26.54 163.04, 8.16 155.5, 2.11 141.47 M41.28 175.62 C29.8 165.55, 15.64 153.8, 1.38 143.13 M44.05 171.63 C28.09 162.66, 12.82 146.5, -1.9 137.45 M43.06 172.05 C32.16 160.45, 20.04 151.43, 0.58 134.69 M40.47 165.67 C32.98 156.03, 14.32 147.76, -1.47 127.01 M39.77 166.27 C29.28 155.12, 11.48 140.91, 2.19 130.43 M39.01 160.06 C32.18 150.82, 19.44 135.79, 0.81 125.64 M40.16 162.05 C25.17 148.61, 10.96 133.71, 0.9 125.43 M44.62 156.68 C34.33 148.36, 21.9 140.55, -0.86 119.38 M43.06 155.5 C35.38 148.13, 26.6 141.64, 0.36 119.13 M44.99 152.31 C34.66 142.07, 26.36 131.64, 2.32 113.68 M42.69 150.98 C30.79 144.94, 23.49 133.88, 0.12 114.04 M44.76 146.74 C30.07 132.69, 22.74 128.29, 3.7 108.8 M43.98 147.04 C31.83 136.58, 15.64 123.29, 0.81 110.93 M40.01 140.33 C32.14 135.12, 17.12 119.39, -1.02 100.69 M40.41 141.7 C31.24 130.49, 21.97 124.83, -0.9 103.53 M40.26 137.37 C30.89 119.69, 16.62 107.77, -3.84 96.32 M41.03 133.69 C28.16 122.69, 12.68 111.02, 0.85 97.67 M42.25 126.93 C28.39 118.32, 18.12 104.45, 1.33 90.61 M43.53 131.14 C26.9 116.36, 13.1 104.33, 0.11 94.02 M43.9 126.28 C24.94 112.76, 14.6 97.27, -3.36 89.78 M41.34 124.7 C26.31 110.44, 12.51 95.92, 0.21 87.25 M42.1 121.71 C27.06 104.73, 14.68 96.39, -1.91 80.22 M40.65 120.33 C31.14 109.23, 19.6 98.27, 0.82 80.72 M38.65 111.97 C35.84 110.27, 28.09 103.68, 1.46 75.86 M43.48 112.39 C32.22 105.05, 19.04 92.7, -0.99 77.67 M38.12 105.09 C29.04 100.66, 16.6 89.06, 0.17 71.08 M40.76 108.41 C27.81 95.41, 16.52 86.27, 0.32 71.92 M45.7 105.77 C29.5 96.03, 19.09 77.84, 3.14 64.03 M43.39 102.19 C27.29 92.85, 11.67 77.12, -0.2 67.04 M41.08 96.28 C30.04 92.47, 19.54 75.84, -3.32 57.57 M43.28 98.59 C30.16 87.54, 19.84 78.14, 1.09 63.02 M40.37 95.81 C28.08 79.91, 12.52 67.66, 2.36 58.59 M40.44 94.62 C31.72 81.17, 18.62 70.99, 1.51 55.53 M37.91 85.34 C27.9 74.98, 16.34 66.51, -0.35 47.55 M40.02 88.2 C28.06 78, 16.71 65.12, -0.21 51.17 M44.21 83.04 C22.98 68.61, 10.8 52.38, -3.98 46.62 M43.4 83.29 C28.3 68.8, 14.28 56.2, 1.48 47.44 M43.76 77.11 C28.12 68.38, 23.06 56.92, -2.94 39.71 M41.22 78.64 C27.38 61.66, 8.7 48.89, 2.21 42.63 M40.95 69.21 C24.5 55.71, 17.07 46.48, -2.84 34.05 M40.45 72.91 C30.59 64.15, 21.86 53.28, 1.48 33.15 M41.93 63.26 C25.49 49.67, 7.58 42.43, 1.33 31.54 M41.49 65.41 C26.99 53.12, 14.08 39.44, 1.8 30.73 M44.5 60.89 C26.07 46.41, 9.84 34.54, -0.94 25.61 M41.17 61.27 C29.72 51.08, 21.67 42.86, 1.67 23.12 M43.94 58.27 C31.32 50.2, 18.69 40.12, 2.29 20.65 M41.87 56.12 C27.65 47.85, 19.17 37.46, -1.31 19.25 M38.96 49.48 C26.62 38.46, 11.37 25.34, 3.16 12.83 M42.55 49.28 C28.17 39.73, 14.99 25.51, -1.39 13.93 M46.24 48.07 C24.76 34.9, 10.5 19.39, 4 9.51 M40.57 45.11 C29.67 34.47, 16.39 21.38, -1.6 9.04 M38.61 39.16 C32.64 30.83, 20.2 26.82, -0.91 2.08 M42.99 38.92 C27.35 27.43, 14.94 15.66, -0.72 2.22 M39.19 31.47 C32.51 30.17, 26.32 19.61, -2.58 2.02 M43.91 36.85 C30.72 24.27, 15.78 12.85, 2.59 0.72 M43.94 26.94 C30.33 21.42, 21.19 9.89, 8.22 1.06 M40.27 31.27 C35.76 20.63, 28.13 17.35, 6.6 -2.67 M39.62 28.04 C33 17.45, 25.26 8.17, 13.55 -0.55 M40.91 23.88 C35.71 19.02, 26.82 11.09, 12.19 0.52 M45.6 22.66 C32.37 13.19, 25.39 7.48, 21.53 -0.85 M41.62 20.5 C35.78 15.11, 29.9 6.92, 19.33 -0.54 M43.79 15.5 C40.76 8.68, 35.55 8, 23.65 0.82 M42.23 14.17 C36.77 8.72, 32.54 5.01, 25.59 -1.24 M43.72 5.88 C36.56 4.28, 32.95 1.35, 29.51 -3.7 M41.75 7.95 C40.51 5.77, 36.91 2.09, 31.24 -1.99 M41.7 4.08 C40.8 1.08, 39.38 0.24, 38.87 -1.64 M42.53 2.7 C40.82 1.75, 38.54 0.44, 38.09 -1.4" stroke="#228be6" stroke-width="0.5" fill="none"></path><path d="M2.55 -1.73 C7.27 -2.39, 21.38 1.73, 44.29 2.97 M-0.67 1.07 C13.45 -0.01, 21.79 0.59, 42.55 -0.09 M40.21 0.33 C46.75 271.95, 45.45 544.99, 42.36 798.49 M42.48 0.56 C38.45 219.74, 37.72 439.77, 41.32 798.68 M39.32 796.73 C24.66 799.63, 16.28 799.89, 3.05 797.21 M40.62 798.37 C31.02 798.01, 23.66 798.65, -0.61 799.49 M-0.64 797.97 C-2.17 638.78, -1.29 479.21, -0.35 -0.2 M0.55 798.45 C-5.6 565.05, -5.7 331.86, 0.35 0.17" stroke="#000000" stroke-width="1" fill="none"></path></g><g stroke-linecap="round"><g transform="translate(746.3838882763218 52.30257344033248) rotate(0 -0.48595038933865453 399.58699563768647)"><path d="M-0.43 0.19 C0.09 267.61, -0.82 535.92, 0.55 798.99 M-0.24 0.33 C-1.98 176.3, -2.15 353.39, 0.49 798.25" stroke="#000000" stroke-width="2" fill="none"></path></g></g><mask></mask><g stroke-linecap="round"><g transform="translate(647.8729156303214 49.66267792810959) rotate(0 -0.4175629547421522 400.39432721973355)"><path d="M0.48 -0.37 C0.03 248.26, 1.13 496.52, -0.38 801.16 M-0.24 0.06 C0.25 234.37, -0.04 468.42, -1.31 800.95" stroke="#000000" stroke-width="2" fill="none"></path></g></g><mask></mask><g stroke-linecap="round"><g transform="translate(700.536494908449 47.01694193908986) rotate(0 -0.14615492416510278 400.2251221665829)"><path d="M0.53 -0.61 C0.52 291.65, 0.63 584.78, -0.82 801.06 M0.19 -0.32 C-0.34 268.47, -0.56 536.42, -0.73 800.75" stroke="#000000" stroke-width="2" fill="none"></path></g></g><mask></mask></svg>