<svg version="1.1" xmlns="http://www.w3.org/2000/svg" viewBox="0 0 1082.3547393788158 920.4358741188222" width="2164.7094787576316" height="1840.8717482376444">
  <!-- svg-source:excalidraw -->
  
  <defs>
    <style class="style-fonts">
      @font-face {
        font-family: "Virgil";
        src: url("https://excalidraw.com/Virgil.woff2");
      }
      @font-face {
        font-family: "Cascadia";
        src: url("https://excalidraw.com/Cascadia.woff2");
      }
    </style>
  </defs>
  <g stroke-linecap="round" transform="translate(119.10324749918959 54.59681047103925) rotate(0 417.081503389089 397.7095425880504)"><path d="M-0.31 -0.11 C247.08 -3.98, 493.48 -3.78, 834.27 -0.79 M-0.08 0.18 C259.5 -2.72, 519.68 -3.1, 834.31 -0.13 M833.36 -0.43 C836.62 258.52, 836.68 518.07, 834.66 795.5 M834.52 -0.13 C835.81 199.39, 835.73 398.85, 834.33 795.43 M834.9 795.53 C582.4 797.41, 330.06 797.83, 0.57 794.71 M834.21 795.69 C647.88 793.38, 461.18 794.05, -0.3 795.67 M0.58 794.88 C-2.47 519.43, -3.62 244.26, 0.29 0.55 M-0.33 795.59 C2.21 487.28, 2.1 179.79, 0.19 0.38" stroke="#000000" stroke-width="2" fill="none"></path></g><g stroke-linecap="round" transform="translate(702.8454166931795 195.50067078379448) rotate(0 9.739102779315544 9.739102779315573)"><path d="M11.76 0.59 C13.85 1.21, 17.02 3.61, 18.26 5.43 C19.5 7.26, 19.64 9.59, 19.19 11.56 C18.74 13.53, 17.02 16.06, 15.55 17.27 C14.08 18.48, 12.27 18.85, 10.36 18.82 C8.45 18.79, 5.76 18.13, 4.11 17.08 C2.46 16.03, 0.98 14.68, 0.46 12.53 C-0.05 10.37, 0.17 6.13, 1.02 4.16 C1.87 2.19, 3.6 1.29, 5.56 0.71 C7.53 0.13, 11.37 0.54, 12.78 0.68 C14.19 0.82, 14.01 1.48, 14.02 1.54 M11.45 1.02 C13.49 1.2, 15.96 2.71, 17.24 4.35 C18.53 5.99, 19.22 8.85, 19.17 10.86 C19.12 12.86, 18.08 14.82, 16.92 16.41 C15.77 18, 14.07 20.11, 12.22 20.39 C10.37 20.68, 7.63 19.49, 5.82 18.13 C4.02 16.76, 2.09 14.18, 1.38 12.21 C0.67 10.25, 0.74 8.42, 1.57 6.33 C2.41 4.25, 4.86 0.64, 6.39 -0.27 C7.92 -1.18, 9.99 0.72, 10.77 0.87 C11.56 1.02, 10.79 0.56, 11.12 0.63" stroke="#000000" stroke-width="2" fill="none"></path></g><g transform="translate(10 13.419377992676004) rotate(0 49.41996765136719 12.5)"><text x="0" y="0" font-family="Virgil, Segoe UI Emoji" font-size="20px" fill="#000000" text-anchor="start" style="white-space: pre;" direction="ltr" dominant-baseline="text-before-edge">(-180, 90)</text></g><g transform="translate(981.7347900379955 28.202577120551382) rotate(0 45.309974670410156 12.5)"><text x="0" y="0" font-family="Virgil, Segoe UI Emoji" font-size="20px" fill="#000000" text-anchor="start" style="white-space: pre;" direction="ltr" dominant-baseline="text-before-edge">(180, 90)</text></g><g transform="translate(946.3856414047084 885.4358741188222) rotate(0 49.41996765136719 12.5)"><text x="0" y="0" font-family="Virgil, Segoe UI Emoji" font-size="20px" fill="#000000" text-anchor="start" style="white-space: pre;" direction="ltr" dominant-baseline="text-before-edge">(180, -90)</text></g><g transform="translate(64.90324330448425 879.5114640644957) rotate(0 53.52996063232422 12.5)"><text x="0" y="0" font-family="Virgil, Segoe UI Emoji" font-size="20px" fill="#000000" text-anchor="start" style="white-space: pre;" direction="ltr" dominant-baseline="text-before-edge">(-180, -90)</text></g><g transform="translate(261.33263977756496 872.7201895851517) rotate(0 102.05995178222656 17.5)"><text x="0" y="0" font-family="Virgil, Segoe UI Emoji" font-size="28px" fill="#000000" text-anchor="start" style="white-space: pre;" direction="ltr" dominant-baseline="text-before-edge">Longitude: 1 0 </text></g><g transform="translate(799.515055186416 13.603574183720525) rotate(0 64.49797058105469 17.5)"><text x="0" y="0" font-family="Virgil, Segoe UI Emoji" font-size="28px" fill="#000000" text-anchor="start" style="white-space: pre;" direction="ltr" dominant-baseline="text-before-edge">[90, 180)</text></g><g stroke-linecap="round"><g transform="translate(536.087468204357 52.93334493440352) rotate(0 0.3502164128797176 397.7119505067797)"><path d="M-1.07 -0.87 C-0.79 287.06, 1.29 576.27, 1.12 796.29 M-0.07 -0.58 C2.34 221.69, 1.91 443.45, 1.27 794.81" stroke="#000000" stroke-width="2" fill="none"></path></g></g><mask></mask><g transform="translate(539.1115567174581 10) rotate(0 49.99397277832031 17.5)"><text x="0" y="0" font-family="Virgil, Segoe UI Emoji" font-size="28px" fill="#000000" text-anchor="start" style="white-space: pre;" direction="ltr" dominant-baseline="text-before-edge">[0, 90)</text></g><g stroke-opacity="0.2" fill-opacity="0.2" stroke-linecap="round" transform="translate(540.8403378493565 53.01511160956079) rotate(0 102.17914156269683 399.1907485949573)"><path d="M0 0 C0 0, 0 0, 0 0 M0 0 C0 0, 0 0, 0 0 M-0.75 6.18 C1.97 5.07, 2.47 3.55, 6.56 1.74 M0.44 6.24 C0.61 5.55, 2.13 4.27, 5.41 0.3 M2.34 14.63 C5.26 9.62, 6.41 3.64, 11 2.96 M1.28 12.25 C2.57 8.6, 6.75 2.82, 9.8 0.62 M2.69 20.71 C2.79 12.48, 3.59 7.98, 18.55 0.67 M-1.79 17.67 C4.51 11.22, 9.18 4.54, 16.09 0.62 M-0.94 25.16 C3.8 20.55, 14.92 10.15, 23.32 -1.95 M-0.25 24.35 C7.37 13.6, 17.43 6.71, 19.49 1.26 M-1.78 26.72 C11.4 15.39, 21.74 11.91, 29.34 1.41 M-0.14 30.25 C4.43 23.98, 11.03 13.95, 24.64 -0.63 M-4.17 39.41 C9.5 24.45, 24.87 8.98, 33.54 2.59 M1.21 37.67 C5.57 28.96, 13.92 18.5, 33.58 0.67 M-1.05 45.53 C15.91 25.14, 24.86 15.45, 40.5 3.85 M-1.45 43.49 C7.34 33.52, 14.79 21.86, 35.39 -0.09 M-4.06 48.08 C11.48 36.68, 23.79 26.29, 43.55 2 M-0.17 47.33 C14.9 33.11, 27.95 16.21, 44.49 -1.24 M0.92 55.58 C17.61 42.18, 31.75 25.75, 47.41 -3.44 M-0.19 54.25 C15.18 37.34, 28.93 22.43, 46.44 1.78 M-3.61 58.27 C23.08 36.89, 41.22 15.08, 49.31 -2.18 M1.93 62.72 C12.73 45.62, 26.48 27.81, 52.27 -1.65 M1.71 68.89 C15.89 46.73, 31.21 25.59, 61.63 2.99 M-0.1 67.25 C19.97 41.58, 44.1 15.44, 56.29 -1.39 M2.99 71.14 C14.65 55.51, 28.93 36.7, 61 -3.66 M-1.12 74.61 C20.61 44.92, 44.46 19.36, 62.38 -0.63 M-0.97 76.01 C19.96 56.72, 37.93 36.86, 66.93 -2.66 M-1.53 78.03 C19.41 56.57, 38.82 35.91, 69.85 0.11 M1.75 86.67 C24.43 56.55, 57.57 26.51, 74.96 -3.28 M0.47 85.85 C26.52 55.91, 50.45 25.6, 75.69 0.84 M-1.17 94.59 C31.88 58.01, 58.86 30.78, 79.25 -3.34 M0.6 91.49 C22.62 64.87, 44.03 37.67, 80.44 2.1 M2.19 100.41 C23.08 67.41, 51.85 39.24, 85.73 2.89 M0.24 98.12 C26.48 70.12, 48.97 40.84, 86.47 -1.13 M-2.1 106.31 C19.43 80.97, 41.2 55.04, 86.72 0.81 M1.44 104.86 C22.58 72.65, 49.6 47.24, 91.79 0.5 M-3.97 112.44 C36.9 68.83, 71.81 26.07, 98.04 3.61 M0.09 110.96 C37.75 70.92, 69.69 33.37, 96.39 0.66 M3.21 117.7 C31.17 88.22, 55.82 54.18, 101.66 -3.56 M-0.47 114.48 C30.82 82.3, 62.12 46.31, 100.02 1.3 M-2.83 119.95 C35.48 73.32, 72.55 33.66, 106.8 0.46 M0.38 120.24 C38.17 78.43, 76.43 31.72, 104.53 -1.47 M3.27 124.82 C41.55 77.37, 82.35 28.9, 108.57 1.04 M-1.82 126.52 C34.47 94.12, 64.07 57.6, 111.66 -1.39 M0.37 134.15 C30.88 92.93, 66.3 50.53, 116.45 -3.42 M0.52 133.2 C22.43 104.52, 47.97 77.53, 116.73 0.61 M-1.26 138.3 C36.46 94.91, 77.96 52.12, 124.15 2.9 M-1.93 140 C34.28 103.04, 70.93 59.45, 121.67 0.61 M0.57 145.08 C45.73 95.45, 84.88 48.38, 123.59 -2.36 M0.32 147.14 C48.89 93.21, 94.73 37.7, 126.19 1.89 M2.26 151.9 C46.64 100.41, 92.58 43.82, 129.63 -2.6 M-0.62 153.19 C30.48 119.02, 57.52 89.27, 131.51 -0.37 M-3.34 158.41 C47.56 96.77, 101.15 32.87, 140.64 -3.13 M1.16 160.06 C42.93 113.3, 83.43 66.19, 135.79 -1.11 M-1.45 166.85 C43.66 111.16, 94.55 58.03, 144.81 -2.1 M1.82 163.25 C47.9 107.01, 97.29 49.3, 142.64 -1.81 M-3.41 171.96 C32.11 130.76, 67.69 92.2, 148.44 -1.9 M-0.41 170.51 C48.3 111.3, 101.28 53.26, 149.36 -0.21 M0.07 175.2 C54.82 121.49, 99.74 64.49, 156.24 0.9 M-0.01 175.38 C59.36 107.78, 117.56 39.33, 155.12 -1.62 M2.32 185.18 C62.8 112.13, 123.32 34.63, 159.59 -0.61 M-0.58 182.3 C41.75 128.63, 87.24 80.69, 160.02 0.63 M-0.75 190.88 C42.94 135.42, 92.06 87.97, 165.43 -0.75 M0.97 190.88 C42.79 143.23, 85.19 94.13, 166 0.51 M-3.03 192.72 C61.17 130.82, 118.99 66.53, 170.59 2.71 M1.67 193.46 C67.15 120.9, 133.07 45.45, 169.28 -1.14 M2.52 202.44 C34.22 161.86, 68.53 120.97, 177.04 -1.59 M1.32 200.07 C40.91 151.69, 82.81 105.14, 174.63 -1.4 M0.17 207.64 C36.41 158.26, 79.63 114.43, 180.09 -2.07 M-0.23 205.43 C55.9 139.01, 112.22 75.23, 181.1 0.94 M-2.96 214.78 C40.95 172.4, 76.57 130, 183.08 -0.8 M-1.18 214.24 C52.96 152.89, 104.08 92.35, 186.85 1.24 M-1.54 220.16 C58.43 146.95, 125.26 73.12, 191.54 -2.05 M-0.32 218.8 C50.9 159.24, 104.94 99.65, 190.96 1.25 M0.37 223.27 C42.19 172.33, 87.47 123.15, 197.36 1.43 M-0.92 225.65 C57.76 163.61, 112.59 102.71, 197.73 -1.7 M2.45 230.32 C54.96 169.08, 107.9 108.8, 203.73 2.89 M-1.41 231.97 C43.07 182.17, 88.62 131.5, 200.34 0.09 M0.87 235.86 C67.35 162.01, 134.26 89.74, 207.94 2.76 M0.83 238.32 C79.45 148.36, 155.24 58.57, 204.8 1.04 M-2.73 242.19 C80.86 155.01, 157.03 67.41, 207.83 7.02 M0.97 244.29 C57.34 176.79, 113.56 113.23, 204.9 8.83 M-2.59 252.6 C76.88 166.8, 144.24 87.46, 206.06 13.59 M0.57 248.97 C56.52 184.95, 112.84 119.21, 206.38 13.33 M0.63 258.06 C62.45 189.29, 120.61 117.85, 205.8 17.88 M-0.73 254.52 C57.59 188.98, 116.11 119.73, 206.18 18.94 M-2.14 260.87 C66.42 186.15, 132.06 108.31, 205.55 26.45 M-0.78 262.8 C69.21 177.76, 139.99 97.28, 206.63 24.02 M1.67 265.27 C77.21 178.17, 157.11 84.83, 205.21 33.27 M0.54 268.52 C62.69 194.19, 125.52 122.8, 205.26 32.59 M1.15 276.4 C52.64 210.19, 108.98 147.64, 207.72 38.69 M-0.42 273.85 C57.1 204.58, 115.07 137.63, 204.46 39.01 M-2.37 279.5 C64.28 199.13, 137.31 119.16, 205.62 44.73 M-1.37 281.6 C63.09 211.42, 121.68 141.87, 204.53 44.46 M2.72 286.31 C62.67 213.9, 123.24 144.04, 204.59 47.41 M-1.04 286.13 C59.32 222.63, 114.98 157.09, 206.76 49.19 M-0.81 293.39 C79.63 201.98, 155.4 114.29, 205.25 52.95 M1.05 293.99 C79.31 198.86, 161.03 105.54, 204.54 55.71 M2.43 298.2 C77.01 212.31, 151.74 123.58, 206.27 62.51 M1.39 298.74 C43.87 240.54, 90.84 186.28, 205.9 62.01 M1 306.71 C40.88 254.66, 82.93 205.12, 203.26 71.31 M0.8 305.4 C57.23 241.61, 114.55 175.56, 204.75 67.59 M1.02 309.64 C75.89 225.23, 156.59 134, 206.58 72.37 M-1.59 310.9 C64.45 230.14, 134.33 150.49, 206.61 74.27 M-1.53 314.77 C64.39 239.42, 127.64 168.09, 205.17 80.21 M0.38 316.28 C39.66 269.34, 82.94 220.91, 204.76 79.86 M-0.08 325.03 C80.55 233.54, 164.14 137.12, 208.02 87.27 M-1.22 323.18 C68.46 251.06, 132.34 178.04, 206.79 85.67 M1.4 329.12 C42.21 278.55, 88.42 227.47, 204.71 91.35 M1.14 329.98 C76.89 243.01, 150.37 157.48, 204.61 93.93 M0.15 334.57 C58.17 271.21, 108.11 206.36, 206.87 97.52 M0.32 334.92 C70.32 254.08, 146.14 169.73, 206.79 98.19 M1.97 341.29 C50.17 281.31, 102.26 221.94, 206.34 102.03 M-1.61 340.74 C64.21 265.33, 129.25 192.3, 206.02 105.5 M2.09 348.15 C48.72 297.75, 89.06 244.98, 204.36 113.07 M-0.33 348.34 C42.03 295.51, 85.7 245.96, 204.97 111.58 M-2.66 351.09 C84.51 258.73, 165.54 163.24, 204.72 115.8 M-0.36 354.78 C71.92 275.76, 141.84 195.51, 204.57 115.37 M1.99 359.22 C82.45 266.46, 165 173.98, 205.57 125.35 M1.58 359.31 C56.02 297.96, 111.66 234.44, 206.56 123.66 M-0.15 368.28 C40.84 317.41, 87.18 270.13, 203.92 129.03 M-0.65 365.07 C71.24 283.72, 138.3 206.61, 204.72 128.66 M-0.15 371.06 C80.52 281.79, 156.4 189.15, 207.83 135.6 M-0.24 370.95 C59.59 309.02, 115.25 243.48, 204.91 134.41 M2.77 378.27 C64.53 306.1, 130.89 231.22, 205.87 142.08 M0.04 378.06 C61.97 312.24, 118.68 242.74, 206.82 141.93 M-0.83 385.29 C63.52 315.72, 124.7 241.73, 208.62 147.04 M0.85 383.43 C47.25 326.26, 94.53 269.64, 205.04 148.15 M-0.52 391.22 C65.85 314.87, 131.45 242.01, 203.53 155.31 M1.66 390.33 C78.57 296.94, 158.33 206.67, 204.52 154.77 M0.22 397.82 C50.57 339.55, 96.39 280.91, 207.75 162.82 M-0.87 397.16 C68.73 322.28, 137.08 245.37, 204.51 158.63 M-2.94 400.13 C56.05 337.65, 105.99 277.41, 203.48 163.23 M-0.46 402.13 C69.03 321.72, 138.46 241.07, 205.95 165.37 M-0.22 410.09 C55.8 351.23, 106.68 288.38, 207.08 174.43 M0.52 408.28 C68.28 324.22, 139.39 242.53, 205.95 173.07 M-1 414.82 C38.08 364.93, 80.85 315.2, 205.28 175.11 M-0.2 415.77 C49.45 356.82, 98.59 300.78, 206.02 178.38 M-1.61 421.99 C44.25 372.03, 83.02 322, 203.86 186.17 M-0.12 420.15 C54.74 354.15, 113.25 289.52, 206.08 183.92 M-1.56 429.44 C55.21 369.46, 104.94 308.11, 203.73 190.21 M-0.25 427.37 C65.91 348.16, 132.53 271.66, 204.23 190.05 M0.08 431.78 C54.49 371.33, 110.47 305.19, 207.44 197.88 M-0.68 433.24 C67.83 354.58, 135.52 278.99, 205.39 195.76 M0.66 439.4 C57.76 374.4, 111.33 312.06, 205.68 203.26 M0.52 439.46 C80.2 352.68, 156.62 261.58, 205.92 203.66 M-0.04 443.36 C51.3 384.62, 101.3 332.43, 207.44 208.58 M-0.03 445.36 C55.44 376.37, 116.52 308.83, 206.07 207.56 M1.9 451.4 C44.76 401.84, 86.06 352.69, 206.2 211.82 M-1.42 452.56 C67.22 373.43, 135.11 295.1, 205.49 215.56 M1.05 454.77 C46.89 402.45, 99.36 342.25, 204.33 220.01 M0.35 455.77 C82.31 365.28, 164.51 271.05, 204.28 220.52 M0.51 466.16 C41.49 417.07, 83.23 363.26, 205.39 227.47 M1.2 463.55 C62.72 387.4, 125.38 315.13, 204.68 227.85 M-0.64 467.51 C49.79 420.12, 92.62 369.71, 203.5 230.85 M0 470.19 C48.66 414.64, 96.18 357.83, 205.53 233.63 M1.51 474.5 C49.78 420.92, 97.31 363.96, 204.94 239.66 M1.18 474.52 C70.17 394.83, 141.51 315.9, 204.82 239.12 M-2.49 484.37 C52.12 431.34, 95.58 378.92, 202.85 244 M0.2 483.08 C50.37 422.79, 101.11 368.5, 205.13 243.98 M-0.63 485.48 C47.45 429.48, 99.49 367.84, 204.56 253.38 M0.79 488.25 C53.13 427.99, 102.06 368.31, 204.74 252.32 M-1.21 492.26 C73.42 408.79, 144.1 324.09, 203.88 255.09 M-0.48 493.1 C47.69 442.78, 91.22 390.63, 206.42 256.46 M2.88 501.68 C56.79 432.91, 110.37 366.14, 207.5 266.23 M1.15 499.08 C76.86 407.05, 156.59 317.49, 204.8 264.69 M0.4 503.65 C84.61 413.37, 164.01 323.39, 208.23 267.43 M-0.16 506.22 C48.09 454.61, 91.95 401.51, 204.54 268.96 M-2.43 511.35 C66.66 432.22, 134.95 355.47, 208.08 275.8 M0.2 512.13 C56.43 447.85, 114.31 381.99, 204.42 276.47 M-1.09 516.65 C78.7 433.13, 155.3 340.53, 202.83 284.26 M-1.01 517.05 C54.83 458.88, 105.64 402.25, 204.16 283 M2.35 522.38 C53.63 454.68, 111.76 388.52, 208.49 285.23 M-0.45 524.63 C79.35 429.37, 158.76 336.56, 206.06 286.52 M-1.9 529.94 C49.39 471.29, 98.83 416.38, 205.12 291.47 M0.08 530.93 C75.34 442.4, 152.62 353.28, 206.59 293.66 M0.19 535.55 C73.25 455.86, 147.98 373.5, 203.97 301.05 M-0.89 537.54 C73.89 453.11, 150.51 366.62, 204.68 300.17 M-0.15 540.67 C73.11 459.15, 145.32 374.35, 205.12 304.84 M0.85 543.38 C46.74 494.13, 90.48 443.27, 204.28 306.87 M0.41 550.05 C56.74 484.74, 106.99 425.21, 207.7 314.07 M1.18 548.33 C70.56 467.91, 143.82 383.76, 205.52 311.48 M-1.83 555.68 C77.65 460.95, 158.3 370.22, 205 318.59 M0.62 555.51 C42.28 501.82, 90.26 447.49, 204.89 317.93 M1.11 561.38 C63.09 491.92, 122.16 422.88, 205.11 321.93 M-0.2 561.61 C66.39 480.36, 133.41 403.54, 205.42 324.39 M0.85 564.79 C51.4 510.31, 103.4 446.62, 204.23 331.83 M0.57 565.8 C52.94 511.85, 105.14 452.48, 206.39 330.72 M-2.98 570.63 C43.82 528.83, 82.94 476.66, 203.99 336.51 M-1.38 574.3 C71.99 493.12, 142.21 411.22, 204.53 335.93 M0.87 580.32 C73.85 491.77, 151.27 406.97, 207.47 340.72 M-0.73 579.88 C74.5 498.35, 147.16 413.43, 206.42 342.84 M2.01 584.32 C60.11 512.9, 118.26 443.76, 205.76 349.6 M0.67 585.38 C58.62 519.27, 118.19 455.58, 204.62 348.87 M1.28 589.64 C80.35 499.44, 164.23 406.95, 207.21 355.38 M-0.88 589.9 C82.77 499.83, 160.67 408.03, 206.24 355.4 M2.57 599 C78.65 502.89, 155.49 411.98, 207.75 359.24 M0.22 596.16 C65.59 526.24, 128.72 453.35, 207.06 359.6 M0.33 604.16 C61.57 538.49, 115.51 470.63, 205.53 367.44 M-1.37 605.21 C44.6 549.07, 91.27 493.52, 205.49 367.53 M-2.68 606.8 C44.3 555.73, 83.74 507.44, 205.34 373.36 M1.01 608.69 C39.8 564.17, 80.43 515.78, 205.05 374.61 M2.65 613.73 C40.18 568.97, 85.03 518.28, 208.11 378.3 M-0.75 616.62 C68.51 538.3, 136.32 462.28, 206.13 377.73 M-0.76 621.75 C43.97 566.19, 91.2 516.26, 203.1 386.79 M-0.06 622.24 C54.65 559.29, 107.23 499.55, 204.69 386.09 M1.09 628.07 C60.27 556.79, 120.13 492.57, 203.73 391.37 M0.04 627.9 C80.6 537.6, 157.31 446.71, 204.76 391.63 M-1.96 632.18 C42.77 587.72, 87.21 537.06, 208.06 400.09 M-0.74 635.47 C70.57 547.68, 145 465.74, 205.41 397.81 M-0.78 642.52 C49.41 577.44, 102.82 517.76, 206.2 404.28 M-1.1 640.02 C51.62 581.63, 102.47 522.56, 204.69 404.32 M-0.27 646.08 C53.25 587.93, 102.45 528.81, 206.67 407.93 M-0.8 647.7 C59.82 579.57, 120.55 510.55, 206.91 409.29 M2.18 653.01 C69.41 574.37, 141.33 494.94, 203.04 414.39 M-1.03 653.32 C50.36 596.71, 100.18 541.1, 205.82 415.8 M-2.85 658.63 C79.81 568.98, 160.87 473.16, 206.89 419.78 M1.13 659.16 C53.62 594.31, 111.41 532.04, 207.01 420.84 M1.78 665.31 C46.08 614.6, 89.81 567.8, 205.5 426.18 M0.9 663.96 C40.54 617.08, 83.77 568.16, 204.94 428.42 M-1.91 669.11 C71.07 590.63, 141.01 509.16, 206.17 435.06 M0.29 669.38 C82.06 578.71, 161.88 485.3, 205.33 435.72 M-0.93 677.83 C53.1 613.11, 105.11 556.62, 208.55 439.66 M1.18 676.57 C60.25 611.83, 118.11 545.13, 205.48 439.55 M-0.82 684.48 C75.13 591.18, 157.55 500.09, 208.33 448.67 M0.73 682.23 C75.54 598.77, 149.36 512.3, 204.43 447.15 M-2.51 688.99 C58.19 621.05, 115.14 552.99, 204.49 454.03 M1.06 690.3 C65.87 614.13, 132.73 538.58, 206.88 452.33 M-0.71 694.54 C56.37 627.19, 116.3 563.3, 205.42 458.36 M-0.99 696.7 C82.59 604.26, 160.7 512.05, 204.49 458.54 M2.71 702.7 C45.6 646.11, 90.18 592.59, 207.8 465.53 M-0.87 700.06 C53.33 637.97, 109.77 572.7, 205.38 463.6 M-0.56 705.9 C70.54 626.81, 144.15 546.22, 205.91 470.21 M-0.35 708.2 C62.4 634.56, 122.26 565.17, 204.51 470.45 M2.06 714.91 C40.97 663.53, 89.18 613.11, 203.8 478.69 M0.7 712.91 C84.43 622.96, 164.33 527.68, 206.58 476.54 M1.65 720.89 C78.07 624.99, 154.37 537.62, 208.44 485.21 M1.22 720.11 C44.35 672.14, 87.61 623.07, 205.89 482.8 M0.81 728.61 C68.83 648.26, 137.56 569.78, 204.43 490.91 M-1.37 724.63 C52.51 668.45, 103.08 609.39, 205.88 489.57 M-2.67 731.74 C73.08 647.94, 146.99 564.96, 204.04 497.16 M0.39 730.88 C49.54 672.4, 99.1 615.85, 204.7 494.21 M-0.76 736.57 C50.05 671.97, 108.49 609.13, 208.16 503.68 M0.09 738.05 C60.2 662.3, 122.78 590.52, 206.72 500.38 M-2.04 741.17 C58.66 672.74, 113.56 604.69, 204.3 509.5 M1.23 744.71 C51.33 688.69, 101.6 630.31, 204.27 506.07 M-2.79 751.45 C43.37 699.31, 87.95 651.1, 207.96 514.81 M1.37 749.12 C68.19 675.95, 133.44 598.02, 207.15 513.88 M-2.56 754.68 C85.67 663.27, 169.06 567.6, 206.2 520.04 M-1.09 756.68 C46.97 701.32, 96.52 647.04, 206.9 519.97 M-0.38 760.16 C44.81 716.85, 86.02 667.7, 204.76 527.72 M0.39 762.29 C38.59 713.34, 80.1 667.16, 206.28 524.39 M0.25 768.96 C71.18 680.95, 146.96 597.79, 203.25 532.07 M0.81 768.18 C73.43 683.4, 145.5 598.59, 206.66 530.42 M1.59 772.92 C77.23 685.14, 160.41 591.69, 207.3 539.84 M0.33 772.89 C58.34 705.01, 120.2 635.39, 205.45 536.86 M-2.27 779.3 C43.82 727.42, 87.61 678.39, 204.68 540.92 M1.25 781.53 C79.13 689.65, 157.02 601.51, 207.09 544.07 M1.93 787.07 C72.82 705.6, 143.39 626.74, 208.26 550.04 M-0.94 786.27 C64.55 713.35, 130.56 637.01, 205.78 550.01 M1.86 790.73 C60.22 725.22, 116.08 654.09, 203.63 554.65 M-0.23 792.67 C65.88 718.89, 131.91 645.38, 205.02 556.31 M-2.66 798.26 C72.01 710.5, 146.96 630.67, 206.8 564.15 M-1.2 799.21 C45.31 744.7, 92.95 691.34, 206.47 560.49 M7.32 798.59 C60.59 738.14, 111.95 682.29, 205.25 571.14 M4.27 798.68 C52.8 740.89, 102.14 685.39, 205.9 569.61 M8.72 801.54 C70.16 729.81, 130.34 656.08, 205.04 575.81 M11.34 799.46 C77.07 725.01, 144.04 645.91, 205.57 573.48 M17.83 797.65 C73.79 738.72, 124.85 675.87, 202.75 579.47 M16.37 796.94 C76.62 726.99, 137.43 657.82, 207.16 579.35 M21.41 798.46 C73.3 742.67, 125.32 677.96, 204.62 586.85 M21.98 797.36 C63.78 746.6, 108.28 693.37, 206.6 588.07 M26.1 796.44 C81.55 742.69, 137.25 681.56, 206.47 594.89 M26.85 798.44 C82.86 734.57, 136.09 670.79, 204.7 592.74 M29.25 799.75 C79.55 736.87, 133.7 680.55, 206.6 596.09 M33.3 798.06 C74.97 748.55, 122.08 696.38, 204.9 597.72 M39.65 796.83 C81.29 740.98, 132.11 687.28, 204.17 603.27 M36.31 799.2 C80.91 743.06, 128.54 689.7, 206.21 604.39 M40.1 798.73 C94.3 739.17, 142.99 684.75, 203.59 613.55 M41.19 800.22 C104.17 731.12, 164.56 660.93, 206.41 612.25 M47.22 796.61 C87.88 758.37, 124.64 711.43, 206.33 619.86 M49.14 799.79 C93.97 743.14, 140.06 688.48, 204.33 616.47 M54.61 798.59 C104.69 740.27, 154.24 680.2, 205.03 621.64 M52.37 799.77 C101.71 743.53, 153.38 688.07, 207.17 621.79 M60.27 799.17 C110.21 736.31, 168.11 672.36, 208.22 625.99 M58.61 797.45 C111.55 740.55, 164.05 682.58, 206.02 628.33 M61.45 796.72 C103.48 748.23, 146.06 705.3, 207.83 637.78 M63.45 798.33 C104.93 752.06, 148.52 703.02, 206.49 634.41 M70.61 796.57 C114.93 750.98, 151.41 699.49, 207.78 642.7 M68.11 798.08 C98.21 766.03, 128.75 729.92, 204.03 642.64 M74.99 801.68 C105.78 757.77, 146.4 719.07, 204.37 645.4 M75.44 798.72 C103.33 758.09, 137.25 720.44, 205.13 649.28 M80.2 801.03 C121.87 755.32, 161.03 708.01, 205.41 649.43 M80.02 797.33 C130.6 744.85, 178.19 688.17, 204.96 653.43 M83.68 801.82 C127.37 747.89, 178.04 700.69, 202.97 663.37 M85.27 799.65 C129.69 745.53, 176.06 693.14, 206.44 661.44 M91.36 797.73 C116.58 762.12, 147.92 736.53, 207.66 666.65 M89.8 796.27 C128.03 753.02, 170.56 709.26, 206.62 666.34 M96.14 795.16 C122.43 769.1, 142.24 742.41, 208.1 675.13 M94.46 800.45 C123.78 764.63, 150.77 732.98, 206.49 671.15 M103.02 801.68 C125.25 772.94, 153.14 744.89, 207.25 677.71 M102.71 800.1 C130.55 763.37, 163.43 728.04, 204.61 679.68 M107.79 798.18 C128.72 774.67, 153.4 739.24, 208.34 680.71 M104.51 799.67 C129.85 763.94, 159.01 735.62, 206.18 684.77 M113.47 799.7 C143.1 763.57, 174.22 721.95, 204.77 692.27 M111.91 796.89 C135.58 774.21, 156.6 748.07, 206.15 690.44 M120.18 799.83 C140.99 771.15, 160.18 747.58, 204.57 695.2 M118.19 796.91 C152.9 758.91, 188.97 718.19, 204.86 696.59 M119.14 799.1 C154.14 764.88, 183.06 730.92, 209.04 699.12 M122.93 800.53 C143.24 770.7, 167.11 740.02, 203.88 700.95 M129.03 797.85 C157.61 764.55, 181.69 735.55, 205.2 705.29 M125.68 798.87 C148.88 774.06, 168.88 749.76, 205.63 707.74 M130.7 796.33 C145.59 782.21, 163.96 764.81, 203.72 715.06 M131.75 797.3 C157.05 769.84, 184.36 740.2, 204.51 713.88 M136.25 794.83 C158.75 772.19, 182.09 747.96, 208.8 718.19 M138.55 797.36 C156.86 777.26, 172.98 761.6, 203.96 721.18 M139.66 801.85 C162.12 775.01, 176.9 755.7, 206.01 726.49 M141.4 800.78 C156.09 783.39, 173.69 763.66, 205.49 727.76 M145.93 802.15 C158.68 780.98, 173.8 764.82, 204.17 730.19 M147.8 799.28 C168.74 775.37, 191.01 750.79, 205.76 732.24 M153.71 796.95 C175.86 774.41, 193.88 754.16, 209.27 738.34 M155.32 798.66 C173.43 777.09, 193.29 754.63, 203.67 739.95 M160.38 796 C181.62 774.89, 196.49 752.78, 208.93 743.64 M157.83 796.61 C169.75 787.61, 179.25 776.84, 204.01 743.57 M160.74 801.74 C175.23 786.48, 185.44 769.65, 207.05 750.63 M163.36 798.73 C175.98 788.3, 186.78 773.63, 205.3 753.14 M168.07 801.39 C184.43 784.1, 195.38 765.39, 208.24 756.47 M168.43 796.43 C180 787.58, 187.95 779.29, 203.42 756.68 M172.81 799.13 C183.28 791.38, 184.93 778.8, 207.77 759.42 M175.79 798.88 C184.4 787.74, 191.53 779.84, 206.72 762.41 M179.65 800.15 C185.2 787.69, 190.71 787.12, 209.43 771.15 M180.8 798.92 C188 790.69, 192.28 784.19, 205.1 770.92 M182.18 794.84 C196.08 791.81, 197.21 784.03, 206.04 777.61 M185.24 797.06 C188.72 792.94, 193.35 787.75, 207.67 773.88 M191.99 798.9 C192.55 791.07, 197.51 784.18, 202.03 779.21 M191.58 799.34 C192.52 795.68, 196.62 792.17, 204.58 781.97 M196.97 797.78 C200.01 795.04, 203.15 791.73, 203 790.56 M196.62 797.72 C198.55 794.24, 202.83 792.53, 204.86 787.69 M201.32 799.08 C203.04 798, 203.76 796.41, 205.37 793.86 M202.12 798.17 C202.36 797.7, 203.51 796.41, 205.38 793.44 M0.16 798.52 C0.16 798.52, 0.16 798.52, 0.16 798.52 M0.16 798.52 C0.16 798.52, 0.16 798.52, 0.16 798.52 M4.52 796.86 C5.12 795.22, 2.84 795.54, -1.32 794.08 M5.54 798.28 C3.2 796.55, 1.64 794.44, 0.5 792.49 M10.63 799.11 C9.01 796.97, 8.6 794.07, 2.21 786.44 M11.48 798.74 C7.5 796.74, 4.86 791.17, 0.04 787.91 M18.31 798.18 C15.36 792.5, 3.35 792.37, -1.23 778.31 M17.01 797.85 C13.4 793.47, 8.92 790.95, 1.54 783.31 M20.54 801.75 C17.04 796.11, 16.96 786.74, 0.76 776.25 M23.04 796.67 C17.95 792.45, 10.89 783.82, -1.57 778.86 M27.31 795.41 C21.45 790.38, 14.25 787.92, 2.55 769.4 M31.03 798.48 C20.44 788.02, 5.12 777.96, 0.1 772.23 M40.24 801.37 C24.83 786.07, 11.88 780.76, -1.86 768.42 M37.23 797.82 C25.21 788.98, 12.97 778.26, 0.16 767.14 M42.12 802 C33.29 790.13, 22.2 781.53, 3.52 762.03 M43.62 797.81 C30.58 786.25, 18.02 774.56, 1.51 762.08 M51.48 801.4 C33.76 787.02, 21.72 772.79, -1.4 752.35 M47.7 799.47 C36.45 786.97, 21.13 775.86, -0.61 755.46 M52.72 801.45 C37.31 786.2, 20.56 771.92, -2.98 751.84 M53.81 799.66 C38.32 785.5, 24.69 773.64, -1.58 750.36 M58.31 797.94 C41.65 781.79, 20.32 765.5, -3.94 746.61 M62.45 798.94 C42.85 780.94, 22.28 764.91, -0.31 743.63 M63.28 798.08 C50.49 777.91, 24.68 764.3, -0.71 741.98 M66.07 796.95 C44.57 779.86, 22.93 760.73, -1.41 739.32 M71.24 795.88 C53.72 780.75, 29.93 760.13, 2.62 738.58 M74.16 799.59 C44.85 776.57, 20.38 752.95, 0.06 734.53 M80.9 797.69 C59.1 779.52, 36.71 762.55, 0.52 728.42 M81.02 798.36 C49.88 775.8, 26.17 750.57, -0.03 731.34 M84.22 794.26 C64.79 778.76, 41.58 758.53, -3.44 720.46 M87.12 798.26 C60.18 780.29, 37.65 758.49, 0.89 724.15 M92.6 800.9 C68.83 776.28, 52.3 765.98, -2.65 715.92 M90.41 799.69 C54.56 766.69, 19.38 735.49, 1.17 718.87 M95.39 798.94 C78.14 784, 57.19 759.25, -1.63 717.25 M96.07 799.84 C77.21 778.93, 58.32 760.87, -2.02 711.58 M105.87 795.14 C64.37 769.94, 33.1 737.49, 1.86 711.4 M103.67 797.81 C67.52 770.02, 31.19 739.44, 0.42 707.78 M111.81 795.22 C83.89 773.6, 58.46 750.9, 2.7 702.78 M108.9 800 C70.04 763, 25.73 727.79, 0.53 700.99 M117.62 795.97 C77.82 764.22, 28.85 719.5, -1.71 696.59 M114.9 798.01 C82.39 769.27, 53.33 742.4, -1.6 696.04 M118.49 797.29 C87.29 767.04, 49.83 742.2, -1.6 691.69 M121.62 796.53 C89.93 772.52, 59.84 743.88, 1.17 691.65 M126.96 795.78 C91.79 765.22, 56.5 740.76, 3.08 688.02 M129.57 796.69 C97.25 770.59, 63.53 739.8, 0.17 687.71 M134.86 800.08 C105.98 769.64, 73.22 747.96, -3.49 679.41 M132.94 799.26 C86.32 756.06, 39.01 711.03, -2.08 679.92 M139.91 800.42 C109.44 771.46, 68.67 737.63, -3.12 677.04 M139.34 799.99 C85.02 750.69, 30.32 703.47, 1.21 674.97 M143.82 796.7 C116.24 768.89, 80.8 741.21, 2.27 670.22 M147.2 797.49 C104.73 761.27, 67.94 728.47, 0.19 669.26 M154.27 798.57 C107.4 762.2, 65.89 725.5, 0.46 665.84 M152.96 799.11 C99.08 751.28, 44.08 703.07, 1.26 664.26 M160.18 798.94 C120.27 760.22, 80.86 725.52, 2.68 657.54 M157.27 798.53 C98.23 744.19, 33.98 690.7, -1.08 660.23 M161.48 801.31 C114.05 756.46, 68.95 716.08, -0.9 655.35 M163.22 796.82 C124.96 761.68, 85.01 725.5, -0.86 657.07 M172.47 801.97 C122.23 760.62, 69.56 716.48, -3.02 650.09 M170.76 798.68 C129.55 765.97, 85.35 726.66, 0 648.62 M175.62 797.67 C113.67 740.28, 40.26 685.94, 1.21 641.92 M176.51 797.19 C109.8 741.25, 42.47 682.86, 0.63 643.45 M182.67 795.91 C124.04 744.26, 62.41 696.25, 1.95 639.73 M182.14 798.13 C123.65 744.67, 60.55 690.42, -0.45 638.73 M187.92 795.12 C137.6 757.12, 91.96 719.19, -2.2 634.5 M189.72 798.22 C150.92 764.24, 109.27 728, -0.25 634.23 M197.8 798.53 C120.1 736.56, 41.95 672.16, 2.87 626.99 M193.89 798.86 C136.52 753.21, 81.42 701.33, 0.92 627.71 M199.47 801.56 C138.9 743.1, 75.18 684.84, 0.11 624.14 M200.38 798.11 C138.66 743.77, 76.55 687.82, 1.07 624.74 M203.28 794.63 C140.22 741.92, 79.34 681.85, 1.93 620.43 M206.3 796.14 C140.3 736.95, 71.94 678.94, -0.25 618.24 M206.27 794.66 C158.43 750.58, 118.45 713.82, 2.89 614.38 M206.89 790.69 C137.28 728.54, 63.21 668.72, 1.29 614.07 M205.93 787.41 C130.57 715.87, 48.59 646.06, -1.34 605.76 M204.66 785.16 C128 715.39, 50.01 648.7, -0.15 607.78 M206.29 783.31 C142.46 723.18, 73.08 661.97, 1.53 604.49 M207.29 780.12 C154.04 730.88, 98 684.22, 0.71 602.88 M207.02 774.17 C150.65 726.9, 96.12 682.6, 2.77 597.06 M206.72 776.61 C126.88 708.62, 51.44 641.93, -0.91 597.24 M203.13 768.07 C164.05 732.88, 121.65 694.23, 0.79 592.79 M204.68 772.06 C128.24 703.7, 50.37 639.64, -1.68 591.87 M206.86 767.1 C153.28 716.39, 98.47 670.78, 0.8 583.99 M205.94 765.84 C134.02 701.27, 62.74 639.15, 1.11 586.77 M203.79 758.67 C130.25 691.16, 50.56 625.03, -0.63 579.78 M206.48 761.35 C163.89 721.14, 121.07 684.49, -0.33 580.27 M205.89 755.59 C136.6 700.67, 73.44 646.22, 2.81 578.69 M205.43 752.94 C135.12 687.82, 63.53 624.48, 1.29 577.38 M207.61 749.91 C136.07 686.63, 68.66 625.99, -0.78 571.3 M205.67 749.85 C146.71 694.72, 88.88 644.81, -0.27 570.48 M207.81 746.83 C133.46 681.48, 60.73 615.83, 1.86 562.75 M203.97 744.33 C136.65 682.3, 69.89 625.62, 0.8 566.28 M203.19 737.23 C136.15 679.99, 66.47 616.51, 2.44 556.67 M207.2 738.75 C130.26 669.59, 53.19 602.08, 0.01 560.32 M204.01 731.52 C133.02 670.37, 63.96 612.56, 2.07 552.7 M206.86 732.46 C161.57 689.44, 115.72 651.5, -1.23 554.61 M208.85 726.03 C155.01 682.34, 96.62 632.85, 1.93 549.2 M204.65 726.98 C127.6 658.72, 49.59 591.15, 0.77 547.67 M207.84 724.33 C142.47 670.75, 85.68 615.91, 3.05 546.98 M205.7 722.31 C144.35 671.61, 83.14 618.29, 0.12 542.83 M207.26 716.12 C147.43 667.6, 96.25 621.36, -3.03 539.48 M206.74 718.98 C152.99 668.57, 96.6 618.85, -0.5 538.28 M207.86 710.99 C125.21 641.23, 51.24 578.54, 2.95 535.32 M204.89 711.18 C159.08 676.32, 112.19 637.39, 1.5 532.25 M204.56 704.84 C127.33 643.1, 50.4 573.78, 2.54 529.65 M204.56 707.58 C127.85 637.59, 49.15 567.52, -1.34 528.63 M208.37 701.21 C155.98 658.22, 107.64 613.97, 1.68 520.54 M204.44 702.64 C135.75 637.36, 65.87 575.27, -0.9 523.46 M208.64 696.38 C143.85 642.51, 82.11 587.84, 2.65 517.78 M204.35 697.37 C144.54 647.57, 85.88 593.97, 1.02 516.81 M207.55 688.21 C137.01 633.65, 79.04 575.88, -2.31 509.25 M204.7 689.43 C152.98 647.58, 102.65 603.31, -0.44 511.69 M207.25 686.21 C128.94 614.99, 46.35 545.69, -2.24 507.92 M207.18 684.46 C135.33 624.62, 66.23 565.15, -0.48 507.9 M207.64 683.63 C153.34 633.4, 92.34 581.66, -2.59 502.41 M205.54 680.61 C165.72 645.11, 121.12 609.9, -0.29 500.79 M208.55 676.69 C143.66 612.88, 74.05 558.22, -1.32 498.1 M204.33 673.57 C144.05 617.94, 84.46 565.78, 0.75 497.26 M208.73 668.18 C161.92 635.12, 122.46 593.43, -0.42 492.29 M204.85 669.34 C144.91 615.14, 84.92 563.4, 0.59 492.36 M206.82 661.44 C137.61 605.27, 65.85 541.36, 3.06 487.42 M206.88 664.06 C137.51 602.59, 69.19 541.3, -0.16 485.45 M204.01 660.99 C157.25 615.98, 112.11 576.69, -1.55 478.03 M204.69 660.12 C146.51 606.43, 83.6 552.07, -0.35 481.07 M204.28 653.41 C144.42 597.03, 87.43 549.42, 1.7 476.47 M206.74 654.59 C155.59 609.3, 107.62 567.51, 0.83 473.96 M204.7 651.59 C154.38 604.35, 98.6 556.82, -0.69 468.72 M206.67 649.13 C160.84 612.37, 116.98 573.09, -1.43 468.65 M207.99 644.4 C130.91 576.45, 52.99 512.32, 1.12 464.96 M206.24 644.66 C134.42 577.65, 59.18 512.15, 0.29 464.4 M206.64 641.01 C155.25 595.7, 105.62 555.72, 2.92 461.65 M204.93 638.81 C137.19 577.61, 70.96 518, -1.45 459.26 M207.98 633.03 C130.8 567.8, 62.33 505, 1.78 454.76 M204.17 633.07 C142.62 574.48, 77.36 519.58, 1.34 453.73 M205.79 626.29 C131.61 571.38, 62.01 505.53, 2.38 445.4 M206.38 627.05 C137.07 567.11, 65.52 506.03, -1.21 448.55 M205.36 621.71 C129.71 553.65, 51.27 490.34, 1.15 440.6 M206.63 622.58 C153.04 578.6, 99.04 532.34, -0.37 442.13 M207.6 615.96 C130.7 551.65, 60.28 484.59, -1.23 440.31 M204.23 617.98 C151.77 571.79, 99.36 525.49, 1.11 437.71 M202.92 613.45 C137.72 548.58, 70.26 492.87, 3.07 431.86 M206.8 612.14 C162.8 572.9, 117.49 533.11, 0.48 431.42 M205.22 608.3 C145.35 555.47, 86.3 500.53, -2.06 426.87 M204.47 604.96 C151.6 559.39, 94.75 508.74, -0.87 425.67 M208.32 602.57 C135.67 541.71, 65.61 477.06, 2.21 424.53 M205.17 601.53 C129.31 533.67, 53.74 468.05, -1.41 423.46 M207.51 594.45 C125.16 526.66, 47.26 460.79, 1.23 417.35 M205.63 596.97 C140.46 537.34, 73.87 478.34, -1.59 416.85 M205.92 590.25 C157.99 548.16, 108.71 506.63, -0.43 410.55 M204.91 589.86 C142.4 531.35, 75.56 472.41, 1.47 412.41 M204.79 586.4 C149.48 538.38, 92.72 488.44, 2.36 402.86 M206.54 585.92 C141.81 532.48, 76.7 476.28, -0.58 407.21 M203.65 581.41 C160.56 541.11, 113.91 501.88, -0.54 399.65 M204.02 580.19 C149.6 529.83, 93.73 482.95, -0.19 401.85 M203.1 576.54 C159.77 529.81, 110.41 488.48, -2.52 394.46 M204.79 573.16 C154.1 526.85, 99.19 478.76, -0.21 395.78 M204.91 569.13 C144.43 512.96, 74.73 456.92, 0.09 391.27 M206.31 568.61 C157.44 525.32, 103.97 479.84, 0.17 390.78 M208.63 565.69 C137.46 504.2, 64.04 444.28, -2.24 386.34 M204.52 564.78 C165.48 527.76, 124.61 492.9, -0.91 386.67 M206.19 557.16 C148.88 509.11, 92.35 455.39, 2.9 377.71 M204.95 559.01 C153.86 508.75, 101.12 462.31, -1.46 378.23 M205.9 553.72 C140.41 496.66, 69.71 435.01, -0.33 375.26 M205.53 554.47 C151.52 507.74, 98.93 461.3, 1.83 375.94 M203.44 547.89 C162.11 505.1, 109.74 465.42, -2.93 365.91 M205.96 549.45 C138.09 491.68, 70.47 432.26, 0.58 368.01 M204.52 542.72 C141.44 487.25, 77.59 429.45, -2.52 361.07 M204.78 543.79 C130.76 471.92, 53.31 407.01, 0.36 362.94 M205.91 536.96 C141.92 488, 85.86 435.89, -0.09 355.66 M206.26 537.71 C149.26 488.29, 92.61 438.53, 1.35 357.76 M204.86 533.84 C155.07 489.5, 95.27 438.94, -0.35 350.51 M204.26 531.26 C122.74 461.04, 44.95 390.9, -0.94 352.56 M205.1 526.23 C142.41 470.58, 73.13 415.01, -2.24 348.92 M204.7 526.42 C136.65 463.06, 67.16 399.71, -0.66 346.76 M207.49 524.18 C138.88 466.04, 77.42 410.72, 0.76 341.59 M206.27 520.16 C131.76 461.14, 63.61 399.01, 0.29 344.3 M203.58 515.08 C132.81 452.49, 57.53 390.62, -1.1 334.31 M204.28 515.96 C135.13 452.49, 64.08 390.07, 1.14 337.45 M203.72 509.93 C147.07 455.27, 82.16 400.07, -2.93 332.95 M205.61 510.69 C127.61 438.98, 48.55 367.71, -0.29 330.72 M205.62 503.51 C161.77 465.9, 120.07 425.44, -0.71 327.51 M204.48 506.02 C133.99 444.25, 60.72 380.92, 1.23 327.72 M203.76 501.93 C163.72 463.23, 126.53 429.21, 2.17 320.75 M206.78 498.48 C142.11 452.13, 84.52 401.73, 0.3 320.83 M207.83 495.27 C141.16 439.76, 78.71 384.93, -1.84 318.4 M205.83 494 C128.84 426.62, 49.27 359.21, -0.97 315.48 M202.33 491.4 C146.38 446.09, 90.88 395.68, 0.15 308.01 M206.77 488.58 C145.05 435.47, 86.76 384.49, 1.46 310.45 M208.55 482.31 C131.58 419.47, 54.19 358.77, 1.11 305.24 M205.33 482.84 C143.38 426.82, 79.23 371.49, 0.54 306.54 M206.81 477.98 C136.16 421.94, 66.4 359.05, -1.35 301.52 M206.04 478.3 C150.86 427.5, 95.51 380.57, 0.59 299.37 M204.69 472.74 C144.8 418.43, 74.61 363.6, -1.69 291.63 M204.14 473.21 C136.38 410.34, 61.27 346.03, 1.16 294.3 M202.87 466.61 C145.68 413.55, 84.15 356.98, 0.76 289.97 M203.77 468.16 C126.95 402.06, 50.01 333.19, 0.83 289.81 M207.32 462.88 C153.77 417.53, 99.96 373.09, -0.46 283.99 M206.11 461.95 C166.15 424.86, 123.56 388.74, 0.49 283.79 M207.53 458.22 C161.14 417.8, 115.38 375.51, 1.93 278.3 M205.73 457.19 C158.72 421.2, 116.47 380.81, 0.22 278.58 M207.42 452.78 C152.41 401.19, 101.78 358.71, 3.09 273.4 M206.82 453.02 C146.33 400.08, 80.52 343.49, 0.83 275.06 M204.39 447.2 C152.58 404.65, 95.89 353.29, -0.68 265.83 M204.7 448.27 C158.83 404.68, 111.03 365, -0.59 268.05 M203.9 443.14 C138.78 376.01, 68.11 314.95, -2.81 261.33 M204.51 440.27 C133.91 377.56, 61.63 316.11, 0.86 262.38 M206.13 434.42 C143.38 382.21, 82.75 325.66, 1.14 255.64 M207.13 437.69 C135.64 374.48, 67.39 315.13, 0.19 258.29 M206.74 432.15 C131.02 369.24, 64 305.91, -2.44 253.89 M204.75 430.92 C129.6 362.58, 53.77 294.69, 0.35 251.91 M206 428 C136.36 364.22, 67.95 306.63, -1.39 245.19 M204.87 426.92 C148.85 374.2, 89.12 321.57, 0.73 245.58 M202.64 418.65 C167.35 387.97, 126.47 352.54, 1.32 240.69 M206.4 418.98 C148.53 370.57, 87.29 316.63, -0.59 242.1 M202.9 412.7 C142.19 361.07, 77.86 304.54, 0.22 235.72 M204.95 415.28 C140.75 356.25, 78.41 302.58, 0.34 236.38 M208.12 411.48 C144.16 359.13, 84.72 300.34, 2.62 229.13 M206.33 408.68 C131.78 349.19, 57.38 282.85, 0.01 231.47 M205.19 403.49 C154.13 362.72, 102.28 311.81, -2.5 222.85 M206.91 405.29 C150.55 357.21, 94.36 308.03, 0.93 227.1 M203.96 401.37 C140.8 338.67, 73.27 280.97, 2 222.54 M204.02 400.44 C148.59 346.87, 89.22 296.19, 1.33 220.16 M202.72 392.62 C133.95 332.72, 65.98 274.85, -0.78 212.19 M204.36 394.84 C144.28 342.86, 83.14 287.36, -0.68 215 M206.95 389.06 C124.64 321.43, 48.67 250.99, -2.96 210.87 M206.32 389.26 C136.41 327.44, 67.72 267.4, 1.31 211.51 M207.26 383.86 C153.92 340.3, 108.7 295.49, -2.81 203.73 M205.29 385.04 C126.96 314.88, 45.57 246.84, 1.2 206 M204.4 375.94 C134.74 315.36, 73.15 259.65, -2.07 198.73 M204.01 378.83 C154.58 336.44, 107.81 293.23, 1.3 198.02 M205.83 370.72 C126.91 302.35, 47.4 239.72, 0.5 195.01 M205.49 372.4 C134.5 310.62, 65.36 248.6, 0.87 194.38 M207.16 367.11 C126.67 299.19, 46.98 231.66, -0.59 189.8 M204.57 367.41 C151.16 322.38, 101.55 278.31, 1.44 187.86 M207.39 364.48 C152.47 319.12, 97.5 272.04, 1.24 184.18 M205.78 362.81 C143.31 315.73, 87.53 264.89, -1.55 183.09 M202.83 355.87 C133.98 294.04, 60.94 230.65, 2.6 177.5 M205.64 355.72 C137.68 298.49, 71.49 238.8, -0.95 178.35 M208.58 353.68 C128.26 290.24, 55.5 224.57, 2.56 173.15 M204.17 351.37 C139.98 290.41, 71.81 229.94, -1.79 172.78 M202.55 345.48 C160.3 308.59, 113.47 273.18, -0.59 166.77 M205.97 345.3 C134.41 285.05, 66.79 225.5, -0.44 166.88 M203.08 338.39 C163.67 305.1, 122.87 265.59, -2.4 165.12 M206.77 342.59 C140.04 282.56, 73.36 225.83, 1.64 164.1 M207.45 334.28 C145.82 283.02, 87.67 229.68, 0.64 158.52 M204.6 337.64 C160.96 293.09, 114.42 255.24, -0.63 155.61 M203.41 333.38 C136.68 270.94, 70.94 211.81, 0.75 152.58 M204.42 330.13 C150.19 284.54, 94.86 236.29, -0.31 153.42 M208.74 328.59 C140.42 274.09, 78.79 220.8, 1.59 146.5 M205.64 326.91 C147.52 276.97, 88.13 222.95, -0.12 146.75 M206.66 321.25 C147.44 266.11, 86.51 216.15, -0.79 143.13 M205.44 320.22 C141.67 267.02, 78.87 212.41, 0.72 141.52 M207.84 312.43 C137.94 258.18, 73.71 202.57, -2.24 132.89 M205.66 314.73 C151.21 268.14, 93.21 217.11, -0.32 134.8 M203.81 311.81 C147.69 258.63, 92.15 211.36, 2.94 128.73 M205.99 308.22 C126.24 242.6, 44.47 173.26, 0.93 129.35 M204 304.07 C124.65 228.16, 43.01 161.2, 0.33 125.16 M204.65 302.97 C148.77 254.76, 87.19 201.71, -0.78 123.68 M207.83 301.41 C153.81 250.45, 97.03 204.47, -1.32 120.69 M204.08 298.94 C136.48 237.31, 62.79 175.36, -0.8 120.3 M204.4 291.23 C136.41 228.14, 66.09 163.96, 1.97 114.28 M205.3 292.74 C145.73 238.68, 85.54 187.46, -0.7 115.82 M206.89 288.64 C150.27 240.84, 92.33 191.05, 2.92 109.12 M204.31 289.45 C154.97 244.67, 105.93 200.76, 1.73 109.24 M208.59 284.11 C124.02 215.74, 45.97 145.94, -1.4 102.79 M205.14 282.91 C126.97 211.77, 47.32 141.92, -0.55 104.41 M204.89 277.37 C126.43 207.94, 54.97 137.71, 2.68 97.26 M206.89 276.91 C162.1 239.09, 118.42 200.7, -1.34 99.69 M205.36 274.83 C158.88 222.8, 106.7 182.12, -1.26 95.37 M204.35 271.67 C134.93 211.94, 62.63 147.57, -0.46 93.56 M205.88 267.43 C123.8 194.76, 44.02 127.8, 2.29 85.83 M206.14 266.34 C158.56 224.47, 110.63 182.21, -0.03 89.8 M206.99 259.26 C151.37 209.61, 91.27 157.05, 1.7 83.34 M204.21 261.12 C139.01 206.01, 74.68 149.92, -1.83 81.27 M204.69 257.75 C159.59 216.78, 112.59 178.09, 1.52 76.22 M204.46 256.6 C131.02 191.65, 56.64 127.59, -0.46 76.98 M208.8 252.57 C126.24 185.75, 44.97 113.86, 0.73 72.69 M205.54 249.6 C156.62 212.22, 106.94 169.6, 0.52 73.38 M202.57 243.18 C135.58 179.88, 64.11 117.38, -1.25 67.29 M204.58 245.05 C156.05 203.41, 107.05 162.4, -1.4 65.78 M204.69 242.58 C159.25 200.3, 108.92 159.52, -1.43 62.21 M207.15 239.37 C152.86 197.82, 101.08 149.31, 1.15 60.23 M203.98 236.38 C137.88 178.96, 72.52 121.59, 0.29 58.58 M204.89 235.39 C148.29 186.17, 92.62 138.39, 1.06 56.88 M202.71 230.16 C151.86 187.43, 103.26 143.27, -1.16 53.58 M204.24 228.89 C128.13 162.68, 51.01 94.53, -1.17 50.02 M207.33 227.24 C154.55 180.28, 110.66 140.91, -1.42 47.12 M204.06 223.57 C155.8 180.32, 108.28 140.8, -0.59 45.59 M203.28 219.94 C150.87 173.66, 95.24 127.18, -0.06 39.31 M205.61 220.6 C141.73 167.71, 80.26 112.66, 1.28 39.71 M208.8 211.62 C145.67 167.37, 85.36 109.79, 0.22 36.81 M206.54 215.62 C130.95 142.29, 51.76 75.09, 1.31 35.88 M208.54 210.95 C152.04 165.49, 103.28 124.42, 2.68 28.59 M207.1 209.97 C151.75 158.22, 95.79 109.36, 0.1 29.88 M208.69 204.33 C155.35 159.57, 102.87 111.6, -2.07 22.85 M205.45 204.79 C160.3 163.92, 115.29 122.61, -0.11 23.21 M206.72 199.75 C126.6 130.91, 52.45 62.32, -2.09 16.51 M205.66 196.45 C165.16 160.21, 121.56 121.64, 0.49 20.49 M206.59 190.03 C140.15 136.04, 73.63 78.44, -1.39 13.5 M207.42 192.59 C140.59 133.92, 69.34 73.42, 0.32 14.8 M206.47 189.75 C129.98 125.47, 58.32 64.82, 1.57 6.63 M204 188.16 C137.98 125.62, 68.14 67.81, 1.72 10.04 M207.71 179.84 C137.06 124.67, 72.52 66.68, 1.51 2.12 M206.19 181.5 C139.01 122.94, 71.71 66.25, -0.51 3.14 M202.55 175.64 C151.09 130.5, 91.65 80.27, 2.43 -4.05 M205.96 175.32 C123.59 103.87, 40.63 34.73, -0.56 -2.26 M208.12 171.51 C149.61 118.24, 88.99 68.2, 8.94 1.74 M206.7 170.95 C151.99 121.91, 94.44 69.21, 7.62 -0.96 M203.89 165.21 C164.49 132.22, 128.77 101.28, 11.63 -1.5 M205.51 166.22 C163.12 133.02, 124.66 96.54, 11.9 -0.76 M203.73 158.62 C151.68 109.9, 100.22 63.88, 17.2 1.18 M204.78 162.12 C143.7 107.45, 82.68 56.28, 19.19 -1.26 M205.69 157.77 C134.57 91.76, 67.39 29.43, 21.71 -4.37 M203.9 154.25 C141.15 99.12, 77.39 44.58, 24.99 -1.31 M206.98 153.25 C168.37 118.22, 134.7 85.42, 29.53 1.1 M204.54 149.64 C160.03 111.05, 115.61 70.78, 29.79 -0.31 M204.42 146.4 C162.16 114.77, 126.59 77.8, 37.98 1.08 M205.41 144.96 C162.96 108.7, 119.13 70, 36.66 -1.38 M204.13 136.47 C153.38 86.11, 93.53 39.15, 46.15 -3.1 M204.03 139.78 C159.27 100.8, 110.31 58.81, 44.26 -2.6 M208.71 134.67 C159.53 90.44, 111.09 50.23, 46.47 -1.19 M205.48 134.93 C159.78 93.25, 118.55 55.57, 51.51 -0.03 M205.02 129.15 C171.54 99.24, 134.66 65.15, 54.72 -1.43 M206.94 128.85 C156.68 83.17, 101.22 36.64, 56.83 0.63 M208.54 119.7 C154.91 76.55, 106.8 39.69, 63.5 -2.72 M205.78 123.09 C166.83 91.63, 127.1 60.21, 62.96 0.64 M206.39 120.4 C150.49 67.78, 98.47 20.62, 70.69 0.28 M206.14 118.46 C156.24 76.99, 108.11 33.76, 70.07 -2.32 M204.93 111.66 C170.8 85.32, 139.58 52.03, 72.12 -2.88 M205.58 113.24 C176.26 89.34, 149.03 64.24, 72.13 -3.08 M208.02 111.72 C180.73 86.28, 153.94 59.1, 79.26 1.59 M204.19 106.46 C168.5 71.78, 129.54 39.62, 80.46 -2.92 M203.65 106.13 C161.24 68.13, 117.97 26.9, 85.85 1.33 M204.4 101.27 C168.33 69.09, 125.73 35.3, 85.52 -0.26 M202.08 99.89 C176.98 67.46, 151.21 49.47, 89.74 1.11 M204.28 96.8 C172.96 70.76, 141.91 43.99, 92.01 -1.42 M205.97 93.5 C177.62 70.03, 141.96 37.58, 99.58 -3.57 M204.88 94.1 C176.24 67.02, 148.17 42.71, 100.63 0.67 M208.97 88.53 C167.83 56.43, 140.86 30.51, 104.86 -2.42 M204 85.5 C183.92 70.59, 162.4 52.57, 103.41 0.4 M209.64 82.94 C177.43 58.2, 153.18 35.64, 114.12 1.76 M207.31 79.73 C182.9 63.14, 160.85 44.3, 109.07 -0.61 M209.26 76.04 C183.3 52.38, 155.29 36.17, 117.51 2.59 M205.36 74.69 C184.02 59.18, 166.3 40.86, 114.74 -2.17 M209.8 71.77 C179.2 50.75, 150.01 28.01, 120.73 -2.53 M204.67 70.58 C185.59 51.33, 163.2 29.96, 123.13 -2.34 M203.7 67.65 C183.95 44.26, 153.83 24.46, 131.57 -2.83 M204.77 66.6 C178.71 43.21, 153.16 20.74, 130.24 -2.07 M203.81 58.11 C176.73 36.57, 154.58 11.96, 134.1 -2.16 M205.3 62.16 C188.12 47.45, 174.6 33.62, 134.75 -1.32 M209.23 55.4 C184.34 39.86, 159.98 21.24, 138.8 -2.8 M207.04 53.54 C186.31 40.01, 169.49 23.23, 141.3 -1.13 M203.22 52.93 C190.67 41.33, 177.64 26.34, 149.12 -0.02 M206.99 51.09 C190.49 37.64, 174.06 20.55, 146.29 -2.28 M207 46.15 C193.91 37.58, 183.28 23.49, 151.44 -2.65 M207.4 43.93 C186.81 29.23, 169.44 12.6, 152.97 -0.12 M205.73 35.97 C195.11 26.1, 180.47 12.35, 161.61 -3.55 M206.9 41.09 C190.98 25.39, 172.76 9.71, 161.24 0.82 M202.31 33.56 C200.44 24.31, 186.28 13.93, 163.15 -3.55 M205.49 32.26 C192.83 20.9, 179.67 12.03, 166.96 0.65 M207.28 31.8 C192.08 18.67, 180 11.12, 169.32 0.67 M207.63 28.93 C197.27 19.13, 188.75 13.22, 171.27 0.14 M204.68 26.11 C197.34 14.26, 185.93 4.33, 177.78 2.12 M207.32 21.13 C200.03 14.98, 192.8 10.18, 176.38 -0.05 M205.95 17.82 C200.88 12.29, 191.5 1.02, 180.44 -1.16 M207.15 18.53 C198.63 13.2, 195.02 6.75, 182.69 -0.1 M207.79 11.08 C200.91 7.46, 193.57 7.63, 190.12 -4.53 M203.35 11.23 C200.56 9.41, 200.25 5.56, 188.51 -1.72 M205.92 7.88 C203.31 4.94, 198.67 4.62, 197.66 -0.89 M205.16 7.01 C202.73 5.22, 202.57 2.23, 195.61 -0.59 M204.54 1.02 C204.64 0.9, 203.04 0.55, 202.4 -1.51 M205.52 1.97 C204.61 1.11, 204.34 0.36, 202.57 -1.34" stroke="#228be6" stroke-width="0.5" fill="none"></path><path d="M2.28 -1.54 C50.32 -4.44, 106.74 -0.76, 206.66 2.65 M-0.6 0.95 C59.13 2.79, 113.7 3.33, 205.11 -0.08 M202.87 0.33 C209.4 271.95, 208.1 544.99, 205.01 798.49 M205.13 0.56 C201.1 219.74, 200.37 439.77, 203.97 798.68 M202.23 796.9 C132.65 797.58, 68.68 797.82, 2.72 797.34 M203.38 798.37 C156.77 795.69, 112.14 796.27, -0.54 799.37 M-0.64 797.97 C-2.17 638.78, -1.29 479.21, -0.35 -0.2 M0.55 798.45 C-5.6 565.05, -5.7 331.86, 0.35 0.17" stroke="#000000" stroke-width="1" fill="none"></path></g><g stroke-linecap="round"><g transform="translate(746.3838882763218 52.87494016643393) rotate(0 -0.48595038933865453 399.58699563768647)"><path d="M-0.43 0.19 C0.09 267.61, -0.82 535.92, 0.55 798.99 M-0.24 0.33 C-1.98 176.3, -2.15 353.39, 0.49 798.25" stroke="#000000" stroke-width="2" fill="none"></path></g></g><mask></mask><g stroke-linecap="round"><g stroke-opacity="0" fill-opacity="0" transform="translate(647.8729156303214 50.23504465421104) rotate(0 -0.14615492416510278 400.2251221665829)"><path d="M0.53 -0.61 C0.52 291.65, 0.63 584.78, -0.82 801.06 M0.19 -0.32 C-0.34 268.47, -0.56 536.42, -0.73 800.75" stroke="#000000" stroke-width="2" fill="none"></path></g></g><mask></mask></svg>