<svg version="1.1" xmlns="http://www.w3.org/2000/svg" viewBox="0 0 1011.6743769929162 781.0104906598044" width="2023.3487539858324" height="1562.0209813196088">
  <!-- svg-source:excalidraw -->
  
  <defs>
    <style class="style-fonts">
      @font-face {
        font-family: "Virgil";
        src: url("https://excalidraw.com/Virgil.woff2");
      }
      @font-face {
        font-family: "Cascadia";
        src: url("https://excalidraw.com/Cascadia.woff2");
      }
    </style>
    
  </defs>
  <g stroke-linecap="round" transform="translate(90.49464690089599 10) rotate(0 421.9821204132536 281.3214136088361)"><path d="M140.66 0 M140.66 0 C344.34 0.71, 548.81 1.59, 703.3 0 M140.66 0 C348.84 0.77, 556.29 1.41, 703.3 0 M703.3 0 C798.54 -1.56, 842.49 47.58, 843.96 140.66 M703.3 0 C797.41 2.23, 845.53 45.46, 843.96 140.66 M843.96 140.66 C845.64 230.65, 845.38 319.55, 843.96 421.98 M843.96 140.66 C842.95 252.76, 844.19 363.51, 843.96 421.98 M843.96 421.98 C845.64 517.66, 797.54 563.91, 703.3 562.64 M843.96 421.98 C843.39 513.51, 798.12 564.82, 703.3 562.64 M703.3 562.64 C571.03 561.02, 439.58 561.1, 140.66 562.64 M703.3 562.64 C547.43 561.82, 391.61 562.16, 140.66 562.64 M140.66 562.64 C48.09 561.63, 0.9 514.76, 0 421.98 M140.66 562.64 C46.97 561.94, -1.2 513.71, 0 421.98 M0 421.98 C0.16 314.33, 1.48 209.17, 0 140.66 M0 421.98 C-0.6 328.18, -0.36 233.83, 0 140.66 M0 140.66 C-2 45.1, 45.41 1.78, 140.66 0 M0 140.66 C-1.98 44.95, 44.9 1.95, 140.66 0" stroke="#1e1e1e" stroke-width="4" fill="none"></path></g><g stroke-linecap="round" transform="translate(10 635.2679903870121) rotate(0 495.8371884964581 67.87125013639616)"><path d="M33.94 0 M33.94 0 C265.82 2.37, 496.81 2.02, 957.74 0 M33.94 0 C268.67 2.76, 504.16 2.07, 957.74 0 M957.74 0 C978.89 0.69, 991.97 13.25, 991.67 33.94 M957.74 0 C981.93 -1.42, 992.1 12.94, 991.67 33.94 M991.67 33.94 C991.61 52.47, 993.67 71.56, 991.67 101.81 M991.67 33.94 C991.65 51.12, 991.85 69.5, 991.67 101.81 M991.67 101.81 C992.14 125.7, 979.86 133.79, 957.74 135.74 M991.67 101.81 C992.72 126.6, 978.85 133.71, 957.74 135.74 M957.74 135.74 C756.35 137.11, 555.24 137.1, 33.94 135.74 M957.74 135.74 C707.39 134.32, 456.95 133.95, 33.94 135.74 M33.94 135.74 C12.22 134.75, 0.07 123.82, 0 101.81 M33.94 135.74 C10.12 133.7, 1.81 123.84, 0 101.81 M0 101.81 C1.39 84.22, 0.85 65.91, 0 33.94 M0 101.81 C0.17 76.62, -0.69 51.15, 0 33.94 M0 33.94 C-1.48 13.1, 9.59 -1.68, 33.94 0 M0 33.94 C-1.98 13.26, 10.33 2.12, 33.94 0" stroke="#1e1e1e" stroke-width="4" fill="none"></path></g><g stroke-linecap="round" transform="translate(741.1294997087489 684.9765116136764) rotate(0 88.84867095320283 17.127134717519084)"><path d="M8.56 0 M8.56 0 C49.86 -0.66, 87.45 0.3, 169.13 0 M8.56 0 C47.12 -2.3, 83.49 -1.18, 169.13 0 M169.13 0 C175.13 1.94, 179.06 1.62, 177.7 8.56 M169.13 0 C175.27 1.63, 177.21 3.09, 177.7 8.56 M177.7 8.56 C179.33 13.94, 176.91 18.05, 177.7 25.69 M177.7 8.56 C178.52 15.93, 178.01 22.21, 177.7 25.69 M177.7 25.69 C177.2 29.45, 175.75 36.14, 169.13 34.25 M177.7 25.69 C176.18 29.37, 172.95 32.75, 169.13 34.25 M169.13 34.25 C115.88 35.59, 62.96 35.14, 8.56 34.25 M169.13 34.25 C128.47 34.4, 87.05 34.41, 8.56 34.25 M8.56 34.25 C2.93 33.65, -1.04 29.62, 0 25.69 M8.56 34.25 C4.67 33.67, -0.78 30.82, 0 25.69 M0 25.69 C0.48 21.95, 1.04 17.02, 0 8.56 M0 25.69 C-0.83 19.42, -0.61 15.45, 0 8.56 M0 8.56 C-1.72 1.17, 1.13 1.69, 8.56 0 M0 8.56 C-0.98 4.97, 3.77 -1.01, 8.56 0" stroke="#1e1e1e" stroke-width="4" fill="none"></path></g><g stroke-linecap="round" transform="translate(426.3088652732531 581.4170923914626) rotate(0 88.84867095320283 17.127134717519084)"><path d="M8.56 0 M8.56 0 C65.24 1.01, 122.45 -1.38, 169.13 0 M8.56 0 C71.2 1.6, 135.46 2.23, 169.13 0 M169.13 0 C176.2 -1.24, 178.07 4.27, 177.7 8.56 M169.13 0 C174.36 0.23, 178.3 2.7, 177.7 8.56 M177.7 8.56 C177.09 11.68, 179.27 19.25, 177.7 25.69 M177.7 8.56 C178.04 14.03, 177.63 17.58, 177.7 25.69 M177.7 25.69 C178.6 33.29, 173.53 32.49, 169.13 34.25 M177.7 25.69 C175.81 29.89, 175.51 33.6, 169.13 34.25 M169.13 34.25 C114.24 35.11, 59.64 35.7, 8.56 34.25 M169.13 34.25 C114.89 32.94, 59.79 33.14, 8.56 34.25 M8.56 34.25 C1.82 32.48, 1.58 30.89, 0 25.69 M8.56 34.25 C2.08 33.68, -1.6 32.8, 0 25.69 M0 25.69 C1.08 19.36, 0.31 14.37, 0 8.56 M0 25.69 C-0.46 21.84, -0.57 15.73, 0 8.56 M0 8.56 C-1.73 4.55, 2 1.84, 8.56 0 M0 8.56 C0.92 1.84, 0.58 -1.51, 8.56 0" stroke="#1e1e1e" stroke-width="4" fill="none"></path></g><g stroke-linecap="round" transform="translate(162.9745172477501 75.09217135503695) rotate(0 350.0409492788831 219.55688552228708)"><path d="M109.78 0 M109.78 0 C260.2 -1.78, 412.55 -0.65, 590.3 0 M109.78 0 C216.41 -0.3, 323.2 -0.99, 590.3 0 M590.3 0 C663.86 1.41, 699.66 36.8, 700.08 109.78 M590.3 0 C664.09 -0.16, 699.63 38.81, 700.08 109.78 M700.08 109.78 C700.65 174.06, 699.01 237.58, 700.08 329.34 M700.08 109.78 C700.31 195.74, 700.92 284.21, 700.08 329.34 M700.08 329.34 C698.77 400.75, 661.84 437.8, 590.3 439.11 M700.08 329.34 C700.74 401.86, 664.37 438.59, 590.3 439.11 M590.3 439.11 C428.34 439.77, 267.47 439.92, 109.78 439.11 M590.3 439.11 C470.55 437.95, 350.54 437.69, 109.78 439.11 M109.78 439.11 C38.17 438.6, -0.68 402.02, 0 329.34 M109.78 439.11 C34.99 440.52, 0.54 403.3, 0 329.34 M0 329.34 C-0.9 260.67, -1.79 190.75, 0 109.78 M0 329.34 C0.66 282.37, 0.66 237.59, 0 109.78 M0 109.78 C-0.85 38.43, 37.39 -0.88, 109.78 0 M0 109.78 C-2.27 35.09, 36.72 1.02, 109.78 0" stroke="#1e1e1e" stroke-width="4" fill="none"></path></g><g stroke-linecap="round" transform="translate(425.07052850894115 176.0491167205912) rotate(0 67.61833749201423 102.6070697881836)"><path d="M-1.58 1.7 L134.04 -1.05 L135.94 205.11 L-0.41 204.18" stroke="none" stroke-width="0" fill="#fff"></path><path d="M0.66 1.76 C40.84 -0.5, 82.43 -1.63, 135.13 -1.54 M-0.62 -0.47 C47.85 -1.16, 96.3 -0.38, 134.38 -0.04 M134.57 -1.37 C134.95 71.85, 135.65 142.11, 135.64 204.47 M135 0.07 C136.02 65.98, 135.51 129.88, 135.81 205.7 M135.79 207.06 C86.68 204.98, 33.54 202.06, -0.46 206.26 M136.1 204.85 C89.85 205.37, 44.25 206.47, 0.55 204.5 M-1.55 206.17 C-1.42 144.32, -2.11 84.35, 0.45 0.35 M0.76 205.01 C-0.62 156.1, -1.32 106.72, -0.82 0.61" stroke="#000000" stroke-width="2" fill="none"></path></g><g stroke-linecap="round" transform="translate(410.62924037847415 162.61685020071673) rotate(0 67.61833749201423 102.60706978818371)"><path d="M-1.2 -1.05 L135.94 -0.11 L134.83 204.18 L0.53 205.89" stroke="none" stroke-width="0" fill="#fff"></path><path d="M-1.34 -0.83 C35.34 -3.15, 74.42 -2.73, 136.3 1.87 M0.12 -0.61 C46.89 0.8, 91.28 0.6, 135.69 -0.03 M135.01 1 C135.04 55.87, 134.96 110.18, 135.57 206.3 M134.91 0.63 C133.9 76.86, 135.31 155.87, 135.87 205.8 M136.81 206.22 C105.6 204.55, 78.38 207.51, 0.68 204.19 M135.02 204.89 C89.24 205.5, 45.07 204.01, -0.08 205.96 M-0.05 204.15 C0.85 152.98, 2.04 103.53, -1.06 0.83 M0.23 205.46 C-2.04 127.19, -2.39 49.32, -0.7 0.76" stroke="#000000" stroke-width="2" fill="none"></path></g><g stroke-linecap="round" transform="translate(394.5324151495147 147.1984566254746) rotate(0 67.61833749201423 102.60706978818371)"><path d="M0.71 -0.11 L134.83 -1.03 L135.76 205.89 L1.85 207.16" stroke="none" stroke-width="0" fill="#fff"></path><path d="M-1.93 -1.96 C52.39 -0.98, 106.05 2.43, 136.05 -1.24 M0.83 0.17 C33.38 0.8, 68.91 0.8, 134.94 -0.37 M135.72 0.4 C135.41 45, 135.33 92.58, 136.64 204.73 M134.4 -0.83 C135.13 63.7, 135.19 127.01, 134.42 205.46 M133.8 203.3 C81.71 206.93, 29.78 204.87, 0.71 206.95 M134.6 205.99 C100.09 204.06, 63.76 205.52, -0.51 204.35 M-0.74 204 C0.5 133.04, -1.01 60.98, 1.45 1.53 M-0.47 205.44 C-1.29 148.99, -1.17 92.3, -0.54 -0.47" stroke="#000000" stroke-width="2" fill="none"></path></g><g transform="translate(428.5238224047125 226.84467909701607) rotate(0 33.626930236816406 22.96084731664223)"><text x="33.626930236816406" y="0" font-family="Cascadia, Segoe UI Emoji" font-size="38.26807886107042px" fill="#1e1e1e" text-anchor="middle" style="white-space: pre;" direction="ltr" dominant-baseline="text-before-edge">app</text></g><g stroke-linecap="round"><g transform="translate(419.1373623359382 179.8911442288329) rotate(0 44.01217932344662 -3.0534511710861807)"><path d="M-0.93 0.64 C4.83 -0.17, 18.77 -4.57, 33.33 -4.88 C47.89 -5.18, 77.45 -1.77, 86.45 -1.19 M0.79 -0.08 C6.58 -1.23, 18.28 -6.73, 32.97 -6.74 C47.67 -6.76, 79.84 -1.18, 88.95 -0.17" stroke="#000000" stroke-width="1" fill="none"></path></g></g><mask></mask><g stroke-linecap="round"><g transform="translate(418.9907965192815 308.84380569735913) rotate(0 47.25224258340904 0.5469459905311851)"><path d="M1.12 0.49 C9.58 0.21, 37.96 -1.59, 49.79 -1.05 C61.63 -0.52, 64.84 4.11, 72.12 3.69 C79.4 3.28, 90.26 -2.31, 93.48 -3.56 M0.25 -0.3 C9.18 -0.48, 40.25 -0.63, 52.12 0.19 C63.98 1.01, 64.41 5.05, 71.43 4.62 C78.45 4.2, 90.64 -1.01, 94.25 -2.35" stroke="#000000" stroke-width="1" fill="none"></path></g></g><mask></mask><g stroke-linecap="round"><g transform="translate(412.8984280872728 330.3564901940954) rotate(0 51.9512444210427 -1.0479027469550601)"><path d="M-0.74 -0.56 C2.33 -1.14, 14.16 -2.83, 19.59 -2.97 C25.02 -3.11, 20.54 -2.1, 31.86 -1.41 C43.17 -0.73, 75.36 1.63, 87.49 1.13 C99.62 0.63, 101.94 -3.44, 104.65 -4.44 M1.07 1.76 C3.9 1.28, 13.63 -1.53, 18.72 -1.82 C23.81 -2.11, 20.2 -0.66, 31.61 0.01 C43.03 0.68, 75.22 2.89, 87.2 2.21 C99.17 1.53, 100.5 -2.68, 103.46 -4.07" stroke="#000000" stroke-width="1" fill="none"></path></g></g><mask></mask><g stroke-linecap="round"><g transform="translate(413.4434476067995 208.70815862560084) rotate(0 44.93869269141487 0.9304307585965716)"><path d="M0.14 -0.74 C6.23 -0.8, 21.03 -1.65, 35.81 -0.93 C50.58 -0.22, 79.68 2.81, 88.77 3.56 M-1.25 1.49 C4.84 1.09, 19.98 -3.51, 35.38 -2.95 C50.77 -2.39, 81.88 3.59, 91.12 4.86" stroke="#000000" stroke-width="1" fill="none"></path></g></g><mask></mask><g stroke-linecap="round"><g transform="translate(413.64911594514524 274.6886963723887) rotate(0 44.77636414432459 1.5180773399542886)"><path d="M0.99 0.2 C3.38 0.77, 8.73 2.92, 14.46 2.69 C20.19 2.46, 22.86 -1.25, 35.36 -1.17 C47.85 -1.09, 80.52 2.39, 89.44 3.16 M0.06 -0.74 C2.79 0.09, 10.83 4.06, 16.64 4.21 C22.44 4.35, 22.73 0.15, 34.87 0.12 C47.02 0.1, 80.21 3.42, 89.5 4.03" stroke="#000000" stroke-width="1" fill="none"></path></g></g><mask></mask><g stroke-linecap="round"><g transform="translate(622.2054877242394 344.3032181347421) rotate(0 -29.477998654866497 55.59962096729464)" fill-rule="evenodd"><path d="M-77.62 46.48 C-77.62 46.48, -77.62 46.48, -77.62 46.48 M-77.62 46.48 C-77.62 46.48, -77.62 46.48, -77.62 46.48 M-84.26 63.66 C-77.3 55.88, -69.54 50.87, -65.52 47.01 M-83.56 63.65 C-79.62 59.98, -75.35 55.72, -66.97 45.45 M-82.34 75.64 C-74.49 68.47, -67.54 57.21, -55.49 47.44 M-82.67 76.9 C-74.18 66.74, -66.14 56.79, -56.36 45.02 M-81.52 84.38 C-70.82 79.42, -64.21 69.72, -44.45 44.57 M-79.97 86.46 C-69.8 73.76, -57.2 59.81, -46.01 44.8 M-76.65 97.81 C-63.9 75.95, -47.59 57.31, -34.27 43.86 M-77.91 96.22 C-61.89 77.13, -46.17 58.51, -33.93 46.06 M2.95 2.57 C2.95 2.57, 2.95 2.57, 2.95 2.57 M2.95 2.57 C2.95 2.57, 2.95 2.57, 2.95 2.57 M-74.15 102.69 C-64.16 90.27, -52.06 81.02, -48.31 71.61 M-74.82 104.62 C-64.97 91.79, -56.15 81.18, -47.8 71.91 M-48.68 71.66 C-40.43 64.03, -33.6 58.84, -23.36 44.66 M-48.08 71.82 C-38.03 63.3, -29.73 53.37, -25.28 46.24 M1.31 15.89 C2.84 12.29, 6.74 9.19, 12.61 3.36 M1.77 16.18 C3.57 13.47, 6.52 10.15, 13.03 4.09 M-70.13 110.87 C-60.23 101.03, -54.52 89.76, -45.45 82.54 M-68.6 109.5 C-61.55 102.06, -55.64 94.88, -45.36 83.14 M-34.87 71.53 C-21.78 54.07, -6.1 38.55, 21.64 5.03 M-36.59 71.37 C-13.03 46.86, 8.29 18.94, 20.6 4.6 M-61.73 114.13 C-51.21 103.38, -43.31 94.88, -35.27 81.44 M-60.89 111.68 C-53.41 102.76, -44.34 94.89, -35.55 82.46 M-24.35 73.51 C-8.85 52.8, 6.94 33.84, 24.23 13.04 M-25.13 71.86 C-14.24 60.35, -4.63 47.61, 26.57 13.89 M-52.39 115.71 C-42.33 101.78, -32.43 91.38, -25.37 82.28 M-52.05 115.7 C-41.05 103.28, -30.64 89.2, -24.35 84.12 M-13.75 71.05 C-3.99 57.36, 8.13 42.6, 28.29 25.15 M-14.95 70.59 C-5.11 58.66, 5.2 47.8, 27.16 22.97 M-39.77 114.88 C-29.61 100.55, -22.89 92.72, -11.07 80.4 M-40.13 112.55 C-31.89 104.57, -25.66 95.81, -12.21 80.22 M-3.93 69.53 C4.82 61.15, 13.29 53.12, 29.6 36.32 M-2.67 70.28 C5.94 61.93, 11.98 53.61, 28.13 34.65 M-27.58 110.87 C-19.99 102.23, -15.83 95.07, -7.01 85.42 M-27.46 111.96 C-22.35 105.35, -18.01 98.79, -6.12 86.82 M8.76 67.01 C14.22 60.62, 19.89 56.41, 29.11 45.7 M8.39 68.08 C14.95 61.89, 22.54 53.42, 28.24 48.64 M-74.61 104.12 C-74.61 104.12, -74.61 104.12, -74.61 104.12 M-74.61 104.12 C-74.61 104.12, -74.61 104.12, -74.61 104.12 M-55.57 109.03 C-60.44 106.3, -63.92 102.05, -75.17 93.06 M-55.87 110.35 C-61.31 105.87, -66.53 101.66, -72.96 94.02 M-40.18 112.11 C-53.3 98.94, -65.2 89.67, -75.75 81.74 M-41.17 112.71 C-50.06 103.99, -56.95 97.09, -77.77 79.59 M-32.9 109.93 C-39.13 101.24, -48.83 92.88, -76.6 69.78 M-30.84 109.93 C-41.72 100.16, -52.08 90.45, -79.46 68.15 M-24.48 106.56 C-40.79 90.99, -57.1 76.78, -76.8 56.99 M-23.41 105.81 C-34.49 97.19, -44.74 86.77, -78.55 59.19 M-14 101.99 C-27 94.62, -38.35 82.49, -46.55 77 M-15.95 101.34 C-22.55 96.7, -29.83 91.35, -47.52 74.92 M-48.83 75.41 C-55.21 69.42, -63.51 62.37, -77.1 47.21 M-47.2 76.11 C-54.79 68.43, -64.01 61.39, -78.02 48.41 M-11.39 96.48 C-19.48 89.69, -28.8 80.43, -35.97 75.96 M-11.54 95.82 C-19.29 87.58, -29.17 78.74, -35.18 74.99 M-47.25 64.52 C-56.19 56.55, -65.1 47.96, -74.16 41.99 M-46.28 65.57 C-56.01 57.51, -64.04 48.51, -74.12 41.86 M-9.08 87.91 C-10.85 84.17, -12.53 81.9, -20.19 77.24 M-8.85 86.38 C-11.38 85.34, -13.58 83, -19.46 78.46 M-33.39 65.99 C-43.71 55.02, -54.82 46.47, -65.88 38.75 M-34.23 65.05 C-41.23 57.9, -50.07 51.72, -66.44 37.76 M-21.63 64.6 C-30.8 58.57, -36.68 53.5, -55.7 36.83 M-22.36 64.24 C-31.38 58.45, -40.2 50.38, -55.23 36.15 M-9.03 64.96 C-22.25 55.37, -34.56 44.7, -42.06 35.95 M-11 65.21 C-18.17 57.9, -25.63 50.91, -41.65 37.03 M2.2 64.25 C-8.1 57.39, -17.42 46.82, -27.14 38.87 M1.29 62.72 C-8.98 56.76, -17.18 48.41, -28.02 37.85 M11.08 61.87 C0.23 51.11, -9.32 43.45, -18.32 36.93 M10.3 62.7 C-0.86 51.16, -12.76 41.07, -17.47 37.24 M18.73 58.04 C13.56 51.88, 6.76 48.8, -9.17 32.31 M19.82 58.99 C11.05 50.33, 2.62 43.48, -10.08 33.48 M26.77 53.61 C19.16 45.61, 9.1 40.22, -4.93 28.14 M24.9 53.37 C15.13 43.91, 6.38 35.52, -3.53 26.77 M26.43 45.31 C18.29 36.38, 6.21 28.66, -1.1 18.91 M27.75 44.96 C16.61 35.6, 5.51 24.9, 1.09 21.83 M27.2 35.58 C17.1 24.35, 5.98 17.14, 0.19 12.43 M27.16 34.27 C20.71 27.29, 12.05 20.42, 1.73 10.1 M25.16 23.15 C19.17 14.52, 12.86 10.03, 1.79 -1.7 M25.75 21.97 C16.87 14.99, 9.1 6.53, -0.18 0.3 M24.58 10.16 C20.23 7.75, 17.72 4.42, 13.11 1.37 M24.36 10.16 C21 7, 18.78 5.43, 14.17 0.53" stroke="#f7c31d" stroke-width="1" fill="none"></path><path d="M-1.03 -0.04 C1.55 0.14, 12.38 -0.49, 16.43 1.3 C20.48 3.09, 21.7 5.21, 23.26 10.71 C24.82 16.21, 25.76 26.78, 25.78 34.3 C25.79 41.83, 26.39 50.34, 23.34 55.83 C20.3 61.33, 14.2 65.05, 7.5 67.26 C0.8 69.47, -9 68.67, -16.85 69.11 C-24.7 69.56, -34.24 69.75, -39.62 69.92 C-45 70.09, -47.31 69.8, -49.13 70.13 C-50.95 70.46, -50.21 70.76, -50.53 71.91 C-50.85 73.06, -51.92 75.77, -51.04 77.04 C-50.15 78.3, -51.6 78.83, -45.21 79.49 C-38.83 80.14, -18.44 78.93, -12.71 80.96 C-6.98 82.99, -10.75 88.07, -10.82 91.68 C-10.89 95.29, -10.2 99.55, -13.13 102.61 C-16.06 105.67, -21.15 108.56, -28.39 110.01 C-35.64 111.47, -49.03 112.22, -56.61 111.32 C-64.19 110.43, -69.73 107.61, -73.87 104.63 C-78.01 101.65, -80.17 98.39, -81.46 93.46 C-82.74 88.52, -81.46 81.63, -81.57 75.03 C-81.68 68.42, -83.77 59.29, -82.13 53.83 C-80.48 48.37, -76.99 44.51, -71.69 42.25 C-66.39 39.98, -57.2 40.25, -50.32 40.25 C-43.45 40.24, -36.24 42.8, -30.44 42.21 C-24.64 41.63, -20.4 39.86, -15.54 36.76 C-10.69 33.66, -3.78 29.84, -1.31 23.63 C1.16 17.42, -0.8 3.39, -0.72 -0.5 M0.64 -1.11 C3.01 -0.74, 12.15 0.66, 15.77 2.81 C19.38 4.96, 20.68 6.38, 22.31 11.79 C23.94 17.21, 25.55 27.89, 25.54 35.33 C25.52 42.76, 24.97 51.22, 22.23 56.39 C19.48 61.57, 15.5 64.45, 9.05 66.36 C2.6 68.28, -8.25 67.26, -16.47 67.88 C-24.69 68.5, -35.12 69.93, -40.26 70.08 C-45.41 70.23, -45.69 68.49, -47.31 68.79 C-48.93 69.1, -49.33 70.46, -50 71.9 C-50.66 73.34, -51.94 76.18, -51.31 77.43 C-50.68 78.69, -52.77 78.89, -46.22 79.41 C-39.68 79.92, -18.33 78.51, -12.03 80.55 C-5.74 82.6, -7.8 88, -8.44 91.66 C-9.08 95.33, -12.17 99.36, -15.88 102.55 C-19.59 105.74, -24.21 109.25, -30.7 110.81 C-37.19 112.38, -47.45 112.86, -54.81 111.93 C-62.16 110.99, -70.71 108.21, -74.83 105.21 C-78.95 102.21, -77.95 98.69, -79.51 93.93 C-81.07 89.18, -83.56 83.6, -84.2 76.68 C-84.84 69.77, -85.41 58.32, -83.35 52.44 C-81.28 46.56, -77.36 43.02, -71.81 41.38 C-66.25 39.74, -57.16 42.52, -50 42.59 C-42.84 42.66, -34.82 42.81, -28.86 41.8 C-22.89 40.79, -18.44 39.56, -14.21 36.51 C-9.98 33.45, -5.91 29.74, -3.48 23.46 C-1.05 17.17, -0.23 2.9, 0.37 -1.2" stroke="#f7c31d" stroke-width="2" fill="none"></path></g></g><mask></mask><g stroke-linecap="round"><g stroke-opacity="0.7" fill-opacity="0.7" transform="translate(529.8567567522946 417.4957399484879) rotate(0 25.573648143841183 -57.22771934630532)" fill-rule="evenodd"><path d="M0.93 1.63 L-15.28 -0.53 L-22.86 -3.67 L-29.25 -10.82 L-33.28 -21.09 L-34.32 -33.25 L-33 -47.64 L-27.81 -57.07 L-23.18 -66.05 L-13.79 -69.79 L-0.32 -70.07 L49.64 -72.87 L49.17 -82.63 L15.74 -82.1 L7.37 -83.74 L6.58 -87.44 L7.28 -98.58 L6.87 -107.71 L14.04 -111.13 L24.64 -113.93 L51.6 -115.77 L64.3 -112.89 L73.01 -108.14 L77.4 -103.73 L83.01 -98.66 L82.54 -87.75 L83.36 -66.28 L80.92 -57.91 L75.28 -47.27 L69.19 -42.62 L63.58 -41.71 L25.1 -43.5 L16.05 -39.89 L8.42 -37.63 L2.27 -28.21 L2.17 -20.99 L1.28 0.62" stroke="none" stroke-width="0" fill="#3276af" fill-rule="evenodd"></path><path d="M0.54 -0.04 C-2.18 -0.12, -12.41 1.39, -17.35 -0.52 C-22.29 -2.43, -26.66 -5.8, -29.11 -11.49 C-31.57 -17.17, -32.21 -27.1, -32.07 -34.63 C-31.92 -42.17, -31.12 -50.76, -28.25 -56.69 C-25.37 -62.63, -21.57 -67.9, -14.81 -70.25 C-8.06 -72.6, 3.46 -70.72, 12.3 -70.8 C21.14 -70.88, 32.72 -70.9, 38.24 -70.73 C43.75 -70.56, 43.46 -69.47, 45.38 -69.76 C47.29 -70.05, 48.72 -70.82, 49.71 -72.47 C50.7 -74.11, 51.94 -78.13, 51.33 -79.64 C50.71 -81.15, 53.15 -80.98, 46.03 -81.53 C38.92 -82.08, 15.2 -81.54, 8.64 -82.94 C2.09 -84.35, 6.61 -86, 6.69 -89.97 C6.78 -93.94, 6.23 -102.65, 9.14 -106.74 C12.04 -110.84, 16.73 -113.19, 24.13 -114.54 C31.52 -115.9, 45.47 -115.98, 53.5 -114.89 C61.52 -113.79, 67.42 -110.91, 72.25 -107.98 C77.08 -105.05, 80.87 -102.27, 82.5 -97.31 C84.12 -92.34, 82.64 -85.19, 82.01 -78.19 C81.38 -71.18, 80.76 -61.12, 78.72 -55.27 C76.67 -49.42, 74.88 -45.46, 69.76 -43.1 C64.65 -40.74, 55.35 -41.09, 48.03 -41.12 C40.7 -41.15, 32 -44.02, 25.8 -43.28 C19.6 -42.53, 15.21 -40.2, 10.84 -36.65 C6.48 -33.11, 1.54 -28.17, -0.4 -22.01 C-2.34 -15.85, -0.92 -3.25, -0.82 0.3 M-0.63 -1.11 C-3.45 -1.02, -14.14 2.31, -18.48 0.79 C-22.83 -0.74, -24.54 -4.56, -26.7 -10.25 C-28.87 -15.94, -30.99 -25.71, -31.47 -33.36 C-31.95 -41.01, -32.54 -49.86, -29.58 -56.16 C-26.61 -62.46, -20.82 -68.59, -13.67 -71.17 C-6.51 -73.76, 4.88 -71.67, 13.33 -71.65 C21.78 -71.62, 31.41 -71.18, 37.04 -71.02 C42.67 -70.86, 44.99 -70.9, 47.13 -70.7 C49.27 -70.5, 49.06 -67.97, 49.88 -69.85 C50.7 -71.72, 52.85 -80.03, 52.05 -81.98 C51.25 -83.92, 52.36 -81.26, 45.07 -81.53 C37.77 -81.8, 14.71 -82.24, 8.3 -83.59 C1.88 -84.95, 6.32 -86.25, 6.57 -89.67 C6.82 -93.09, 6.79 -100.13, 9.78 -104.09 C12.78 -108.06, 17.42 -111.8, 24.56 -113.44 C31.69 -115.07, 44.28 -114.93, 52.57 -113.92 C60.86 -112.91, 69.45 -110.16, 74.3 -107.39 C79.15 -104.61, 80.31 -102.42, 81.66 -97.28 C83 -92.13, 82.49 -83.4, 82.36 -76.51 C82.23 -69.63, 82.88 -61.85, 80.89 -55.97 C78.89 -50.09, 75.88 -43.65, 70.39 -41.24 C64.91 -38.84, 55.17 -41.55, 47.95 -41.52 C40.74 -41.48, 33.58 -41.91, 27.11 -41.05 C20.65 -40.2, 13.63 -39.49, 9.17 -36.38 C4.72 -33.27, 1.87 -28.48, 0.38 -22.42 C-1.11 -16.35, -0.02 -3.87, 0.21 0.02" stroke="#3276af" stroke-width="2" fill="none"></path></g></g><mask></mask><g stroke-linecap="round" transform="translate(563.3102985790715 310.79632800386435) rotate(0 7.280369251607453 7.761114889096461)"><path d="M8.46 -0.86 C10.01 -0.8, 12.16 0.43, 13.32 1.71 C14.48 2.99, 15.53 4.94, 15.4 6.8 C15.27 8.65, 13.64 11.43, 12.55 12.82 C11.45 14.21, 10.35 14.78, 8.83 15.13 C7.31 15.48, 4.75 15.5, 3.43 14.92 C2.11 14.35, 1.26 13.36, 0.9 11.68 C0.55 10, 1.02 6.67, 1.3 4.85 C1.58 3.03, 1.32 1.65, 2.59 0.78 C3.85 -0.09, 7.55 -0.48, 8.86 -0.39 C10.18 -0.29, 10.39 1.01, 10.49 1.36 M3.85 -1.01 C4.88 -1.57, 7.51 -0.45, 9.08 0.46 C10.65 1.37, 12.54 3, 13.26 4.44 C13.99 5.88, 13.66 7.54, 13.43 9.09 C13.21 10.64, 12.95 12.63, 11.89 13.73 C10.83 14.83, 8.77 15.79, 7.06 15.71 C5.35 15.63, 2.61 14.61, 1.63 13.23 C0.66 11.85, 1.31 9.01, 1.23 7.43 C1.14 5.85, 0.25 4.87, 1.12 3.75 C1.98 2.62, 5.59 1.41, 6.44 0.65 C7.29 -0.1, 6.43 -0.93, 6.22 -0.78" stroke="none" stroke-width="0" fill="#ffffff"></path><path d="M4.81 0.8 C6.21 -0.05, 8.28 -0.62, 9.75 -0.04 C11.22 0.53, 12.71 2.81, 13.63 4.25 C14.56 5.68, 15.51 7.08, 15.28 8.56 C15.04 10.04, 13.41 12.15, 12.24 13.15 C11.07 14.15, 9.98 14.34, 8.25 14.57 C6.52 14.8, 3.13 15.27, 1.87 14.52 C0.62 13.78, 0.77 11.98, 0.71 10.09 C0.64 8.21, 0.72 4.68, 1.51 3.21 C2.3 1.74, 4.59 1.66, 5.45 1.26 C6.3 0.86, 6.76 1, 6.62 0.81 M5.68 0.58 C7.23 0.13, 11.22 0, 12.6 0.74 C13.97 1.49, 13.87 3.18, 13.94 5.06 C14 6.94, 13.43 10.59, 13 12.01 C12.57 13.44, 12.61 12.89, 11.36 13.63 C10.1 14.36, 7.24 16.86, 5.46 16.43 C3.68 16.01, 1.43 12.61, 0.66 11.08 C-0.11 9.55, 0.74 8.8, 0.81 7.25 C0.89 5.7, 0.33 2.94, 1.1 1.8 C1.87 0.66, 4.48 0.84, 5.43 0.43 C6.37 0.01, 6.46 -0.96, 6.76 -0.69" stroke="transparent" stroke-width="2" fill="none"></path></g><g stroke-linecap="round" transform="translate(568.2057821491662 433.075756637013) rotate(0 7.280369251607453 7.761114889096461)"><path d="M6.06 -0.52 C7.57 -0.97, 9.97 -0.77, 11.19 0.12 C12.4 1, 12.83 3.24, 13.34 4.81 C13.86 6.38, 14.66 7.95, 14.26 9.54 C13.87 11.13, 12.17 13.22, 10.96 14.37 C9.75 15.51, 8.32 16.71, 7.01 16.42 C5.7 16.14, 4.41 14.07, 3.12 12.67 C1.83 11.26, -0.36 9.68, -0.73 8.01 C-1.1 6.34, -0.39 3.89, 0.89 2.65 C2.17 1.4, 5.7 0.84, 6.96 0.54 C8.22 0.24, 8.58 0.69, 8.45 0.86 M5.87 -0.12 C7.47 -0.04, 9.9 0.84, 11.16 1.79 C12.41 2.75, 12.95 4.08, 13.41 5.62 C13.88 7.17, 14.49 9.48, 13.97 11.06 C13.44 12.63, 11.85 14.44, 10.27 15.09 C8.68 15.73, 5.78 15.68, 4.46 14.94 C3.15 14.21, 3.1 12, 2.36 10.68 C1.62 9.36, -0.19 8.39, 0.02 7.01 C0.23 5.63, 2.31 3.79, 3.63 2.41 C4.95 1.03, 7.42 -0.97, 7.95 -1.27 C8.47 -1.57, 6.93 0.33, 6.76 0.63" stroke="none" stroke-width="0" fill="#ffffff"></path><path d="M9.52 -0.12 C10.96 0.29, 12.54 2.63, 13.5 4.03 C14.47 5.44, 15.49 6.82, 15.31 8.31 C15.12 9.8, 13.55 11.93, 12.41 12.98 C11.28 14.02, 10.21 14.28, 8.49 14.56 C6.76 14.84, 3.35 15.38, 2.06 14.68 C0.78 13.97, 0.87 12.21, 0.76 10.34 C0.65 8.47, 0.76 4.9, 1.4 3.44 C2.04 1.98, 3.05 1.99, 4.6 1.59 C6.15 1.19, 9.85 1.3, 10.7 1.03 C11.56 0.76, 9.96 -0.13, 9.74 -0.01 M9.82 -0.43 C11.37 -0.43, 11.88 0.71, 12.51 2.26 C13.14 3.81, 13.41 7.33, 13.6 8.89 C13.8 10.45, 14.56 10.38, 13.7 11.65 C12.84 12.92, 10.25 16.27, 8.45 16.52 C6.65 16.78, 4.1 14.22, 2.9 13.2 C1.7 12.18, 1.81 11.85, 1.25 10.4 C0.69 8.96, -0.69 6.01, -0.47 4.51 C-0.24 3.02, 1.05 2.32, 2.59 1.43 C4.14 0.55, 7.71 -0.79, 8.81 -0.78 C9.91 -0.77, 9.04 1.27, 9.18 1.48" stroke="transparent" stroke-width="2" fill="none"></path></g><g stroke-linecap="round" transform="translate(341.2430235740194 120.26885753172064) rotate(0 62.91831497582871 43.18484346068249)"><path d="M125.84 43.18 C125.84 45.06, 125.66 46.96, 125.3 48.82 C124.94 50.68, 124.4 52.55, 123.69 54.36 C122.98 56.18, 122.09 57.98, 121.05 59.71 C120 61.45, 118.78 63.15, 117.41 64.78 C116.04 66.4, 114.5 67.98, 112.83 69.47 C111.17 70.96, 109.34 72.39, 107.41 73.72 C105.47 75.05, 103.39 76.3, 101.22 77.45 C99.05 78.59, 96.75 79.64, 94.38 80.58 C92.01 81.52, 89.53 82.36, 87 83.08 C84.47 83.8, 81.85 84.41, 79.2 84.9 C76.56 85.38, 73.84 85.75, 71.13 86 C68.42 86.25, 65.66 86.37, 62.92 86.37 C60.18 86.37, 57.42 86.25, 54.71 86 C51.99 85.75, 49.28 85.38, 46.63 84.9 C43.99 84.41, 41.37 83.8, 38.84 83.08 C36.31 82.36, 33.83 81.52, 31.46 80.58 C29.09 79.64, 26.79 78.59, 24.62 77.45 C22.44 76.3, 20.36 75.05, 18.43 73.72 C16.49 72.39, 14.67 70.96, 13 69.47 C11.34 67.98, 9.8 66.4, 8.43 64.78 C7.06 63.15, 5.84 61.45, 4.79 59.71 C3.74 57.98, 2.85 56.18, 2.14 54.36 C1.44 52.55, 0.9 50.68, 0.54 48.82 C0.18 46.96, 0 45.06, 0 43.18 C0 41.31, 0.18 39.41, 0.54 37.55 C0.9 35.69, 1.44 33.82, 2.14 32.01 C2.85 30.19, 3.74 28.39, 4.79 26.66 C5.84 24.92, 7.06 23.22, 8.43 21.59 C9.8 19.97, 11.34 18.39, 13 16.9 C14.67 15.4, 16.49 13.98, 18.43 12.65 C20.36 11.32, 22.44 10.07, 24.62 8.92 C26.79 7.78, 29.09 6.73, 31.46 5.79 C33.83 4.85, 36.31 4.01, 38.84 3.29 C41.37 2.57, 43.99 1.96, 46.63 1.47 C49.28 0.99, 51.99 0.61, 54.71 0.37 C57.42 0.12, 60.18 0, 62.92 0 C65.66 0, 68.42 0.12, 71.13 0.37 C73.84 0.61, 76.56 0.99, 79.2 1.47 C81.85 1.96, 84.47 2.57, 87 3.29 C89.53 4.01, 92.01 4.85, 94.38 5.79 C96.75 6.73, 99.05 7.78, 101.22 8.92 C103.39 10.07, 105.47 11.32, 107.41 12.65 C109.34 13.98, 111.17 15.4, 112.83 16.9 C114.5 18.39, 116.04 19.97, 117.41 21.59 C118.78 23.22, 120 24.92, 121.05 26.66 C122.09 28.39, 122.98 30.19, 123.69 32.01 C124.4 33.82, 124.94 35.69, 125.3 37.55 C125.66 39.41, 125.75 42.25, 125.84 43.18 C125.93 44.12, 125.93 42.25, 125.84 43.18" stroke="none" stroke-width="0" fill="#b2b4b8"></path><path d="M125.84 43.18 C125.84 45.06, 125.66 46.96, 125.3 48.82 C124.94 50.68, 124.4 52.55, 123.69 54.36 C122.98 56.18, 122.09 57.98, 121.05 59.71 C120 61.45, 118.78 63.15, 117.41 64.78 C116.04 66.4, 114.5 67.98, 112.83 69.47 C111.17 70.96, 109.34 72.39, 107.41 73.72 C105.47 75.05, 103.39 76.3, 101.22 77.45 C99.05 78.59, 96.75 79.64, 94.38 80.58 C92.01 81.52, 89.53 82.36, 87 83.08 C84.47 83.8, 81.85 84.41, 79.2 84.9 C76.56 85.38, 73.84 85.75, 71.13 86 C68.42 86.25, 65.66 86.37, 62.92 86.37 C60.18 86.37, 57.42 86.25, 54.71 86 C51.99 85.75, 49.28 85.38, 46.63 84.9 C43.99 84.41, 41.37 83.8, 38.84 83.08 C36.31 82.36, 33.83 81.52, 31.46 80.58 C29.09 79.64, 26.79 78.59, 24.62 77.45 C22.44 76.3, 20.36 75.05, 18.43 73.72 C16.49 72.39, 14.67 70.96, 13 69.47 C11.34 67.98, 9.8 66.4, 8.43 64.78 C7.06 63.15, 5.84 61.45, 4.79 59.71 C3.74 57.98, 2.85 56.18, 2.14 54.36 C1.44 52.55, 0.9 50.68, 0.54 48.82 C0.18 46.96, 0 45.06, 0 43.18 C0 41.31, 0.18 39.41, 0.54 37.55 C0.9 35.69, 1.44 33.82, 2.14 32.01 C2.85 30.19, 3.74 28.39, 4.79 26.66 C5.84 24.92, 7.06 23.22, 8.43 21.59 C9.8 19.97, 11.34 18.39, 13 16.9 C14.67 15.4, 16.49 13.98, 18.43 12.65 C20.36 11.32, 22.44 10.07, 24.62 8.92 C26.79 7.78, 29.09 6.73, 31.46 5.79 C33.83 4.85, 36.31 4.01, 38.84 3.29 C41.37 2.57, 43.99 1.96, 46.63 1.47 C49.28 0.99, 51.99 0.61, 54.71 0.37 C57.42 0.12, 60.18 0, 62.92 0 C65.66 0, 68.42 0.12, 71.13 0.37 C73.84 0.61, 76.56 0.99, 79.2 1.47 C81.85 1.96, 84.47 2.57, 87 3.29 C89.53 4.01, 92.01 4.85, 94.38 5.79 C96.75 6.73, 99.05 7.78, 101.22 8.92 C103.39 10.07, 105.47 11.32, 107.41 12.65 C109.34 13.98, 111.17 15.4, 112.83 16.9 C114.5 18.39, 116.04 19.97, 117.41 21.59 C118.78 23.22, 120 24.92, 121.05 26.66 C122.09 28.39, 122.98 30.19, 123.69 32.01 C124.4 33.82, 124.94 35.69, 125.3 37.55 C125.66 39.41, 125.75 42.25, 125.84 43.18 C125.93 44.12, 125.93 42.25, 125.84 43.18" stroke="#fff" stroke-width="1" fill="none"></path></g><g stroke-linecap="round" transform="translate(347.53485507160076 132.28053584528743) rotate(0 46.61675155027319 32.031142169512805)"><path d="M93.23 32.03 C93.23 33.55, 93.07 35.09, 92.76 36.59 C92.44 38.09, 91.97 39.6, 91.35 41.06 C90.72 42.51, 89.94 43.96, 89.02 45.34 C88.1 46.72, 87.03 48.07, 85.83 49.35 C84.64 50.63, 83.3 51.86, 81.85 53.01 C80.4 54.16, 78.82 55.24, 77.14 56.24 C75.47 57.23, 73.68 58.16, 71.82 58.98 C69.96 59.8, 67.99 60.54, 65.98 61.17 C63.97 61.8, 61.87 62.34, 59.75 62.76 C57.63 63.19, 55.44 63.52, 53.25 63.74 C51.06 63.95, 48.83 64.06, 46.62 64.06 C44.41 64.06, 42.17 63.95, 39.98 63.74 C37.79 63.52, 35.61 63.19, 33.48 62.76 C31.36 62.34, 29.26 61.8, 27.25 61.17 C25.24 60.54, 23.27 59.8, 21.41 58.98 C19.55 58.16, 17.76 57.23, 16.09 56.24 C14.42 55.24, 12.83 54.16, 11.39 53.01 C9.94 51.86, 8.6 50.63, 7.4 49.35 C6.2 48.07, 5.13 46.72, 4.21 45.34 C3.29 43.96, 2.51 42.51, 1.89 41.06 C1.27 39.6, 0.79 38.09, 0.47 36.59 C0.16 35.09, 0 33.55, 0 32.03 C0 30.51, 0.16 28.98, 0.47 27.47 C0.79 25.97, 1.27 24.46, 1.89 23.01 C2.51 21.55, 3.29 20.11, 4.21 18.72 C5.13 17.34, 6.2 15.99, 7.4 14.71 C8.6 13.44, 9.94 12.2, 11.39 11.06 C12.83 9.91, 14.42 8.82, 16.09 7.82 C17.76 6.83, 19.55 5.91, 21.41 5.08 C23.27 4.26, 25.24 3.53, 27.25 2.89 C29.26 2.26, 31.36 1.73, 33.48 1.3 C35.61 0.87, 37.79 0.54, 39.98 0.33 C42.17 0.11, 44.41 0, 46.62 0 C48.83 0, 51.06 0.11, 53.25 0.33 C55.44 0.54, 57.63 0.87, 59.75 1.3 C61.87 1.73, 63.97 2.26, 65.98 2.89 C67.99 3.53, 69.96 4.26, 71.82 5.08 C73.68 5.91, 75.47 6.83, 77.14 7.82 C78.82 8.82, 80.4 9.91, 81.85 11.06 C83.3 12.2, 84.64 13.44, 85.83 14.71 C87.03 15.99, 88.1 17.34, 89.02 18.72 C89.94 20.11, 90.72 21.55, 91.35 23.01 C91.97 24.46, 92.44 25.97, 92.76 27.47 C93.07 28.98, 93.15 31.27, 93.23 32.03 C93.31 32.79, 93.31 31.27, 93.23 32.03" stroke="none" stroke-width="0" fill="#fff"></path><path d="M93.23 32.03 C93.23 33.55, 93.07 35.09, 92.76 36.59 C92.44 38.09, 91.97 39.6, 91.35 41.06 C90.72 42.51, 89.94 43.96, 89.02 45.34 C88.1 46.72, 87.03 48.07, 85.83 49.35 C84.64 50.63, 83.3 51.86, 81.85 53.01 C80.4 54.16, 78.82 55.24, 77.14 56.24 C75.47 57.23, 73.68 58.16, 71.82 58.98 C69.96 59.8, 67.99 60.54, 65.98 61.17 C63.97 61.8, 61.87 62.34, 59.75 62.76 C57.63 63.19, 55.44 63.52, 53.25 63.74 C51.06 63.95, 48.83 64.06, 46.62 64.06 C44.41 64.06, 42.17 63.95, 39.98 63.74 C37.79 63.52, 35.61 63.19, 33.48 62.76 C31.36 62.34, 29.26 61.8, 27.25 61.17 C25.24 60.54, 23.27 59.8, 21.41 58.98 C19.55 58.16, 17.76 57.23, 16.09 56.24 C14.42 55.24, 12.83 54.16, 11.39 53.01 C9.94 51.86, 8.6 50.63, 7.4 49.35 C6.2 48.07, 5.13 46.72, 4.21 45.34 C3.29 43.96, 2.51 42.51, 1.89 41.06 C1.27 39.6, 0.79 38.09, 0.47 36.59 C0.16 35.09, 0 33.55, 0 32.03 C0 30.51, 0.16 28.98, 0.47 27.47 C0.79 25.97, 1.27 24.46, 1.89 23.01 C2.51 21.55, 3.29 20.11, 4.21 18.72 C5.13 17.34, 6.2 15.99, 7.4 14.71 C8.6 13.44, 9.94 12.2, 11.39 11.06 C12.83 9.91, 14.42 8.82, 16.09 7.82 C17.76 6.83, 19.55 5.91, 21.41 5.08 C23.27 4.26, 25.24 3.53, 27.25 2.89 C29.26 2.26, 31.36 1.73, 33.48 1.3 C35.61 0.87, 37.79 0.54, 39.98 0.33 C42.17 0.11, 44.41 0, 46.62 0 C48.83 0, 51.06 0.11, 53.25 0.33 C55.44 0.54, 57.63 0.87, 59.75 1.3 C61.87 1.73, 63.97 2.26, 65.98 2.89 C67.99 3.53, 69.96 4.26, 71.82 5.08 C73.68 5.91, 75.47 6.83, 77.14 7.82 C78.82 8.82, 80.4 9.91, 81.85 11.06 C83.3 12.2, 84.64 13.44, 85.83 14.71 C87.03 15.99, 88.1 17.34, 89.02 18.72 C89.94 20.11, 90.72 21.55, 91.35 23.01 C91.97 24.46, 92.44 25.97, 92.76 27.47 C93.07 28.98, 93.15 31.27, 93.23 32.03 C93.31 32.79, 93.31 31.27, 93.23 32.03" stroke="#fff" stroke-width="1" fill="none"></path></g><g transform="translate(348.1068397532008 124.8447349845078) rotate(0 37.750988985497315 60.34438390863579)"><text x="37.75098898549728" y="0" font-family="Helvetica, Segoe UI Emoji" font-size="104.67319673251507px" fill="#2066b8" text-anchor="middle" style="white-space: pre;" direction="ltr" dominant-baseline="text-before-edge">R</text></g></svg>