<svg id="Logo" xmlns="http://www.w3.org/2000/svg" viewBox="0 0 679 176.26"><defs><style>.cls-1{fill:#447099;}.cls-2{fill:#ed642f;}.cls-3{fill:#404041;}</style></defs><polygon class="cls-1" points="42.88 104.74 50.8 108.31 87.43 92.72 79.28 89.25 42.88 104.74"/><polygon class="cls-1" points="51.39 70.44 43.39 73.97 79.28 89.25 87.43 85.78 51.39 70.44"/><polygon class="cls-1" points="139.52 70.55 131.52 67.01 95.33 51.02 87.43 47.53 0 8.9 0 55.5 35.34 70.55 43.35 67.01 6.38 51.28 6.38 18.71 79.53 51.02 87.43 54.52 123.47 70.44 131.47 73.97 156.98 85.24 156.98 93.6 131.86 104.69 123.86 108.23 86.87 124.57 79.03 128.04 6.38 160.13 6.38 127.22 42.81 111.71 34.89 108.15 0 123 0 169.93 86.85 131.56 94.69 128.1 131.91 111.65 139.91 108.12 163.36 97.76 163.36 81.08 139.52 70.55"/><polygon class="cls-2" points="95.58 89.25 131.47 73.97 123.47 70.44 87.43 85.78 79.28 89.25 87.43 92.72 123.86 108.23 131.86 104.69 95.58 89.25"/><polygon class="cls-2" points="168.48 127.22 168.48 161.35 94.69 128.09 86.85 131.56 174.87 171.23 174.87 123 139.91 108.12 131.91 111.65 168.48 127.22"/><polygon class="cls-2" points="174.87 8.91 87.43 47.53 95.33 51.02 168.48 18.71 168.48 51.28 131.52 67.01 139.52 70.55 174.87 55.5 174.87 8.91"/><polygon class="cls-2" points="42.88 104.74 17.89 93.6 17.89 85.24 43.39 73.97 51.39 70.44 87.43 54.51 79.53 51.02 43.35 67.01 35.34 70.55 11.5 81.08 11.5 97.76 34.89 108.14 42.81 111.72 79.03 128.04 86.87 124.57 50.8 108.31 42.88 104.74"/><polygon class="cls-1" points="42.88 104.74 50.8 108.31 87.43 92.72 79.28 89.25 42.88 104.74"/><polygon class="cls-1" points="51.39 70.44 43.39 73.97 79.28 89.25 87.43 85.78 51.39 70.44"/><polygon class="cls-1" points="139.52 70.55 131.52 67.01 95.33 51.02 87.43 47.53 0 8.9 0 55.5 35.34 70.55 43.35 67.01 6.38 51.28 6.38 18.71 79.53 51.02 87.43 54.52 123.47 70.44 131.47 73.97 156.98 85.24 156.98 93.6 131.86 104.69 123.86 108.23 86.87 124.57 79.03 128.04 6.38 160.13 6.38 127.22 42.81 111.71 34.89 108.15 0 123 0 169.93 86.85 131.56 94.69 128.1 131.91 111.65 139.91 108.12 163.36 97.76 163.36 81.08 139.52 70.55"/><polygon class="cls-2" points="95.58 89.25 131.47 73.97 123.47 70.44 87.43 85.78 79.28 89.25 87.43 92.72 123.86 108.23 131.86 104.69 95.58 89.25"/><polygon class="cls-2" points="168.48 127.22 168.48 161.35 94.69 128.09 86.85 131.56 174.87 171.23 174.87 123 139.91 108.12 131.91 111.65 168.48 127.22"/><polygon class="cls-2" points="174.87 8.91 87.43 47.53 95.33 51.02 168.48 18.71 168.48 51.28 131.52 67.01 139.52 70.55 174.87 55.5 174.87 8.91"/><polygon class="cls-2" points="42.88 104.74 17.89 93.6 17.89 85.24 43.39 73.97 51.39 70.44 87.43 54.51 79.53 51.02 43.35 67.01 35.34 70.55 11.5 81.08 11.5 97.76 34.89 108.14 42.81 111.72 79.03 128.04 86.87 124.57 50.8 108.31 42.88 104.74"/><path class="cls-3" d="M375,39.66c31,0,52.79,21.08,52.79,50.36,0,29.1-21.82,50.18-52.79,50.18-30,0-52.42-21.08-52.42-50.18,0-29.28,21.46-50.36,52.42-50.36M375,115c14.74,0,24.81-9.33,24.81-25,0-16-11.19-25.18-24.81-25.18S350.58,74,350.58,90c0,14.18,9.89,25,24.44,25"/><path class="cls-3" d="M546.79,0c8.76,0,15.1,6.28,15.1,14.57,0,8.71-6.34,15-15.1,15-9.52,0-15.3-6.27-15.3-15,0-8.29,6.34-14.57,15.3-14.57M533.17,41.49h27.05v97H533.17Z"/><path class="cls-3" d="M572.43,41.49H590.9V18.92H618V41.49h29.22V66.67H618V98.2c0,11.75,2.61,16.23,9.88,16.23,6.35,0,11.38-2.24,16.61-6.34l13.77,17.08c-6.71,7.08-19.74,14.44-33,14.44-20.33,0-34.32-11-34.32-33.39V66.67H572.43Z"/><path class="cls-3" d="M664.14,51.58H662V43.24h-2.75V41.45h7.65v1.79h-2.75Z"/><path class="cls-3" d="M672.46,51.58,670,43.63H670c.09,1.62.14,2.7.14,3.24v4.71h-1.93V41.45h2.93l2.4,7.75h0l2.54-7.75H679V51.58h-2v-4.8c0-.22,0-.48,0-.78s0-1.08.09-2.36H677l-2.62,7.94Z"/><path class="cls-3" d="M519.17,53.35c-6.62-6.36-20.38-14.58-39.9-14.58-27.81,0-44.18,11.51-44.18,30.36,0,29.27,46.62,30,57.63,36.45,2,1.11,3.17,2.66,2.45,4.91-2.07,6.49-28.2,9.66-47.47-9L432,120.25c7,9.27,22.44,20.15,47.48,20.15,23.27,0,43.39-9.43,43.39-30.92,0-19.27-18-27-33.91-31.56-4.54-1.25-8.93-2.28-12.74-3.3-6.28-1.61-14.72-3.42-13.37-8.12,2.45-8.54,30.5-3.19,40.32,5.79Z"/><path class="cls-3" d="M217.29,41.72h27.09v5c5.05-4.67,14.21-7.1,21.68-7.1,29.53,0,47.84,20.37,47.84,49.15,0,29.52-19.06,51.57-48.59,51.57-9.34,0-17.94-1.49-20.93-4.86v40.74H217.29Zm27.09,34.19v31c3,4.49,9.53,8.22,17.2,8.22,15.13,0,24.29-9.53,24.29-24.29,0-17.19-8.6-26-22.8-26a20.26,20.26,0,0,0-18.69,11"/></svg>