<svg version="1.1" xmlns="http://www.w3.org/2000/svg" viewBox="0 0 822.2540058441159 733.0153215533602" width="1644.5080116882318" height="1466.0306431067204">
  <!-- svg-source:excalidraw -->
  
  <defs>
    <style class="style-fonts">
      @font-face {
        font-family: "Virgil";
        src: url("https://excalidraw.com/Virgil.woff2");
      }
      @font-face {
        font-family: "Cascadia";
        src: url("https://excalidraw.com/Cascadia.woff2");
      }
    </style>
  </defs>
  <g stroke-linecap="round"><g transform="translate(410.6148386931204 9.966149422526314) rotate(0 -0.8130139581346612 356.5415113541538)"><path d="M-0.37 0.03 C-1.56 155.03, -1.85 310.28, -0.73 712.95 M0.04 0.33 C-2.27 267.39, -2.73 535.67, 0.22 713.05" stroke="#000000" stroke-width="4" fill="none"></path></g><g transform="translate(410.6148386931204 9.966149422526314) rotate(0 -0.8130139581346612 356.5415113541538)"><path d="M1.11 0.4 L4.15 13.82 L-5.16 14.11 L-1.25 1.91" stroke="none" stroke-width="0" fill="#000000" fill-rule="evenodd"></path><path d="M-1.06 0.1 C1.66 2.16, 2.5 4.7, 4.56 13.88 M-0.29 0.65 C2.37 4.6, 3.88 10.81, 6.35 14.07 M6.93 13.54 C1.47 14.5, -3.19 13.19, -7.85 14.7 M5.31 13.46 C3.01 13.91, -0.81 13.15, -7.15 13.29 M-7.6 14.68 C-3.68 9.24, -3.28 6.6, -0.38 1.38 M-7.19 14.29 C-5.56 10.28, -3.08 5.72, -1 0.53 M-0.37 0.03 C-0.37 0.03, -0.37 0.03, -0.37 0.03 M-0.37 0.03 C-0.37 0.03, -0.37 0.03, -0.37 0.03" stroke="#000000" stroke-width="4" fill="none"></path></g><g transform="translate(410.6148386931204 9.966149422526314) rotate(0 -0.8130139581346612 356.5415113541538)"><path d="M1.7 713.41 L-8.04 699.69 L8 699.89 L-0.66 714.92" stroke="none" stroke-width="0" fill="#000000" fill-rule="evenodd"></path><path d="M-0.47 713.11 C-0.35 709.22, -2.3 705.84, -7.63 699.76 M0.3 713.66 C-1.6 707.36, -4.89 703.38, -5.84 699.94 M-5.26 699.41 C-1.44 700.44, 3.18 699.09, 5.32 700.48 M-6.88 699.33 C-2.26 699.55, 0.83 698.76, 6.01 699.07 M5.57 700.46 C5.96 702.63, 2.88 707.53, 0.21 714.39 M5.98 700.07 C4.04 703.81, 2.94 707.01, -0.41 713.54 M0.22 713.05 C0.22 713.05, 0.22 713.05, 0.22 713.05 M0.22 713.05 C0.22 713.05, 0.22 713.05, 0.22 713.05" stroke="#000000" stroke-width="4" fill="none"></path></g></g><mask></mask><g stroke-linecap="round"><g transform="translate(10.162547110021023 361.14441393918196) rotate(0 400.96445581203693 0.8869805669232278)"><path d="M-0.14 -0.61 C277.49 3.04, 554.94 2.79, 801.08 1.57 M-0.16 0.09 C163.65 -0.26, 327.49 -0.6, 802.09 1.13" stroke="#000000" stroke-width="4" fill="none"></path></g><g transform="translate(10.162547110021023 361.14441393918196) rotate(0 400.96445581203693 0.8869805669232278)"><path d="M0.01 -1.1 L13.61 -6.09 L12.97 5.95 L1.31 -2.46" stroke="none" stroke-width="0" fill="#000000" fill-rule="evenodd"></path><path d="M-0.4 -1.74 C4.2 -1.24, 8.46 -4.72, 12.06 -6.36 M-0.44 -0.44 C2.81 -1.19, 6.07 -3.6, 13.96 -7.19 M12.9 -6.89 C14.62 -3.03, 12.4 1.85, 14.36 6.01 M13.17 -7.2 C14.06 -3.42, 13.95 -0.21, 13.33 6.24 M12.25 4.79 C10.79 4.06, 7.28 4.28, -0.88 -0.52 M14.06 6.17 C8.45 2.72, 4.02 0.74, 0.32 -0.53 M-0.14 -0.61 C-0.14 -0.61, -0.14 -0.61, -0.14 -0.61 M-0.14 -0.61 C-0.14 -0.61, -0.14 -0.61, -0.14 -0.61" stroke="#000000" stroke-width="4" fill="none"></path></g><g transform="translate(10.162547110021023 361.14441393918196) rotate(0 400.96445581203693 0.8869805669232278)"><path d="M802.24 0.63 L788.6 8.21 L788.06 -5.11 L803.54 -0.72" stroke="none" stroke-width="0" fill="#000000" fill-rule="evenodd"></path><path d="M801.83 -0.01 C796.96 4.69, 791.79 5.57, 787.05 7.94 M801.79 1.29 C799.43 3.18, 797.13 3.34, 788.95 7.12 M787.89 7.41 C789.59 3.12, 787.4 -0.15, 789.45 -5.05 M788.16 7.1 C789.08 3.95, 789 0.23, 788.42 -4.82 M787.34 -6.27 C791.42 -4.2, 793.42 -1.37, 801.35 1.22 M789.16 -4.88 C793.7 -3.38, 799.36 -0.62, 802.55 1.2 M802.09 1.13 C802.09 1.13, 802.09 1.13, 802.09 1.13 M802.09 1.13 C802.09 1.13, 802.09 1.13, 802.09 1.13" stroke="#000000" stroke-width="4" fill="none"></path></g></g><mask></mask><g transform="translate(34.37132343339272 368.6590319074098) rotate(0 59.41438293457031 17.464423547330767)"><text x="0" y="0" font-family="Virgil, Segoe UI Emoji" font-size="27.943077675729228px" fill="#000000" text-anchor="start" style="white-space: pre;" direction="ltr" dominant-baseline="text-before-edge">longitude</text></g><g transform="translate(371.8808758548762 626.9293584210386) rotate(89.99999999999994 55.363075256347656 17.464423547330767)"><text x="0" y="0" font-family="Virgil, Segoe UI Emoji" font-size="27.943077675729228px" fill="#000000" text-anchor="start" style="white-space: pre;" direction="ltr" dominant-baseline="text-before-edge">latitude</text></g></svg>